  0
SECTION
  2
HEADER
  9
$ACADVER
  1
AC1014
  9
$HANDSEED
  5
FFFF
  9
$INSUNITS
 70
     4
  9
$MEASUREMENT
 70
     1
  0
ENDSEC
  0
SECTION
  2
TABLES
  0
TABLE
  2
VPORT
  5
8
330
0
100
AcDbSymbolTable
 70
     4
  0
VPORT
  5
2E
330
8
100
AcDbSymbolTableRecord
100
AcDbViewportTableRecord
  2
*ACTIVE
 70
     0
 10
0.0
 20
0.0
 11
1.0
 21
1.0
 12
210.0
 22
148.5
 13
0.0
 23
0.0
 14
10.0
 24
10.0
 15
10.0
 25
10.0
 16
0.0
 26
0.0
 36
1.0
 17
0.0
 27
0.0
 37
0.0
 40
341.0
 41
1.24
 42
50.0
 43
0.0
 44
0.0
 50
0.0
 51
0.0
 71
     0
 72
   100
 73
     1
 74
     3
 75
     0
 76
     0
 77
     0
 78
     0
  0
ENDTAB
  0
TABLE
  2
LTYPE
  5
5
330
0
100
AcDbSymbolTable
 70
     1
  0
LTYPE
  5
14
330
5
100
AcDbSymbolTableRecord
100
AcDbLinetypeTableRecord
  2
BYBLOCK
 70
     0
  3

 72
    65
 73
     0
 40
0.0
  0
LTYPE
  5
15
330
5
100
AcDbSymbolTableRecord
100
AcDbLinetypeTableRecord
  2
BYLAYER
 70
     0
  3

 72
    65
 73
     0
 40
0.0
  0
LTYPE
  5
16
330
5
100
AcDbSymbolTableRecord
100
AcDbLinetypeTableRecord
  2
CONTINUOUS
 70
     0
  3
Solid line
 72
    65
 73
     0
 40
0.0
  0
ENDTAB
  0
TABLE
  2
LAYER
  5
2
100
AcDbSymbolTable
 70
2
  0
LAYER
  5
50
100
AcDbSymbolTableRecord
100
AcDbLayerTableRecord
  2
0
 70
0
  6
CONTINUOUS
  0
LAYER
  5
51
100
AcDbSymbolTableRecord
100
AcDbLayerTableRecord
  2
Layer_1
 70
0
  6
CONTINUOUS
  0
ENDTAB
  0
TABLE
  2
STYLE
  5
3
330
0
100
AcDbSymbolTable
 70
     1
  0
STYLE
  5
11
330
3
100
AcDbSymbolTableRecord
100
AcDbTextStyleTableRecord
  2
STANDARD
 70
     0
 40
0.0
 41
1.0
 50
0.0
 71
     0
 42
2.5
  3
txt
  4

  0
ENDTAB
  0
TABLE
  2
VIEW
  5
6
330
0
100
AcDbSymbolTable
 70
     0
  0
ENDTAB
  0
TABLE
  2
UCS
  5
7
330
0
100
AcDbSymbolTable
 70
     0
  0
ENDTAB
  0
TABLE
  2
APPID
  5
9
330
0
100
AcDbSymbolTable
 70
     2
  0
APPID
  5
12
330
9
100
AcDbSymbolTableRecord
100
AcDbRegAppTableRecord
  2
ACAD
 70
     0
  0
ENDTAB
  0
TABLE
  2
DIMSTYLE
  5
A
330
0
100
AcDbSymbolTable
 70
     1
  0
DIMSTYLE
105
27
330
A
100
AcDbSymbolTableRecord
100
AcDbDimStyleTableRecord
  2
ISO-25
 70
     0
  3

  4

  5

  6

  7

 40
1.0
 41
2.5
 42
0.625
 43
3.75
 44
1.25
 45
0.0
 46
0.0
 47
0.0
 48
0.0
140
2.5
141
2.5
142
0.0
143
0.03937007874016
144
1.0
145
0.0
146
1.0
147
0.625
 71
     0
 72
     0
 73
     0
 74
     0
 75
     0
 76
     0
 77
     1
 78
     8
170
     0
171
     3
172
     1
173
     0
174
     0
175
     0
176
     0
177
     0
178
     0
270
     2
271
     2
272
     2
273
     2
274
     3
340
11
275
     0
280
     0
281
     0
282
     0
283
     0
284
     8
285
     0
286
     0
287
     3
288
     0
  0
ENDTAB
  0
TABLE
  2
BLOCK_RECORD
  5
1
330
0
100
AcDbSymbolTable
 70
     1
  0
BLOCK_RECORD
  5
1F
330
1
100
AcDbSymbolTableRecord
100
AcDbBlockTableRecord
  2
*MODEL_SPACE
  0
BLOCK_RECORD
  5
1B
330
1
100
AcDbSymbolTableRecord
100
AcDbBlockTableRecord
  2
*PAPER_SPACE
  0
ENDTAB
  0
ENDSEC
  0
SECTION
  2
BLOCKS
  0
BLOCK
  5
20
330
1F
100
AcDbEntity
  8
0
100
AcDbBlockBegin
  2
*MODEL_SPACE
 70
     0
 10
0.0
 20
0.0
 30
0.0
  3
*MODEL_SPACE
  1

  0
ENDBLK
  5
21
330
1F
100
AcDbEntity
  8
0
100
AcDbBlockEnd
  0
BLOCK
  5
1C
330
1B
100
AcDbEntity
 67
     1
  8
0
100
AcDbBlockBegin
  2
*PAPER_SPACE
  1

  0
ENDBLK
  5
1D
330
1B
100
AcDbEntity
 67
     1
  8
0
100
AcDbBlockEnd
  0
ENDSEC
  0
SECTION
  2
ENTITIES
  0
SPLINE
  5
100
100
AcDbEntity
  8
Layer_1
 62
7
100
AcDbSpline
 70
8
 71
3
 72
8
 73
4
 74
0
 40
0
 40
0
 40
0
 40
0
 40
1
 40
1
 40
1
 40
1
 10
30.382154
 20
53.560784
 30
0.0
 10
26.098809
 20
53.559645
 30
0.0
 10
22.470789
 20
50.403264
 30
0.0
 10
21.876982
 20
46.161279
 30
0.0
  0
SPLINE
  5
101
100
AcDbEntity
  8
Layer_1
 62
7
100
AcDbSpline
 70
8
 71
3
 72
8
 73
4
 74
0
 40
0
 40
0
 40
0
 40
0
 40
1
 40
1
 40
1
 40
1
 10
21.876982
 20
46.161279
 30
0.0
 10
16.878423
 20
45.349818
 30
0.0
 10
12.352921
 20
42.493927
 30
0.0
 10
8.381010
 20
37.626759
 30
0.0
  0
SPLINE
  5
102
100
AcDbEntity
  8
Layer_1
 62
7
100
AcDbSpline
 70
8
 71
3
 72
8
 73
4
 74
0
 40
0
 40
0
 40
0
 40
0
 40
1
 40
1
 40
1
 40
1
 10
7.708735
 20
37.126626
 30
0.0
 10
7.471937
 20
37.298160
 30
0.0
 10
7.120906
 20
37.419081
 30
0.0
 10
6.785049
 20
37.444777
 30
0.0
  0
LWPOLYLINE
  5
103
100
AcDbEntity
  8
Layer_1
 62
7
100
AcDbPolyline
 90
3
 70
0
 10
8.381010
 20
37.626759
 30
0.0
 10
7.874969
 20
37.006557
 30
0.0
 10
7.708735
 20
37.126626
 30
0.0
  0
SPLINE
  5
104
100
AcDbEntity
  8
Layer_1
 62
7
100
AcDbSpline
 70
8
 71
3
 72
8
 73
4
 74
0
 40
0
 40
0
 40
0
 40
0
 40
1
 40
1
 40
1
 40
1
 10
6.236421
 20
37.400760
 30
0.0
 10
5.650502
 20
37.250482
 30
0.0
 10
5.412544
 20
37.054802
 30
0.0
 10
4.639207
 20
36.088061
 30
0.0
  0
SPLINE
  5
105
100
AcDbEntity
  8
Layer_1
 62
7
100
AcDbSpline
 70
8
 71
3
 72
8
 73
4
 74
0
 40
0
 40
0
 40
0
 40
0
 40
1
 40
1
 40
1
 40
1
 10
4.639207
 20
36.088061
 30
0.0
 10
1.913801
 20
32.681034
 30
0.0
 10
0.518759
 20
29.254588
 30
0.0
 10
0.396373
 20
25.667341
 30
0.0
  0
LWPOLYLINE
  5
106
100
AcDbEntity
  8
Layer_1
 62
7
100
AcDbPolyline
 90
3
 70
0
 10
6.785049
 20
37.444777
 30
0.0
 10
6.494988
 20
37.467146
 30
0.0
 10
6.236421
 20
37.400760
 30
0.0
  0
SPLINE
  5
107
100
AcDbEntity
  8
Layer_1
 62
7
100
AcDbSpline
 70
8
 71
3
 72
8
 73
4
 74
0
 40
0
 40
0
 40
0
 40
0
 40
1
 40
1
 40
1
 40
1
 10
0.421424
 20
24.278948
 30
0.0
 10
0.537691
 20
22.801287
 30
0.0
 10
0.894683
 20
21.297956
 30
0.0
 10
1.416685
 20
20.088009
 30
0.0
  0
SPLINE
  5
108
100
AcDbEntity
  8
Layer_1
 62
7
100
AcDbSpline
 70
8
 71
3
 72
8
 73
4
 74
0
 40
0
 40
0
 40
0
 40
0
 40
1
 40
1
 40
1
 40
1
 10
1.416685
 20
20.088009
 30
0.0
 10
1.620867
 20
19.614684
 30
0.0
 10
1.625333
 20
19.713834
 30
0.0
 10
1.373382
 20
19.119768
 30
0.0
  0
SPLINE
  5
109
100
AcDbEntity
  8
Layer_1
 62
7
100
AcDbSpline
 70
8
 71
3
 72
8
 73
4
 74
0
 40
0
 40
0
 40
0
 40
0
 40
1
 40
1
 40
1
 40
1
 10
1.373382
 20
19.119768
 30
0.0
 10
0.702457
 20
17.537696
 30
0.0
 10
0.235214
 20
15.678914
 30
0.0
 10
0.065871
 20
13.919071
 30
0.0
  0
LWPOLYLINE
  5
10a
100
AcDbEntity
  8
Layer_1
 62
7
100
AcDbPolyline
 90
3
 70
0
 10
0.396373
 20
25.667341
 30
0.0
 10
0.370784
 20
24.921343
 30
0.0
 10
0.421424
 20
24.278948
 30
0.0
  0
SPLINE
  5
10b
100
AcDbEntity
  8
Layer_1
 62
7
100
AcDbSpline
 70
8
 71
3
 72
8
 73
4
 74
0
 40
0
 40
0
 40
0
 40
0
 40
1
 40
1
 40
1
 40
1
 10
0.023284
 20
12.199285
 30
0.0
 10
0.117292
 20
8.033537
 30
0.0
 10
2.238341
 20
3.291643
 30
0.0
 10
4.127081
 20
3.024160
 30
0.0
  0
LWPOLYLINE
  5
10c
100
AcDbEntity
  8
Layer_1
 62
7
100
AcDbPolyline
 90
3
 70
0
 10
0.065871
 20
13.919071
 30
0.0
 10
0.000021
 20
13.235342
 30
0.0
 10
0.023284
 20
12.199285
 30
0.0
  0
SPLINE
  5
10d
100
AcDbEntity
  8
Layer_1
 62
7
100
AcDbSpline
 70
8
 71
3
 72
8
 73
4
 74
0
 40
0
 40
0
 40
0
 40
0
 40
1
 40
1
 40
1
 40
1
 10
4.640459
 20
3.020403
 30
0.0
 10
5.600714
 20
3.161491
 30
0.0
 10
6.267019
 20
3.938044
 30
0.0
 10
6.267019
 20
4.916268
 30
0.0
  0
SPLINE
  5
10e
100
AcDbEntity
  8
Layer_1
 62
7
100
AcDbSpline
 70
8
 71
3
 72
8
 73
4
 74
0
 40
0
 40
0
 40
0
 40
0
 40
1
 40
1
 40
1
 40
1
 10
6.267019
 20
4.916268
 30
0.0
 10
6.267019
 20
5.747718
 30
0.0
 10
6.516943
 20
6.953385
 30
0.0
 10
6.850719
 20
7.732058
 30
0.0
  0
SPLINE
  5
10f
100
AcDbEntity
  8
Layer_1
 62
7
100
AcDbSpline
 70
8
 71
3
 72
8
 73
4
 74
0
 40
0
 40
0
 40
0
 40
0
 40
1
 40
1
 40
1
 40
1
 10
6.850719
 20
7.732058
 30
0.0
 10
6.949974
 20
7.963601
 30
0.0
 10
6.927758
 20
7.988280
 30
0.0
 10
7.138812
 20
7.413009
 30
0.0
  0
SPLINE
  5
110
100
AcDbEntity
  8
Layer_1
 62
7
100
AcDbSpline
 70
8
 71
3
 72
8
 73
4
 74
0
 40
0
 40
0
 40
0
 40
0
 40
1
 40
1
 40
1
 40
1
 10
7.138812
 20
7.413009
 30
0.0
 10
8.649966
 20
3.293952
 30
0.0
 10
11.865024
 20
0.406204
 30
0.0
 10
15.344439
 20
0.042850
 30
0.0
  0
LWPOLYLINE
  5
111
100
AcDbEntity
  8
Layer_1
 62
7
100
AcDbPolyline
 90
3
 70
0
 10
4.127081
 20
3.024160
 30
0.0
 10
4.401932
 20
2.985153
 30
0.0
 10
4.640459
 20
3.020403
 30
0.0
  0
SPLINE
  5
112
100
AcDbEntity
  8
Layer_1
 62
7
100
AcDbSpline
 70
8
 71
3
 72
8
 73
4
 74
0
 40
0
 40
0
 40
0
 40
0
 40
1
 40
1
 40
1
 40
1
 10
15.344439
 20
0.043196
 30
0.0
 10
16.908326
 20
-0.120121
 30
0.0
 10
18.180613
 20
0.156454
 30
0.0
 10
21.122931
 20
1.299710
 30
0.0
  0
SPLINE
  5
113
100
AcDbEntity
  8
Layer_1
 62
7
100
AcDbSpline
 70
8
 71
3
 72
8
 73
4
 74
0
 40
0
 40
0
 40
0
 40
0
 40
1
 40
1
 40
1
 40
1
 10
21.122931
 20
1.299710
 30
0.0
 10
23.241148
 20
2.122753
 30
0.0
 10
24.308601
 20
2.455469
 30
0.0
 10
25.453445
 20
2.649805
 30
0.0
  0
LWPOLYLINE
  5
114
100
AcDbEntity
  8
Layer_1
 62
7
100
AcDbPolyline
 90
2
 70
0
 10
15.344439
 20
0.042850
 30
0.0
 10
15.344439
 20
0.043196
 30
0.0
  0
SPLINE
  5
115
100
AcDbEntity
  8
Layer_1
 62
7
100
AcDbSpline
 70
8
 71
3
 72
8
 73
4
 74
0
 40
0
 40
0
 40
0
 40
0
 40
1
 40
1
 40
1
 40
1
 10
28.217165
 20
2.733360
 30
0.0
 10
30.084432
 20
2.558242
 30
0.0
 10
31.963936
 20
1.969615
 30
0.0
 10
33.537929
 20
1.067256
 30
0.0
  0
LWPOLYLINE
  5
116
100
AcDbEntity
  8
Layer_1
 62
7
100
AcDbPolyline
 90
5
 70
0
 10
25.453445
 20
2.649805
 30
0.0
 10
25.971296
 20
2.737844
 30
0.0
 10
26.828774
 20
2.760386
 30
0.0
 10
27.686252
 20
2.782929
 30
0.0
 10
28.217165
 20
2.733360
 30
0.0
  0
SPLINE
  5
117
100
AcDbEntity
  8
Layer_1
 62
7
100
AcDbSpline
 70
8
 71
3
 72
8
 73
4
 74
0
 40
0
 40
0
 40
0
 40
0
 40
1
 40
1
 40
1
 40
1
 10
34.834883
 20
0.779520
 30
0.0
 10
35.589535
 20
0.902785
 30
0.0
 10
36.182877
 20
1.422448
 30
0.0
 10
36.373765
 20
2.127653
 30
0.0
  0
LWPOLYLINE
  5
118
100
AcDbEntity
  8
Layer_1
 62
7
100
AcDbPolyline
 90
5
 70
0
 10
33.537929
 20
1.067256
 30
0.0
 10
33.893842
 20
0.863265
 30
0.0
 10
34.217364
 20
0.797235
 30
0.0
 10
34.540530
 20
0.731385
 30
0.0
 10
34.834883
 20
0.779520
 30
0.0
  0
SPLINE
  5
119
100
AcDbEntity
  8
Layer_1
 62
7
100
AcDbSpline
 70
8
 71
3
 72
8
 73
4
 74
0
 40
0
 40
0
 40
0
 40
0
 40
1
 40
1
 40
1
 40
1
 10
36.296128
 20
3.346229
 30
0.0
 10
35.619594
 20
5.005456
 30
0.0
 10
33.929601
 20
6.577431
 30
0.0
 10
31.323580
 20
7.971815
 30
0.0
  0
SPLINE
  5
11a
100
AcDbEntity
  8
Layer_1
 62
7
100
AcDbSpline
 70
8
 71
3
 72
8
 73
4
 74
0
 40
0
 40
0
 40
0
 40
0
 40
1
 40
1
 40
1
 40
1
 10
31.323580
 20
7.971815
 30
0.0
 10
31.121972
 20
8.079681
 30
0.0
 10
30.972716
 20
8.182651
 30
0.0
 10
30.992003
 20
8.200858
 30
0.0
  0
SPLINE
  5
11b
100
AcDbEntity
  8
Layer_1
 62
7
100
AcDbSpline
 70
8
 71
3
 72
8
 73
4
 74
0
 40
0
 40
0
 40
0
 40
0
 40
1
 40
1
 40
1
 40
1
 10
30.992003
 20
8.200858
 30
0.0
 10
31.054699
 20
8.260135
 30
0.0
 10
32.091996
 20
8.800454
 30
0.0
 10
32.601922
 20
9.039365
 30
0.0
  0
SPLINE
  5
11c
100
AcDbEntity
  8
Layer_1
 62
7
100
AcDbSpline
 70
8
 71
3
 72
8
 73
4
 74
0
 40
0
 40
0
 40
0
 40
0
 40
1
 40
1
 40
1
 40
1
 10
32.601922
 20
9.039365
 30
0.0
 10
35.894483
 20
10.582014
 30
0.0
 10
39.801298
 20
11.428923
 30
0.0
 10
44.605541
 20
11.641684
 30
0.0
  0
LWPOLYLINE
  5
11d
100
AcDbEntity
  8
Layer_1
 62
7
100
AcDbPolyline
 90
5
 70
0
 10
36.373765
 20
2.127653
 30
0.0
 10
36.446949
 20
2.397133
 30
0.0
 10
36.425134
 20
2.739981
 30
0.0
 10
36.403492
 20
3.082829
 30
0.0
 10
36.296128
 20
3.346229
 30
0.0
  0
SPLINE
  5
11e
100
AcDbEntity
  8
Layer_1
 62
7
100
AcDbSpline
 70
8
 71
3
 72
8
 73
4
 74
0
 40
0
 40
0
 40
0
 40
0
 40
1
 40
1
 40
1
 40
1
 10
46.594632
 20
11.641684
 30
0.0
 10
48.388873
 20
11.557877
 30
0.0
 10
49.944002
 20
11.325658
 30
0.0
 10
51.083864
 20
10.971020
 30
0.0
  0
SPLINE
  5
11f
100
AcDbEntity
  8
Layer_1
 62
7
100
AcDbSpline
 70
8
 71
3
 72
8
 73
4
 74
0
 40
0
 40
0
 40
0
 40
0
 40
1
 40
1
 40
1
 40
1
 10
51.083864
 20
10.971020
 30
0.0
 10
51.770903
 20
10.757240
 30
0.0
 10
52.205789
 20
10.766320
 30
0.0
 10
52.713465
 20
11.005370
 30
0.0
  0
LWPOLYLINE
  5
120
100
AcDbEntity
  8
Layer_1
 62
7
100
AcDbPolyline
 90
3
 70
0
 10
44.605541
 20
11.641684
 30
0.0
 10
45.627641
 20
11.686955
 30
0.0
 10
46.594632
 20
11.641684
 30
0.0
  0
SPLINE
  5
121
100
AcDbEntity
  8
Layer_1
 62
7
100
AcDbSpline
 70
8
 71
3
 72
8
 73
4
 74
0
 40
0
 40
0
 40
0
 40
0
 40
1
 40
1
 40
1
 40
1
 10
53.562534
 20
11.854259
 30
0.0
 10
53.623307
 20
11.983341
 30
0.0
 10
53.695276
 20
12.219566
 30
0.0
 10
53.722683
 20
12.379268
 30
0.0
  0
LWPOLYLINE
  5
122
100
AcDbEntity
  8
Layer_1
 62
7
100
AcDbPolyline
 90
5
 70
0
 10
52.713465
 20
11.005370
 30
0.0
 10
52.948592
 20
11.116134
 30
0.0
 10
53.200360
 20
11.367723
 30
0.0
 10
53.451949
 20
11.619492
 30
0.0
 10
53.562534
 20
11.854259
 30
0.0
  0
SPLINE
  5
123
100
AcDbEntity
  8
Layer_1
 62
7
100
AcDbSpline
 70
8
 71
3
 72
8
 73
4
 74
0
 40
0
 40
0
 40
0
 40
0
 40
1
 40
1
 40
1
 40
1
 10
53.728410
 20
12.954380
 30
0.0
 10
53.669520
 20
13.334829
 30
0.0
 10
53.507248
 20
13.663584
 30
0.0
 10
53.231137
 20
13.961808
 30
0.0
  0
LWPOLYLINE
  5
124
100
AcDbEntity
  8
Layer_1
 62
7
100
AcDbPolyline
 90
3
 70
0
 10
53.722683
 20
12.379268
 30
0.0
 10
53.772428
 20
12.669688
 30
0.0
 10
53.728410
 20
12.954380
 30
0.0
  0
SPLINE
  5
125
100
AcDbEntity
  8
Layer_1
 62
7
100
AcDbSpline
 70
8
 71
3
 72
8
 73
4
 74
0
 40
0
 40
0
 40
0
 40
0
 40
1
 40
1
 40
1
 40
1
 10
52.396026
 20
14.514733
 30
0.0
 10
51.731158
 20
14.850826
 30
0.0
 10
50.659134
 20
15.343276
 30
0.0
 10
49.765618
 20
15.722752
 30
0.0
  0
LWPOLYLINE
  5
126
100
AcDbEntity
  8
Layer_1
 62
7
100
AcDbPolyline
 90
3
 70
0
 10
53.231137
 20
13.961808
 30
0.0
 10
53.003527
 20
14.207673
 30
0.0
 10
52.396026
 20
14.514733
 30
0.0
  0
SPLINE
  5
127
100
AcDbEntity
  8
Layer_1
 62
7
100
AcDbSpline
 70
8
 71
3
 72
8
 73
4
 74
0
 40
0
 40
0
 40
0
 40
0
 40
1
 40
1
 40
1
 40
1
 10
49.213232
 20
16.030349
 30
0.0
 10
49.224382
 20
16.065835
 30
0.0
 10
49.284716
 20
16.215929
 30
0.0
 10
49.347256
 20
16.364073
 30
0.0
  0
LWPOLYLINE
  5
128
100
AcDbEntity
  8
Layer_1
 62
7
100
AcDbPolyline
 90
3
 70
0
 10
49.765618
 20
15.722752
 30
0.0
 10
49.193010
 20
15.965753
 30
0.0
 10
49.213232
 20
16.030349
 30
0.0
  0
SPLINE
  5
129
100
AcDbEntity
  8
Layer_1
 62
7
100
AcDbSpline
 70
8
 71
3
 72
8
 73
4
 74
0
 40
0
 40
0
 40
0
 40
0
 40
1
 40
1
 40
1
 40
1
 10
49.427607
 20
17.549189
 30
0.0
 10
49.185326
 20
18.388597
 30
0.0
 10
48.665061
 20
18.780747
 30
0.0
 10
47.539974
 20
18.972116
 30
0.0
  0
SPLINE
  5
12a
100
AcDbEntity
  8
Layer_1
 62
7
100
AcDbSpline
 70
8
 71
3
 72
8
 73
4
 74
0
 40
0
 40
0
 40
0
 40
0
 40
1
 40
1
 40
1
 40
1
 10
47.539974
 20
18.972116
 30
0.0
 10
47.034629
 20
19.058063
 30
0.0
 10
46.509412
 20
19.208791
 30
0.0
 10
46.132259
 20
19.376340
 30
0.0
  0
LWPOLYLINE
  5
12b
100
AcDbEntity
  8
Layer_1
 62
7
100
AcDbPolyline
 90
5
 70
0
 10
49.347256
 20
16.364073
 30
0.0
 10
49.461064
 20
16.633554
 30
0.0
 10
49.479485
 20
16.968887
 30
0.0
 10
49.498288
 20
17.304218
 30
0.0
 10
49.427607
 20
17.549189
 30
0.0
  0
SPLINE
  5
12c
100
AcDbEntity
  8
Layer_1
 62
7
100
AcDbSpline
 70
8
 71
3
 72
8
 73
4
 74
0
 40
0
 40
0
 40
0
 40
0
 40
1
 40
1
 40
1
 40
1
 10
45.986781
 20
19.541680
 30
0.0
 10
46.180504
 20
19.691185
 30
0.0
 10
46.846217
 20
19.977809
 30
0.0
 10
47.230053
 20
20.076887
 30
0.0
  0
LWPOLYLINE
  5
12d
100
AcDbEntity
  8
Layer_1
 62
7
100
AcDbPolyline
 90
3
 70
0
 10
46.132259
 20
19.376340
 30
0.0
 10
45.904109
 20
19.477617
 30
0.0
 10
45.986781
 20
19.541680
 30
0.0
  0
SPLINE
  5
12e
100
AcDbEntity
  8
Layer_1
 62
7
100
AcDbSpline
 70
8
 71
3
 72
8
 73
4
 74
0
 40
0
 40
0
 40
0
 40
0
 40
1
 40
1
 40
1
 40
1
 10
49.125917
 20
20.177804
 30
0.0
 10
51.352475
 20
19.875539
 30
0.0
 10
53.137315
 20
18.031677
 30
0.0
 10
53.968555
 20
15.174836
 30
0.0
  0
SPLINE
  5
12f
100
AcDbEntity
  8
Layer_1
 62
7
100
AcDbSpline
 70
8
 71
3
 72
8
 73
4
 74
0
 40
0
 40
0
 40
0
 40
0
 40
1
 40
1
 40
1
 40
1
 10
53.968555
 20
15.174836
 30
0.0
 10
54.257949
 20
14.180224
 30
0.0
 10
54.753889
 20
13.679463
 30
0.0
 10
55.579367
 20
13.548813
 30
0.0
  0
LWPOLYLINE
  5
130
100
AcDbEntity
  8
Layer_1
 62
7
100
AcDbPolyline
 90
5
 70
0
 10
47.230053
 20
20.076887
 30
0.0
 10
47.644474
 20
20.183891
 30
0.0
 10
48.193640
 20
20.206779
 30
0.0
 10
48.742805
 20
20.229876
 30
0.0
 10
49.125917
 20
20.177804
 30
0.0
  0
SPLINE
  5
131
100
AcDbEntity
  8
Layer_1
 62
7
100
AcDbSpline
 70
8
 71
3
 72
8
 73
4
 74
0
 40
0
 40
0
 40
0
 40
0
 40
1
 40
1
 40
1
 40
1
 10
56.114218
 20
13.548813
 30
0.0
 10
56.622004
 20
13.629933
 30
0.0
 10
58.739016
 20
14.488459
 30
0.0
 10
60.055718
 20
15.147280
 30
0.0
  0
SPLINE
  5
132
100
AcDbEntity
  8
Layer_1
 62
7
100
AcDbSpline
 70
8
 71
3
 72
8
 73
4
 74
0
 40
0
 40
0
 40
0
 40
0
 40
1
 40
1
 40
1
 40
1
 10
60.055718
 20
15.147280
 30
0.0
 10
62.661112
 20
16.450907
 30
0.0
 10
64.075444
 20
17.753872
 30
0.0
 10
64.512564
 20
19.253047
 30
0.0
  0
LWPOLYLINE
  5
133
100
AcDbEntity
  8
Layer_1
 62
7
100
AcDbPolyline
 90
3
 70
0
 10
55.579367
 20
13.548813
 30
0.0
 10
55.848134
 20
13.506225
 30
0.0
 10
56.114218
 20
13.548813
 30
0.0
  0
SPLINE
  5
134
100
AcDbEntity
  8
Layer_1
 62
7
100
AcDbSpline
 70
8
 71
3
 72
8
 73
4
 74
0
 40
0
 40
0
 40
0
 40
0
 40
1
 40
1
 40
1
 40
1
 10
64.601479
 20
20.777431
 30
0.0
 10
64.517529
 20
21.236653
 30
0.0
 10
64.319903
 20
21.724296
 30
0.0
 10
64.060544
 20
22.111782
 30
0.0
  0
LWPOLYLINE
  5
135
100
AcDbEntity
  8
Layer_1
 62
7
100
AcDbPolyline
 90
5
 70
0
 10
64.512564
 20
19.253047
 30
0.0
 10
64.618674
 20
19.617187
 30
0.0
 10
64.640143
 20
20.031612
 30
0.0
 10
64.661958
 20
20.445857
 30
0.0
 10
64.601479
 20
20.777431
 30
0.0
  0
SPLINE
  5
136
100
AcDbEntity
  8
Layer_1
 62
7
100
AcDbSpline
 70
8
 71
3
 72
8
 73
4
 74
0
 40
0
 40
0
 40
0
 40
0
 40
1
 40
1
 40
1
 40
1
 10
77.807925
 20
32.013399
 30
0.0
 10
78.243515
 20
31.952189
 30
0.0
 10
78.888856
 20
31.871072
 30
0.0
 10
79.242127
 20
31.832848
 30
0.0
  0
LWPOLYLINE
  5
137
100
AcDbEntity
  8
Layer_1
 62
7
100
AcDbPolyline
 90
5
 70
0
 10
64.060544
 20
22.111782
 30
0.0
 10
63.840985
 20
22.439598
 30
0.0
 10
70.428462
 20
27.282239
 30
0.0
 10
77.015939
 20
32.124697
 30
0.0
 10
77.807925
 20
32.013399
 30
0.0
  0
SPLINE
  5
138
100
AcDbEntity
  8
Layer_1
 62
7
100
AcDbSpline
 70
8
 71
3
 72
8
 73
4
 74
0
 40
0
 40
0
 40
0
 40
0
 40
1
 40
1
 40
1
 40
1
 10
83.137459
 20
31.834531
 30
0.0
 10
84.526576
 20
32.031312
 30
0.0
 10
85.627268
 20
32.405120
 30
0.0
 10
86.514943
 20
32.981353
 30
0.0
  0
LWPOLYLINE
  5
139
100
AcDbEntity
  8
Layer_1
 62
7
100
AcDbPolyline
 90
5
 70
0
 10
79.242127
 20
31.832848
 30
0.0
 10
79.884341
 20
31.763241
 30
0.0
 10
81.251972
 20
31.762202
 30
0.0
 10
82.619607
 20
31.761163
 30
0.0
 10
83.137459
 20
31.834531
 30
0.0
  0
SPLINE
  5
13a
100
AcDbEntity
  8
Layer_1
 62
7
100
AcDbSpline
 70
8
 71
3
 72
8
 73
4
 74
0
 40
0
 40
0
 40
0
 40
0
 40
1
 40
1
 40
1
 40
1
 10
88.002109
 20
34.505380
 30
0.0
 10
88.250135
 20
34.922360
 30
0.0
 10
88.467671
 20
35.488531
 30
0.0
 10
88.570600
 20
35.985209
 30
0.0
  0
LWPOLYLINE
  5
13b
100
AcDbEntity
  8
Layer_1
 62
7
100
AcDbPolyline
 90
5
 70
0
 10
86.514943
 20
32.981353
 30
0.0
 10
86.846516
 20
33.196438
 30
0.0
 10
87.323031
 20
33.680650
 30
0.0
 10
87.799549
 20
34.164679
 30
0.0
 10
88.002109
 20
34.505380
 30
0.0
  0
SPLINE
  5
13c
100
AcDbEntity
  8
Layer_1
 62
7
100
AcDbSpline
 70
8
 71
3
 72
8
 73
4
 74
0
 40
0
 40
0
 40
0
 40
0
 40
1
 40
1
 40
1
 40
1
 10
88.589222
 20
37.752417
 30
0.0
 10
88.518199
 20
38.087501
 30
0.0
 10
88.403234
 20
38.324723
 30
0.0
 10
88.184281
 20
38.587884
 30
0.0
  0
SPLINE
  5
13d
100
AcDbEntity
  8
Layer_1
 62
7
100
AcDbSpline
 70
8
 71
3
 72
8
 73
4
 74
0
 40
0
 40
0
 40
0
 40
0
 40
1
 40
1
 40
1
 40
1
 10
88.184281
 20
38.587884
 30
0.0
 10
88.093109
 20
38.697471
 30
0.0
 10
88.025081
 20
38.793869
 30
0.0
 10
88.033256
 20
38.801896
 30
0.0
  0
SPLINE
  5
13e
100
AcDbEntity
  8
Layer_1
 62
7
100
AcDbSpline
 70
8
 71
3
 72
8
 73
4
 74
0
 40
0
 40
0
 40
0
 40
0
 40
1
 40
1
 40
1
 40
1
 10
88.033256
 20
38.801896
 30
0.0
 10
88.576746
 20
39.336452
 30
0.0
 10
91.527228
 20
40.543078
 30
0.0
 10
93.207290
 20
40.917856
 30
0.0
  0
SPLINE
  5
13f
100
AcDbEntity
  8
Layer_1
 62
7
100
AcDbSpline
 70
8
 71
3
 72
8
 73
4
 74
0
 40
0
 40
0
 40
0
 40
0
 40
1
 40
1
 40
1
 40
1
 10
93.207290
 20
40.917856
 30
0.0
 10
94.210799
 20
41.141708
 30
0.0
 10
94.703830
 20
41.544038
 30
0.0
 10
94.928691
 20
42.323067
 30
0.0
  0
LWPOLYLINE
  5
140
100
AcDbEntity
  8
Layer_1
 62
7
100
AcDbPolyline
 90
5
 70
0
 10
88.570600
 20
35.985209
 30
0.0
 10
88.647901
 20
36.358120
 30
0.0
 10
88.647901
 20
36.917663
 30
0.0
 10
88.647554
 20
37.477029
 30
0.0
 10
88.589222
 20
37.752417
 30
0.0
  0
SPLINE
  5
141
100
AcDbEntity
  8
Layer_1
 62
7
100
AcDbSpline
 70
8
 71
3
 72
8
 73
4
 74
0
 40
0
 40
0
 40
0
 40
0
 40
1
 40
1
 40
1
 40
1
 10
94.866774
 20
43.504783
 30
0.0
 10
94.320403
 20
44.871939
 30
0.0
 10
91.688717
 20
46.158298
 30
0.0
 10
89.096333
 20
46.325407
 30
0.0
  0
LWPOLYLINE
  5
142
100
AcDbEntity
  8
Layer_1
 62
7
100
AcDbPolyline
 90
5
 70
0
 10
94.928691
 20
42.323067
 30
0.0
 10
94.999908
 20
42.569465
 30
0.0
 10
94.978612
 20
42.924124
 30
0.0
 10
94.957317
 20
43.278783
 30
0.0
 10
94.866774
 20
43.504783
 30
0.0
  0
SPLINE
  5
143
100
AcDbEntity
  8
Layer_1
 62
7
100
AcDbSpline
 70
8
 71
3
 72
8
 73
4
 74
0
 40
0
 40
0
 40
0
 40
0
 40
1
 40
1
 40
1
 40
1
 10
87.758045
 20
46.323260
 30
0.0
 10
85.164383
 20
46.164845
 30
0.0
 10
82.048620
 20
45.207668
 30
0.0
 10
79.159289
 20
43.681574
 30
0.0
  0
LWPOLYLINE
  5
144
100
AcDbEntity
  8
Layer_1
 62
7
100
AcDbPolyline
 90
3
 70
0
 10
89.096333
 20
46.325407
 30
0.0
 10
88.462349
 20
46.366384
 30
0.0
 10
87.758045
 20
46.323260
 30
0.0
  0
SPLINE
  5
145
100
AcDbEntity
  8
Layer_1
 62
7
100
AcDbSpline
 70
8
 71
3
 72
8
 73
4
 74
0
 40
0
 40
0
 40
0
 40
0
 40
1
 40
1
 40
1
 40
1
 10
77.688227
 20
43.376116
 30
0.0
 10
74.252082
 20
43.423347
 30
0.0
 10
70.373135
 20
42.323036
 30
0.0
 10
66.691143
 20
40.256485
 30
0.0
  0
SPLINE
  5
146
100
AcDbEntity
  8
Layer_1
 62
7
100
AcDbSpline
 70
8
 71
3
 72
8
 73
4
 74
0
 40
0
 40
0
 40
0
 40
0
 40
1
 40
1
 40
1
 40
1
 10
66.691143
 20
40.256485
 30
0.0
 10
66.175964
 20
39.967330
 30
0.0
 10
66.221841
 20
39.953780
 30
0.0
 10
66.109411
 20
40.429699
 30
0.0
  0
SPLINE
  5
147
100
AcDbEntity
  8
Layer_1
 62
7
100
AcDbSpline
 70
8
 71
3
 72
8
 73
4
 74
0
 40
0
 40
0
 40
0
 40
0
 40
1
 40
1
 40
1
 40
1
 10
66.109411
 20
40.429699
 30
0.0
 10
65.843996
 20
41.553221
 30
0.0
 10
65.468716
 20
42.484792
 30
0.0
 10
65.142243
 20
42.829991
 30
0.0
  0
LWPOLYLINE
  5
148
100
AcDbEntity
  8
Layer_1
 62
7
100
AcDbPolyline
 90
3
 70
0
 10
79.159289
 20
43.681574
 30
0.0
 10
78.558588
 20
43.364135
 30
0.0
 10
77.688227
 20
43.376116
 30
0.0
  0
SPLINE
  5
149
100
AcDbEntity
  8
Layer_1
 62
7
100
AcDbSpline
 70
8
 71
3
 72
8
 73
4
 74
0
 40
0
 40
0
 40
0
 40
0
 40
1
 40
1
 40
1
 40
1
 10
63.504052
 20
43.383450
 30
0.0
 10
62.893202
 20
43.277270
 30
0.0
 10
62.525655
 20
43.002852
 30
0.0
 10
62.071284
 20
42.313752
 30
0.0
  0
SPLINE
  5
14a
100
AcDbEntity
  8
Layer_1
 62
7
100
AcDbSpline
 70
8
 71
3
 72
8
 73
4
 74
0
 40
0
 40
0
 40
0
 40
0
 40
1
 40
1
 40
1
 40
1
 10
62.071284
 20
42.313752
 30
0.0
 10
61.820537
 20
41.933469
 30
0.0
 10
61.237950
 20
41.185895
 30
0.0
 10
61.192332
 20
41.185895
 30
0.0
  0
SPLINE
  5
14b
100
AcDbEntity
  8
Layer_1
 62
7
100
AcDbSpline
 70
8
 71
3
 72
8
 73
4
 74
0
 40
0
 40
0
 40
0
 40
0
 40
1
 40
1
 40
1
 40
1
 10
61.192332
 20
41.185895
 30
0.0
 10
61.182117
 20
41.185895
 30
0.0
 10
61.038699
 20
41.299472
 30
0.0
 10
60.873643
 20
41.438381
 30
0.0
  0
SPLINE
  5
14c
100
AcDbEntity
  8
Layer_1
 62
7
100
AcDbSpline
 70
8
 71
3
 72
8
 73
4
 74
0
 40
0
 40
0
 40
0
 40
0
 40
1
 40
1
 40
1
 40
1
 10
60.873643
 20
41.438381
 30
0.0
 10
59.770759
 20
42.366565
 30
0.0
 10
58.401650
 20
42.909910
 30
0.0
 10
56.802770
 20
43.053487
 30
0.0
  0
LWPOLYLINE
  5
14d
100
AcDbEntity
  8
Layer_1
 62
7
100
AcDbPolyline
 90
7
 70
0
 10
65.142243
 20
42.829991
 30
0.0
 10
64.933062
 20
43.051340
 30
0.0
 10
64.652127
 20
43.191627
 30
0.0
 10
64.371016
 20
43.332275
 30
0.0
 10
64.076659
 20
43.381840
 30
0.0
 10
63.782303
 20
43.431765
 30
0.0
 10
63.504052
 20
43.383450
 30
0.0
  0
SPLINE
  5
14e
100
AcDbEntity
  8
Layer_1
 62
7
100
AcDbSpline
 70
8
 71
3
 72
8
 73
4
 74
0
 40
0
 40
0
 40
0
 40
0
 40
1
 40
1
 40
1
 40
1
 10
55.766709
 20
43.073719
 30
0.0
 10
54.765635
 20
43.017458
 30
0.0
 10
53.767234
 20
42.836307
 30
0.0
 10
52.868247
 20
42.547276
 30
0.0
  0
LWPOLYLINE
  5
14f
100
AcDbEntity
  8
Layer_1
 62
7
100
AcDbPolyline
 90
3
 70
0
 10
56.802770
 20
43.053487
 30
0.0
 10
56.263982
 20
43.101802
 30
0.0
 10
55.766709
 20
43.073719
 30
0.0
  0
SPLINE
  5
150
100
AcDbEntity
  8
Layer_1
 62
7
100
AcDbSpline
 70
8
 71
3
 72
8
 73
4
 74
0
 40
0
 40
0
 40
0
 40
0
 40
1
 40
1
 40
1
 40
1
 10
51.438343
 20
41.928327
 30
0.0
 10
50.947098
 20
41.682809
 30
0.0
 10
49.873765
 20
41.096721
 30
0.0
 10
49.053259
 20
40.626006
 30
0.0
  0
SPLINE
  5
151
100
AcDbEntity
  8
Layer_1
 62
7
100
AcDbSpline
 70
8
 71
3
 72
8
 73
4
 74
0
 40
0
 40
0
 40
0
 40
0
 40
1
 40
1
 40
1
 40
1
 10
49.053259
 20
40.626006
 30
0.0
 10
46.247982
 20
39.016645
 30
0.0
 10
44.110495
 20
37.930555
 30
0.0
 10
43.988376
 20
38.052677
 30
0.0
  0
SPLINE
  5
152
100
AcDbEntity
  8
Layer_1
 62
7
100
AcDbSpline
 70
8
 71
3
 72
8
 73
4
 74
0
 40
0
 40
0
 40
0
 40
0
 40
1
 40
1
 40
1
 40
1
 10
43.988376
 20
38.052677
 30
0.0
 10
43.817097
 20
38.223959
 30
0.0
 10
46.030040
 20
40.031296
 30
0.0
 10
47.262792
 20
40.726926
 30
0.0
  0
SPLINE
  5
153
100
AcDbEntity
  8
Layer_1
 62
7
100
AcDbSpline
 70
8
 71
3
 72
8
 73
4
 74
0
 40
0
 40
0
 40
0
 40
0
 40
1
 40
1
 40
1
 40
1
 10
47.262792
 20
40.726926
 30
0.0
 10
48.834587
 20
41.613877
 30
0.0
 10
48.445737
 20
43.795244
 30
0.0
 10
46.629165
 20
44.281738
 30
0.0
  0
LWPOLYLINE
  5
154
100
AcDbEntity
  8
Layer_1
 62
7
100
AcDbPolyline
 90
3
 70
0
 10
52.868247
 20
42.547276
 30
0.0
 10
52.331430
 20
42.374779
 30
0.0
 10
51.438343
 20
41.928327
 30
0.0
  0
SPLINE
  5
155
100
AcDbEntity
  8
Layer_1
 62
7
100
AcDbSpline
 70
8
 71
3
 72
8
 73
4
 74
0
 40
0
 40
0
 40
0
 40
0
 40
1
 40
1
 40
1
 40
1
 10
44.329437
 20
44.235552
 30
0.0
 10
42.969604
 20
44.033823
 30
0.0
 10
41.329068
 20
43.677083
 30
0.0
 10
38.729346
 20
43.030751
 30
0.0
  0
SPLINE
  5
156
100
AcDbEntity
  8
Layer_1
 62
7
100
AcDbSpline
 70
8
 71
3
 72
8
 73
4
 74
0
 40
0
 40
0
 40
0
 40
0
 40
1
 40
1
 40
1
 40
1
 10
38.729346
 20
43.030751
 30
0.0
 10
38.883997
 20
43.665894
 30
0.0
 10
38.965645
 20
44.316614
 30
0.0
 10
38.972704
 20
44.970276
 30
0.0
  0
SPLINE
  5
157
100
AcDbEntity
  8
Layer_1
 62
7
100
AcDbSpline
 70
8
 71
3
 72
8
 73
4
 74
0
 40
0
 40
0
 40
0
 40
0
 40
1
 40
1
 40
1
 40
1
 10
38.972704
 20
44.970276
 30
0.0
 10
38.972689
 20
47.248604
 30
0.0
 10
38.067608
 20
49.433611
 30
0.0
 10
36.456570
 20
51.044616
 30
0.0
  0
SPLINE
  5
158
100
AcDbEntity
  8
Layer_1
 62
7
100
AcDbSpline
 70
8
 71
3
 72
8
 73
4
 74
0
 40
0
 40
0
 40
0
 40
0
 40
1
 40
1
 40
1
 40
1
 10
36.456570
 20
51.044616
 30
0.0
 10
34.845532
 20
52.655620
 30
0.0
 10
32.660507
 20
53.560657
 30
0.0
 10
30.382179
 20
53.560625
 30
0.0
  0
LWPOLYLINE
  5
159
100
AcDbEntity
  8
Layer_1
 62
7
100
AcDbPolyline
 90
5
 70
0
 10
46.629165
 20
44.281738
 30
0.0
 10
46.359861
 20
44.353852
 30
0.0
 10
45.717470
 20
44.349904
 30
0.0
 10
45.075255
 20
44.345957
 30
0.0
 10
44.329437
 20
44.235552
 30
0.0
  0
SPLINE
  5
15a
100
AcDbEntity
  8
Layer_1
 62
7
100
AcDbSpline
 70
8
 71
3
 72
8
 73
4
 74
0
 40
0
 40
0
 40
0
 40
0
 40
1
 40
1
 40
1
 40
1
 10
30.382154
 20
49.644693
 30
0.0
 10
31.621850
 20
49.644711
 30
0.0
 10
32.810776
 20
49.152251
 30
0.0
 10
33.687373
 20
48.275654
 30
0.0
  0
SPLINE
  5
15b
100
AcDbEntity
  8
Layer_1
 62
7
100
AcDbSpline
 70
8
 71
3
 72
8
 73
4
 74
0
 40
0
 40
0
 40
0
 40
0
 40
1
 40
1
 40
1
 40
1
 10
33.687373
 20
48.275654
 30
0.0
 10
34.563970
 20
47.399057
 30
0.0
 10
35.056430
 20
46.210131
 30
0.0
 10
35.056412
 20
44.970436
 30
0.0
  0
SPLINE
  5
15c
100
AcDbEntity
  8
Layer_1
 62
7
100
AcDbSpline
 70
8
 71
3
 72
8
 73
4
 74
0
 40
0
 40
0
 40
0
 40
0
 40
1
 40
1
 40
1
 40
1
 10
35.056412
 20
44.970436
 30
0.0
 10
35.055733
 20
44.178717
 30
0.0
 10
34.853962
 20
43.400144
 30
0.0
 10
34.470026
 20
42.707748
 30
0.0
  0
SPLINE
  5
15d
100
AcDbEntity
  8
Layer_1
 62
7
100
AcDbSpline
 70
8
 71
3
 72
8
 73
4
 74
0
 40
0
 40
0
 40
0
 40
0
 40
1
 40
1
 40
1
 40
1
 10
34.470026
 20
42.707748
 30
0.0
 10
34.408598
 20
42.721806
 30
0.0
 10
34.330023
 20
42.733822
 30
0.0
 10
34.281604
 20
42.746398
 30
0.0
  0
LWPOLYLINE
  5
15e
100
AcDbEntity
  8
Layer_1
 62
7
100
AcDbPolyline
 90
2
 70
0
 10
30.382179
 20
53.560625
 30
0.0
 10
30.382154
 20
53.560784
 30
0.0
  0
SPLINE
  5
15f
100
AcDbEntity
  8
Layer_1
 62
7
100
AcDbSpline
 70
8
 71
3
 72
8
 73
4
 74
0
 40
0
 40
0
 40
0
 40
0
 40
1
 40
1
 40
1
 40
1
 10
33.245543
 20
43.172451
 30
0.0
 10
31.616101
 20
43.993334
 30
0.0
 10
30.128959
 20
44.401401
 30
0.0
 10
28.323277
 20
44.523087
 30
0.0
  0
LWPOLYLINE
  5
160
100
AcDbEntity
  8
Layer_1
 62
7
100
AcDbPolyline
 90
3
 70
0
 10
34.281604
 20
42.746398
 30
0.0
 10
33.889188
 20
42.848035
 30
0.0
 10
33.245543
 20
43.172451
 30
0.0
  0
SPLINE
  5
161
100
AcDbEntity
  8
Layer_1
 62
7
100
AcDbSpline
 70
8
 71
3
 72
8
 73
4
 74
0
 40
0
 40
0
 40
0
 40
0
 40
1
 40
1
 40
1
 40
1
 10
27.898475
 20
44.672689
 30
0.0
 10
27.898475
 20
45.587075
 30
0.0
 10
27.224068
 20
46.146511
 30
0.0
 10
25.931751
 20
46.323229
 30
0.0
  0
SPLINE
  5
162
100
AcDbEntity
  8
Layer_1
 62
7
100
AcDbSpline
 70
8
 71
3
 72
8
 73
4
 74
0
 40
0
 40
0
 40
0
 40
0
 40
1
 40
1
 40
1
 40
1
 10
25.931751
 20
46.323229
 30
0.0
 10
26.525485
 20
48.287126
 30
0.0
 10
28.330496
 20
49.634262
 30
0.0
 10
30.382154
 20
49.644703
 30
0.0
  0
LWPOLYLINE
  5
163
100
AcDbEntity
  8
Layer_1
 62
7
100
AcDbPolyline
 90
3
 70
0
 10
28.323277
 20
44.523087
 30
0.0
 10
27.898475
 20
44.551550
 30
0.0
 10
27.898475
 20
44.672689
 30
0.0
  0
LWPOLYLINE
  5
164
100
AcDbEntity
  8
Layer_1
 62
7
100
AcDbPolyline
 90
1
 70
1
 10
30.382154
 20
49.644703
 30
0.0
  0
ENDSEC
  0
SECTION
  2
OBJECTS
  0
DICTIONARY
  5
C
330
0
100
AcDbDictionary
  3
ACAD_GROUP
350
D
  3
ACAD_MLINESTYLE
350
17
  0
DICTIONARY
  5
D
330
C
100
AcDbDictionary
  0
DICTIONARY
  5
1A
330
C
100
AcDbDictionary
  0
DICTIONARY
  5
17
330
C
100
AcDbDictionary
  3
STANDARD
350
18
  0
DICTIONARY
  5
19
330
C
100
AcDbDictionary
  0
ENDSEC
  0
EOF
