<?xml version="1.0" encoding="UTF-8" standalone="no"?>
<!-- Created with Inkscape (http://www.inkscape.org/) -->

<svg
   width="95mm"
   height="53.560711mm"
   viewBox="0 0 95 53.560711"
   version="1.1"
   id="svg1"
   inkscape:version="1.3.2 (091e20e, 2023-11-25, custom)"
   sodipodi:docname="f-gnd-plane.svg"
   xmlns:inkscape="http://www.inkscape.org/namespaces/inkscape"
   xmlns:sodipodi="http://sodipodi.sourceforge.net/DTD/sodipodi-0.dtd"
   xmlns="http://www.w3.org/2000/svg"
   xmlns:svg="http://www.w3.org/2000/svg">
  <sodipodi:namedview
     id="namedview1"
     pagecolor="#505050"
     bordercolor="#eeeeee"
     borderopacity="1"
     inkscape:showpageshadow="0"
     inkscape:pageopacity="0"
     inkscape:pagecheckerboard="0"
     inkscape:deskcolor="#505050"
     inkscape:document-units="mm"
     inkscape:zoom="1.6014254"
     inkscape:cx="179.52756"
     inkscape:cy="101.4721"
     inkscape:window-width="1536"
     inkscape:window-height="793"
     inkscape:window-x="1912"
     inkscape:window-y="-8"
     inkscape:window-maximized="1"
     inkscape:current-layer="layer1" />
  <defs
     id="defs1" />
  <g
     inkscape:label="Layer 1"
     inkscape:groupmode="layer"
     id="layer1"
     transform="translate(-62.177083,-17.197915)">
    <g
       id="g2"
       transform="matrix(0.34626941,0,0,0.34626941,56.583055,-20.190296)"
       style="stroke-width:2.88792">
      <path
         id="path24"
         style="fill:#c8beb7;fill-opacity:1;stroke-width:2.88792"
         inkscape:label="ground-plane"
         d="m 87.269856,134.09541 -3.05191,0.001 -1.772943,0.20445 c -17.928166,2.06935 -35.089303,15.2997 -46.586024,35.91453 l -1.065557,1.91174 -0.0776,-0.65516 c -0.04283,-0.36014 -0.08393,-1.80058 -0.09103,-3.20114 l -0.01045,-2.54749 0.183562,-1.761 c 0.10064,-0.96897 0.264066,-2.24003 0.36414,-2.82358 0.237889,-1.38623 0.290547,-1.40563 -1.232703,0.49248 -6.055263,7.5455 -9.611453,15.08703 -10.821222,22.94828 l -0.240273,1.55655 -0.06716,2.65046 -0.06566,2.65195 0.143268,1.53118 c 0.405613,4.31395 1.79822,9.06154 3.520516,12.0002 l 0.422343,0.72081 -0.753651,1.65057 c -2.608152,5.71582 -3.991315,10.96414 -4.384602,16.63403 l -0.140283,2.01172 0.08208,1.79533 c 0.352182,7.71813 3.050667,15.63263 6.997753,20.52317 l 0.241765,0.29996 0.003,-0.65963 c 0.02884,-7.13859 3.854495,-15.04076 9.228856,-19.06511 1.036901,-0.77642 1.186439,-0.81718 1.186439,-0.32832 0,1.24724 1.037568,6.16288 1.865471,8.83636 3.857316,12.45596 13.556503,20.79136 22.999014,19.76653 2.749896,-0.29888 5.50114,-1.12337 11.334599,-3.39964 6.202307,-2.42019 9.906205,-3.54204 13.732848,-4.15776 l 1.705787,-0.27459 3.769743,0.006 3.769743,0.006 1.734145,0.27012 c 5.10775,0.79415 9.30957,2.11359 13.61345,4.27566 l 2.18484,1.09839 -0.43428,-0.80439 c -2.6963,-4.99201 -10.42896,-10.15274 -19.771002,-13.1941 -1.891603,-0.61582 -1.869523,-0.451 -0.225348,-1.73265 12.50791,-9.75007 29.29676,-14.95955 50.4677,-15.65801 6.00627,-0.19815 13.95843,0.66067 18.47114,1.99381 1.27388,0.37633 1.07124,0.21575 -0.97751,-0.76857 -5.7666,-2.77059 -13.93947,-6.01917 -23.98547,-9.53629 l -3.00117,-1.05212 2.08336,-0.0746 c 1.14635,-0.0414 3.6473,-0.12901 5.55611,-0.19401 4.53666,-0.15466 8.35686,-0.35333 8.9662,-0.46711 l 0.48801,-0.091 -0.47905,-0.0851 c -5.54896,-0.99386 -9.66792,-3.07486 -10.92271,-5.51732 l -0.30743,-0.59844 -0.003,-0.53875 -0.003,-0.53875 0.40593,-0.76111 c 1.39649,-2.61991 5.28642,-5.10113 9.51241,-6.06651 l 1.43716,-0.32832 2.0938,-0.0552 2.0938,-0.0567 1.37598,0.19848 c 8.47677,1.22269 15.49191,8.11567 18.27116,17.95479 0.17738,0.62797 0.363,1.14166 0.4119,1.14166 0.0489,0 0.93424,-0.32428 1.96844,-0.72081 10.11572,-3.8784 16.22381,-7.86135 17.68466,-11.53309 l 0.24326,-0.61038 0.009,-1.02079 0.007,-1.01929 -0.39847,-0.80738 c -0.74069,-1.50455 -2.2119,-2.81434 -4.47116,-3.97867 l -1.16853,-0.60292 22.9244,-16.8549 22.92439,-16.8549 2.23409,0.3716 c 4.95945,0.82451 7.22747,1.03023 11.33012,1.03123 l 3.35039,0.001 1.13719,-0.15371 c 7.59598,-1.02532 11.47982,-4.21956 11.48682,-9.44824 0.001,-0.67467 -0.0235,-1.22673 -0.0552,-1.22673 -0.0315,0 -0.60284,0.21684 -1.26852,0.48204 -2.909,1.15888 -7.36487,1.87741 -7.95884,1.28344 -0.31476,-0.31476 2.26985,-3.74671 4.48757,-5.96055 l 1.86547,-1.86398 1.4103,-1.05212 c 4.78104,-3.56818 11.24177,-6.50279 18.02791,-8.18718 l 1.84756,-0.45667 -1.11928,-0.86558 c -2.40511,-1.85876 -4.61904,-2.84172 -7.90512,-3.50708 l -1.3715,-0.27758 -3.23099,0.001 h -3.231 l -1.37597,0.2149 c -6.79679,1.0617 -14.39417,3.78862 -21.27979,7.63948 l -1.47298,0.82379 -1.69832,-0.13581 -1.69833,-0.1358 -2.1535,0.0716 c -10.82881,0.36256 -23.65969,5.1483 -34.36047,12.81802 -0.69177,0.49582 -1.28151,0.90289 -1.31031,0.90289 -0.0289,0 -0.0537,-0.64086 -0.0537,-1.42373 0,-3.33372 -0.67851,-7.19251 -1.90428,-10.82868 -0.26348,-0.78158 -0.50417,-1.44586 -0.53427,-1.47596 -0.0301,-0.0302 -0.25482,0.25928 -0.49994,0.64321 -2.36153,3.69889 -5.26357,6.19098 -7.5186,6.45602 l -0.64023,0.0761 -0.40443,-0.14476 -0.40593,-0.14326 -0.69843,-0.83424 c -2.47021,-2.94905 -6.16472,-4.75927 -10.47797,-5.13378 l -1.47298,-0.12834 -1.51476,0.12237 c -5.41182,0.43719 -7.2522,1.15845 -16.71163,6.55452 -10.88153,6.20731 -14.71092,7.97397 -18.29355,8.43342 l -1.06556,0.13581 -0.79096,-0.14476 c -0.43543,-0.0797 -1.02493,-0.28058 -1.30882,-0.44622 l -0.51636,-0.30147 -0.39697,-0.62082 c -0.21839,-0.34139 -0.49328,-0.88821 -0.61187,-1.21629 l -0.2164,-0.59695 0.006,-1.0775 0.006,-1.076 0.31041,-0.88498 c 1.18329,-3.37936 5.33543,-7.50183 11.33162,-11.25103 1.16483,-0.72833 1.63063,-1.08794 1.4088,-1.08794 -0.0263,0 -0.35387,-0.0577 -0.72828,-0.12685 l -0.68052,-0.12536 -1.46551,0.13133 c -3.79073,0.33738 -10.83178,1.81002 -20.87984,4.36819 l -3.01908,0.76857 -1.4088,0.12088 -1.4103,0.12088 -1.45805,-0.11342 c -3.48209,-0.26783 -6.56697,-1.04961 -8.5543,-2.16991 -2.86,-1.61224 -6.55989,-2.82875 -10.33173,-3.39665 l -1.316273,-0.19849 -1.675938,-0.001 h -1.674447 l -1.219271,0.24326 c -2.847837,0.568 -6.375563,2.24622 -8.333431,3.96524 -0.572374,0.50257 -0.610933,0.44824 -0.44622,-0.61336 0.387476,-2.49735 1.696673,-4.69125 4.395048,-7.36637 l 1.472976,-1.46104 -0.447713,-0.0866 c -0.246526,-0.0478 -1.822679,-0.0861 -3.501115,-0.0851 z M 79.84976,157.2944 c 0.158626,1.1e-4 0.318152,0.61426 0.710371,1.84159 l 0.649184,2.03262 h 2.192301 c 2.62356,0 2.588809,-0.10856 0.455175,1.43119 -0.953151,0.68784 -1.732649,1.27295 -1.732649,1.30135 0,0.0284 0.297137,0.96705 0.661123,2.08634 v 0.001 c 0.797202,2.4516 0.933621,2.34635 -1.107344,0.85364 -2.044853,-1.49551 -1.606069,-1.49191 -3.627967,-0.0328 -2.022548,1.45956 -1.917501,1.5392 -1.126744,-0.85662 0.357864,-1.08422 0.651659,-2.0009 0.652168,-2.0371 4.95e-4,-0.0362 -0.779497,-0.62843 -1.732649,-1.31627 -2.133704,-1.53983 -2.168574,-1.4297 0.456667,-1.4297 h 2.193794 l 0.649184,-2.0356 c 0.390827,-1.22677 0.54876,-1.84021 0.707386,-1.8401 z m -29.220731,28.94165 c 0.158626,1.1e-4 0.318152,0.61426 0.710371,1.8416 l 0.649184,2.03261 h 2.192301 c 2.623559,0 2.588807,-0.10856 0.455174,1.43119 -0.953152,0.68784 -1.732649,1.27296 -1.732649,1.30136 0,0.0284 0.297137,0.96705 0.661123,2.08634 v 0.001 c 0.797202,2.4516 0.933622,2.34635 -1.107343,0.85364 -2.044853,-1.4955 -1.604577,-1.49191 -3.626475,-0.0328 -2.022548,1.45957 -1.918994,1.5392 -1.128237,-0.85663 0.357865,-1.08422 0.65166,-2.00089 0.652169,-2.03709 4.95e-4,-0.0362 -0.779497,-0.62844 -1.732649,-1.31628 -2.133704,-1.53983 -2.168574,-1.43119 0.456667,-1.43119 h 2.193793 l 0.649184,-2.0341 c 0.390828,-1.22677 0.548761,-1.84021 0.707387,-1.84011 z m 58.441461,0 c 0.15863,1.1e-4 0.31815,0.61426 0.71037,1.8416 l 0.64919,2.03261 h 2.1923 c 2.62355,0 2.5888,-0.10856 0.45517,1.43119 -0.95315,0.68784 -1.73265,1.27296 -1.73265,1.30136 0,0.0284 0.29715,0.96705 0.66113,2.08634 v 0.001 c 0.79721,2.4516 0.93362,2.34635 -1.10735,0.85364 -2.04486,-1.4955 -1.60607,-1.49191 -3.62796,-0.0328 -2.02255,1.45957 -1.91751,1.5392 -1.12675,-0.85663 0.35787,-1.08422 0.65166,-2.00089 0.65217,-2.03709 5e-4,-0.0362 -0.7795,-0.62844 -1.73265,-1.31628 -2.13371,-1.53983 -2.16857,-1.43119 0.45667,-1.43119 h 2.19379 l 0.64919,-2.0341 c 0.39082,-1.22677 0.54876,-1.84021 0.70738,-1.84011 z m -29.22073,28.94166 c 0.158626,1.1e-4 0.318152,0.61427 0.710371,1.84159 l 0.649184,2.03262 h 2.192301 c 2.62356,0 2.588809,-0.11004 0.455175,1.4297 -0.953151,0.68785 -1.732649,1.27444 -1.732649,1.30284 0,0.0284 0.297137,0.96706 0.661123,2.08634 0.797202,2.4516 0.933621,2.34785 -1.107344,0.85514 -2.044853,-1.49551 -1.606069,-1.49191 -3.627967,-0.0328 -2.022548,1.45956 -1.917501,1.5392 -1.126744,-0.85662 0.357864,-1.08422 0.651659,-2.00089 0.652168,-2.03709 4.95e-4,-0.0362 -0.779497,-0.62843 -1.732649,-1.31628 -2.133704,-1.53983 -2.168574,-1.43119 0.456667,-1.43119 h 2.193794 l 0.649184,-2.03411 c 0.390827,-1.22676 0.54876,-1.84021 0.707386,-1.8401 z" />
    </g>
  </g>
</svg>
