<?xml version="1.0" encoding="UTF-8" standalone="no"?>
<!-- Created with Inkscape (http://www.inkscape.org/) -->

<svg
   width="95mm"
   height="53.560711mm"
   viewBox="0 0 95 53.560711"
   version="1.1"
   id="svg1"
   inkscape:version="1.3.2 (091e20e, 2023-11-25, custom)"
   sodipodi:docname="f-mask.svg"
   xmlns:inkscape="http://www.inkscape.org/namespaces/inkscape"
   xmlns:sodipodi="http://sodipodi.sourceforge.net/DTD/sodipodi-0.dtd"
   xmlns="http://www.w3.org/2000/svg"
   xmlns:svg="http://www.w3.org/2000/svg">
  <sodipodi:namedview
     id="namedview1"
     pagecolor="#505050"
     bordercolor="#eeeeee"
     borderopacity="1"
     inkscape:showpageshadow="0"
     inkscape:pageopacity="0"
     inkscape:pagecheckerboard="0"
     inkscape:deskcolor="#505050"
     inkscape:document-units="mm"
     inkscape:zoom="1.6014254"
     inkscape:cx="179.52756"
     inkscape:cy="101.4721"
     inkscape:window-width="1536"
     inkscape:window-height="793"
     inkscape:window-x="1912"
     inkscape:window-y="-8"
     inkscape:window-maximized="1"
     inkscape:current-layer="layer1" />
  <defs
     id="defs1" />
  <g
     inkscape:label="Layer 1"
     inkscape:groupmode="layer"
     id="layer1"
     transform="translate(-67.997917,-53.710417)">
    <g
       id="g2"
       transform="matrix(0.34626941,0,0,0.34626941,62.403889,16.322206)"
       style="stroke-width:2.88792">
      <path
         id="path17"
         style="display:inline;fill:#ffb380;fill-opacity:1;stroke-width:2.88792"
         inkscape:label="board-outline"
         d="M 103.89642 107.97434 A 24.808475 24.808475 0 0 0 79.33489 129.34368 C 64.899424 131.68712 51.829076 139.93426 40.358494 153.99028 L 38.897457 155.78113 L 38.416912 155.4349 C 37.733058 154.93952 36.719964 154.5898 35.750035 154.51559 L 34.912812 154.45142 L 34.165131 154.64394 C 32.473042 155.07793 31.785534 155.6427 29.552196 158.43457 C 21.681425 168.27381 17.653225 178.16865 17.299785 188.52835 L 17.225166 190.68334 L 17.371419 192.53836 C 17.70719 196.80574 18.738233 201.1473 20.245736 204.64153 C 20.835397 206.00846 20.849485 205.72263 20.121869 207.43825 C 18.184288 212.00715 16.833714 217.37374 16.344664 222.45603 L 16.155132 224.43194 L 16.222289 227.42266 C 16.493777 239.45303 22.618709 253.14734 28.07325 253.91981 L 28.867195 254.03323 L 29.556673 253.93174 C 32.329818 253.52429 34.253181 251.28125 34.253181 248.45622 C 34.253181 246.05505 34.975646 242.573 35.939567 240.32426 C 36.226207 239.65558 36.161314 239.58521 36.770821 241.24654 C 41.13492 253.14207 50.419977 261.48148 60.468267 262.53082 L 60.468267 262.52933 C 64.984655 263.00097 68.658826 262.2015 77.156021 258.89987 C 83.273272 256.52298 86.355911 255.56301 89.662135 255.00178 L 91.158989 254.74807 L 93.634842 254.68241 L 96.110694 254.61675 L 97.644857 254.76001 C 103.03739 255.26574 108.46479 256.96549 113.01037 259.57144 L 114.03861 260.16092 L 114.97284 260.35195 L 115.90558 260.54148 L 116.75623 260.40269 C 118.93561 260.04671 120.64926 258.54566 121.20053 256.50908 L 121.41095 255.73155 L 121.34827 254.74061 L 121.28559 253.75117 L 120.97518 252.99005 C 119.0214 248.19833 114.14152 243.65867 106.61553 239.63179 C 106.0333 239.32028 105.60173 239.02325 105.65743 238.97067 C 105.83849 238.79948 108.83504 237.2385 110.30767 236.54854 C 119.81634 232.09349 131.0983 229.64887 144.97259 229.03443 L 147.92451 228.9031 L 150.71675 229.03443 C 155.89838 229.27646 160.38919 229.94587 163.68102 230.97004 C 165.66514 231.58742 166.92185 231.5619 168.38798 230.87154 L 169.06701 230.55217 L 169.7938 229.82539 L 170.52059 229.09711 L 170.83995 228.41957 C 171.01546 228.04679 171.22344 227.36452 171.30259 226.90331 L 171.44586 226.0646 L 171.31901 225.2423 C 171.14894 224.14359 170.68073 223.19491 169.88334 222.33366 L 169.2252 221.62329 L 167.47166 220.73681 C 165.55157 219.76621 162.45438 218.34354 159.87397 217.24764 L 158.22042 216.54622 L 158.27862 216.35967 C 158.31082 216.25719 158.48603 215.82343 158.66664 215.3956 L 158.99496 214.61807 L 159.04869 213.64952 L 159.10241 212.68097 L 158.89796 211.97358 C 158.19827 209.54943 156.69697 208.41623 153.4478 207.86357 C 151.9884 207.61537 150.47026 207.18041 149.38107 206.69654 L 148.72293 206.40403 L 148.96171 206.21898 C 149.52117 205.78722 151.44388 204.959 152.55237 204.67287 L 153.74926 204.36395 L 155.33416 204.29829 L 156.92056 204.23113 L 158.0279 204.38186 C 164.45804 205.25478 169.6124 210.57922 172.01296 218.82956 C 172.84871 221.70192 174.28078 223.14876 176.6647 223.52607 L 177.44074 223.64844 L 178.20931 223.52607 C 179.67576 223.2918 185.78913 220.81277 189.59166 218.91015 C 197.11585 215.14537 201.20104 211.38272 202.46341 207.05321 L 202.76935 206.00109 L 202.83054 204.8042 L 202.89471 203.60732 L 202.7201 202.6507 C 202.47766 201.32451 201.90659 199.91642 201.15758 198.79739 L 200.52332 197.84973 L 219.54814 183.86467 L 238.57146 169.87961 L 240.85927 170.20196 C 242.11722 170.37873 243.9804 170.61241 245.00062 170.7228 L 246.85564 170.92427 L 250.80447 170.92726 L 254.75479 170.93024 L 256.25015 170.71832 C 260.26182 170.15003 263.44079 169.07086 266.00432 167.40674 L 266.96094 166.78442 L 268.3384 165.38606 L 269.71437 163.9892 L 270.29938 163.00572 C 271.01566 161.80151 271.64375 160.16592 271.941 158.73156 L 272.16336 157.65406 L 272.16336 156.03782 L 272.16336 154.42307 L 271.99472 153.62763 C 271.78961 152.65993 271.45702 151.97445 270.8247 151.21446 C 270.5614 150.89798 270.36532 150.61979 270.38893 150.59661 C 271.95849 149.05285 280.47871 145.56915 285.3306 144.48682 C 288.22866 143.84035 289.65233 142.67734 290.30171 140.42756 L 290.50765 139.71719 L 290.44647 138.69193 L 290.38528 137.66815 L 290.12411 137.01599 C 288.54624 133.06774 280.94536 129.3517 273.45875 128.8691 L 271.6276 128.75121 L 269.59349 128.87507 C 262.10319 129.33256 253.10601 132.09686 244.76184 136.5041 L 243.0262 137.42191 L 240.51304 137.38759 C 230.58971 137.25119 219.3871 140.42753 208.75378 146.39557 C 207.26598 147.23063 207.39954 147.27004 207.07485 145.89563 C 206.30836 142.65098 205.22396 139.96045 204.28113 138.96354 L 203.67671 138.3248 L 202.86635 137.92037 L 202.0545 137.51295 L 201.20385 137.36968 L 200.35319 137.22641 L 199.55029 137.3652 C 197.7862 137.67184 196.72412 138.46435 195.41193 140.45442 C 194.68779 141.55265 193.00514 143.71228 192.8734 143.71228 C 192.8439 143.71228 192.43077 143.38367 191.9541 142.98251 C 188.76905 140.30198 184.8146 138.73347 180.19715 138.31883 L 178.6421 138.17855 L 177.20494 138.26063 C 174.31391 138.42311 171.43041 138.94517 168.8342 139.77987 L 167.28511 140.27832 L 164.70479 141.56773 C 163.28612 142.27677 160.18703 143.96913 157.81748 145.32852 C 149.71604 149.97624 143.54336 153.11324 143.19069 152.76056 C 142.69606 152.26591 149.0863 147.04644 152.64639 145.03751 C 157.18562 142.47606 156.06286 136.17641 150.81674 134.77145 L 150.03921 134.56401 L 148.18419 134.57446 L 146.32916 134.5864 L 144.17566 134.90427 C 140.24857 135.48685 135.51058 136.51794 128.00278 138.3845 A 24.808475 24.808475 0 0 0 128.70569 132.78361 A 24.808475 24.808475 0 0 0 103.89642 107.97434 z M 103.89642 119.28357 A 13.498729 13.498729 0 0 1 117.39497 132.78211 A 13.498729 13.498729 0 0 1 115.70261 139.31723 C 115.52521 139.27663 115.29773 139.24162 115.1579 139.2053 L 114.02518 138.9113 L 112.16568 137.97558 C 107.45998 135.60494 103.16547 134.42593 97.950794 134.07451 L 96.724061 133.99243 L 96.724061 133.64322 C 96.724061 131.00254 94.77619 129.38691 91.044076 128.87656 A 13.498729 13.498729 0 0 1 103.89642 119.28357 z M 81.95998 137.96663 C 81.987269 137.96793 81.646894 138.28884 81.200361 138.68297 C 78.853011 140.75488 76.43947 143.95492 74.883131 147.05819 C 74.060642 148.6982 73.839434 148.53844 77.017229 148.59534 C 82.06623 148.68584 86.021474 148.14094 90.199391 146.77762 C 92.310972 146.08857 93.921248 145.70379 96.124126 145.36434 L 97.859759 145.0972 L 101.44892 145.09422 L 105.03958 145.09124 L 106.23647 145.30166 C 108.06458 145.62362 109.26376 145.9587 110.19574 146.40453 L 111.04341 146.80896 L 111.51202 147.33577 C 111.76981 147.62521 112.23201 148.18559 112.53877 148.58041 C 115.08391 151.85634 118.67695 152.52982 122.93168 150.52946 C 126.24336 148.97247 128.49145 148.18682 131.35018 147.58947 L 132.80375 147.28652 L 134.59908 147.21638 L 136.39441 147.14624 L 134.47671 149.10722 C 129.12951 154.57224 126.30817 159.74068 126.5507 163.62804 L 126.61188 164.60107 L 126.92081 165.21146 L 127.22973 165.82184 L 127.75803 166.07703 C 128.04824 166.21753 128.68267 166.41696 129.16833 166.52027 L 130.05181 166.70831 L 131.84714 166.64712 L 133.64247 166.58444 L 135.01844 166.28447 C 136.98854 165.85431 138.62477 165.34232 140.88199 164.45184 C 144.27252 163.11426 147.42483 161.48626 153.20902 158.08237 C 163.68866 151.91528 175.26666 149.08894 184.11763 150.53841 L 184.9265 150.67123 L 184.11763 151.27415 C 179.36832 154.80811 176.6581 158.71465 176.08267 162.85648 C 175.95419 163.78154 175.9811 163.83918 176.32742 163.38329 C 179.9775 158.57789 187.08877 154.51405 192.46449 154.1619 L 193.60317 154.08728 L 194.60605 154.29024 C 195.59157 154.48994 197.06238 155.11671 196.98788 155.30506 C 196.96698 155.35796 196.38511 155.85087 195.69399 156.40196 C 191.93295 159.40097 189.51626 162.43286 187.77097 166.34417 C 187.05827 167.94137 187.03057 167.9003 188.27688 167.0814 C 191.63952 164.87191 195.45311 163.74663 197.67885 164.30707 L 198.21462 164.44288 L 198.81903 164.98611 C 199.15179 165.2853 199.5867 165.81742 199.7846 166.16807 C 200.22028 166.94005 199.84316 167.02327 202.35895 165.60246 C 213.97807 159.04036 227.6323 154.15014 240.75033 151.85319 C 241.54018 151.71481 242.30648 151.57508 242.45313 151.54278 L 242.72027 151.48308 L 243.15903 150.79659 C 247.26102 144.38239 254.09347 140.428 261.73911 140.04103 L 263.25388 139.96343 L 264.84923 140.11118 C 266.59319 140.2726 268.61192 140.65287 270.00986 141.08122 L 270.90529 141.35432 L 269.35173 141.63638 C 255.52699 144.14293 248.36988 149.87986 247.68093 159.00615 L 247.59885 160.0941 L 246.80938 159.37029 L 246.01842 158.64649 L 245.06031 158.18833 C 243.03471 157.22176 240.98548 157.22517 238.55803 158.19729 L 237.64469 158.56292 L 210.62671 175.21933 C 195.76698 184.38095 183.60818 191.92065 183.60723 191.97275 C 183.60627 192.02495 183.94307 192.45491 184.35492 192.92936 C 185.89034 194.69815 186.87076 196.31807 187.44861 198.04075 L 187.82917 199.17794 L 187.88737 200.67778 L 187.94408 202.17762 L 187.69187 203.19094 C 187.14088 205.40002 185.76951 207.49939 183.33711 209.8559 C 182.53708 210.63098 181.45843 211.67657 180.94036 212.17953 C 180.4223 212.68249 179.97998 213.03216 179.95688 212.95706 C 179.93388 212.88196 179.82572 212.38971 179.7181 211.86314 C 177.21244 199.59563 168.97442 191.62078 157.19814 190.064 L 155.66249 189.86104 L 152.78966 189.86104 L 149.91833 189.85955 L 148.42147 190.06549 C 139.8784 191.24226 134.1595 195.00615 132.66347 200.43602 L 132.45006 201.21355 L 132.44708 203.12826 L 132.44409 205.04298 L 132.60378 205.70261 C 132.69158 206.06461 132.87076 206.7003 133.00373 207.11589 C 133.13671 207.53146 133.22691 207.88548 133.20371 207.90238 C 133.18051 207.91938 132.54288 207.99808 131.78595 208.07848 C 127.32847 208.55173 124.16539 209.74203 120.96921 212.14968 L 119.76785 213.05555 L 124.78969 215.5329 L 129.81154 218.01024 L 129.63096 218.07889 C 129.53226 218.11589 128.42206 218.49243 127.16406 218.91612 C 112.54803 223.83865 99.754452 229.88951 89.148758 236.89477 L 86.902731 238.3782 L 86.193852 239.08708 L 85.484974 239.79595 L 85.338721 240.28545 L 85.190975 240.77495 L 85.43274 241.10029 C 85.782378 241.57243 86.774664 241.91918 88.363768 242.12555 C 91.242472 242.49937 93.535425 243.77516 95.28541 245.97439 C 96.036489 246.91828 96.028305 246.93716 95.028721 246.57433 C 94.596919 246.4176 93.819244 246.1941 93.299057 246.07886 L 92.35289 245.86993 L 90.078508 245.86993 L 87.805619 245.86993 L 86.12968 246.07886 C 83.110519 246.45589 77.104325 247.5566 72.638597 248.55173 C 72.028215 248.68771 70.991091 248.87589 70.332875 248.96959 L 69.135989 249.13972 L 67.22127 249.12778 C 66.169167 249.12179 64.811223 249.04486 64.2007 248.95616 L 64.197716 248.95616 C 53.450097 247.38804 43.577202 237.27199 39.212349 223.35444 L 38.761651 221.91878 L 38.375125 221.52927 L 37.987107 221.13976 L 37.388664 221.13976 L 36.788729 221.13976 L 36.209687 221.60687 C 33.499385 223.78843 30.337468 227.89598 28.385157 231.77145 L 27.697172 233.13548 L 27.561365 232.50122 C 27.486595 232.15266 27.311854 231.02933 27.173347 230.00447 L 26.921136 228.14049 L 26.916659 225.09008 L 26.910689 222.03817 L 27.11216 220.4264 C 27.770274 215.17706 29.404542 210.05944 31.819115 205.68172 C 32.582239 204.29813 32.568713 204.55225 31.932536 203.50434 C 29.59108 199.6472 28.209248 195.03736 27.918043 190.11474 L 27.806115 188.22987 L 27.915059 186.41514 C 28.135206 182.73634 28.817755 179.32116 29.958122 176.20281 L 30.352109 175.12531 L 30.556565 176.76096 C 31.016143 180.45516 31.95084 182.5756 33.299553 182.97969 L 33.771144 183.12147 L 34.260643 182.90059 C 35.31343 182.42585 36.241247 180.99339 37.127499 178.4757 C 42.508666 163.1884 54.028565 149.7693 67.725694 142.83476 C 72.235789 140.55141 79.79224 137.96754 81.95998 137.96663 z M 83.02106 151.19506 L 79.790065 151.19953 L 76.55907 151.20252 L 75.002521 151.40996 C 55.832278 153.9534 41.368251 168.95669 39.631706 188.10003 L 39.486946 189.70583 L 39.557087 192.52791 C 40.083792 213.52826 56.680629 230.63913 77.630596 231.78189 C 78.555025 231.83234 79.391367 231.88034 79.490097 231.88934 C 79.588757 231.89734 80.639396 231.85048 81.824174 231.78488 L 81.824174 231.78637 C 102.13432 230.66223 118.21979 215.14398 120.07229 194.88736 L 120.21257 193.34872 L 120.14542 190.45948 L 120.07826 187.57024 L 119.82456 185.89579 C 117.05281 167.57008 103.00853 153.7944 84.664167 151.40847 L 83.02106 151.19506 z M 81.128727 154.68572 L 82.852422 154.83198 C 100.64973 156.33492 114.79854 170.30502 116.48313 188.03885 L 116.61893 189.46407 L 116.55625 192.40703 L 116.49506 195.35 L 116.24435 196.96624 C 113.30948 215.91749 96.255529 229.59767 77.306751 228.20019 C 59.450674 226.88331 45.263533 213.20817 43.277582 195.40074 L 43.085065 193.67406 L 43.146253 190.68334 L 43.20744 187.69112 L 43.456667 186.07488 C 46.182646 168.37592 60.906518 155.30069 78.723016 154.75885 L 81.128727 154.68572 z " />
    </g>
  </g>
</svg>
