<?xml version="1.0" encoding="UTF-8" standalone="no"?>
<svg
   version="1.1"
   width="95.2500mm"
   height="53.8988mm"
   viewBox="0.0000 0.0000 95.2500 53.8988"
   id="svg72"
   sodipodi:docname="mason-comet-ornament-brd.svg"
   inkscape:version="1.3.2 (091e20e, 2023-11-25, custom)"
   xmlns:inkscape="http://www.inkscape.org/namespaces/inkscape"
   xmlns:sodipodi="http://sodipodi.sourceforge.net/DTD/sodipodi-0.dtd"
   xmlns="http://www.w3.org/2000/svg"
   xmlns:svg="http://www.w3.org/2000/svg">
  <defs
     id="defs72" />
  <sodipodi:namedview
     id="namedview72"
     pagecolor="#505050"
     bordercolor="#eeeeee"
     borderopacity="1"
     inkscape:showpageshadow="0"
     inkscape:pageopacity="0"
     inkscape:pagecheckerboard="0"
     inkscape:deskcolor="#505050"
     inkscape:document-units="mm"
     inkscape:zoom="4"
     inkscape:cx="66.625"
     inkscape:cy="106.375"
     inkscape:window-width="1536"
     inkscape:window-height="793"
     inkscape:window-x="-8"
     inkscape:window-y="-8"
     inkscape:window-maximized="1"
     inkscape:current-layer="svg72" />
  <title
     id="title1">SVG Image created as mason-comet-ornament-brd.svg date 2024/11/22 22:03:39 </title>
  <desc
     id="desc1">Image generated by PCBNEW </desc>
  <path
     id="path16"
     style="fill:#f2eda1;fill-opacity:1;fill-rule:evenodd;stroke:none"
     d="m 21.989355,37.061304 -0.01034,0.0026 -0.01033,0.0078 -0.01085,0.0124 -0.01085,0.01705 -0.01137,0.02274 -0.01189,0.02739 -0.02687,0.06976 -0.02997,0.0894 -0.03462,0.109554 -0.08785,0.278536 -0.224792,0.70435 h -0.759644 l -0.298173,-5.17e-4 -0.117305,0.001 -0.09663,0.0021 -0.07597,0.0052 -0.03049,0.0036 -0.02584,0.0052 -0.02015,0.0057 -0.01602,0.0072 -0.01034,0.0088 -0.0062,0.0098 -0.001,0.01137 0.0041,0.01344 0.0083,0.01499 0.01344,0.01705 0.01809,0.0186 0.02222,0.02119 0.05891,0.04858 0.07751,0.05891 0.09508,0.06925 0.242362,0.17415 0.120406,0.08785 0.112655,0.08216 0.101803,0.07597 0.08888,0.06666 0.07338,0.05633 0.05581,0.04393 0.02015,0.01705 0.01499,0.0124 0.0088,0.0093 0.0026,0.0026 5.17e-4,0.0016 -0.01809,0.06304 -0.04858,0.153996 -0.159163,0.488342 -0.09043,0.271818 -0.03514,0.106971 -0.02739,0.08888 -0.01912,0.0708 -0.0057,0.02894 -0.0036,0.02429 -0.001,0.02067 0.001,0.01602 0.0041,0.0124 0.0072,0.0083 0.0093,0.0047 0.01292,5.17e-4 0.0155,-0.0036 0.01912,-0.0067 0.02222,-0.01085 0.02532,-0.01395 0.06098,-0.03876 0.07545,-0.05219 0.09043,-0.06511 0.228927,-0.166398 0.135392,-0.09922 v -1.744596 c 0,-0.1108 0.08919,-0.199988 0.199988,-0.199988 h 0.551387 c 0.1108,0 0.199988,0.08919 0.199988,0.199988 v 1.72961 l 0.169499,0.125574 0.230993,0.170532 0.165882,0.120923 0.06098,0.04031 0.04703,0.02584 0.0186,0.0072 0.01499,0.0036 h 0.0124 l 0.0093,-0.0041 0.0067,-0.0083 0.0036,-0.01188 0.001,-0.01654 -0.0016,-0.02067 -0.01085,-0.05374 -0.01964,-0.07183 -0.06408,-0.199471 -0.09198,-0.278019 -0.08888,-0.274919 -0.07286,-0.227893 -0.04909,-0.157096 -0.01344,-0.04444 -0.0047,-0.01809 0.0031,-0.0036 0.0093,-0.0088 0.03514,-0.02842 0.128674,-0.0987 0.190686,-0.141593 0.233061,-0.170016 0.242879,-0.174149 0.09509,-0.06925 0.077,-0.05891 0.05891,-0.04858 0.04031,-0.03979 0.01344,-0.01705 0.0088,-0.01499 0.0036,-0.01292 -0.001,-0.01189 -0.0057,-0.0098 -0.01085,-0.0083 -0.0155,-0.0072 -0.02067,-0.0062 -0.05581,-0.0083 -0.07648,-0.0052 -0.09612,-0.0026 -0.117305,-5.17e-4 -0.298173,5.17e-4 h -0.759127 l -0.224793,-0.703833 -0.08785,-0.278536 -0.03514,-0.109554 -0.0155,-0.04754 -0.01499,-0.04237 -0.01344,-0.03721 -0.01292,-0.03256 -0.01188,-0.02739 -0.0062,-0.01188 -0.0057,-0.01034 -0.0057,-0.0093 -0.0052,-0.0083 -0.0052,-0.0067 -0.0057,-0.0057 -0.0052,-0.0047 -0.0052,-0.0031 -0.0052,-0.0016 z M 29.182,25.3235 h -1.0439 v 7.0815 l 0.5126,0.0104 0.5126,0.0104 v 3.3181 h -5.3314 v -3.3181 l 0.5313,-0.0103 0.5313,-0.0103 -0.0049,-1.7233 -0.0037,-0.691 -0.0065,-0.6075 -0.0084,-0.4584 -0.0046,-0.1528 -0.0048,-0.0908 -0.023,-0.2772 -0.1938,0.3517 -0.8268,1.5262 -0.633,1.1744 -1.1932,0.0099 -1.1931,0.0098 -0.2588,-0.4759 -0.811,-1.5011 -0.2183,-0.4039 -0.1862,-0.3418 -0.1342,-0.2437 -0.0415,-0.0737 -0.0212,-0.0357 -0.0491,-0.0736 v 4.0784 l 0.5313,0.0103 0.5313,0.0103 v 3.3181 l -2.675,0.0096 -2.6751,0.0096 v -3.356 h 1.0432 l 0.0097,-3.5418 0.0097,-3.5418 h -1.0626 v -3.3187 l 2.3161,0.0096 2.3161,0.0095 1.2723,2.4882 0.4956,0.966 0.4085,0.7911 0.2793,0.5344 0.0779,0.1455 0.0298,0.0507 0.1074,-0.1965 0.2788,-0.5345 0.9026,-1.7571 1.2701,-2.4878 2.3183,-0.0096 2.3183,-0.0095 z m -17.31089,1.716193 -0.01033,0.0026 -0.01034,0.0072 -0.01085,0.0124 -0.01085,0.01757 -0.01137,0.02274 -0.0124,0.02687 -0.02636,0.06976 -0.02997,0.08992 -0.03462,0.109554 -0.08785,0.278536 -0.224793,0.704349 h -0.759643 l -0.298173,-5.16e-4 -0.117306,5.16e-4 -0.09663,0.0026 -0.07596,0.0052 -0.03049,0.0036 -0.025838,0.0052 -0.020671,0.0057 -0.015503,0.0072 -0.010335,0.0083 -0.0062,0.01034 -0.00103,0.01137 0.00413,0.01292 0.00827,0.01499 0.013436,0.01705 0.018087,0.01912 0.022221,0.02067 0.05891,0.04909 0.07752,0.0584 0.09508,0.06976 0.242363,0.174149 0.04702,0.03411 c 0.03493,-0.05806 0.0986,-0.09663 0.171566,-0.09663 h 2.050004 c 0.1108,0 0.199988,0.08919 0.199988,0.199988 v 0.0863 l 0.07338,-0.05426 0.23306,-0.169499 0.242879,-0.174149 0.09457,-0.06925 0.07752,-0.05891 0.05891,-0.04858 0.04031,-0.03979 0.01344,-0.01705 0.0088,-0.01499 0.0036,-0.01344 -0.001,-0.01137 -0.0057,-0.0098 -0.01085,-0.0088 -0.0155,-0.0072 -0.02067,-0.0057 -0.05581,-0.0088 -0.07648,-0.0052 -0.09612,-0.0021 -0.117306,-0.001 -0.298173,5.16e-4 H 12.341882 L 12.11709,27.67738 12.02924,27.398844 11.9941,27.28929 l -0.0155,-0.04754 -0.01499,-0.04237 -0.01344,-0.03721 -0.01292,-0.03256 -0.01189,-0.02739 -0.0062,-0.01189 -0.0057,-0.01034 -0.0052,-0.0098 -0.0057,-0.0078 -0.0057,-0.0067 -0.0052,-0.0057 -0.0052,-0.0047 -0.0052,-0.0031 -0.0052,-0.0015 z m 0.922941,2.721281 c -0.01354,0.0029 -0.02743,0.0047 -0.04186,0.0047 h -1.805574 l -0.08888,0.272335 -0.09043,0.271818 -0.03514,0.10697 -0.02739,0.08888 -0.0186,0.0708 -0.0062,0.02842 -0.0036,0.02481 -0.001,0.02067 0.0016,0.01602 0.0041,0.0124 0.0067,0.0083 0.0098,0.0041 0.01292,5.17e-4 0.0155,-0.0031 0.01912,-0.0067 0.0217,-0.01085 0.02584,-0.01395 0.06098,-0.03876 0.07545,-0.05219 0.09043,-0.06511 0.228927,-0.166398 0.225826,-0.165882 0.0894,-0.06511 0.077,-0.05323 0.06666,-0.04134 0.03049,-0.01602 0.02894,-0.01344 0.02791,-0.01034 0.02687,-0.0072 0.02584,-0.0041 0.02584,-0.001 0.02636,0.0015 0.02584,0.0047 0.02687,0.0078 0.02791,0.01085 0.02946,0.01395 0.03049,0.01654 0.0677,0.04237 0.07752,0.05478 0.09043,0.06666 0.22841,0.170015 0.230994,0.170533 0.165881,0.120922 0.06098,0.04031 0.04702,0.02584 0.0186,0.0072 0.01499,0.0036 h 0.0124 l 0.0093,-0.0041 0.0067,-0.0078 0.0036,-0.0124 0.001,-0.01654 -0.0016,-0.02015 -0.01085,-0.05426 -0.01964,-0.07183 -0.06408,-0.199471 -0.09198,-0.277503 v -5.17e-4 l -0.08888,-0.274918 z m 19.31355,-2.721281 -0.01034,0.0026 -0.01034,0.0072 -0.01085,0.0124 -0.01085,0.01757 -0.01137,0.02274 -0.0124,0.02687 -0.02636,0.06976 -0.02997,0.08992 -0.03462,0.109554 -0.08785,0.278536 -0.224793,0.704349 h -0.759643 l -0.298173,-5.16e-4 -0.117306,5.16e-4 -0.09663,0.0026 -0.07596,0.0052 -0.03049,0.0036 -0.02584,0.0052 -0.02067,0.0057 -0.0155,0.0072 -0.01034,0.0083 -0.0062,0.01034 -0.001,0.01137 0.0041,0.01292 0.0083,0.01499 0.01344,0.01705 0.01757,0.01912 0.02274,0.02067 0.05891,0.04909 0.07752,0.0584 0.09508,0.06976 0.242363,0.174149 0.120406,0.08733 0.112654,0.08268 0.101803,0.07545 0.08888,0.06718 0.07338,0.05633 0.03462,0.02739 V 29.01425 c 0,-0.1108 0.08919,-0.199988 0.199988,-0.199988 h 2.050004 c 0.02295,0 0.04514,0.0038 0.06563,0.01085 l 0.170532,-0.122473 0.09457,-0.06925 0.07751,-0.05891 0.05891,-0.04858 0.04031,-0.03979 0.01344,-0.01705 0.0088,-0.01499 0.0036,-0.01344 -0.001,-0.01137 -0.0057,-0.0098 -0.01085,-0.0088 -0.0155,-0.0072 -0.02067,-0.0057 -0.05581,-0.0088 -0.07648,-0.0052 -0.09612,-0.0021 -0.117306,-0.001 -0.298173,5.16e-4 h -0.759127 l -0.224792,-0.703833 -0.08785,-0.278536 -0.03514,-0.109554 -0.0155,-0.04754 -0.01499,-0.04237 -0.01344,-0.03721 -0.01292,-0.03256 -0.01189,-0.02739 -0.0062,-0.01189 -0.0057,-0.01034 -0.0052,-0.0098 -0.0057,-0.0078 -0.0052,-0.0067 -0.0057,-0.0057 -0.0052,-0.0047 -0.0052,-0.0031 -0.0052,-0.0015 z m -0.855762,2.514059 -0.157613,0.484208 -0.09043,0.271818 -0.03514,0.10697 -0.02739,0.08888 -0.01912,0.0708 -0.0057,0.02842 -0.0036,0.02481 -0.001,0.02067 0.001,0.01602 0.0041,0.0124 0.0072,0.0083 0.0098,0.0041 0.0124,5.17e-4 0.01602,-0.0031 0.0186,-0.0067 0.02222,-0.01085 0.02532,-0.01395 0.06098,-0.03876 0.07545,-0.05219 0.09043,-0.06511 0.228926,-0.166398 0.225826,-0.165882 0.0894,-0.06511 0.077,-0.05323 0.06666,-0.04134 0.03049,-0.01602 0.02894,-0.01344 0.0279,-0.01034 0.02687,-0.0072 0.02636,-0.0041 0.02584,-0.001 0.02584,0.0015 0.02636,0.0047 0.02687,0.0078 0.02791,0.01085 0.02894,0.01395 0.03101,0.01654 0.0677,0.04237 0.07751,0.05478 0.09043,0.06666 0.22841,0.170015 0.230994,0.170533 0.165881,0.120922 0.06098,0.04031 0.04703,0.02584 0.0186,0.0072 0.01499,0.0036 h 0.0124 l 0.0093,-0.0041 0.0067,-0.0078 0.0036,-0.0124 0.001,-0.01654 -0.0016,-0.02015 -0.01085,-0.05426 -0.01964,-0.07183 -0.06408,-0.199471 -0.09198,-0.277503 v -5.17e-4 l -0.08888,-0.274918 -0.0031,-0.0093 h -1.580265 c -0.1108,0 -0.199988,-0.08919 -0.199988,-0.199988 z m -9.262484,-12.535669 -0.01034,0.0026 -0.01033,0.0072 -0.01085,0.0124 -0.01085,0.01757 -0.01137,0.02222 -0.01189,0.02739 -0.02687,0.06976 -0.02997,0.08992 -0.03462,0.109554 -0.08785,0.278536 -0.224792,0.704867 h -0.759644 l -0.298173,-5.17e-4 -0.117305,5.17e-4 -0.09663,0.0026 -0.07597,0.0047 -0.03049,0.0041 -0.02584,0.0047 -0.02015,0.0062 -0.01602,0.0067 -0.01034,0.0088 -0.0062,0.0098 -0.001,0.01189 0.0041,0.01292 0.0083,0.01499 0.01344,0.01705 0.01809,0.0186 0.02222,0.02119 0.05891,0.04858 0.07751,0.05891 0.09508,0.06925 0.242362,0.17415 0.120406,0.08733 0.112655,0.08268 0.101803,0.07545 0.08888,0.06718 0.07338,0.05633 0.05581,0.04392 0.02015,0.01654 0.01499,0.01292 0.0088,0.0088 0.0026,0.0031 5.17e-4,0.0016 -0.01809,0.06253 -0.04858,0.153996 -0.159163,0.488859 -0.09043,0.271818 -0.03514,0.106971 -0.02739,0.08888 -0.01912,0.0708 -0.0057,0.02894 -0.0036,0.02429 -0.001,0.02067 0.001,0.01602 0.0041,0.0124 0.0072,0.0083 0.0093,0.0041 0.01292,5.17e-4 0.0155,-0.0031 0.01912,-0.0067 0.02222,-0.01085 0.02532,-0.01395 0.06098,-0.03876 0.07545,-0.05219 0.09043,-0.06511 0.228927,-0.166398 0.134875,-0.09922 v -1.698604 c 0,-0.1108 0.08919,-0.200505 0.199988,-0.200505 h 0.551904 c 0.1108,0 0.199988,0.0897 0.199988,0.200505 v 1.683101 l 0.169499,0.126091 0.230993,0.170532 0.165882,0.120923 0.06098,0.03979 0.04703,0.02635 0.0186,0.0072 0.01499,0.0036 h 0.0124 l 0.0093,-0.0041 0.0067,-0.0078 0.0036,-0.0124 0.001,-0.01654 -0.0016,-0.02015 -0.01085,-0.05426 -0.01964,-0.07183 -0.06408,-0.199471 -0.09198,-0.277502 v -5.17e-4 l -0.08888,-0.274919 -0.07286,-0.227893 -0.04909,-0.157096 -0.01344,-0.04444 -0.0047,-0.01809 0.0031,-0.0041 0.0093,-0.0083 0.03514,-0.02842 0.128674,-0.0987 0.190686,-0.141593 0.233061,-0.169499 0.242879,-0.17415 0.09509,-0.06925 0.077,-0.05891 0.05891,-0.04858 0.04031,-0.03979 0.01344,-0.01705 0.0088,-0.01499 0.0036,-0.01344 -0.001,-0.01137 -0.0057,-0.0098 -0.01085,-0.0088 -0.0155,-0.0072 -0.02067,-0.0057 -0.05581,-0.0088 -0.07648,-0.0052 -0.09612,-0.0021 -0.117305,-0.001 -0.298173,5.17e-4 h -0.759127 l -0.224793,-0.703833 -0.08785,-0.278536 -0.03514,-0.109554 -0.0155,-0.04754 -0.01499,-0.04237 -0.01344,-0.03721 -0.01292,-0.03256 -0.01188,-0.02739 -0.0062,-0.01188 -0.0057,-0.01034 -0.0057,-0.0098 -0.0052,-0.0078 -0.0052,-0.0067 -0.0057,-0.0057 -0.0052,-0.0047 -0.0052,-0.0031 -0.0052,-0.0016 z" />
</svg>
