<?xml version="1.0" encoding="UTF-8" standalone="no"?>
<!-- Created with Inkscape (http://www.inkscape.org/) -->

<svg
   width="24.091747mm"
   height="23.718449mm"
   viewBox="0 0 24.091747 23.718449"
   version="1.1"
   id="svg1"
   inkscape:version="1.3 (0e150ed6c4, 2023-07-21)"
   sodipodi:docname="f-silkscreen-4stars.svg"
   xmlns:inkscape="http://www.inkscape.org/namespaces/inkscape"
   xmlns:sodipodi="http://sodipodi.sourceforge.net/DTD/sodipodi-0.dtd"
   xmlns="http://www.w3.org/2000/svg"
   xmlns:svg="http://www.w3.org/2000/svg">
  <sodipodi:namedview
     id="namedview1"
     pagecolor="#ffffff"
     bordercolor="#000000"
     borderopacity="0.25"
     inkscape:showpageshadow="2"
     inkscape:pageopacity="0.0"
     inkscape:pagecheckerboard="0"
     inkscape:deskcolor="#d1d1d1"
     inkscape:document-units="mm"
     inkscape:zoom="0.69219276"
     inkscape:cx="-265.09957"
     inkscape:cy="412.45736"
     inkscape:window-width="1920"
     inkscape:window-height="991"
     inkscape:window-x="-9"
     inkscape:window-y="-9"
     inkscape:window-maximized="1"
     inkscape:current-layer="layer1" />
  <defs
     id="defs1" />
  <g
     inkscape:label="Layer 1"
     inkscape:groupmode="layer"
     id="layer1"
     transform="translate(-174.88959,-39.422918)">
    <g
       id="g4"
       style="stroke-width:2.88792"
       transform="matrix(0.34626942,0,0,0.34626942,159.28592,-15.043163)">
      <path
         style="fill:#c8beb7;fill-opacity:1;stroke-width:2.88792"
         d="m 79.84976,215.17771 c 0.158626,1.1e-4 0.318152,0.61427 0.710371,1.84159 l 0.649184,2.03262 h 2.192301 c 2.62356,0 2.588809,-0.11004 0.455175,1.4297 -0.953151,0.68785 -1.732649,1.27444 -1.732649,1.30284 0,0.0284 0.297137,0.96706 0.661123,2.08634 0.797202,2.4516 0.933621,2.34785 -1.107344,0.85514 -2.044853,-1.49551 -1.606069,-1.49191 -3.627967,-0.0328 -2.022548,1.45956 -1.917501,1.5392 -1.126744,-0.85662 0.357864,-1.08422 0.651659,-2.00089 0.652168,-2.03709 4.95e-4,-0.0362 -0.779497,-0.62843 -1.732649,-1.31628 -2.133704,-1.53983 -2.168574,-1.43119 0.456667,-1.43119 h 2.193794 l 0.649184,-2.03411 c 0.390827,-1.22676 0.54876,-1.84021 0.707386,-1.8401 z"
         id="path4" />
      <path
         style="fill:#c8beb7;fill-opacity:1;stroke-width:2.88792"
         d="m 109.07049,186.23605 c 0.15863,1.1e-4 0.31815,0.61426 0.71037,1.8416 l 0.64919,2.03261 h 2.1923 c 2.62355,0 2.5888,-0.10856 0.45517,1.43119 -0.95315,0.68784 -1.73265,1.27296 -1.73265,1.30136 0,0.0284 0.29715,0.96705 0.66113,2.08634 v 0.001 c 0.79721,2.4516 0.93362,2.34635 -1.10735,0.85364 -2.04486,-1.4955 -1.60607,-1.49191 -3.62796,-0.0328 -2.02255,1.45957 -1.91751,1.5392 -1.12675,-0.85663 0.35787,-1.08422 0.65166,-2.00089 0.65217,-2.03709 5e-4,-0.0362 -0.7795,-0.62844 -1.73265,-1.31628 -2.13371,-1.53983 -2.16857,-1.43119 0.45667,-1.43119 h 2.19379 l 0.64919,-2.0341 c 0.39082,-1.22677 0.54876,-1.84021 0.70738,-1.84011 z"
         id="path3" />
      <path
         style="fill:#c8beb7;fill-opacity:1;stroke-width:2.88792"
         d="m 50.629029,186.23605 c 0.158626,1.1e-4 0.318152,0.61426 0.710371,1.8416 l 0.649184,2.03261 h 2.192301 c 2.623559,0 2.588807,-0.10856 0.455174,1.43119 -0.953152,0.68784 -1.732649,1.27296 -1.732649,1.30136 0,0.0284 0.297137,0.96705 0.661123,2.08634 v 0.001 c 0.797202,2.4516 0.933622,2.34635 -1.107343,0.85364 -2.044853,-1.4955 -1.604577,-1.49191 -3.626475,-0.0328 -2.022548,1.45957 -1.918994,1.5392 -1.128237,-0.85663 0.357865,-1.08422 0.65166,-2.00089 0.652169,-2.03709 4.95e-4,-0.0362 -0.779497,-0.62844 -1.732649,-1.31628 -2.133704,-1.53983 -2.168574,-1.43119 0.456667,-1.43119 h 2.193793 l 0.649184,-2.0341 c 0.390828,-1.22677 0.548761,-1.84021 0.707387,-1.84011 z"
         id="path2" />
      <path
         style="fill:#c8beb7;fill-opacity:1;stroke-width:2.88792"
         d="m 79.84976,157.2944 c 0.158626,1.1e-4 0.318152,0.61426 0.710371,1.84159 l 0.649184,2.03262 h 2.192301 c 2.62356,0 2.588809,-0.10856 0.455175,1.43119 -0.953151,0.68784 -1.732649,1.27295 -1.732649,1.30135 0,0.0284 0.297137,0.96705 0.661123,2.08634 v 0.001 c 0.797202,2.4516 0.933621,2.34635 -1.107344,0.85364 -2.044853,-1.49551 -1.606069,-1.49191 -3.627967,-0.0328 -2.022548,1.45956 -1.917501,1.5392 -1.126744,-0.85662 0.357864,-1.08422 0.651659,-2.0009 0.652168,-2.0371 4.95e-4,-0.0362 -0.779497,-0.62843 -1.732649,-1.31627 -2.133704,-1.53983 -2.168574,-1.4297 0.456667,-1.4297 h 2.193794 l 0.649184,-2.0356 c 0.390827,-1.22677 0.54876,-1.84021 0.707386,-1.8401 z"
         id="path1" />
    </g>
  </g>
</svg>
