  0
SECTION
  2
HEADER
  9
$ACADVER
  1
AC1014
  9
$HANDSEED
  5
FFFF
  9
$INSUNITS
 70
     4
  9
$MEASUREMENT
 70
     1
  0
ENDSEC
  0
SECTION
  2
TABLES
  0
TABLE
  2
VPORT
  5
8
330
0
100
AcDbSymbolTable
 70
     4
  0
VPORT
  5
2E
330
8
100
AcDbSymbolTableRecord
100
AcDbViewportTableRecord
  2
*ACTIVE
 70
     0
 10
0.0
 20
0.0
 11
1.0
 21
1.0
 12
210.0
 22
148.5
 13
0.0
 23
0.0
 14
10.0
 24
10.0
 15
10.0
 25
10.0
 16
0.0
 26
0.0
 36
1.0
 17
0.0
 27
0.0
 37
0.0
 40
341.0
 41
1.24
 42
50.0
 43
0.0
 44
0.0
 50
0.0
 51
0.0
 71
     0
 72
   100
 73
     1
 74
     3
 75
     0
 76
     0
 77
     0
 78
     0
  0
ENDTAB
  0
TABLE
  2
LTYPE
  5
5
330
0
100
AcDbSymbolTable
 70
     1
  0
LTYPE
  5
14
330
5
100
AcDbSymbolTableRecord
100
AcDbLinetypeTableRecord
  2
BYBLOCK
 70
     0
  3

 72
    65
 73
     0
 40
0.0
  0
LTYPE
  5
15
330
5
100
AcDbSymbolTableRecord
100
AcDbLinetypeTableRecord
  2
BYLAYER
 70
     0
  3

 72
    65
 73
     0
 40
0.0
  0
LTYPE
  5
16
330
5
100
AcDbSymbolTableRecord
100
AcDbLinetypeTableRecord
  2
CONTINUOUS
 70
     0
  3
Solid line
 72
    65
 73
     0
 40
0.0
  0
ENDTAB
  0
TABLE
  2
LAYER
  5
2
100
AcDbSymbolTable
 70
2
  0
LAYER
  5
50
100
AcDbSymbolTableRecord
100
AcDbLayerTableRecord
  2
0
 70
0
  6
CONTINUOUS
  0
LAYER
  5
51
100
AcDbSymbolTableRecord
100
AcDbLayerTableRecord
  2
Layer_1
 70
0
  6
CONTINUOUS
  0
ENDTAB
  0
TABLE
  2
STYLE
  5
3
330
0
100
AcDbSymbolTable
 70
     1
  0
STYLE
  5
11
330
3
100
AcDbSymbolTableRecord
100
AcDbTextStyleTableRecord
  2
STANDARD
 70
     0
 40
0.0
 41
1.0
 50
0.0
 71
     0
 42
2.5
  3
txt
  4

  0
ENDTAB
  0
TABLE
  2
VIEW
  5
6
330
0
100
AcDbSymbolTable
 70
     0
  0
ENDTAB
  0
TABLE
  2
UCS
  5
7
330
0
100
AcDbSymbolTable
 70
     0
  0
ENDTAB
  0
TABLE
  2
APPID
  5
9
330
0
100
AcDbSymbolTable
 70
     2
  0
APPID
  5
12
330
9
100
AcDbSymbolTableRecord
100
AcDbRegAppTableRecord
  2
ACAD
 70
     0
  0
ENDTAB
  0
TABLE
  2
DIMSTYLE
  5
A
330
0
100
AcDbSymbolTable
 70
     1
  0
DIMSTYLE
105
27
330
A
100
AcDbSymbolTableRecord
100
AcDbDimStyleTableRecord
  2
ISO-25
 70
     0
  3

  4

  5

  6

  7

 40
1.0
 41
2.5
 42
0.625
 43
3.75
 44
1.25
 45
0.0
 46
0.0
 47
0.0
 48
0.0
140
2.5
141
2.5
142
0.0
143
0.03937007874016
144
1.0
145
0.0
146
1.0
147
0.625
 71
     0
 72
     0
 73
     0
 74
     0
 75
     0
 76
     0
 77
     1
 78
     8
170
     0
171
     3
172
     1
173
     0
174
     0
175
     0
176
     0
177
     0
178
     0
270
     2
271
     2
272
     2
273
     2
274
     3
340
11
275
     0
280
     0
281
     0
282
     0
283
     0
284
     8
285
     0
286
     0
287
     3
288
     0
  0
ENDTAB
  0
TABLE
  2
BLOCK_RECORD
  5
1
330
0
100
AcDbSymbolTable
 70
     1
  0
BLOCK_RECORD
  5
1F
330
1
100
AcDbSymbolTableRecord
100
AcDbBlockTableRecord
  2
*MODEL_SPACE
  0
BLOCK_RECORD
  5
1B
330
1
100
AcDbSymbolTableRecord
100
AcDbBlockTableRecord
  2
*PAPER_SPACE
  0
ENDTAB
  0
ENDSEC
  0
SECTION
  2
BLOCKS
  0
BLOCK
  5
20
330
1F
100
AcDbEntity
  8
0
100
AcDbBlockBegin
  2
*MODEL_SPACE
 70
     0
 10
0.0
 20
0.0
 30
0.0
  3
*MODEL_SPACE
  1

  0
ENDBLK
  5
21
330
1F
100
AcDbEntity
  8
0
100
AcDbBlockEnd
  0
BLOCK
  5
1C
330
1B
100
AcDbEntity
 67
     1
  8
0
100
AcDbBlockBegin
  2
*PAPER_SPACE
  1

  0
ENDBLK
  5
1D
330
1B
100
AcDbEntity
 67
     1
  8
0
100
AcDbBlockEnd
  0
ENDSEC
  0
SECTION
  2
ENTITIES
  0
SPLINE
  5
100
100
AcDbEntity
  8
Layer_1
 62
7
100
AcDbSpline
 70
8
 71
3
 72
8
 73
4
 74
0
 40
0
 40
0
 40
0
 40
0
 40
1
 40
1
 40
1
 40
1
 10
22.954149
 20
44.444687
 30
0.0
 10
16.746181
 20
43.728135
 30
0.0
 10
10.803811
 20
39.146875
 30
0.0
 10
6.822853
 20
32.008598
 30
0.0
  0
LWPOLYLINE
  5
101
100
AcDbEntity
  8
Layer_1
 62
7
100
AcDbPolyline
 90
3
 70
0
 10
24.624846
 20
44.515827
 30
0.0
 10
23.568064
 20
44.515481
 30
0.0
 10
22.954149
 20
44.444687
 30
0.0
  0
SPLINE
  5
102
100
AcDbEntity
  8
Layer_1
 62
7
100
AcDbSpline
 70
8
 71
3
 72
8
 73
4
 74
0
 40
0
 40
0
 40
0
 40
0
 40
1
 40
1
 40
1
 40
1
 10
6.427013
 20
31.573483
 30
0.0
 10
6.412182
 20
31.698189
 30
0.0
 10
6.397951
 20
32.196968
 30
0.0
 10
6.395492
 20
32.681939
 30
0.0
  0
LWPOLYLINE
  5
103
100
AcDbEntity
  8
Layer_1
 62
7
100
AcDbPolyline
 90
3
 70
0
 10
6.822853
 20
32.008598
 30
0.0
 10
6.453883
 20
31.346622
 30
0.0
 10
6.427013
 20
31.573483
 30
0.0
  0
SPLINE
  5
104
100
AcDbEntity
  8
Layer_1
 62
7
100
AcDbSpline
 70
8
 71
3
 72
8
 73
4
 74
0
 40
0
 40
0
 40
0
 40
0
 40
1
 40
1
 40
1
 40
1
 10
6.455435
 20
34.173835
 30
0.0
 10
6.490284
 20
34.509360
 30
0.0
 10
6.546873
 20
34.949488
 30
0.0
 10
6.581526
 20
35.151554
 30
0.0
  0
SPLINE
  5
105
100
AcDbEntity
  8
Layer_1
 62
7
100
AcDbSpline
 70
8
 71
3
 72
8
 73
4
 74
0
 40
0
 40
0
 40
0
 40
0
 40
1
 40
1
 40
1
 40
1
 10
6.581526
 20
35.151554
 30
0.0
 10
6.663899
 20
35.631562
 30
0.0
 10
6.682133
 20
35.638280
 30
0.0
 10
6.154679
 20
34.981023
 30
0.0
  0
SPLINE
  5
106
100
AcDbEntity
  8
Layer_1
 62
7
100
AcDbSpline
 70
8
 71
3
 72
8
 73
4
 74
0
 40
0
 40
0
 40
0
 40
0
 40
1
 40
1
 40
1
 40
1
 10
6.154679
 20
34.981023
 30
0.0
 10
4.057929
 20
32.368250
 30
0.0
 10
2.826531
 20
29.756852
 30
0.0
 10
2.407625
 20
27.034745
 30
0.0
  0
LWPOLYLINE
  5
107
100
AcDbEntity
  8
Layer_1
 62
7
100
AcDbPolyline
 90
3
 70
0
 10
6.395492
 20
32.681939
 30
0.0
 10
6.391874
 20
33.564056
 30
0.0
 10
6.455435
 20
34.173835
 30
0.0
  0
SPLINE
  5
108
100
AcDbEntity
  8
Layer_1
 62
7
100
AcDbSpline
 70
8
 71
3
 72
8
 73
4
 74
0
 40
0
 40
0
 40
0
 40
0
 40
1
 40
1
 40
1
 40
1
 10
2.328044
 20
24.129500
 30
0.0
 10
2.468495
 20
22.635713
 30
0.0
 10
2.950712
 20
20.991769
 30
0.0
 10
3.547090
 20
19.974203
 30
0.0
  0
LWPOLYLINE
  5
109
100
AcDbEntity
  8
Layer_1
 62
7
100
AcDbPolyline
 90
5
 70
0
 10
2.407625
 20
27.034745
 30
0.0
 10
2.324426
 20
26.495760
 30
0.0
 10
2.301171
 20
25.577988
 30
0.0
 10
2.278435
 20
24.659700
 30
0.0
 10
2.328044
 20
24.129500
 30
0.0
  0
SPLINE
  5
10a
100
AcDbEntity
  8
Layer_1
 62
7
100
AcDbSpline
 70
8
 71
3
 72
8
 73
4
 74
0
 40
0
 40
0
 40
0
 40
0
 40
1
 40
1
 40
1
 40
1
 10
3.432368
 20
19.153067
 30
0.0
 10
2.529246
 20
17.173856
 30
0.0
 10
2.050299
 20
15.356525
 30
0.0
 10
1.914116
 20
13.393218
 30
0.0
  0
LWPOLYLINE
  5
10b
100
AcDbEntity
  8
Layer_1
 62
7
100
AcDbPolyline
 90
3
 70
0
 10
3.547090
 20
19.974203
 30
0.0
 10
3.693334
 20
19.724608
 30
0.0
 10
3.432368
 20
19.153067
 30
0.0
  0
SPLINE
  5
10c
100
AcDbEntity
  8
Layer_1
 62
7
100
AcDbSpline
 70
8
 71
3
 72
8
 73
4
 74
0
 40
0
 40
0
 40
0
 40
0
 40
1
 40
1
 40
1
 40
1
 10
1.893962
 20
12.074955
 30
0.0
 10
2.015912
 20
9.402406
 30
0.0
 10
2.950314
 20
6.661860
 30
0.0
 10
4.317067
 20
4.968417
 30
0.0
  0
LWPOLYLINE
  5
10d
100
AcDbEntity
  8
Layer_1
 62
7
100
AcDbPolyline
 90
3
 70
0
 10
1.914116
 20
13.393218
 30
0.0
 10
1.865540
 20
12.696622
 30
0.0
 10
1.893962
 20
12.074955
 30
0.0
  0
SPLINE
  5
10e
100
AcDbEntity
  8
Layer_1
 62
7
100
AcDbSpline
 70
8
 71
3
 72
8
 73
4
 74
0
 40
0
 40
0
 40
0
 40
0
 40
1
 40
1
 40
1
 40
1
 10
4.401822
 20
5.092960
 30
0.0
 10
4.411808
 20
7.564832
 30
0.0
 10
5.736514
 20
10.301109
 30
0.0
 10
7.597488
 20
11.694616
 30
0.0
  0
SPLINE
  5
10f
100
AcDbEntity
  8
Layer_1
 62
7
100
AcDbSpline
 70
8
 71
3
 72
8
 73
4
 74
0
 40
0
 40
0
 40
0
 40
0
 40
1
 40
1
 40
1
 40
1
 10
7.597488
 20
11.694616
 30
0.0
 10
7.956535
 20
11.963467
 30
0.0
 10
8.008315
 20
11.977581
 30
0.0
 10
8.008315
 20
11.808303
 30
0.0
  0
SPLINE
  5
110
100
AcDbEntity
  8
Layer_1
 62
7
100
AcDbSpline
 70
8
 71
3
 72
8
 73
4
 74
0
 40
0
 40
0
 40
0
 40
0
 40
1
 40
1
 40
1
 40
1
 10
8.008315
 20
11.808303
 30
0.0
 10
8.008315
 20
11.376423
 30
0.0
 10
8.367593
 20
9.674289
 30
0.0
 10
8.654270
 20
8.748546
 30
0.0
  0
SPLINE
  5
111
100
AcDbEntity
  8
Layer_1
 62
7
100
AcDbSpline
 70
8
 71
3
 72
8
 73
4
 74
0
 40
0
 40
0
 40
0
 40
0
 40
1
 40
1
 40
1
 40
1
 10
8.654270
 20
8.748546
 30
0.0
 10
9.989939
 20
4.435433
 30
0.0
 10
13.348467
 20
1.549142
 30
0.0
 10
16.618116
 20
1.904009
 30
0.0
  0
SPLINE
  5
112
100
AcDbEntity
  8
Layer_1
 62
7
100
AcDbSpline
 70
8
 71
3
 72
8
 73
4
 74
0
 40
0
 40
0
 40
0
 40
0
 40
1
 40
1
 40
1
 40
1
 10
16.618116
 20
1.904009
 30
0.0
 10
17.570320
 20
2.007502
 30
0.0
 10
18.522990
 20
2.292998
 30
0.0
 10
20.542936
 20
3.081199
 30
0.0
  0
SPLINE
  5
113
100
AcDbEntity
  8
Layer_1
 62
7
100
AcDbSpline
 70
8
 71
3
 72
8
 73
4
 74
0
 40
0
 40
0
 40
0
 40
0
 40
1
 40
1
 40
1
 40
1
 10
20.542936
 20
3.081199
 30
0.0
 10
22.690603
 20
3.919236
 30
0.0
 10
23.973148
 20
4.307698
 30
0.0
 10
25.298196
 20
4.520903
 30
0.0
  0
LWPOLYLINE
  5
114
100
AcDbEntity
  8
Layer_1
 62
7
100
AcDbPolyline
 90
3
 70
0
 10
4.317067
 20
4.968417
 30
0.0
 10
4.400783
 20
4.864550
 30
0.0
 10
4.401822
 20
5.092960
 30
0.0
  0
SPLINE
  5
115
100
AcDbEntity
  8
Layer_1
 62
7
100
AcDbSpline
 70
8
 71
3
 72
8
 73
4
 74
0
 40
0
 40
0
 40
0
 40
0
 40
1
 40
1
 40
1
 40
1
 10
29.100028
 20
4.518295
 30
0.0
 10
30.868683
 20
4.243306
 30
0.0
 10
32.323643
 20
3.786425
 30
0.0
 10
33.813943
 20
3.037767
 30
0.0
  0
LWPOLYLINE
  5
116
100
AcDbEntity
  8
Layer_1
 62
7
100
AcDbPolyline
 90
5
 70
0
 10
25.298196
 20
4.520903
 30
0.0
 10
25.888857
 20
4.615985
 30
0.0
 10
27.194202
 20
4.613907
 30
0.0
 10
28.499547
 20
4.611829
 30
0.0
 10
29.100028
 20
4.518295
 30
0.0
  0
SPLINE
  5
117
100
AcDbEntity
  8
Layer_1
 62
7
100
AcDbSpline
 70
8
 71
3
 72
8
 73
4
 74
0
 40
0
 40
0
 40
0
 40
0
 40
1
 40
1
 40
1
 40
1
 10
34.420108
 20
2.935964
 30
0.0
 10
33.486463
 20
4.664542
 30
0.0
 10
30.808883
 20
6.451543
 30
0.0
 10
27.574023
 20
7.504671
 30
0.0
  0
SPLINE
  5
118
100
AcDbEntity
  8
Layer_1
 62
7
100
AcDbSpline
 70
8
 71
3
 72
8
 73
4
 74
0
 40
0
 40
0
 40
0
 40
0
 40
1
 40
1
 40
1
 40
1
 10
27.574023
 20
7.504671
 30
0.0
 10
26.919020
 20
7.717911
 30
0.0
 10
26.926665
 20
7.660839
 30
0.0
 10
27.495992
 20
8.104634
 30
0.0
  0
SPLINE
  5
119
100
AcDbEntity
  8
Layer_1
 62
7
100
AcDbSpline
 70
8
 71
3
 72
8
 73
4
 74
0
 40
0
 40
0
 40
0
 40
0
 40
1
 40
1
 40
1
 40
1
 10
27.495992
 20
8.104634
 30
0.0
 10
31.827093
 20
11.480781
 30
0.0
 10
37.640552
 20
13.284663
 30
0.0
 10
44.971392
 20
13.526518
 30
0.0
  0
SPLINE
  5
11a
100
AcDbEntity
  8
Layer_1
 62
7
100
AcDbSpline
 70
8
 71
3
 72
8
 73
4
 74
0
 40
0
 40
0
 40
0
 40
0
 40
1
 40
1
 40
1
 40
1
 10
44.971392
 20
13.526518
 30
0.0
 10
47.051177
 20
13.595131
 30
0.0
 10
49.804764
 20
13.297748
 30
0.0
 10
51.367375
 20
12.836123
 30
0.0
  0
SPLINE
  5
11b
100
AcDbEntity
  8
Layer_1
 62
7
100
AcDbSpline
 70
8
 71
3
 72
8
 73
4
 74
0
 40
0
 40
0
 40
0
 40
0
 40
1
 40
1
 40
1
 40
1
 10
51.367375
 20
12.836123
 30
0.0
 10
51.808480
 20
12.705812
 30
0.0
 10
51.738312
 20
12.761416
 30
0.0
 10
51.028894
 20
13.102255
 30
0.0
  0
SPLINE
  5
11c
100
AcDbEntity
  8
Layer_1
 62
7
100
AcDbSpline
 70
8
 71
3
 72
8
 73
4
 74
0
 40
0
 40
0
 40
0
 40
0
 40
1
 40
1
 40
1
 40
1
 10
51.028894
 20
13.102255
 30
0.0
 10
49.032099
 20
14.061625
 30
0.0
 10
46.202087
 20
15.186507
 30
0.0
 10
42.723469
 20
16.404377
 30
0.0
  0
LWPOLYLINE
  5
11d
100
AcDbEntity
  8
Layer_1
 62
7
100
AcDbPolyline
 90
3
 70
0
 10
33.813943
 20
3.037767
 30
0.0
 10
34.570486
 20
2.657428
 30
0.0
 10
34.420108
 20
2.935964
 30
0.0
  0
SPLINE
  5
11e
100
AcDbEntity
  8
Layer_1
 62
7
100
AcDbSpline
 70
8
 71
3
 72
8
 73
4
 74
0
 40
0
 40
0
 40
0
 40
0
 40
1
 40
1
 40
1
 40
1
 10
42.405660
 20
16.794525
 30
0.0
 10
42.802605
 20
16.808861
 30
0.0
 10
43.668607
 20
16.839197
 30
0.0
 10
44.329569
 20
16.861705
 30
0.0
  0
SPLINE
  5
11f
100
AcDbEntity
  8
Layer_1
 62
7
100
AcDbSpline
 70
8
 71
3
 72
8
 73
4
 74
0
 40
0
 40
0
 40
0
 40
0
 40
1
 40
1
 40
1
 40
1
 10
44.329569
 20
16.861705
 30
0.0
 10
45.900473
 20
16.915259
 30
0.0
 10
47.223290
 20
16.984052
 30
0.0
 10
47.434286
 20
17.023450
 30
0.0
  0
LWPOLYLINE
  5
120
100
AcDbEntity
  8
Layer_1
 62
7
100
AcDbPolyline
 90
3
 70
0
 10
42.723469
 20
16.404377
 30
0.0
 10
41.684257
 20
16.768693
 30
0.0
 10
42.405660
 20
16.794525
 30
0.0
  0
SPLINE
  5
121
100
AcDbEntity
  8
Layer_1
 62
7
100
AcDbSpline
 70
8
 71
3
 72
8
 73
4
 74
0
 40
0
 40
0
 40
0
 40
0
 40
1
 40
1
 40
1
 40
1
 10
47.437388
 20
17.084428
 30
0.0
 10
45.515955
 20
17.428571
 30
0.0
 10
44.089687
 20
18.149157
 30
0.0
 10
43.655192
 20
18.994905
 30
0.0
  0
LWPOLYLINE
  5
122
100
AcDbEntity
  8
Layer_1
 62
7
100
AcDbPolyline
 90
3
 70
0
 10
47.434286
 20
17.023450
 30
0.0
 10
47.603268
 20
17.054961
 30
0.0
 10
47.437388
 20
17.084428
 30
0.0
  0
SPLINE
  5
123
100
AcDbEntity
  8
Layer_1
 62
7
100
AcDbSpline
 70
8
 71
3
 72
8
 73
4
 74
0
 40
0
 40
0
 40
0
 40
0
 40
1
 40
1
 40
1
 40
1
 10
43.687222
 20
19.838780
 30
0.0
 10
44.170783
 20
20.745974
 30
0.0
 10
45.517746
 20
21.605143
 30
0.0
 10
46.981075
 20
21.939425
 30
0.0
  0
LWPOLYLINE
  5
124
100
AcDbEntity
  8
Layer_1
 62
7
100
AcDbPolyline
 90
5
 70
0
 10
43.655192
 20
18.994905
 30
0.0
 10
43.548739
 20
19.202127
 30
0.0
 10
43.547700
 20
19.388679
 30
0.0
 10
43.546661
 20
19.575231
 30
0.0
 10
43.687222
 20
19.838780
 30
0.0
  0
SPLINE
  5
125
100
AcDbEntity
  8
Layer_1
 62
7
100
AcDbSpline
 70
8
 71
3
 72
8
 73
4
 74
0
 40
0
 40
0
 40
0
 40
0
 40
1
 40
1
 40
1
 40
1
 10
49.405214
 20
22.023132
 30
0.0
 10
52.340457
 20
21.599752
 30
0.0
 10
54.769582
 20
19.212927
 30
0.0
 10
55.731950
 20
15.805944
 30
0.0
  0
SPLINE
  5
126
100
AcDbEntity
  8
Layer_1
 62
7
100
AcDbSpline
 70
8
 71
3
 72
8
 73
4
 74
0
 40
0
 40
0
 40
0
 40
0
 40
1
 40
1
 40
1
 40
1
 10
55.731950
 20
15.805944
 30
0.0
 10
55.793372
 20
15.588498
 30
0.0
 10
55.857646
 20
15.410623
 30
0.0
 10
55.874579
 20
15.410623
 30
0.0
  0
SPLINE
  5
127
100
AcDbEntity
  8
Layer_1
 62
7
100
AcDbSpline
 70
8
 71
3
 72
8
 73
4
 74
0
 40
0
 40
0
 40
0
 40
0
 40
1
 40
1
 40
1
 40
1
 10
55.874579
 20
15.410623
 30
0.0
 10
55.891511
 20
15.410623
 30
0.0
 10
56.198077
 20
15.522911
 30
0.0
 10
56.556188
 20
15.660217
 30
0.0
  0
SPLINE
  5
128
100
AcDbEntity
  8
Layer_1
 62
7
100
AcDbSpline
 70
8
 71
3
 72
8
 73
4
 74
0
 40
0
 40
0
 40
0
 40
0
 40
1
 40
1
 40
1
 40
1
 10
56.556188
 20
15.660217
 30
0.0
 10
60.058949
 20
17.003187
 30
0.0
 10
62.173991
 20
18.382359
 30
0.0
 10
62.679838
 20
19.653769
 30
0.0
  0
LWPOLYLINE
  5
129
100
AcDbEntity
  8
Layer_1
 62
7
100
AcDbPolyline
 90
5
 70
0
 10
46.981075
 20
21.939425
 30
0.0
 10
47.478719
 20
22.053112
 30
0.0
 10
48.203737
 20
22.072226
 30
0.0
 10
48.928755
 20
22.091859
 30
0.0
 10
49.405214
 20
22.023132
 30
0.0
  0
SPLINE
  5
12a
100
AcDbEntity
  8
Layer_1
 62
7
100
AcDbSpline
 70
8
 71
3
 72
8
 73
4
 74
0
 40
0
 40
0
 40
0
 40
0
 40
1
 40
1
 40
1
 40
1
 10
62.631634
 20
20.851111
 30
0.0
 10
62.375156
 20
21.372091
 30
0.0
 10
61.865721
 20
21.825630
 30
0.0
 10
61.083410
 20
22.228802
 30
0.0
  0
LWPOLYLINE
  5
12b
100
AcDbEntity
  8
Layer_1
 62
7
100
AcDbPolyline
 90
5
 70
0
 10
62.679838
 20
19.653769
 30
0.0
 10
62.764071
 20
19.865124
 30
0.0
 10
62.767188
 20
20.218592
 30
0.0
 10
62.769612
 20
20.571541
 30
0.0
 10
62.631634
 20
20.851111
 30
0.0
  0
SPLINE
  5
12c
100
AcDbEntity
  8
Layer_1
 62
7
100
AcDbSpline
 70
8
 71
3
 72
8
 73
4
 74
0
 40
0
 40
0
 40
0
 40
0
 40
1
 40
1
 40
1
 40
1
 10
77.328395
 20
33.981559
 30
0.0
 10
79.045699
 20
33.696057
 30
0.0
 10
79.831044
 20
33.624823
 30
0.0
 10
81.251664
 20
33.624476
 30
0.0
  0
LWPOLYLINE
  5
12d
100
AcDbEntity
  8
Layer_1
 62
7
100
AcDbPolyline
 90
5
 70
0
 10
61.083410
 20
22.228802
 30
0.0
 10
60.678784
 20
22.437574
 30
0.0
 10
68.616793
 20
28.273903
 30
0.0
 10
76.554799
 20
34.110233
 30
0.0
 10
77.328395
 20
33.981559
 30
0.0
  0
SPLINE
  5
12e
100
AcDbEntity
  8
Layer_1
 62
7
100
AcDbSpline
 70
8
 71
3
 72
8
 73
4
 74
0
 40
0
 40
0
 40
0
 40
0
 40
1
 40
1
 40
1
 40
1
 10
82.805574
 20
33.677355
 30
0.0
 10
85.435826
 20
34.032392
 30
0.0
 10
86.780680
 20
35.138458
 30
0.0
 10
86.783104
 20
36.948988
 30
0.0
  0
SPLINE
  5
12f
100
AcDbEntity
  8
Layer_1
 62
7
100
AcDbSpline
 70
8
 71
3
 72
8
 73
4
 74
0
 40
0
 40
0
 40
0
 40
0
 40
1
 40
1
 40
1
 40
1
 10
86.783104
 20
36.948988
 30
0.0
 10
86.783450
 20
37.182605
 30
0.0
 10
86.774966
 20
37.373766
 30
0.0
 10
86.763990
 20
37.373766
 30
0.0
  0
SPLINE
  5
130
100
AcDbEntity
  8
Layer_1
 62
7
100
AcDbSpline
 70
8
 71
3
 72
8
 73
4
 74
0
 40
0
 40
0
 40
0
 40
0
 40
1
 40
1
 40
1
 40
1
 10
86.763990
 20
37.373766
 30
0.0
 10
86.753082
 20
37.373766
 30
0.0
 10
86.555245
 20
37.298681
 30
0.0
 10
86.324740
 20
37.206851
 30
0.0
  0
SPLINE
  5
131
100
AcDbEntity
  8
Layer_1
 62
7
100
AcDbSpline
 70
8
 71
3
 72
8
 73
4
 74
0
 40
0
 40
0
 40
0
 40
0
 40
1
 40
1
 40
1
 40
1
 10
86.324740
 20
37.206851
 30
0.0
 10
85.317444
 20
36.805566
 30
0.0
 10
83.774514
 20
36.556762
 30
0.0
 10
83.568841
 20
36.762435
 30
0.0
  0
SPLINE
  5
132
100
AcDbEntity
  8
Layer_1
 62
7
100
AcDbSpline
 70
8
 71
3
 72
8
 73
4
 74
0
 40
0
 40
0
 40
0
 40
0
 40
1
 40
1
 40
1
 40
1
 10
83.568841
 20
36.762435
 30
0.0
 10
83.459849
 20
36.871427
 30
0.0
 10
84.354820
 20
38.059805
 30
0.0
 10
85.122747
 20
38.826389
 30
0.0
  0
LWPOLYLINE
  5
133
100
AcDbEntity
  8
Layer_1
 62
7
100
AcDbPolyline
 90
3
 70
0
 10
81.251664
 20
33.624476
 30
0.0
 10
82.411800
 20
33.624130
 30
0.0
 10
82.805574
 20
33.677355
 30
0.0
  0
SPLINE
  5
134
100
AcDbEntity
  8
Layer_1
 62
7
100
AcDbSpline
 70
8
 71
3
 72
8
 73
4
 74
0
 40
0
 40
0
 40
0
 40
0
 40
1
 40
1
 40
1
 40
1
 10
86.257045
 20
39.836144
 30
0.0
 10
87.912571
 20
41.071694
 30
0.0
 10
90.149721
 20
42.087859
 30
0.0
 10
92.499551
 20
42.671111
 30
0.0
  0
LWPOLYLINE
  5
135
100
AcDbEntity
  8
Layer_1
 62
7
100
AcDbPolyline
 90
3
 70
0
 10
85.122747
 20
38.826389
 30
0.0
 10
85.768702
 20
39.471827
 30
0.0
 10
86.257045
 20
39.836144
 30
0.0
  0
SPLINE
  5
136
100
AcDbEntity
  8
Layer_1
 62
7
100
AcDbSpline
 70
8
 71
3
 72
8
 73
4
 74
0
 40
0
 40
0
 40
0
 40
0
 40
1
 40
1
 40
1
 40
1
 10
92.751732
 20
43.128965
 30
0.0
 10
91.918917
 20
43.772596
 30
0.0
 10
91.152302
 20
44.112964
 30
0.0
 10
90.014434
 20
44.343358
 30
0.0
  0
LWPOLYLINE
  5
137
100
AcDbEntity
  8
Layer_1
 62
7
100
AcDbPolyline
 90
3
 70
0
 10
92.499551
 20
42.671111
 30
0.0
 10
93.139304
 20
42.829241
 30
0.0
 10
92.751732
 20
43.128965
 30
0.0
  0
SPLINE
  5
138
100
AcDbEntity
  8
Layer_1
 62
7
100
AcDbSpline
 70
8
 71
3
 72
8
 73
4
 74
0
 40
0
 40
0
 40
0
 40
0
 40
1
 40
1
 40
1
 40
1
 10
86.825484
 20
44.364716
 30
0.0
 10
84.471966
 20
43.997082
 30
0.0
 10
81.841229
 20
43.052834
 30
0.0
 10
79.456952
 20
41.719401
 30
0.0
  0
LWPOLYLINE
  5
139
100
AcDbEntity
  8
Layer_1
 62
7
100
AcDbPolyline
 90
5
 70
0
 10
90.014434
 20
44.343358
 30
0.0
 10
89.539526
 20
44.439475
 30
0.0
 10
88.420734
 20
44.439129
 30
0.0
 10
87.301939
 20
44.439129
 30
0.0
 10
86.825484
 20
44.364716
 30
0.0
  0
SPLINE
  5
13a
100
AcDbEntity
  8
Layer_1
 62
7
100
AcDbSpline
 70
8
 71
3
 72
8
 73
4
 74
0
 40
0
 40
0
 40
0
 40
0
 40
1
 40
1
 40
1
 40
1
 10
77.025060
 20
41.503405
 30
0.0
 10
73.275378
 20
41.377862
 30
0.0
 10
68.832443
 20
39.720708
 30
0.0
 10
65.127094
 20
37.064922
 30
0.0
  0
SPLINE
  5
13b
100
AcDbEntity
  8
Layer_1
 62
7
100
AcDbSpline
 70
8
 71
3
 72
8
 73
4
 74
0
 40
0
 40
0
 40
0
 40
0
 40
1
 40
1
 40
1
 40
1
 10
65.127094
 20
37.064922
 30
0.0
 10
64.887556
 20
36.893235
 30
0.0
 10
64.683347
 20
36.752279
 30
0.0
 10
64.673374
 20
36.752279
 30
0.0
  0
SPLINE
  5
13c
100
AcDbEntity
  8
Layer_1
 62
7
100
AcDbSpline
 70
8
 71
3
 72
8
 73
4
 74
0
 40
0
 40
0
 40
0
 40
0
 40
1
 40
1
 40
1
 40
1
 10
64.673374
 20
36.752279
 30
0.0
 10
64.663367
 20
36.752279
 30
0.0
 10
64.654780
 20
36.974189
 30
0.0
 10
64.654780
 20
37.245273
 30
0.0
  0
SPLINE
  5
13d
100
AcDbEntity
  8
Layer_1
 62
7
100
AcDbSpline
 70
8
 71
3
 72
8
 73
4
 74
0
 40
0
 40
0
 40
0
 40
0
 40
1
 40
1
 40
1
 40
1
 10
64.654780
 20
37.245273
 30
0.0
 10
64.654780
 20
38.399637
 30
0.0
 10
64.419833
 20
39.735816
 30
0.0
 10
63.995387
 20
40.994909
 30
0.0
  0
SPLINE
  5
13e
100
AcDbEntity
  8
Layer_1
 62
7
100
AcDbSpline
 70
8
 71
3
 72
8
 73
4
 74
0
 40
0
 40
0
 40
0
 40
0
 40
1
 40
1
 40
1
 40
1
 10
63.995387
 20
40.994909
 30
0.0
 10
63.904152
 20
41.265546
 30
0.0
 10
63.820808
 20
41.495565
 30
0.0
 10
63.810385
 20
41.505988
 30
0.0
  0
SPLINE
  5
13f
100
AcDbEntity
  8
Layer_1
 62
7
100
AcDbSpline
 70
8
 71
3
 72
8
 73
4
 74
0
 40
0
 40
0
 40
0
 40
0
 40
1
 40
1
 40
1
 40
1
 10
63.810385
 20
41.505988
 30
0.0
 10
63.799963
 20
41.516445
 30
0.0
 10
63.722149
 20
41.416207
 30
0.0
 10
63.637272
 20
41.283264
 30
0.0
  0
SPLINE
  5
140
100
AcDbEntity
  8
Layer_1
 62
7
100
AcDbSpline
 70
8
 71
3
 72
8
 73
4
 74
0
 40
0
 40
0
 40
0
 40
0
 40
1
 40
1
 40
1
 40
1
 10
63.637272
 20
41.283264
 30
0.0
 10
62.819547
 20
40.002453
 30
0.0
 10
61.814661
 20
39.139520
 30
0.0
 10
61.033814
 20
39.047745
 30
0.0
  0
LWPOLYLINE
  5
141
100
AcDbEntity
  8
Layer_1
 62
7
100
AcDbPolyline
 90
5
 70
0
 10
79.456952
 20
41.719401
 30
0.0
 10
78.946905
 20
41.434148
 30
0.0
 10
78.358829
 20
41.481174
 30
0.0
 10
77.770750
 20
41.528198
 30
0.0
 10
77.025060
 20
41.503405
 30
0.0
  0
SPLINE
  5
142
100
AcDbEntity
  8
Layer_1
 62
7
100
AcDbSpline
 70
8
 71
3
 72
8
 73
4
 74
0
 40
0
 40
0
 40
0
 40
0
 40
1
 40
1
 40
1
 40
1
 10
60.289675
 20
39.409998
 30
0.0
 10
59.434317
 20
40.431162
 30
0.0
 10
58.155023
 20
41.057985
 30
0.0
 10
56.661478
 20
41.187666
 30
0.0
  0
LWPOLYLINE
  5
143
100
AcDbEntity
  8
Layer_1
 62
7
100
AcDbPolyline
 90
5
 70
0
 10
61.033814
 20
39.047745
 30
0.0
 10
60.812122
 20
39.021394
 30
0.0
 10
60.672080
 20
39.071520
 30
0.0
 10
60.531519
 20
39.121126
 30
0.0
 10
60.289675
 20
39.409998
 30
0.0
  0
SPLINE
  5
144
100
AcDbEntity
  8
Layer_1
 62
7
100
AcDbSpline
 70
8
 71
3
 72
8
 73
4
 74
0
 40
0
 40
0
 40
0
 40
0
 40
1
 40
1
 40
1
 40
1
 10
55.626917
 20
41.189734
 30
0.0
 10
53.752971
 20
41.038348
 30
0.0
 10
53.115705
 20
40.788598
 30
0.0
 10
49.840197
 20
38.920107
 30
0.0
  0
SPLINE
  5
145
100
AcDbEntity
  8
Layer_1
 62
7
100
AcDbSpline
 70
8
 71
3
 72
8
 73
4
 74
0
 40
0
 40
0
 40
0
 40
0
 40
1
 40
1
 40
1
 40
1
 10
49.840197
 20
38.920107
 30
0.0
 10
46.072261
 20
36.770708
 30
0.0
 10
44.746262
 20
36.158968
 30
0.0
 10
43.505708
 20
35.999875
 30
0.0
  0
LWPOLYLINE
  5
146
100
AcDbEntity
  8
Layer_1
 62
7
100
AcDbPolyline
 90
3
 70
0
 10
56.661478
 20
41.187666
 30
0.0
 10
56.151431
 20
41.232107
 30
0.0
 10
55.626917
 20
41.189734
 30
0.0
  0
SPLINE
  5
147
100
AcDbEntity
  8
Layer_1
 62
7
100
AcDbSpline
 70
8
 71
3
 72
8
 73
4
 74
0
 40
0
 40
0
 40
0
 40
0
 40
1
 40
1
 40
1
 40
1
 10
42.862853
 20
36.002974
 30
0.0
 10
42.712077
 20
36.030571
 30
0.0
 10
42.507951
 20
36.100130
 30
0.0
 10
42.409649
 20
36.157486
 30
0.0
  0
LWPOLYLINE
  5
148
100
AcDbEntity
  8
Layer_1
 62
7
100
AcDbPolyline
 90
3
 70
0
 10
43.505708
 20
35.999875
 30
0.0
 10
43.136738
 20
35.952848
 30
0.0
 10
42.862853
 20
36.002974
 30
0.0
  0
SPLINE
  5
149
100
AcDbEntity
  8
Layer_1
 62
7
100
AcDbSpline
 70
8
 71
3
 72
8
 73
4
 74
0
 40
0
 40
0
 40
0
 40
0
 40
1
 40
1
 40
1
 40
1
 10
42.093391
 20
36.476846
 30
0.0
 10
42.017769
 20
36.595059
 30
0.0
 10
41.922583
 20
36.784406
 30
0.0
 10
41.881519
 20
36.898010
 30
0.0
  0
LWPOLYLINE
  5
14a
100
AcDbEntity
  8
Layer_1
 62
7
100
AcDbPolyline
 90
3
 70
0
 10
42.409649
 20
36.157486
 30
0.0
 10
42.230849
 20
36.261876
 30
0.0
 10
42.093391
 20
36.476846
 30
0.0
  0
SPLINE
  5
14b
100
AcDbEntity
  8
Layer_1
 62
7
100
AcDbSpline
 70
8
 71
3
 72
8
 73
4
 74
0
 40
0
 40
0
 40
0
 40
0
 40
1
 40
1
 40
1
 40
1
 10
41.918227
 20
38.156847
 30
0.0
 10
42.327964
 20
39.327014
 30
0.0
 10
43.765721
 20
40.754498
 30
0.0
 10
45.842016
 20
42.052730
 30
0.0
  0
SPLINE
  5
14c
100
AcDbEntity
  8
Layer_1
 62
7
100
AcDbSpline
 70
8
 71
3
 72
8
 73
4
 74
0
 40
0
 40
0
 40
0
 40
0
 40
1
 40
1
 40
1
 40
1
 10
45.842016
 20
42.052730
 30
0.0
 10
46.245361
 20
42.304928
 30
0.0
 10
46.406653
 20
42.429449
 30
0.0
 10
46.329840
 20
42.429449
 30
0.0
  0
SPLINE
  5
14d
100
AcDbEntity
  8
Layer_1
 62
7
100
AcDbSpline
 70
8
 71
3
 72
8
 73
4
 74
0
 40
0
 40
0
 40
0
 40
0
 40
1
 40
1
 40
1
 40
1
 10
46.329840
 20
42.429449
 30
0.0
 10
46.320733
 20
42.429449
 30
0.0
 10
46.207306
 20
42.449429
 30
0.0
 10
46.077659
 20
42.473374
 30
0.0
  0
LWPOLYLINE
  5
14e
100
AcDbEntity
  8
Layer_1
 62
7
100
AcDbPolyline
 90
5
 70
0
 10
41.881519
 20
36.898010
 30
0.0
 10
41.806587
 20
37.104715
 30
0.0
 10
41.808664
 20
37.477820
 30
0.0
 10
41.810742
 20
37.850405
 30
0.0
 10
41.918227
 20
38.156847
 30
0.0
  0
SPLINE
  5
14f
100
AcDbEntity
  8
Layer_1
 62
7
100
AcDbSpline
 70
8
 71
3
 72
8
 73
4
 74
0
 40
0
 40
0
 40
0
 40
0
 40
1
 40
1
 40
1
 40
1
 10
45.334555
 20
42.471306
 30
0.0
 10
44.021943
 20
42.354482
 30
0.0
 10
41.583846
 20
41.844553
 30
0.0
 10
38.104514
 20
40.958738
 30
0.0
  0
LWPOLYLINE
  5
150
100
AcDbEntity
  8
Layer_1
 62
7
100
AcDbPolyline
 90
3
 70
0
 10
46.077659
 20
42.473374
 30
0.0
 10
45.842016
 20
42.516782
 30
0.0
 10
45.334555
 20
42.471306
 30
0.0
  0
SPLINE
  5
151
100
AcDbEntity
  8
Layer_1
 62
7
100
AcDbSpline
 70
8
 71
3
 72
8
 73
4
 74
0
 40
0
 40
0
 40
0
 40
0
 40
1
 40
1
 40
1
 40
1
 10
35.578056
 20
40.648165
 30
0.0
 10
34.372316
 20
40.740907
 30
0.0
 10
33.304118
 20
41.011613
 30
0.0
 10
32.615967
 20
41.399538
 30
0.0
  0
SPLINE
  5
152
100
AcDbEntity
  8
Layer_1
 62
7
100
AcDbSpline
 70
8
 71
3
 72
8
 73
4
 74
0
 40
0
 40
0
 40
0
 40
0
 40
1
 40
1
 40
1
 40
1
 10
32.615967
 20
41.399538
 30
0.0
 10
31.625638
 20
41.957807
 30
0.0
 10
30.344480
 20
42.379046
 30
0.0
 10
29.038409
 20
42.575693
 30
0.0
  0
LWPOLYLINE
  5
153
100
AcDbEntity
  8
Layer_1
 62
7
100
AcDbPolyline
 90
5
 70
0
 10
38.104514
 20
40.958738
 30
0.0
 10
37.059100
 20
40.692606
 30
0.0
 10
36.571277
 20
40.650749
 30
0.0
 10
36.082933
 20
40.608892
 30
0.0
 10
35.578056
 20
40.648165
 30
0.0
  0
SPLINE
  5
154
100
AcDbEntity
  8
Layer_1
 62
7
100
AcDbSpline
 70
8
 71
3
 72
8
 73
4
 74
0
 40
0
 40
0
 40
0
 40
0
 40
1
 40
1
 40
1
 40
1
 10
27.000294
 20
42.560536
 30
0.0
 10
26.014177
 20
42.363856
 30
0.0
 10
24.792635
 20
41.782740
 30
0.0
 10
24.114686
 20
41.187497
 30
0.0
  0
SPLINE
  5
155
100
AcDbEntity
  8
Layer_1
 62
7
100
AcDbSpline
 70
8
 71
3
 72
8
 73
4
 74
0
 40
0
 40
0
 40
0
 40
0
 40
1
 40
1
 40
1
 40
1
 10
24.114686
 20
41.187497
 30
0.0
 10
23.916490
 20
41.013472
 30
0.0
 10
23.903138
 20
41.032285
 30
0.0
 10
23.960173
 20
41.399884
 30
0.0
  0
SPLINE
  5
156
100
AcDbEntity
  8
Layer_1
 62
7
100
AcDbSpline
 70
8
 71
3
 72
8
 73
4
 74
0
 40
0
 40
0
 40
0
 40
0
 40
1
 40
1
 40
1
 40
1
 10
23.960173
 20
41.399884
 30
0.0
 10
24.094344
 20
42.264639
 30
0.0
 10
24.547679
 20
43.024319
 30
0.0
 10
25.482042
 20
43.950630
 30
0.0
  0
LWPOLYLINE
  5
157
100
AcDbEntity
  8
Layer_1
 62
7
100
AcDbPolyline
 90
5
 70
0
 10
29.038409
 20
42.575693
 30
0.0
 10
28.582625
 20
42.644424
 30
0.0
 10
28.002299
 20
42.644770
 30
0.0
 10
27.422490
 20
42.644770
 30
0.0
 10
27.000294
 20
42.560536
 30
0.0
  0
SPLINE
  5
158
100
AcDbEntity
  8
Layer_1
 62
7
100
AcDbSpline
 70
8
 71
3
 72
8
 73
4
 74
0
 40
0
 40
0
 40
0
 40
0
 40
1
 40
1
 40
1
 40
1
 10
25.837059
 20
44.486530
 30
0.0
 10
25.751695
 20
44.503081
 30
0.0
 10
25.205922
 20
44.516343
 30
0.0
 10
24.624731
 20
44.515997
 30
0.0
  0
LWPOLYLINE
  5
159
100
AcDbEntity
  8
Layer_1
 62
7
100
AcDbPolyline
 90
3
 70
0
 10
25.482042
 20
43.950630
 30
0.0
 10
25.992088
 20
44.456543
 30
0.0
 10
25.837059
 20
44.486530
 30
0.0
  0
SPLINE
  5
15a
100
AcDbEntity
  8
Layer_1
 62
7
100
AcDbSpline
 70
8
 71
3
 72
8
 73
4
 74
0
 40
0
 40
0
 40
0
 40
0
 40
1
 40
1
 40
1
 40
1
 10
22.055497
 20
36.482736
 30
0.0
 10
22.110424
 20
36.482698
 30
0.0
 10
22.165663
 20
36.270037
 30
0.0
 10
22.301476
 20
35.845051
 30
0.0
  0
LWPOLYLINE
  5
15b
100
AcDbEntity
  8
Layer_1
 62
7
100
AcDbPolyline
 90
2
 70
0
 10
24.624731
 20
44.515997
 30
0.0
 10
24.624846
 20
44.515827
 30
0.0
  0
SPLINE
  5
15c
100
AcDbEntity
  8
Layer_1
 62
7
100
AcDbSpline
 70
8
 71
3
 72
8
 73
4
 74
0
 40
0
 40
0
 40
0
 40
0
 40
1
 40
1
 40
1
 40
1
 10
23.285394
 20
35.141218
 30
0.0
 10
24.193852
 20
35.141218
 30
0.0
 10
24.181818
 20
35.178809
 30
0.0
 10
23.443007
 20
34.645641
 30
0.0
  0
SPLINE
  5
15d
100
AcDbEntity
  8
Layer_1
 62
7
100
AcDbSpline
 70
8
 71
3
 72
8
 73
4
 74
0
 40
0
 40
0
 40
0
 40
0
 40
1
 40
1
 40
1
 40
1
 10
23.443007
 20
34.645641
 30
0.0
 10
23.112961
 20
34.407463
 30
0.0
 10
22.843045
 20
34.204858
 30
0.0
 10
22.843045
 20
34.195024
 30
0.0
  0
SPLINE
  5
15e
100
AcDbEntity
  8
Layer_1
 62
7
100
AcDbSpline
 70
8
 71
3
 72
8
 73
4
 74
0
 40
0
 40
0
 40
0
 40
0
 40
1
 40
1
 40
1
 40
1
 10
22.843045
 20
34.195024
 30
0.0
 10
22.843045
 20
34.185190
 30
0.0
 10
22.945934
 20
33.860164
 30
0.0
 10
23.071971
 20
33.472589
 30
0.0
  0
LWPOLYLINE
  5
15f
100
AcDbEntity
  8
Layer_1
 62
7
100
AcDbPolyline
 90
3
 70
0
 10
22.301476
 20
35.845051
 30
0.0
 10
22.526268
 20
35.141218
 30
0.0
 10
23.285394
 20
35.141218
 30
0.0
  0
SPLINE
  5
160
100
AcDbEntity
  8
Layer_1
 62
7
100
AcDbSpline
 70
8
 71
3
 72
8
 73
4
 74
0
 40
0
 40
0
 40
0
 40
0
 40
1
 40
1
 40
1
 40
1
 10
23.071971
 20
33.472243
 30
0.0
 10
23.348017
 20
32.623329
 30
0.0
 10
23.395255
 20
32.659774
 30
0.0
 10
22.688532
 20
33.176653
 30
0.0
  0
SPLINE
  5
161
100
AcDbEntity
  8
Layer_1
 62
7
100
AcDbSpline
 70
8
 71
3
 72
8
 73
4
 74
0
 40
0
 40
0
 40
0
 40
0
 40
1
 40
1
 40
1
 40
1
 10
22.688532
 20
33.176653
 30
0.0
 10
21.980463
 20
33.694502
 30
0.0
 10
22.132400
 20
33.693256
 30
0.0
 10
21.432280
 20
33.188011
 30
0.0
  0
SPLINE
  5
162
100
AcDbEntity
  8
Layer_1
 62
7
100
AcDbSpline
 70
8
 71
3
 72
8
 73
4
 74
0
 40
0
 40
0
 40
0
 40
0
 40
1
 40
1
 40
1
 40
1
 10
21.432280
 20
33.188011
 30
0.0
 10
20.731934
 20
32.682611
 30
0.0
 10
20.768308
 20
32.655034
 30
0.0
 10
21.042123
 20
33.484632
 30
0.0
  0
SPLINE
  5
163
100
AcDbEntity
  8
Layer_1
 62
7
100
AcDbSpline
 70
8
 71
3
 72
8
 73
4
 74
0
 40
0
 40
0
 40
0
 40
0
 40
1
 40
1
 40
1
 40
1
 10
21.042123
 20
33.484632
 30
0.0
 10
21.166040
 20
33.860064
 30
0.0
 10
21.267772
 20
34.177482
 30
0.0
 10
21.267949
 20
34.190017
 30
0.0
  0
SPLINE
  5
164
100
AcDbEntity
  8
Layer_1
 62
7
100
AcDbSpline
 70
8
 71
3
 72
8
 73
4
 74
0
 40
0
 40
0
 40
0
 40
0
 40
1
 40
1
 40
1
 40
1
 10
21.267949
 20
34.190017
 30
0.0
 10
21.268120
 20
34.202552
 30
0.0
 10
20.998033
 20
34.407622
 30
0.0
 10
20.667986
 20
34.645800
 30
0.0
  0
SPLINE
  5
165
100
AcDbEntity
  8
Layer_1
 62
7
100
AcDbSpline
 70
8
 71
3
 72
8
 73
4
 74
0
 40
0
 40
0
 40
0
 40
0
 40
1
 40
1
 40
1
 40
1
 10
20.667986
 20
34.645800
 30
0.0
 10
19.929150
 20
35.178996
 30
0.0
 10
19.917076
 20
35.140861
 30
0.0
 10
20.826116
 20
35.140861
 30
0.0
  0
LWPOLYLINE
  5
166
100
AcDbEntity
  8
Layer_1
 62
7
100
AcDbPolyline
 90
2
 70
0
 10
23.071971
 20
33.472589
 30
0.0
 10
23.071971
 20
33.472243
 30
0.0
  0
SPLINE
  5
167
100
AcDbEntity
  8
Layer_1
 62
7
100
AcDbSpline
 70
8
 71
3
 72
8
 73
4
 74
0
 40
0
 40
0
 40
0
 40
0
 40
1
 40
1
 40
1
 40
1
 10
21.810551
 20
35.845726
 30
0.0
 10
21.945882
 20
36.270519
 30
0.0
 10
22.000569
 20
36.482934
 30
0.0
 10
22.055497
 20
36.482896
 30
0.0
  0
LWPOLYLINE
  5
168
100
AcDbEntity
  8
Layer_1
 62
7
100
AcDbPolyline
 90
3
 70
0
 10
20.826116
 20
35.140861
 30
0.0
 10
21.585758
 20
35.140861
 30
0.0
 10
21.810551
 20
35.845726
 30
0.0
  0
SPLINE
  5
169
100
AcDbEntity
  8
Layer_1
 62
7
100
AcDbSpline
 70
8
 71
3
 72
8
 73
4
 74
0
 40
0
 40
0
 40
0
 40
0
 40
1
 40
1
 40
1
 40
1
 10
11.937263
 20
26.461140
 30
0.0
 10
11.992191
 20
26.461102
 30
0.0
 10
12.047429
 20
26.248441
 30
0.0
 10
12.183243
 20
25.823451
 30
0.0
  0
LWPOLYLINE
  5
16a
100
AcDbEntity
  8
Layer_1
 62
7
100
AcDbPolyline
 90
2
 70
0
 10
22.055497
 20
36.482896
 30
0.0
 10
22.055497
 20
36.482736
 30
0.0
  0
SPLINE
  5
16b
100
AcDbEntity
  8
Layer_1
 62
7
100
AcDbSpline
 70
8
 71
3
 72
8
 73
4
 74
0
 40
0
 40
0
 40
0
 40
0
 40
1
 40
1
 40
1
 40
1
 10
13.167161
 20
25.119621
 30
0.0
 10
14.075618
 20
25.119621
 30
0.0
 10
14.063584
 20
25.157212
 30
0.0
 10
13.324774
 20
24.624045
 30
0.0
  0
SPLINE
  5
16c
100
AcDbEntity
  8
Layer_1
 62
7
100
AcDbSpline
 70
8
 71
3
 72
8
 73
4
 74
0
 40
0
 40
0
 40
0
 40
0
 40
1
 40
1
 40
1
 40
1
 10
13.324774
 20
24.624045
 30
0.0
 10
12.994727
 20
24.385867
 30
0.0
 10
12.724811
 20
24.183258
 30
0.0
 10
12.724811
 20
24.173424
 30
0.0
  0
SPLINE
  5
16d
100
AcDbEntity
  8
Layer_1
 62
7
100
AcDbSpline
 70
8
 71
3
 72
8
 73
4
 74
0
 40
0
 40
0
 40
0
 40
0
 40
1
 40
1
 40
1
 40
1
 10
12.724811
 20
24.173424
 30
0.0
 10
12.724811
 20
24.163590
 30
0.0
 10
12.827700
 20
23.838565
 30
0.0
 10
12.953737
 20
23.450989
 30
0.0
  0
LWPOLYLINE
  5
16e
100
AcDbEntity
  8
Layer_1
 62
7
100
AcDbPolyline
 90
3
 70
0
 10
12.183243
 20
25.823451
 30
0.0
 10
12.408035
 20
25.119621
 30
0.0
 10
13.167161
 20
25.119621
 30
0.0
  0
SPLINE
  5
16f
100
AcDbEntity
  8
Layer_1
 62
7
100
AcDbSpline
 70
8
 71
3
 72
8
 73
4
 74
0
 40
0
 40
0
 40
0
 40
0
 40
1
 40
1
 40
1
 40
1
 10
12.953737
 20
23.450643
 30
0.0
 10
13.229784
 20
22.601730
 30
0.0
 10
13.277022
 20
22.638175
 30
0.0
 10
12.570299
 20
23.155054
 30
0.0
  0
SPLINE
  5
170
100
AcDbEntity
  8
Layer_1
 62
7
100
AcDbSpline
 70
8
 71
3
 72
8
 73
4
 74
0
 40
0
 40
0
 40
0
 40
0
 40
1
 40
1
 40
1
 40
1
 10
12.570299
 20
23.155054
 30
0.0
 10
11.862230
 20
23.672899
 30
0.0
 10
12.014683
 20
23.671656
 30
0.0
 10
11.314563
 20
23.166411
 30
0.0
  0
SPLINE
  5
171
100
AcDbEntity
  8
Layer_1
 62
7
100
AcDbSpline
 70
8
 71
3
 72
8
 73
4
 74
0
 40
0
 40
0
 40
0
 40
0
 40
1
 40
1
 40
1
 40
1
 10
11.314563
 20
23.166411
 30
0.0
 10
10.614217
 20
22.661008
 30
0.0
 10
10.650075
 20
22.633434
 30
0.0
 10
10.923889
 20
23.463036
 30
0.0
  0
SPLINE
  5
172
100
AcDbEntity
  8
Layer_1
 62
7
100
AcDbSpline
 70
8
 71
3
 72
8
 73
4
 74
0
 40
0
 40
0
 40
0
 40
0
 40
1
 40
1
 40
1
 40
1
 10
10.923889
 20
23.463036
 30
0.0
 10
11.047807
 20
23.838468
 30
0.0
 10
11.149539
 20
24.155882
 30
0.0
 10
11.149715
 20
24.168417
 30
0.0
  0
SPLINE
  5
173
100
AcDbEntity
  8
Layer_1
 62
7
100
AcDbSpline
 70
8
 71
3
 72
8
 73
4
 74
0
 40
0
 40
0
 40
0
 40
0
 40
1
 40
1
 40
1
 40
1
 10
11.149715
 20
24.168417
 30
0.0
 10
11.149887
 20
24.180952
 30
0.0
 10
10.879800
 20
24.386026
 30
0.0
 10
10.549753
 20
24.624204
 30
0.0
  0
SPLINE
  5
174
100
AcDbEntity
  8
Layer_1
 62
7
100
AcDbSpline
 70
8
 71
3
 72
8
 73
4
 74
0
 40
0
 40
0
 40
0
 40
0
 40
1
 40
1
 40
1
 40
1
 10
10.549753
 20
24.624204
 30
0.0
 10
9.810917
 20
25.157399
 30
0.0
 10
9.798843
 20
25.119781
 30
0.0
 10
10.707882
 20
25.119781
 30
0.0
  0
LWPOLYLINE
  5
175
100
AcDbEntity
  8
Layer_1
 62
7
100
AcDbPolyline
 90
2
 70
0
 10
12.953737
 20
23.450989
 30
0.0
 10
12.953737
 20
23.450643
 30
0.0
  0
SPLINE
  5
176
100
AcDbEntity
  8
Layer_1
 62
7
100
AcDbSpline
 70
8
 71
3
 72
8
 73
4
 74
0
 40
0
 40
0
 40
0
 40
0
 40
1
 40
1
 40
1
 40
1
 10
11.692317
 20
25.824126
 30
0.0
 10
11.827649
 20
26.248919
 30
0.0
 10
11.882336
 20
26.461334
 30
0.0
 10
11.937263
 20
26.461299
 30
0.0
  0
LWPOLYLINE
  5
177
100
AcDbEntity
  8
Layer_1
 62
7
100
AcDbPolyline
 90
3
 70
0
 10
10.707882
 20
25.119781
 30
0.0
 10
11.467525
 20
25.119781
 30
0.0
 10
11.692317
 20
25.824126
 30
0.0
  0
SPLINE
  5
178
100
AcDbEntity
  8
Layer_1
 62
7
100
AcDbSpline
 70
8
 71
3
 72
8
 73
4
 74
0
 40
0
 40
0
 40
0
 40
0
 40
1
 40
1
 40
1
 40
1
 10
32.173730
 20
26.461140
 30
0.0
 10
32.228658
 20
26.461102
 30
0.0
 10
32.283895
 20
26.248441
 30
0.0
 10
32.419709
 20
25.823451
 30
0.0
  0
LWPOLYLINE
  5
179
100
AcDbEntity
  8
Layer_1
 62
7
100
AcDbPolyline
 90
2
 70
0
 10
11.937263
 20
26.461299
 30
0.0
 10
11.937263
 20
26.461140
 30
0.0
  0
SPLINE
  5
17a
100
AcDbEntity
  8
Layer_1
 62
7
100
AcDbSpline
 70
8
 71
3
 72
8
 73
4
 74
0
 40
0
 40
0
 40
0
 40
0
 40
1
 40
1
 40
1
 40
1
 10
33.403629
 20
25.119621
 30
0.0
 10
34.312083
 20
25.119621
 30
0.0
 10
34.300050
 20
25.157212
 30
0.0
 10
33.561240
 20
24.624045
 30
0.0
  0
SPLINE
  5
17b
100
AcDbEntity
  8
Layer_1
 62
7
100
AcDbSpline
 70
8
 71
3
 72
8
 73
4
 74
0
 40
0
 40
0
 40
0
 40
0
 40
1
 40
1
 40
1
 40
1
 10
33.561240
 20
24.624045
 30
0.0
 10
33.231193
 20
24.385867
 30
0.0
 10
32.961277
 20
24.183258
 30
0.0
 10
32.961277
 20
24.173424
 30
0.0
  0
SPLINE
  5
17c
100
AcDbEntity
  8
Layer_1
 62
7
100
AcDbSpline
 70
8
 71
3
 72
8
 73
4
 74
0
 40
0
 40
0
 40
0
 40
0
 40
1
 40
1
 40
1
 40
1
 10
32.961277
 20
24.173424
 30
0.0
 10
32.961277
 20
24.163590
 30
0.0
 10
33.064171
 20
23.838565
 30
0.0
 10
33.190206
 20
23.450989
 30
0.0
  0
LWPOLYLINE
  5
17d
100
AcDbEntity
  8
Layer_1
 62
7
100
AcDbPolyline
 90
3
 70
0
 10
32.419709
 20
25.823451
 30
0.0
 10
32.644503
 20
25.119621
 30
0.0
 10
33.403629
 20
25.119621
 30
0.0
  0
SPLINE
  5
17e
100
AcDbEntity
  8
Layer_1
 62
7
100
AcDbSpline
 70
8
 71
3
 72
8
 73
4
 74
0
 40
0
 40
0
 40
0
 40
0
 40
1
 40
1
 40
1
 40
1
 10
33.190206
 20
23.450643
 30
0.0
 10
33.466255
 20
22.601730
 30
0.0
 10
33.513489
 20
22.638175
 30
0.0
 10
32.806765
 20
23.155054
 30
0.0
  0
SPLINE
  5
17f
100
AcDbEntity
  8
Layer_1
 62
7
100
AcDbSpline
 70
8
 71
3
 72
8
 73
4
 74
0
 40
0
 40
0
 40
0
 40
0
 40
1
 40
1
 40
1
 40
1
 10
32.806765
 20
23.155054
 30
0.0
 10
32.098693
 20
23.672899
 30
0.0
 10
32.250632
 20
23.671656
 30
0.0
 10
31.550515
 20
23.166411
 30
0.0
  0
SPLINE
  5
180
100
AcDbEntity
  8
Layer_1
 62
7
100
AcDbSpline
 70
8
 71
3
 72
8
 73
4
 74
0
 40
0
 40
0
 40
0
 40
0
 40
1
 40
1
 40
1
 40
1
 10
31.550515
 20
23.166411
 30
0.0
 10
30.850168
 20
22.661008
 30
0.0
 10
30.886540
 20
22.633434
 30
0.0
 10
31.160356
 20
23.463036
 30
0.0
  0
SPLINE
  5
181
100
AcDbEntity
  8
Layer_1
 62
7
100
AcDbSpline
 70
8
 71
3
 72
8
 73
4
 74
0
 40
0
 40
0
 40
0
 40
0
 40
1
 40
1
 40
1
 40
1
 10
31.160356
 20
23.463036
 30
0.0
 10
31.284275
 20
23.838468
 30
0.0
 10
31.386006
 20
24.155882
 30
0.0
 10
31.386182
 20
24.168417
 30
0.0
  0
SPLINE
  5
182
100
AcDbEntity
  8
Layer_1
 62
7
100
AcDbSpline
 70
8
 71
3
 72
8
 73
4
 74
0
 40
0
 40
0
 40
0
 40
0
 40
1
 40
1
 40
1
 40
1
 10
31.386182
 20
24.168417
 30
0.0
 10
31.386355
 20
24.180952
 30
0.0
 10
31.116266
 20
24.386026
 30
0.0
 10
30.786219
 20
24.624204
 30
0.0
  0
SPLINE
  5
183
100
AcDbEntity
  8
Layer_1
 62
7
100
AcDbSpline
 70
8
 71
3
 72
8
 73
4
 74
0
 40
0
 40
0
 40
0
 40
0
 40
1
 40
1
 40
1
 40
1
 10
30.786219
 20
24.624204
 30
0.0
 10
30.047382
 20
25.157399
 30
0.0
 10
30.035311
 20
25.119781
 30
0.0
 10
30.944350
 20
25.119781
 30
0.0
  0
LWPOLYLINE
  5
184
100
AcDbEntity
  8
Layer_1
 62
7
100
AcDbPolyline
 90
2
 70
0
 10
33.190206
 20
23.450989
 30
0.0
 10
33.190206
 20
23.450643
 30
0.0
  0
SPLINE
  5
185
100
AcDbEntity
  8
Layer_1
 62
7
100
AcDbSpline
 70
8
 71
3
 72
8
 73
4
 74
0
 40
0
 40
0
 40
0
 40
0
 40
1
 40
1
 40
1
 40
1
 10
31.928786
 20
25.824126
 30
0.0
 10
32.064115
 20
26.248919
 30
0.0
 10
32.118804
 20
26.461334
 30
0.0
 10
32.173730
 20
26.461299
 30
0.0
  0
LWPOLYLINE
  5
186
100
AcDbEntity
  8
Layer_1
 62
7
100
AcDbPolyline
 90
3
 70
0
 10
30.944350
 20
25.119781
 30
0.0
 10
31.703991
 20
25.119781
 30
0.0
 10
31.928786
 20
25.824126
 30
0.0
  0
SPLINE
  5
187
100
AcDbEntity
  8
Layer_1
 62
7
100
AcDbSpline
 70
8
 71
3
 72
8
 73
4
 74
0
 40
0
 40
0
 40
0
 40
0
 40
1
 40
1
 40
1
 40
1
 10
22.055497
 20
16.439541
 30
0.0
 10
22.110424
 20
16.439502
 30
0.0
 10
22.165663
 20
16.226838
 30
0.0
 10
22.301476
 20
15.801855
 30
0.0
  0
LWPOLYLINE
  5
188
100
AcDbEntity
  8
Layer_1
 62
7
100
AcDbPolyline
 90
2
 70
0
 10
32.173730
 20
26.461299
 30
0.0
 10
32.173730
 20
26.461140
 30
0.0
  0
SPLINE
  5
189
100
AcDbEntity
  8
Layer_1
 62
7
100
AcDbSpline
 70
8
 71
3
 72
8
 73
4
 74
0
 40
0
 40
0
 40
0
 40
0
 40
1
 40
1
 40
1
 40
1
 10
23.285394
 20
15.098022
 30
0.0
 10
24.193852
 20
15.098022
 30
0.0
 10
24.181818
 20
15.136125
 30
0.0
 10
23.443007
 20
14.602961
 30
0.0
  0
SPLINE
  5
18a
100
AcDbEntity
  8
Layer_1
 62
7
100
AcDbSpline
 70
8
 71
3
 72
8
 73
4
 74
0
 40
0
 40
0
 40
0
 40
0
 40
1
 40
1
 40
1
 40
1
 10
23.443007
 20
14.602961
 30
0.0
 10
23.112961
 20
14.364780
 30
0.0
 10
22.843045
 20
14.161662
 30
0.0
 10
22.843045
 20
14.151828
 30
0.0
  0
SPLINE
  5
18b
100
AcDbEntity
  8
Layer_1
 62
7
100
AcDbSpline
 70
8
 71
3
 72
8
 73
4
 74
0
 40
0
 40
0
 40
0
 40
0
 40
1
 40
1
 40
1
 40
1
 10
22.843045
 20
14.151828
 30
0.0
 10
22.843045
 20
14.141994
 30
0.0
 10
22.945934
 20
13.816965
 30
0.0
 10
23.071971
 20
13.429393
 30
0.0
  0
SPLINE
  5
18c
100
AcDbEntity
  8
Layer_1
 62
7
100
AcDbSpline
 70
8
 71
3
 72
8
 73
4
 74
0
 40
0
 40
0
 40
0
 40
0
 40
1
 40
1
 40
1
 40
1
 10
23.071971
 20
13.429393
 30
0.0
 10
23.348017
 20
12.580480
 30
0.0
 10
23.395255
 20
12.616405
 30
0.0
 10
22.688532
 20
13.133284
 30
0.0
  0
SPLINE
  5
18d
100
AcDbEntity
  8
Layer_1
 62
7
100
AcDbSpline
 70
8
 71
3
 72
8
 73
4
 74
0
 40
0
 40
0
 40
0
 40
0
 40
1
 40
1
 40
1
 40
1
 10
22.688532
 20
13.133284
 30
0.0
 10
21.980463
 20
13.651133
 30
0.0
 10
22.132400
 20
13.649887
 30
0.0
 10
21.432280
 20
13.144642
 30
0.0
  0
SPLINE
  5
18e
100
AcDbEntity
  8
Layer_1
 62
7
100
AcDbSpline
 70
8
 71
3
 72
8
 73
4
 74
0
 40
0
 40
0
 40
0
 40
0
 40
1
 40
1
 40
1
 40
1
 10
21.432280
 20
13.144642
 30
0.0
 10
20.731934
 20
12.639242
 30
0.0
 10
20.768308
 20
12.611665
 30
0.0
 10
21.042123
 20
13.441263
 30
0.0
  0
SPLINE
  5
18f
100
AcDbEntity
  8
Layer_1
 62
7
100
AcDbSpline
 70
8
 71
3
 72
8
 73
4
 74
0
 40
0
 40
0
 40
0
 40
0
 40
1
 40
1
 40
1
 40
1
 10
21.042123
 20
13.441263
 30
0.0
 10
21.166040
 20
13.816695
 30
0.0
 10
21.267772
 20
14.134109
 30
0.0
 10
21.267949
 20
14.146644
 30
0.0
  0
SPLINE
  5
190
100
AcDbEntity
  8
Layer_1
 62
7
100
AcDbSpline
 70
8
 71
3
 72
8
 73
4
 74
0
 40
0
 40
0
 40
0
 40
0
 40
1
 40
1
 40
1
 40
1
 10
21.267949
 20
14.146644
 30
0.0
 10
21.268120
 20
14.159179
 30
0.0
 10
20.998033
 20
14.364250
 30
0.0
 10
20.667986
 20
14.602431
 30
0.0
  0
SPLINE
  5
191
100
AcDbEntity
  8
Layer_1
 62
7
100
AcDbSpline
 70
8
 71
3
 72
8
 73
4
 74
0
 40
0
 40
0
 40
0
 40
0
 40
1
 40
1
 40
1
 40
1
 10
20.667986
 20
14.602431
 30
0.0
 10
19.929150
 20
15.135627
 30
0.0
 10
19.917076
 20
15.098008
 30
0.0
 10
20.826116
 20
15.098008
 30
0.0
  0
LWPOLYLINE
  5
192
100
AcDbEntity
  8
Layer_1
 62
7
100
AcDbPolyline
 90
3
 70
0
 10
22.301476
 20
15.801855
 30
0.0
 10
22.526268
 20
15.098022
 30
0.0
 10
23.285394
 20
15.098022
 30
0.0
  0
SPLINE
  5
193
100
AcDbEntity
  8
Layer_1
 62
7
100
AcDbSpline
 70
8
 71
3
 72
8
 73
4
 74
0
 40
0
 40
0
 40
0
 40
0
 40
1
 40
1
 40
1
 40
1
 10
21.810551
 20
15.802357
 30
0.0
 10
21.945882
 20
16.227146
 30
0.0
 10
22.000569
 20
16.439565
 30
0.0
 10
22.055497
 20
16.439527
 30
0.0
  0
LWPOLYLINE
  5
194
100
AcDbEntity
  8
Layer_1
 62
7
100
AcDbPolyline
 90
3
 70
0
 10
20.826116
 20
15.098008
 30
0.0
 10
21.585758
 20
15.098008
 30
0.0
 10
21.810551
 20
15.802357
 30
0.0
  0
LWPOLYLINE
  5
195
100
AcDbEntity
  8
Layer_1
 62
7
100
AcDbPolyline
 90
1
 70
1
 10
22.055497
 20
16.439527
 30
0.0
  0
ENDSEC
  0
SECTION
  2
OBJECTS
  0
DICTIONARY
  5
C
330
0
100
AcDbDictionary
  3
ACAD_GROUP
350
D
  3
ACAD_MLINESTYLE
350
17
  0
DICTIONARY
  5
D
330
C
100
AcDbDictionary
  0
DICTIONARY
  5
1A
330
C
100
AcDbDictionary
  0
DICTIONARY
  5
17
330
C
100
AcDbDictionary
  3
STANDARD
350
18
  0
DICTIONARY
  5
19
330
C
100
AcDbDictionary
  0
ENDSEC
  0
EOF
