<?xml version="1.0" encoding="UTF-8" standalone="no"?>
<!-- Created with Inkscape (http://www.inkscape.org/) -->

<svg
   width="95mm"
   height="53.560711mm"
   viewBox="0 0 95 53.560711"
   version="1.1"
   id="svg1"
   inkscape:version="1.3.2 (091e20e, 2023-11-25, custom)"
   sodipodi:docname="label-m.svg"
   xmlns:inkscape="http://www.inkscape.org/namespaces/inkscape"
   xmlns:sodipodi="http://sodipodi.sourceforge.net/DTD/sodipodi-0.dtd"
   xmlns="http://www.w3.org/2000/svg"
   xmlns:svg="http://www.w3.org/2000/svg">
  <sodipodi:namedview
     id="namedview1"
     pagecolor="#505050"
     bordercolor="#eeeeee"
     borderopacity="1"
     inkscape:showpageshadow="0"
     inkscape:pageopacity="0"
     inkscape:pagecheckerboard="0"
     inkscape:deskcolor="#505050"
     inkscape:document-units="mm"
     inkscape:zoom="1.6014254"
     inkscape:cx="179.52756"
     inkscape:cy="101.4721"
     inkscape:window-width="1536"
     inkscape:window-height="793"
     inkscape:window-x="1912"
     inkscape:window-y="-8"
     inkscape:window-maximized="1"
     inkscape:current-layer="layer1" />
  <defs
     id="defs1" />
  <g
     inkscape:label="Layer 1"
     inkscape:groupmode="layer"
     id="layer1"
     transform="translate(-87.841667,-140.75833)">
    <g
       id="g2"
       transform="matrix(0.34626941,0,0,0.34626941,82.247639,103.37012)"
       style="stroke-width:2.88792">
      <path
         style="fill:#ffffff;fill-opacity:1;stroke-width:2.88792"
         d="m 74.520455,206.56272 v -4.79126 l -1.534277,-0.0298 -1.534291,-0.0298 v -5.88895 -5.88897 l 0.141786,0.21238 c 0.07802,0.11689 0.859453,1.54478 1.736645,3.17328 0.877178,1.6285 1.931155,3.57931 2.342181,4.33516 l 0.747307,1.37427 3.445742,-0.0284 3.445756,-0.0284 1.828013,-3.39158 c 1.005395,-1.86536 2.079867,-3.84873 2.387723,-4.40748 l 0.55971,-1.01591 0.06658,0.80057 c 0.03661,0.44031 0.07294,3.04012 0.08071,5.77731 l 0.01413,4.97674 -1.534278,0.0298 -1.534291,0.0298 v 4.79126 4.79128 h 7.698341 7.698338 v -4.79128 -4.79126 l -1.480449,-0.03 -1.480452,-0.03 v -10.22551 -10.22552 h 1.507379 1.507352 v -4.79208 -4.7921 l -6.69504,0.0277 -6.695038,0.0277 -3.668096,7.1844 c -2.017462,3.95143 -3.692338,7.18489 -3.72195,7.1855 -0.02968,6.1e-4 -1.707358,-3.23238 -3.728339,-7.18441 l -3.674528,-7.18549 -6.688621,-0.0277 -6.688607,-0.0277 v 4.7921 4.79208 l 1.534277,-2e-5 1.534292,-1e-5 -0.02799,10.22857 -0.02799,10.22857 h -1.50629 -1.506291 v 4.84581 4.84582 l 7.725254,-0.0276 7.725254,-0.0276 z"
         id="path22" />
    </g>
  </g>
</svg>
