<?xml version="1.0" encoding="UTF-8" standalone="no"?>
<!-- Created with Inkscape (http://www.inkscape.org/) -->

<svg
   width="3.7401574in"
   height="2.1086893in"
   viewBox="0 0 94.999995 53.560708"
   version="1.1"
   id="svg1"
   xml:space="preserve"
   inkscape:version="1.3.2 (091e20e, 2023-11-25, custom)"
   sodipodi:docname="mason-logo-pcb.svg"
   inkscape:export-filename="NameTitle.png"
   inkscape:export-xdpi="96"
   inkscape:export-ydpi="96"
   xmlns:inkscape="http://www.inkscape.org/namespaces/inkscape"
   xmlns:sodipodi="http://sodipodi.sourceforge.net/DTD/sodipodi-0.dtd"
   xmlns="http://www.w3.org/2000/svg"
   xmlns:svg="http://www.w3.org/2000/svg"><sodipodi:namedview
     id="namedview1"
     pagecolor="#505050"
     bordercolor="#eeeeee"
     borderopacity="1"
     inkscape:showpageshadow="0"
     inkscape:pageopacity="0"
     inkscape:pagecheckerboard="0"
     inkscape:deskcolor="#505050"
     inkscape:document-units="mm"
     inkscape:zoom="2.094386"
     inkscape:cx="167.59088"
     inkscape:cy="81.408106"
     inkscape:window-width="1536"
     inkscape:window-height="793"
     inkscape:window-x="1912"
     inkscape:window-y="-8"
     inkscape:window-maximized="1"
     inkscape:current-layer="layer1" /><defs
     id="defs1" /><g
     inkscape:label="Layer 1"
     inkscape:groupmode="layer"
     id="layer1"
     transform="translate(-16.155132,-107.97434)"><g
       id="g1"
       transform="matrix(0.34626941,0,0,0.34626941,10.561104,70.586129)"
       style="stroke-width:2.88792"><path
         id="path17"
         style="display:inline;fill:#ffb380;fill-opacity:1;stroke-width:2.88792"
         d="m 103.89655,107.97434 a 24.808475,24.808475 0 0 0 -24.562326,21.36924 c -14.435481,2.34344 -27.504804,10.59105 -38.975398,24.64708 l -1.46141,1.7911 -0.480074,-0.34675 c -0.683855,-0.49538 -1.697607,-0.84459 -2.667537,-0.9188 l -0.837675,-0.0646 -0.746725,0.19172 c -1.692091,0.43399 -2.379297,0.9991 -4.612638,3.79098 -7.870778,9.83925 -11.899558,19.73458 -12.252999,30.09429 l -0.0739,2.15439 0.146244,1.85519 c 0.335772,4.26738 1.366739,8.60889 2.874243,12.10313 0.589662,1.36693 0.60256,1.08059 -0.125057,2.79621 -1.937583,4.56891 -3.286946,9.93694 -3.775997,15.01924 l -0.190169,1.97456 0.06718,2.99206 c 0.271488,12.03038 6.396926,25.72463 11.851473,26.4971 l 0.79375,0.11265 0.688847,-0.1018 c 2.773148,-0.40745 4.697388,-2.65008 4.697388,-5.47512 0,-2.40117 0.721763,-5.88305 1.685685,-8.1318 0.28664,-0.66868 0.222484,-0.73995 0.831991,0.92139 4.364104,11.89554 13.648961,20.23515 23.697261,21.28449 v -10e-4 c 4.516393,0.47165 8.190667,-0.32708 16.68787,-3.62872 6.117258,-2.37689 9.199986,-3.33775 12.506214,-3.89898 l 1.495516,-0.25425 2.476334,-0.0651 2.476335,-0.0651 1.53324,0.14315 c 5.392534,0.50573 10.820404,2.20564 15.365984,4.81159 l 1.02785,0.58911 0.93431,0.19069 0.93328,0.19017 0.85007,-0.13901 c 2.17938,-0.35598 3.89291,-1.85673 4.44418,-3.89331 l 0.21135,-0.77824 -0.063,-0.99012 -0.0625,-0.99012 -0.31006,-0.76068 c -1.95378,-4.79173 -6.83436,-9.33148 -14.36036,-13.35836 -0.58223,-0.31151 -1.01327,-0.60888 -0.95757,-0.66146 0.18106,-0.17119 3.1767,-1.73159 4.64933,-2.42155 9.50868,-4.45506 20.79128,-6.90087 34.66559,-7.51531 l 2.95175,-0.13074 2.7926,0.13074 c 5.18164,0.24203 9.67274,0.91266 12.96458,1.93683 1.98412,0.61738 3.24004,0.59116 4.70617,-0.0992 l 0.67903,-0.31988 0.72709,-0.72657 0.72657,-0.72709 0.31936,-0.67799 c 0.17551,-0.37278 0.38335,-1.05498 0.4625,-1.51619 l 0.14366,-0.83871 -0.12712,-0.82217 c -0.17007,-1.09871 -0.6387,-2.04813 -1.43609,-2.90938 l -0.65732,-0.71004 -1.75442,-0.88677 c -1.92009,-0.97061 -5.01602,-2.39277 -7.59643,-3.48867 l -1.65365,-0.70177 0.0584,-0.18655 c 0.0322,-0.10248 0.20644,-0.53594 0.38705,-0.96377 l 0.32867,-0.77824 0.0532,-0.96842 0.0543,-0.96841 -0.20412,-0.70746 c -0.69969,-2.42415 -2.20218,-3.55665 -5.45135,-4.10931 -1.4594,-0.24821 -2.97619,-0.6835 -4.06538,-1.16737 l -0.65888,-0.29248 0.23875,-0.18501 c 0.55946,-0.43176 2.48199,-1.25951 3.59048,-1.54564 l 1.19682,-0.30902 1.58595,-0.0661 1.58595,-0.0667 1.1064,0.15038 c 6.43014,0.87292 11.58463,6.19786 13.98519,14.44821 0.83575,2.87237 2.26799,4.31853 4.65191,4.69584 l 0.77618,0.12299 0.76843,-0.12299 c 1.46645,-0.23427 7.58023,-2.71363 11.38277,-4.61626 7.52419,-3.76478 11.60868,-7.52765 12.87105,-11.85716 l 0.30644,-1.05161 0.062,-1.19683 0.063,-1.19631 -0.17466,-0.95756 c -0.24244,-1.3262 -0.81317,-2.73448 -1.56218,-3.85351 l -0.63407,-0.94671 19.02416,-13.9852 19.02416,-13.98467 2.2872,0.32142 c 1.25795,0.17677 3.12165,0.41103 4.14187,0.52142 l 1.85467,0.20102 3.94962,0.003 3.94963,0.003 1.49552,-0.21188 c 4.01167,-0.56829 7.19039,-1.64782 9.75393,-3.31194 l 0.95756,-0.62115 1.37614,-1.39837 1.37615,-1.39784 0.58498,-0.98392 c 0.71628,-1.20421 1.34451,-2.83927 1.64176,-4.27364 l 0.22324,-1.07694 v -1.61592 l -10e-4,-1.61541 -0.16846,-0.7953 c -0.20511,-0.9677 -0.53712,-1.65278 -1.16944,-2.41277 -0.2633,-0.31648 -0.45976,-0.59487 -0.43615,-0.61805 1.56956,-1.54376 10.09034,-5.02841 14.94224,-6.11074 2.89806,-0.64647 4.3219,-1.80837 4.97128,-4.05815 l 0.20567,-0.71158 -0.0615,-1.02423 -0.0615,-1.02423 -0.26148,-0.65267 c -1.57788,-3.94825 -9.178,-7.66316 -16.66462,-8.14576 l -1.8309,-0.11834 -2.03398,0.12454 c -7.49031,0.45749 -16.48841,3.22175 -24.83259,7.629 l -1.73478,0.91674 -2.51354,-0.0346 c -9.92334,-0.1364 -21.12546,3.04122 -31.75879,9.00927 -1.4878,0.83506 -1.35531,0.87419 -1.68,-0.50023 -0.7665,-3.24465 -1.85028,-5.93496 -2.79311,-6.93187 l -0.6041,-0.63924 -0.81132,-0.40514 -0.81183,-0.40618 -0.85008,-0.14314 -0.85008,-0.14418 -0.80357,0.13953 c -1.76409,0.30664 -2.82554,1.09914 -4.13773,3.08921 -0.72414,1.09823 -2.40661,3.25717 -2.53835,3.25717 -0.0295,0 -0.44368,-0.328 -0.92035,-0.72916 -3.18505,-2.68053 -7.13894,-4.24967 -11.75639,-4.66431 l -1.55598,-0.13953 -1.43609,0.0811 c -2.89103,0.16248 -5.77434,0.68563 -8.37055,1.52033 l -1.55029,0.49816 -2.57917,1.28932 c -1.41868,0.70904 -4.51839,2.40162 -6.88795,3.76101 -8.10144,4.64772 -14.27435,7.78427 -14.62702,7.43159 -0.49464,-0.49465 5.89618,-5.71411 9.45628,-7.72304 4.53923,-2.56145 3.41626,-8.86108 -1.82987,-10.26604 l -0.77773,-0.20826 -1.85518,0.0114 -1.85467,0.0114 -2.15387,0.31884 c -3.9271,0.58258 -8.66485,1.61282 -16.17266,3.47938 a 24.808475,24.808475 0 0 0 0.7028,-5.60121 24.808475,24.808475 0 0 0 -24.80882,-24.80831 z m 0,11.30939 a 13.498729,13.498729 0 0 1 13.49892,13.49892 13.498729,13.498729 0 0 1 -1.69344,6.53448 c -0.1774,-0.0406 -0.40432,-0.0753 -0.54415,-0.11162 l -1.13327,-0.29352 -1.8588,-0.93689 c -4.70571,-2.37065 -9.00047,-3.54912 -14.215151,-3.90054 l -1.226798,-0.0822 v -0.34984 c 0,-2.64068 -1.947639,-4.25629 -5.679757,-4.76664 a 13.498729,13.498729 0 0 1 12.852446,-9.59218 z"
         inkscape:label="board-outline" /><path
         id="path24"
         style="fill:#c8beb7;fill-opacity:1;stroke-width:2.88792"
         inkscape:label="ground-plane"
         d="m 87.269856,134.09541 -3.05191,0.001 -1.772943,0.20445 c -17.928166,2.06935 -35.089303,15.2997 -46.586024,35.91453 l -1.065557,1.91174 -0.0776,-0.65516 c -0.04283,-0.36014 -0.08393,-1.80058 -0.09103,-3.20114 l -0.01045,-2.54749 0.183562,-1.761 c 0.10064,-0.96897 0.264066,-2.24003 0.36414,-2.82358 0.237889,-1.38623 0.290547,-1.40563 -1.232703,0.49248 -6.055263,7.5455 -9.611453,15.08703 -10.821222,22.94828 l -0.240273,1.55655 -0.06716,2.65046 -0.06566,2.65195 0.143268,1.53118 c 0.405613,4.31395 1.79822,9.06154 3.520516,12.0002 l 0.422343,0.72081 -0.753651,1.65057 c -2.608152,5.71582 -3.991315,10.96414 -4.384602,16.63403 l -0.140283,2.01172 0.08208,1.79533 c 0.352182,7.71813 3.050667,15.63263 6.997753,20.52317 l 0.241765,0.29996 0.003,-0.65963 c 0.02884,-7.13859 3.854495,-15.04076 9.228856,-19.06511 1.036901,-0.77642 1.186439,-0.81718 1.186439,-0.32832 0,1.24724 1.037568,6.16288 1.865471,8.83636 3.857316,12.45596 13.556503,20.79136 22.999014,19.76653 2.749896,-0.29888 5.50114,-1.12337 11.334599,-3.39964 6.202307,-2.42019 9.906205,-3.54204 13.732848,-4.15776 l 1.705787,-0.27459 3.769743,0.006 3.769743,0.006 1.734145,0.27012 c 5.10775,0.79415 9.30957,2.11359 13.61345,4.27566 l 2.18484,1.09839 -0.43428,-0.80439 c -2.6963,-4.99201 -10.42896,-10.15274 -19.771002,-13.1941 -1.891603,-0.61582 -1.869523,-0.451 -0.225348,-1.73265 12.50791,-9.75007 29.29676,-14.95955 50.4677,-15.65801 6.00627,-0.19815 13.95843,0.66067 18.47114,1.99381 1.27388,0.37633 1.07124,0.21575 -0.97751,-0.76857 -5.7666,-2.77059 -13.93947,-6.01917 -23.98547,-9.53629 l -3.00117,-1.05212 2.08336,-0.0746 c 1.14635,-0.0414 3.6473,-0.12901 5.55611,-0.19401 4.53666,-0.15466 8.35686,-0.35333 8.9662,-0.46711 l 0.48801,-0.091 -0.47905,-0.0851 c -5.54896,-0.99386 -9.66792,-3.07486 -10.92271,-5.51732 l -0.30743,-0.59844 -0.003,-0.53875 -0.003,-0.53875 0.40593,-0.76111 c 1.39649,-2.61991 5.28642,-5.10113 9.51241,-6.06651 l 1.43716,-0.32832 2.0938,-0.0552 2.0938,-0.0567 1.37598,0.19848 c 8.47677,1.22269 15.49191,8.11567 18.27116,17.95479 0.17738,0.62797 0.363,1.14166 0.4119,1.14166 0.0489,0 0.93424,-0.32428 1.96844,-0.72081 10.11572,-3.8784 16.22381,-7.86135 17.68466,-11.53309 l 0.24326,-0.61038 0.009,-1.02079 0.007,-1.01929 -0.39847,-0.80738 c -0.74069,-1.50455 -2.2119,-2.81434 -4.47116,-3.97867 l -1.16853,-0.60292 22.9244,-16.8549 22.92439,-16.8549 2.23409,0.3716 c 4.95945,0.82451 7.22747,1.03023 11.33012,1.03123 l 3.35039,0.001 1.13719,-0.15371 c 7.59598,-1.02532 11.47982,-4.21956 11.48682,-9.44824 0.001,-0.67467 -0.0235,-1.22673 -0.0552,-1.22673 -0.0315,0 -0.60284,0.21684 -1.26852,0.48204 -2.909,1.15888 -7.36487,1.87741 -7.95884,1.28344 -0.31476,-0.31476 2.26985,-3.74671 4.48757,-5.96055 l 1.86547,-1.86398 1.4103,-1.05212 c 4.78104,-3.56818 11.24177,-6.50279 18.02791,-8.18718 l 1.84756,-0.45667 -1.11928,-0.86558 c -2.40511,-1.85876 -4.61904,-2.84172 -7.90512,-3.50708 l -1.3715,-0.27758 -3.23099,0.001 h -3.231 l -1.37597,0.2149 c -6.79679,1.0617 -14.39417,3.78862 -21.27979,7.63948 l -1.47298,0.82379 -1.69832,-0.13581 -1.69833,-0.1358 -2.1535,0.0716 c -10.82881,0.36256 -23.65969,5.1483 -34.36047,12.81802 -0.69177,0.49582 -1.28151,0.90289 -1.31031,0.90289 -0.0289,0 -0.0537,-0.64086 -0.0537,-1.42373 0,-3.33372 -0.67851,-7.19251 -1.90428,-10.82868 -0.26348,-0.78158 -0.50417,-1.44586 -0.53427,-1.47596 -0.0301,-0.0302 -0.25482,0.25928 -0.49994,0.64321 -2.36153,3.69889 -5.26357,6.19098 -7.5186,6.45602 l -0.64023,0.0761 -0.40443,-0.14476 -0.40593,-0.14326 -0.69843,-0.83424 c -2.47021,-2.94905 -6.16472,-4.75927 -10.47797,-5.13378 l -1.47298,-0.12834 -1.51476,0.12237 c -5.41182,0.43719 -7.2522,1.15845 -16.71163,6.55452 -10.88153,6.20731 -14.71092,7.97397 -18.29355,8.43342 l -1.06556,0.13581 -0.79096,-0.14476 c -0.43543,-0.0797 -1.02493,-0.28058 -1.30882,-0.44622 l -0.51636,-0.30147 -0.39697,-0.62082 c -0.21839,-0.34139 -0.49328,-0.88821 -0.61187,-1.21629 l -0.2164,-0.59695 0.006,-1.0775 0.006,-1.076 0.31041,-0.88498 c 1.18329,-3.37936 5.33543,-7.50183 11.33162,-11.25103 1.16483,-0.72833 1.63063,-1.08794 1.4088,-1.08794 -0.0263,0 -0.35387,-0.0577 -0.72828,-0.12685 l -0.68052,-0.12536 -1.46551,0.13133 c -3.79073,0.33738 -10.83178,1.81002 -20.87984,4.36819 l -3.01908,0.76857 -1.4088,0.12088 -1.4103,0.12088 -1.45805,-0.11342 c -3.48209,-0.26783 -6.56697,-1.04961 -8.5543,-2.16991 -2.86,-1.61224 -6.55989,-2.82875 -10.33173,-3.39665 l -1.316273,-0.19849 -1.675938,-0.001 h -1.674447 l -1.219271,0.24326 c -2.847837,0.568 -6.375563,2.24622 -8.333431,3.96524 -0.572374,0.50257 -0.610933,0.44824 -0.44622,-0.61336 0.387476,-2.49735 1.696673,-4.69125 4.395048,-7.36637 l 1.472976,-1.46104 -0.447713,-0.0866 c -0.246526,-0.0478 -1.822679,-0.0861 -3.501115,-0.0851 z M 79.84976,157.2944 c 0.158626,1.1e-4 0.318152,0.61426 0.710371,1.84159 l 0.649184,2.03262 h 2.192301 c 2.62356,0 2.588809,-0.10856 0.455175,1.43119 -0.953151,0.68784 -1.732649,1.27295 -1.732649,1.30135 0,0.0284 0.297137,0.96705 0.661123,2.08634 v 0.001 c 0.797202,2.4516 0.933621,2.34635 -1.107344,0.85364 -2.044853,-1.49551 -1.606069,-1.49191 -3.627967,-0.0328 -2.022548,1.45956 -1.917501,1.5392 -1.126744,-0.85662 0.357864,-1.08422 0.651659,-2.0009 0.652168,-2.0371 4.95e-4,-0.0362 -0.779497,-0.62843 -1.732649,-1.31627 -2.133704,-1.53983 -2.168574,-1.4297 0.456667,-1.4297 h 2.193794 l 0.649184,-2.0356 c 0.390827,-1.22677 0.54876,-1.84021 0.707386,-1.8401 z m -29.220731,28.94165 c 0.158626,1.1e-4 0.318152,0.61426 0.710371,1.8416 l 0.649184,2.03261 h 2.192301 c 2.623559,0 2.588807,-0.10856 0.455174,1.43119 -0.953152,0.68784 -1.732649,1.27296 -1.732649,1.30136 0,0.0284 0.297137,0.96705 0.661123,2.08634 v 0.001 c 0.797202,2.4516 0.933622,2.34635 -1.107343,0.85364 -2.044853,-1.4955 -1.604577,-1.49191 -3.626475,-0.0328 -2.022548,1.45957 -1.918994,1.5392 -1.128237,-0.85663 0.357865,-1.08422 0.65166,-2.00089 0.652169,-2.03709 4.95e-4,-0.0362 -0.779497,-0.62844 -1.732649,-1.31628 -2.133704,-1.53983 -2.168574,-1.43119 0.456667,-1.43119 h 2.193793 l 0.649184,-2.0341 c 0.390828,-1.22677 0.548761,-1.84021 0.707387,-1.84011 z m 58.441461,0 c 0.15863,1.1e-4 0.31815,0.61426 0.71037,1.8416 l 0.64919,2.03261 h 2.1923 c 2.62355,0 2.5888,-0.10856 0.45517,1.43119 -0.95315,0.68784 -1.73265,1.27296 -1.73265,1.30136 0,0.0284 0.29715,0.96705 0.66113,2.08634 v 0.001 c 0.79721,2.4516 0.93362,2.34635 -1.10735,0.85364 -2.04486,-1.4955 -1.60607,-1.49191 -3.62796,-0.0328 -2.02255,1.45957 -1.91751,1.5392 -1.12675,-0.85663 0.35787,-1.08422 0.65166,-2.00089 0.65217,-2.03709 5e-4,-0.0362 -0.7795,-0.62844 -1.73265,-1.31628 -2.13371,-1.53983 -2.16857,-1.43119 0.45667,-1.43119 h 2.19379 l 0.64919,-2.0341 c 0.39082,-1.22677 0.54876,-1.84021 0.70738,-1.84011 z m -29.22073,28.94166 c 0.158626,1.1e-4 0.318152,0.61427 0.710371,1.84159 l 0.649184,2.03262 h 2.192301 c 2.62356,0 2.588809,-0.11004 0.455175,1.4297 -0.953151,0.68785 -1.732649,1.27444 -1.732649,1.30284 0,0.0284 0.297137,0.96706 0.661123,2.08634 0.797202,2.4516 0.933621,2.34785 -1.107344,0.85514 -2.044853,-1.49551 -1.606069,-1.49191 -3.627967,-0.0328 -2.022548,1.45956 -1.917501,1.5392 -1.126744,-0.85662 0.357864,-1.08422 0.651659,-2.00089 0.652168,-2.03709 4.95e-4,-0.0362 -0.779497,-0.62843 -1.732649,-1.31628 -2.133704,-1.53983 -2.168574,-1.43119 0.456667,-1.43119 h 2.193794 l 0.649184,-2.03411 c 0.390827,-1.22676 0.54876,-1.84021 0.707386,-1.8401 z" /><path
         id="path19"
         style="fill:#1ba050;fill-opacity:0.716535;stroke-width:2.88792"
         inkscape:label="silkscreen"
         d="m 81.961473,137.96663 c -2.166229,0 -9.724886,2.58437 -14.235779,4.86813 -13.697142,6.93454 -25.217022,20.35363 -30.598195,35.64094 -0.886252,2.5177 -1.814068,3.95015 -2.866856,4.42489 l -0.489499,0.22088 -0.471591,-0.14178 c -1.348714,-0.40409 -2.283409,-2.52452 -2.742988,-6.21873 l -0.204456,-1.63565 -0.393987,1.0775 c -1.140368,3.11836 -1.822915,6.53353 -2.043063,10.21233 l -0.108944,1.81473 0.111928,1.88487 c 0.291205,4.92262 1.673035,9.53245 4.014493,13.3896 0.636178,1.04791 0.649703,0.79379 -0.113421,2.17738 -2.414576,4.37772 -4.04884,9.49533 -4.706955,14.74468 l -0.201471,1.61177 0.006,3.05191 0.0045,3.05041 0.252211,1.86398 c 0.138507,1.02486 0.313248,2.14819 0.388018,2.49675 l 0.135807,0.63426 0.687985,-1.36403 c 1.952313,-3.87547 5.114225,-7.98302 7.82453,-10.16458 l 0.579042,-0.46711 h 0.599935 0.598443 l 0.388018,0.38951 0.386526,0.38951 0.450698,1.43566 c 4.364858,13.91756 14.237738,24.0336 24.985367,25.60172 h 0.003 c 0.610523,0.0887 1.968466,0.16563 3.02057,0.17162 l 1.914719,0.0119 1.196886,-0.17013 c 0.658216,-0.0937 1.695339,-0.28188 2.305722,-0.41786 4.465733,-0.99513 10.471919,-2.09584 13.491083,-2.47287 l 1.675939,-0.20893 h 2.272889 2.274382 l 0.946167,0.20893 c 0.520188,0.11524 1.297861,0.33874 1.729664,0.49547 0.999585,0.36283 1.007769,0.34395 0.256689,-0.59994 -1.749987,-2.19924 -4.042935,-3.47502 -6.921642,-3.84884 -1.589105,-0.20637 -2.58139,-0.55312 -2.931028,-1.02526 l -0.241765,-0.32534 0.147746,-0.4895 0.146253,-0.4895 0.708878,-0.70887 0.708879,-0.70888 2.246027,-1.48343 c 10.605705,-7.00527 23.399253,-13.05611 38.015303,-17.97865 1.258,-0.42369 2.3682,-0.80023 2.4669,-0.83723 l 0.18058,-0.0686 -5.02185,-2.47734 -5.02184,-2.47735 1.20136,-0.90587 c 3.19618,-2.40765 6.35925,-3.59795 10.81674,-4.0712 0.75693,-0.0804 1.39456,-0.1591 1.41776,-0.1761 0.0232,-0.0169 -0.067,-0.37092 -0.19998,-0.78649 -0.13297,-0.41559 -0.31215,-1.05128 -0.39995,-1.41328 l -0.15969,-0.65963 0.003,-1.91472 0.003,-1.91471 0.21341,-0.77753 c 1.49603,-5.42987 7.21492,-9.19376 15.758,-10.37053 l 1.49686,-0.20594 2.87133,0.001 2.87283,0.001 1.53565,0.20296 c 11.77629,1.55678 20.0143,9.53162 22.51996,21.79915 0.10762,0.52657 0.21578,1.01881 0.23878,1.09391 0.0231,0.0751 0.46542,-0.27457 0.98348,-0.77753 0.51807,-0.50296 1.59671,-1.54855 2.39675,-2.32363 2.4324,-2.35651 3.80377,-4.45587 4.35476,-6.66495 l 0.25221,-1.01333 -0.0567,-1.49984 -0.0582,-1.49983 -0.38056,-1.13719 c -0.57785,-1.72268 -1.55826,-3.3426 -3.09369,-5.11139 -0.41185,-0.47445 -0.74865,-0.90442 -0.74769,-0.95662 9.5e-4,-0.0521 12.15973,-7.59179 27.01948,-16.75342 l 27.01798,-16.65641 0.91334,-0.36563 c 2.42745,-0.97212 4.47667,-0.97557 6.50228,-0.009 l 0.95811,0.45816 0.79096,0.72381 0.78947,0.7238 0.0821,-1.08794 c 0.68895,-9.1263 7.84605,-14.86322 21.6708,-17.36977 l 1.55356,-0.28206 -0.89543,-0.27311 c -1.39794,-0.42835 -3.41666,-0.80861 -5.16063,-0.97004 l -1.59535,-0.14775 -1.51477,0.0776 c -7.64565,0.38697 -14.47808,4.34134 -18.58008,10.75555 l -0.43876,0.6865 -0.26714,0.0597 c -0.14665,0.0323 -0.91295,0.17204 -1.7028,0.31042 -13.11804,2.29695 -26.77224,7.18716 -38.39138,13.74926 -2.51579,1.42081 -2.13867,1.33759 -2.57435,0.56561 -0.1979,-0.35065 -0.63281,-0.88277 -0.96557,-1.18196 l -0.60441,-0.54323 -0.53577,-0.1358 c -2.22574,-0.56045 -6.03933,0.56483 -9.40197,2.77433 -1.24631,0.8189 -1.21861,0.85996 -0.50591,-0.73724 1.7453,-3.91131 4.16197,-6.94319 7.92302,-9.94221 0.69112,-0.55109 1.27299,-1.044 1.29389,-1.0969 0.0745,-0.18835 -1.39631,-0.81511 -2.38183,-1.01481 l -1.00288,-0.20297 -1.13868,0.0746 c -5.37572,0.35215 -12.48699,4.41599 -16.13707,9.2214 -0.34632,0.45589 -0.37323,0.39825 -0.24475,-0.52681 0.57543,-4.14184 3.28565,-8.04838 8.03496,-11.58234 l 0.80887,-0.60292 -0.80887,-0.13282 c -8.85098,-1.44947 -20.42896,1.37687 -30.90861,7.54397 -5.78419,3.40389 -8.9365,5.03188 -12.32703,6.36946 -2.25722,0.89049 -3.89345,1.40248 -5.86355,1.83264 l -1.37597,0.29996 -1.79533,0.0627 -1.79533,0.0612 -0.88348,-0.18804 c -0.48566,-0.10331 -1.12009,-0.30273 -1.4103,-0.44323 l -0.5283,-0.2552 -0.30892,-0.61038 -0.30893,-0.61038 -0.0612,-0.97303 c -0.24253,-3.88737 2.57881,-9.05581 7.92601,-14.52083 l 1.9177,-1.96098 -1.79533,0.0701 -1.79533,0.0701 -1.45357,0.30296 c -2.85873,0.59735 -5.10682,1.38299 -8.4185,2.93998 -4.25474,2.00037 -7.84777,1.32688 -10.39291,-1.94905 -0.30676,-0.39482 -0.76896,-0.9552 -1.02675,-1.24464 l -0.46861,-0.52681 -0.84767,-0.40443 c -0.93198,-0.44583 -2.13116,-0.78091 -3.95927,-1.10287 l -1.19689,-0.21042 -3.59066,0.003 -3.589162,0.003 -1.735633,0.26713 c -2.20288,0.33945 -3.813152,0.72423 -5.924735,1.41328 -4.177921,1.36332 -8.133156,1.90822 -13.182162,1.81772 -3.177799,-0.0569 -2.956588,0.10286 -2.134098,-1.53715 1.55634,-3.10327 3.969878,-6.30331 6.31723,-8.37522 0.447436,-0.39493 0.789952,-0.71783 0.761112,-0.71783 z m 1.059587,13.22843 1.643107,0.21341 c 18.344383,2.38594 32.388643,16.16159 35.160393,34.48732 l 0.2537,1.67445 0.0672,2.88924 0.0671,2.88924 -0.14028,1.53864 c -1.8525,20.25664 -17.93795,35.77487 -38.248116,36.89901 v -0.001 c -1.184779,0.0656 -2.235417,0.11246 -2.334077,0.10446 -0.09873,-0.009 -0.935071,-0.057 -1.859501,-0.10745 C 56.680598,230.63962 40.083782,213.52877 39.557077,192.5284 l -0.07014,-2.82208 0.14476,-1.6058 C 41.368243,168.95716 55.83225,153.9539 75.002512,151.41045 l 1.556549,-0.20744 3.230995,-0.004 z m -1.892333,3.49066 -2.405711,0.0731 C 60.9065,155.30066 46.182648,168.3759 43.456667,186.07488 l -0.249227,1.61624 -0.06119,2.99222 -0.06119,2.99072 0.192517,1.72668 c 1.985953,17.80745 16.173075,31.48257 34.029169,32.79945 18.948797,1.39748 36.002734,-12.28268 38.937604,-31.23395 l 0.25071,-1.61624 0.0612,-2.94297 0.0627,-2.94296 -0.1358,-1.42522 c -1.68459,-17.73384 -15.83339,-31.70393 -33.630713,-33.20687 z" /><path
         style="fill:#ffffff;fill-opacity:1;stroke-width:2.88792"
         d="m 74.520455,206.56272 v -4.79126 l -1.534277,-0.0298 -1.534291,-0.0298 v -5.88895 -5.88897 l 0.141786,0.21238 c 0.07802,0.11689 0.859453,1.54478 1.736645,3.17328 0.877178,1.6285 1.931155,3.57931 2.342181,4.33516 l 0.747307,1.37427 3.445742,-0.0284 3.445756,-0.0284 1.828013,-3.39158 c 1.005395,-1.86536 2.079867,-3.84873 2.387723,-4.40748 l 0.55971,-1.01591 0.06658,0.80057 c 0.03661,0.44031 0.07294,3.04012 0.08071,5.77731 l 0.01413,4.97674 -1.534278,0.0298 -1.534291,0.0298 v 4.79126 4.79128 h 7.698341 7.698338 v -4.79128 -4.79126 l -1.480449,-0.03 -1.480452,-0.03 v -10.22551 -10.22552 h 1.507379 1.507352 v -4.79208 -4.7921 l -6.69504,0.0277 -6.695038,0.0277 -3.668096,7.1844 c -2.017462,3.95143 -3.692338,7.18489 -3.72195,7.1855 -0.02968,6.1e-4 -1.707358,-3.23238 -3.728339,-7.18441 l -3.674528,-7.18549 -6.688621,-0.0277 -6.688607,-0.0277 v 4.7921 4.79208 l 1.534277,-2e-5 1.534292,-1e-5 -0.02799,10.22857 -0.02799,10.22857 h -1.50629 -1.506291 v 4.84581 4.84582 l 7.725254,-0.0276 7.725254,-0.0276 z"
         id="path22" /></g></g><g
     inkscape:groupmode="layer"
     id="layer2"
     inkscape:label="components"><rect
       style="font-variation-settings:'opsz' 36, 'wght' 600;fill:#ff00ff;stroke-width:1.5;stroke-linecap:round;stroke-linejoin:round"
       id="rect1"
       width="3.2"
       height="1.6"
       x="17.64415"
       y="-22.865425"
       transform="rotate(90)" /><rect
       style="font-variation-settings:'opsz' 36, 'wght' 600;fill:#ff00ff;stroke-width:1.5;stroke-linecap:round;stroke-linejoin:round"
       id="rect1-7"
       width="3.2"
       height="1.6"
       x="30.479298"
       y="28.38648" /><rect
       style="font-variation-settings:'opsz' 36, 'wght' 600;fill:#ff00ff;stroke-width:1.5;stroke-linecap:round;stroke-linejoin:round"
       id="rect1-3"
       width="3.2"
       height="1.6"
       x="37.564583"
       y="-22.772915"
       transform="rotate(90)" /><rect
       style="font-variation-settings:'opsz' 36, 'wght' 600;fill:#ff00ff;stroke-width:1.5;stroke-linecap:round;stroke-linejoin:round"
       id="rect1-6"
       width="3.2"
       height="1.6"
       x="10.294902"
       y="28.310417" /></g></svg>
