  0
SECTION
  2
HEADER
  9
$ACADVER
  1
AC1014
  9
$HANDSEED
  5
FFFF
  9
$INSUNITS
 70
     4
  9
$MEASUREMENT
 70
     1
  0
ENDSEC
  0
SECTION
  2
TABLES
  0
TABLE
  2
VPORT
  5
8
330
0
100
AcDbSymbolTable
 70
     4
  0
VPORT
  5
2E
330
8
100
AcDbSymbolTableRecord
100
AcDbViewportTableRecord
  2
*ACTIVE
 70
     0
 10
0.0
 20
0.0
 11
1.0
 21
1.0
 12
210.0
 22
148.5
 13
0.0
 23
0.0
 14
10.0
 24
10.0
 15
10.0
 25
10.0
 16
0.0
 26
0.0
 36
1.0
 17
0.0
 27
0.0
 37
0.0
 40
341.0
 41
1.24
 42
50.0
 43
0.0
 44
0.0
 50
0.0
 51
0.0
 71
     0
 72
   100
 73
     1
 74
     3
 75
     0
 76
     0
 77
     0
 78
     0
  0
ENDTAB
  0
TABLE
  2
LTYPE
  5
5
330
0
100
AcDbSymbolTable
 70
     1
  0
LTYPE
  5
14
330
5
100
AcDbSymbolTableRecord
100
AcDbLinetypeTableRecord
  2
BYBLOCK
 70
     0
  3

 72
    65
 73
     0
 40
0.0
  0
LTYPE
  5
15
330
5
100
AcDbSymbolTableRecord
100
AcDbLinetypeTableRecord
  2
BYLAYER
 70
     0
  3

 72
    65
 73
     0
 40
0.0
  0
LTYPE
  5
16
330
5
100
AcDbSymbolTableRecord
100
AcDbLinetypeTableRecord
  2
CONTINUOUS
 70
     0
  3
Solid line
 72
    65
 73
     0
 40
0.0
  0
ENDTAB
  0
TABLE
  2
LAYER
  5
2
100
AcDbSymbolTable
 70
2
  0
LAYER
  5
50
100
AcDbSymbolTableRecord
100
AcDbLayerTableRecord
  2
0
 70
0
  6
CONTINUOUS
  0
LAYER
  5
51
100
AcDbSymbolTableRecord
100
AcDbLayerTableRecord
  2
Layer_1
 70
0
  6
CONTINUOUS
  0
ENDTAB
  0
TABLE
  2
STYLE
  5
3
330
0
100
AcDbSymbolTable
 70
     1
  0
STYLE
  5
11
330
3
100
AcDbSymbolTableRecord
100
AcDbTextStyleTableRecord
  2
STANDARD
 70
     0
 40
0.0
 41
1.0
 50
0.0
 71
     0
 42
2.5
  3
txt
  4

  0
ENDTAB
  0
TABLE
  2
VIEW
  5
6
330
0
100
AcDbSymbolTable
 70
     0
  0
ENDTAB
  0
TABLE
  2
UCS
  5
7
330
0
100
AcDbSymbolTable
 70
     0
  0
ENDTAB
  0
TABLE
  2
APPID
  5
9
330
0
100
AcDbSymbolTable
 70
     2
  0
APPID
  5
12
330
9
100
AcDbSymbolTableRecord
100
AcDbRegAppTableRecord
  2
ACAD
 70
     0
  0
ENDTAB
  0
TABLE
  2
DIMSTYLE
  5
A
330
0
100
AcDbSymbolTable
 70
     1
  0
DIMSTYLE
105
27
330
A
100
AcDbSymbolTableRecord
100
AcDbDimStyleTableRecord
  2
ISO-25
 70
     0
  3

  4

  5

  6

  7

 40
1.0
 41
2.5
 42
0.625
 43
3.75
 44
1.25
 45
0.0
 46
0.0
 47
0.0
 48
0.0
140
2.5
141
2.5
142
0.0
143
0.03937007874016
144
1.0
145
0.0
146
1.0
147
0.625
 71
     0
 72
     0
 73
     0
 74
     0
 75
     0
 76
     0
 77
     1
 78
     8
170
     0
171
     3
172
     1
173
     0
174
     0
175
     0
176
     0
177
     0
178
     0
270
     2
271
     2
272
     2
273
     2
274
     3
340
11
275
     0
280
     0
281
     0
282
     0
283
     0
284
     8
285
     0
286
     0
287
     3
288
     0
  0
ENDTAB
  0
TABLE
  2
BLOCK_RECORD
  5
1
330
0
100
AcDbSymbolTable
 70
     1
  0
BLOCK_RECORD
  5
1F
330
1
100
AcDbSymbolTableRecord
100
AcDbBlockTableRecord
  2
*MODEL_SPACE
  0
BLOCK_RECORD
  5
1B
330
1
100
AcDbSymbolTableRecord
100
AcDbBlockTableRecord
  2
*PAPER_SPACE
  0
ENDTAB
  0
ENDSEC
  0
SECTION
  2
BLOCKS
  0
BLOCK
  5
20
330
1F
100
AcDbEntity
  8
0
100
AcDbBlockBegin
  2
*MODEL_SPACE
 70
     0
 10
0.0
 20
0.0
 30
0.0
  3
*MODEL_SPACE
  1

  0
ENDBLK
  5
21
330
1F
100
AcDbEntity
  8
0
100
AcDbBlockEnd
  0
BLOCK
  5
1C
330
1B
100
AcDbEntity
 67
     1
  8
0
100
AcDbBlockBegin
  2
*PAPER_SPACE
  1

  0
ENDBLK
  5
1D
330
1B
100
AcDbEntity
 67
     1
  8
0
100
AcDbBlockEnd
  0
ENDSEC
  0
SECTION
  2
ENTITIES
  0
SPLINE
  5
100
100
AcDbEntity
  8
Layer_1
 62
7
100
AcDbSpline
 70
8
 71
3
 72
8
 73
4
 74
0
 40
0
 40
0
 40
0
 40
0
 40
1
 40
1
 40
1
 40
1
 10
22.786617
 20
43.175344
 30
0.0
 10
22.036519
 20
43.175344
 30
0.0
 10
19.419191
 20
42.280457
 30
0.0
 10
17.857208
 20
41.489661
 30
0.0
  0
SPLINE
  5
101
100
AcDbEntity
  8
Layer_1
 62
7
100
AcDbSpline
 70
8
 71
3
 72
8
 73
4
 74
0
 40
0
 40
0
 40
0
 40
0
 40
1
 40
1
 40
1
 40
1
 10
17.857208
 20
41.489661
 30
0.0
 10
13.114313
 20
39.088445
 30
0.0
 10
9.125335
 20
34.441830
 30
0.0
 10
7.262002
 20
29.148309
 30
0.0
  0
SPLINE
  5
102
100
AcDbEntity
  8
Layer_1
 62
7
100
AcDbSpline
 70
8
 71
3
 72
8
 73
4
 74
0
 40
0
 40
0
 40
0
 40
0
 40
1
 40
1
 40
1
 40
1
 10
7.262002
 20
29.148309
 30
0.0
 10
6.955120
 20
28.276507
 30
0.0
 10
6.633846
 20
27.780494
 30
0.0
 10
6.269299
 20
27.616107
 30
0.0
  0
SPLINE
  5
103
100
AcDbEntity
  8
Layer_1
 62
7
100
AcDbSpline
 70
8
 71
3
 72
8
 73
4
 74
0
 40
0
 40
0
 40
0
 40
0
 40
1
 40
1
 40
1
 40
1
 10
5.936503
 20
27.588717
 30
0.0
 10
5.469485
 20
27.728641
 30
0.0
 10
5.145829
 20
28.462880
 30
0.0
 10
4.986691
 20
29.742070
 30
0.0
  0
LWPOLYLINE
  5
104
100
AcDbEntity
  8
Layer_1
 62
7
100
AcDbPolyline
 90
3
 70
0
 10
6.269299
 20
27.616107
 30
0.0
 10
6.099800
 20
27.539623
 30
0.0
 10
5.936503
 20
27.588717
 30
0.0
  0
SPLINE
  5
105
100
AcDbEntity
  8
Layer_1
 62
7
100
AcDbSpline
 70
8
 71
3
 72
8
 73
4
 74
0
 40
0
 40
0
 40
0
 40
0
 40
1
 40
1
 40
1
 40
1
 10
4.779469
 20
29.935340
 30
0.0
 10
4.384595
 20
28.855549
 30
0.0
 10
4.148250
 20
27.672981
 30
0.0
 10
4.072020
 20
26.399127
 30
0.0
  0
LWPOLYLINE
  5
106
100
AcDbEntity
  8
Layer_1
 62
7
100
AcDbPolyline
 90
3
 70
0
 10
4.986691
 20
29.742070
 30
0.0
 10
4.915894
 20
30.308445
 30
0.0
 10
4.779469
 20
29.935340
 30
0.0
  0
SPLINE
  5
107
100
AcDbEntity
  8
Layer_1
 62
7
100
AcDbSpline
 70
8
 71
3
 72
8
 73
4
 74
0
 40
0
 40
0
 40
0
 40
0
 40
1
 40
1
 40
1
 40
1
 10
4.073053
 20
25.118070
 30
0.0
 10
4.173888
 20
23.413519
 30
0.0
 10
4.652373
 20
21.817278
 30
0.0
 10
5.463147
 20
20.481667
 30
0.0
  0
SPLINE
  5
108
100
AcDbEntity
  8
Layer_1
 62
7
100
AcDbSpline
 70
8
 71
3
 72
8
 73
4
 74
0
 40
0
 40
0
 40
0
 40
0
 40
1
 40
1
 40
1
 40
1
 10
5.463147
 20
20.481667
 30
0.0
 10
5.683436
 20
20.118808
 30
0.0
 10
5.688119
 20
20.206802
 30
0.0
 10
5.423873
 20
19.727707
 30
0.0
  0
SPLINE
  5
109
100
AcDbEntity
  8
Layer_1
 62
7
100
AcDbSpline
 70
8
 71
3
 72
8
 73
4
 74
0
 40
0
 40
0
 40
0
 40
0
 40
1
 40
1
 40
1
 40
1
 10
5.423873
 20
19.727707
 30
0.0
 10
4.587780
 20
18.211839
 30
0.0
 10
4.021885
 20
16.439769
 30
0.0
 10
3.794001
 20
14.622082
 30
0.0
  0
LWPOLYLINE
  5
10a
100
AcDbEntity
  8
Layer_1
 62
7
100
AcDbPolyline
 90
3
 70
0
 10
4.072020
 20
26.399127
 30
0.0
 10
4.034296
 20
25.770742
 30
0.0
 10
4.073053
 20
25.118070
 30
0.0
  0
SPLINE
  5
10b
100
AcDbEntity
  8
Layer_1
 62
7
100
AcDbSpline
 70
8
 71
3
 72
8
 73
4
 74
0
 40
0
 40
0
 40
0
 40
0
 40
1
 40
1
 40
1
 40
1
 10
3.815206
 20
11.305493
 30
0.0
 10
3.863167
 20
10.950616
 30
0.0
 10
3.923674
 20
10.561642
 30
0.0
 10
3.949565
 20
10.440946
 30
0.0
  0
LWPOLYLINE
  5
10c
100
AcDbEntity
  8
Layer_1
 62
7
100
AcDbPolyline
 90
5
 70
0
 10
3.794001
 20
14.622082
 30
0.0
 10
3.724237
 20
14.063976
 30
0.0
 10
3.726315
 20
13.007194
 30
0.0
 10
3.727873
 20
11.950932
 30
0.0
 10
3.815206
 20
11.305493
 30
0.0
  0
SPLINE
  5
10d
100
AcDbEntity
  8
Layer_1
 62
7
100
AcDbSpline
 70
8
 71
3
 72
8
 73
4
 74
0
 40
0
 40
0
 40
0
 40
0
 40
1
 40
1
 40
1
 40
1
 10
4.234818
 20
10.693643
 30
0.0
 10
4.910844
 20
12.035598
 30
0.0
 10
6.005716
 20
13.457915
 30
0.0
 10
6.944210
 20
14.213322
 30
0.0
  0
LWPOLYLINE
  5
10e
100
AcDbEntity
  8
Layer_1
 62
7
100
AcDbPolyline
 90
3
 70
0
 10
3.949565
 20
10.440946
 30
0.0
 10
3.996590
 20
10.221321
 30
0.0
 10
4.234818
 20
10.693643
 30
0.0
  0
SPLINE
  5
10f
100
AcDbEntity
  8
Layer_1
 62
7
100
AcDbSpline
 70
8
 71
3
 72
8
 73
4
 74
0
 40
0
 40
0
 40
0
 40
0
 40
1
 40
1
 40
1
 40
1
 10
7.983939
 20
13.608192
 30
0.0
 10
9.495354
 20
8.788973
 30
0.0
 10
12.914027
 20
5.286102
 30
0.0
 10
16.635597
 20
4.743110
 30
0.0
  0
LWPOLYLINE
  5
110
100
AcDbEntity
  8
Layer_1
 62
7
100
AcDbPolyline
 90
7
 70
0
 10
6.944210
 20
14.213322
 30
0.0
 10
7.144715
 20
14.375067
 30
0.0
 10
7.352454
 20
14.375067
 30
0.0
 10
7.559676
 20
14.375067
 30
0.0
 10
7.694035
 20
14.240192
 30
0.0
 10
7.827876
 20
14.105317
 30
0.0
 10
7.983939
 20
13.608192
 30
0.0
  0
SPLINE
  5
111
100
AcDbEntity
  8
Layer_1
 62
7
100
AcDbSpline
 70
8
 71
3
 72
8
 73
4
 74
0
 40
0
 40
0
 40
0
 40
0
 40
1
 40
1
 40
1
 40
1
 10
16.636636
 20
4.743110
 30
0.0
 10
16.848041
 20
4.712396
 30
0.0
 10
17.318255
 20
4.685758
 30
0.0
 10
17.682566
 20
4.683684
 30
0.0
  0
LWPOLYLINE
  5
112
100
AcDbEntity
  8
Layer_1
 62
7
100
AcDbPolyline
 90
2
 70
0
 10
16.635597
 20
4.743110
 30
0.0
 10
16.636636
 20
4.743110
 30
0.0
  0
SPLINE
  5
113
100
AcDbEntity
  8
Layer_1
 62
7
100
AcDbSpline
 70
8
 71
3
 72
8
 73
4
 74
0
 40
0
 40
0
 40
0
 40
0
 40
1
 40
1
 40
1
 40
1
 10
18.760018
 20
4.738474
 30
0.0
 10
18.987938
 20
4.770919
 30
0.0
 10
19.347062
 20
4.836080
 30
0.0
 10
19.558418
 20
4.883166
 30
0.0
  0
SPLINE
  5
114
100
AcDbEntity
  8
Layer_1
 62
7
100
AcDbSpline
 70
8
 71
3
 72
8
 73
4
 74
0
 40
0
 40
0
 40
0
 40
0
 40
1
 40
1
 40
1
 40
1
 10
19.558418
 20
4.883166
 30
0.0
 10
21.104763
 20
5.227749
 30
0.0
 10
23.184519
 20
5.608890
 30
0.0
 10
24.229962
 20
5.739444
 30
0.0
  0
LWPOLYLINE
  5
115
100
AcDbEntity
  8
Layer_1
 62
7
100
AcDbPolyline
 90
3
 70
0
 10
17.682566
 20
4.683684
 30
0.0
 10
18.345574
 20
4.679563
 30
0.0
 10
18.760018
 20
4.738474
 30
0.0
  0
SPLINE
  5
116
100
AcDbEntity
  8
Layer_1
 62
7
100
AcDbSpline
 70
8
 71
3
 72
8
 73
4
 74
0
 40
0
 40
0
 40
0
 40
0
 40
1
 40
1
 40
1
 40
1
 10
26.712495
 20
5.739444
 30
0.0
 10
26.892620
 20
5.699540
 30
0.0
 10
27.161904
 20
5.622149
 30
0.0
 10
27.311424
 20
5.567878
 30
0.0
  0
SPLINE
  5
117
100
AcDbEntity
  8
Layer_1
 62
7
100
AcDbSpline
 70
8
 71
3
 72
8
 73
4
 74
0
 40
0
 40
0
 40
0
 40
0
 40
1
 40
1
 40
1
 40
1
 10
27.311424
 20
5.567878
 30
0.0
 10
27.657549
 20
5.442241
 30
0.0
 10
27.660383
 20
5.448779
 30
0.0
 10
27.400308
 20
5.775619
 30
0.0
  0
SPLINE
  5
118
100
AcDbEntity
  8
Layer_1
 62
7
100
AcDbSpline
 70
8
 71
3
 72
8
 73
4
 74
0
 40
0
 40
0
 40
0
 40
0
 40
1
 40
1
 40
1
 40
1
 10
27.400308
 20
5.775619
 30
0.0
 10
26.794341
 20
6.537147
 30
0.0
 10
26.000364
 20
6.978911
 30
0.0
 10
25.003557
 20
7.108353
 30
0.0
  0
SPLINE
  5
119
100
AcDbEntity
  8
Layer_1
 62
7
100
AcDbSpline
 70
8
 71
3
 72
8
 73
4
 74
0
 40
0
 40
0
 40
0
 40
0
 40
1
 40
1
 40
1
 40
1
 10
25.003557
 20
7.108353
 30
0.0
 10
24.453300
 20
7.179812
 30
0.0
 10
24.109702
 20
7.299881
 30
0.0
 10
23.988633
 20
7.463369
 30
0.0
  0
LWPOLYLINE
  5
11a
100
AcDbEntity
  8
Layer_1
 62
7
100
AcDbPolyline
 90
5
 70
0
 10
24.229962
 20
5.739444
 30
0.0
 10
24.810288
 20
5.811790
 30
0.0
 10
25.597319
 20
5.811790
 30
0.0
 10
26.384867
 20
5.811790
 30
0.0
 10
26.712495
 20
5.739444
 30
0.0
  0
SPLINE
  5
11b
100
AcDbEntity
  8
Layer_1
 62
7
100
AcDbSpline
 70
8
 71
3
 72
8
 73
4
 74
0
 40
0
 40
0
 40
0
 40
0
 40
1
 40
1
 40
1
 40
1
 10
25.275375
 20
8.919610
 30
0.0
 10
28.947802
 20
11.345318
 30
0.0
 10
33.377811
 20
13.440536
 30
0.0
 10
38.438896
 20
15.145059
 30
0.0
  0
SPLINE
  5
11c
100
AcDbEntity
  8
Layer_1
 62
7
100
AcDbSpline
 70
8
 71
3
 72
8
 73
4
 74
0
 40
0
 40
0
 40
0
 40
0
 40
1
 40
1
 40
1
 40
1
 10
38.438896
 20
15.145059
 30
0.0
 10
38.874503
 20
15.291770
 30
0.0
 10
39.258930
 20
15.422154
 30
0.0
 10
39.293107
 20
15.434966
 30
0.0
  0
LWPOLYLINE
  5
11d
100
AcDbEntity
  8
Layer_1
 62
7
100
AcDbPolyline
 90
7
 70
0
 10
23.988633
 20
7.463369
 30
0.0
 10
23.904918
 20
7.576024
 30
0.0
 10
23.956077
 20
7.745522
 30
0.0
 10
24.006720
 20
7.915021
 30
0.0
 10
24.252183
 20
8.160481
 30
0.0
 10
24.497646
 20
8.405944
 30
0.0
 10
25.275375
 20
8.919610
 30
0.0
  0
SPLINE
  5
11e
100
AcDbEntity
  8
Layer_1
 62
7
100
AcDbSpline
 70
8
 71
3
 72
8
 73
4
 74
0
 40
0
 40
0
 40
0
 40
0
 40
1
 40
1
 40
1
 40
1
 10
36.293812
 20
17.488050
 30
0.0
 10
37.400550
 20
18.321745
 30
0.0
 10
38.495823
 20
18.733909
 30
0.0
 10
40.039313
 20
18.897780
 30
0.0
  0
SPLINE
  5
11f
100
AcDbEntity
  8
Layer_1
 62
7
100
AcDbSpline
 70
8
 71
3
 72
8
 73
4
 74
0
 40
0
 40
0
 40
0
 40
0
 40
1
 40
1
 40
1
 40
1
 10
40.039313
 20
18.897780
 30
0.0
 10
40.301415
 20
18.925620
 30
0.0
 10
40.522206
 20
18.952872
 30
0.0
 10
40.530240
 20
18.958758
 30
0.0
  0
SPLINE
  5
120
100
AcDbEntity
  8
Layer_1
 62
7
100
AcDbSpline
 70
8
 71
3
 72
8
 73
4
 74
0
 40
0
 40
0
 40
0
 40
0
 40
1
 40
1
 40
1
 40
1
 10
40.530240
 20
18.958758
 30
0.0
 10
40.538273
 20
18.964610
 30
0.0
 10
40.507040
 20
19.087196
 30
0.0
 10
40.460993
 20
19.231095
 30
0.0
  0
SPLINE
  5
121
100
AcDbEntity
  8
Layer_1
 62
7
100
AcDbSpline
 70
8
 71
3
 72
8
 73
4
 74
0
 40
0
 40
0
 40
0
 40
0
 40
1
 40
1
 40
1
 40
1
 10
40.460993
 20
19.231095
 30
0.0
 10
40.414949
 20
19.375001
 30
0.0
 10
40.352905
 20
19.595121
 30
0.0
 10
40.322503
 20
19.720470
 30
0.0
  0
LWPOLYLINE
  5
122
100
AcDbEntity
  8
Layer_1
 62
7
100
AcDbPolyline
 90
5
 70
0
 10
39.293107
 20
15.434966
 30
0.0
 10
39.355636
 20
15.458720
 30
0.0
 10
37.616725
 20
16.316546
 30
0.0
 10
35.877818
 20
17.174375
 30
0.0
 10
36.293812
 20
17.488050
 30
0.0
  0
SPLINE
  5
123
100
AcDbEntity
  8
Layer_1
 62
7
100
AcDbSpline
 70
8
 71
3
 72
8
 73
4
 74
0
 40
0
 40
0
 40
0
 40
0
 40
1
 40
1
 40
1
 40
1
 10
40.343182
 20
21.544127
 30
0.0
 10
40.861211
 20
23.424323
 30
0.0
 10
42.841485
 20
24.727641
 30
0.0
 10
45.799689
 20
25.135120
 30
0.0
  0
LWPOLYLINE
  5
124
100
AcDbEntity
  8
Layer_1
 62
7
100
AcDbPolyline
 90
5
 70
0
 10
40.322503
 20
19.720470
 30
0.0
 10
40.267207
 20
19.948880
 30
0.0
 10
40.268246
 20
20.611888
 30
0.0
 10
40.269284
 20
21.274893
 30
0.0
 10
40.343182
 20
21.544127
 30
0.0
  0
SPLINE
  5
125
100
AcDbEntity
  8
Layer_1
 62
7
100
AcDbSpline
 70
8
 71
3
 72
8
 73
4
 74
0
 40
0
 40
0
 40
0
 40
0
 40
1
 40
1
 40
1
 40
1
 10
48.838777
 20
25.135460
 30
0.0
 10
52.916542
 20
24.596395
 30
0.0
 10
55.769109
 20
21.834955
 30
0.0
 10
56.636741
 20
17.587090
 30
0.0
  0
SPLINE
  5
126
100
AcDbEntity
  8
Layer_1
 62
7
100
AcDbSpline
 70
8
 71
3
 72
8
 73
4
 74
0
 40
0
 40
0
 40
0
 40
0
 40
1
 40
1
 40
1
 40
1
 10
56.636741
 20
17.587090
 30
0.0
 10
56.674007
 20
17.404755
 30
0.0
 10
56.711459
 20
17.234308
 30
0.0
 10
56.719424
 20
17.208303
 30
0.0
  0
SPLINE
  5
127
100
AcDbEntity
  8
Layer_1
 62
7
100
AcDbSpline
 70
8
 71
3
 72
8
 73
4
 74
0
 40
0
 40
0
 40
0
 40
0
 40
1
 40
1
 40
1
 40
1
 10
56.719424
 20
17.208303
 30
0.0
 10
56.727422
 20
17.182298
 30
0.0
 10
56.880584
 20
17.303378
 30
0.0
 10
57.059972
 20
17.477537
 30
0.0
  0
SPLINE
  5
128
100
AcDbEntity
  8
Layer_1
 62
7
100
AcDbSpline
 70
8
 71
3
 72
8
 73
4
 74
0
 40
0
 40
0
 40
0
 40
0
 40
1
 40
1
 40
1
 40
1
 10
57.059972
 20
17.477537
 30
0.0
 10
57.239364
 20
17.651697
 30
0.0
 10
57.612863
 20
18.013752
 30
0.0
 10
57.889892
 20
18.282138
 30
0.0
  0
SPLINE
  5
129
100
AcDbEntity
  8
Layer_1
 62
7
100
AcDbSpline
 70
8
 71
3
 72
8
 73
4
 74
0
 40
0
 40
0
 40
0
 40
0
 40
1
 40
1
 40
1
 40
1
 10
57.889892
 20
18.282138
 30
0.0
 10
58.732157
 20
19.098125
 30
0.0
 10
59.207020
 20
19.825068
 30
0.0
 10
59.397811
 20
20.590004
 30
0.0
  0
LWPOLYLINE
  5
12a
100
AcDbEntity
  8
Layer_1
 62
7
100
AcDbPolyline
 90
5
 70
0
 10
45.799689
 20
25.135120
 30
0.0
 10
46.318005
 20
25.206431
 30
0.0
 10
47.312257
 20
25.206085
 30
0.0
 10
48.307029
 20
25.205738
 30
0.0
 10
48.838777
 20
25.135460
 30
0.0
  0
SPLINE
  5
12b
100
AcDbEntity
  8
Layer_1
 62
7
100
AcDbSpline
 70
8
 71
3
 72
8
 73
4
 74
0
 40
0
 40
0
 40
0
 40
0
 40
1
 40
1
 40
1
 40
1
 10
59.313581
 20
22.373355
 30
0.0
 10
59.113489
 20
22.969866
 30
0.0
 10
58.774004
 20
23.530794
 30
0.0
 10
58.242332
 20
24.143271
 30
0.0
  0
SPLINE
  5
12c
100
AcDbEntity
  8
Layer_1
 62
7
100
AcDbSpline
 70
8
 71
3
 72
8
 73
4
 74
0
 40
0
 40
0
 40
0
 40
0
 40
1
 40
1
 40
1
 40
1
 10
58.242332
 20
24.143271
 30
0.0
 10
58.099721
 20
24.307558
 30
0.0
 10
57.983098
 20
24.456444
 30
0.0
 10
57.983430
 20
24.474519
 30
0.0
  0
SPLINE
  5
12d
100
AcDbEntity
  8
Layer_1
 62
7
100
AcDbSpline
 70
8
 71
3
 72
8
 73
4
 74
0
 40
0
 40
0
 40
0
 40
0
 40
1
 40
1
 40
1
 40
1
 10
57.983430
 20
24.474519
 30
0.0
 10
57.983759
 20
24.492559
 30
0.0
 10
62.193968
 20
27.103320
 30
0.0
 10
67.339438
 20
30.275709
 30
0.0
  0
LWPOLYLINE
  5
12e
100
AcDbEntity
  8
Layer_1
 62
7
100
AcDbPolyline
 90
5
 70
0
 10
59.397811
 20
20.590004
 30
0.0
 10
59.485143
 20
20.940889
 30
0.0
 10
59.465510
 20
21.460237
 30
0.0
 10
59.445357
 20
21.979581
 30
0.0
 10
59.313581
 20
22.373355
 30
0.0
  0
SPLINE
  5
12f
100
AcDbEntity
  8
Layer_1
 62
7
100
AcDbSpline
 70
8
 71
3
 72
8
 73
4
 74
0
 40
0
 40
0
 40
0
 40
0
 40
1
 40
1
 40
1
 40
1
 10
77.011189
 20
36.169914
 30
0.0
 10
77.851739
 20
36.506529
 30
0.0
 10
78.561321
 20
36.507723
 30
0.0
 10
79.262727
 20
36.173030
 30
0.0
  0
LWPOLYLINE
  5
130
100
AcDbEntity
  8
Layer_1
 62
7
100
AcDbPolyline
 90
3
 70
0
 10
67.339438
 20
30.275709
 30
0.0
 10
76.694927
 20
36.043307
 30
0.0
 10
77.011189
 20
36.169914
 30
0.0
  0
SPLINE
  5
131
100
AcDbEntity
  8
Layer_1
 62
7
100
AcDbSpline
 70
8
 71
3
 72
8
 73
4
 74
0
 40
0
 40
0
 40
0
 40
0
 40
1
 40
1
 40
1
 40
1
 10
80.170173
 20
35.889841
 30
0.0
 10
80.408735
 20
39.049996
 30
0.0
 10
82.887017
 20
41.036513
 30
0.0
 10
87.674099
 20
41.904454
 30
0.0
  0
LWPOLYLINE
  5
132
100
AcDbEntity
  8
Layer_1
 62
7
100
AcDbPolyline
 90
5
 70
0
 10
79.262727
 20
36.173030
 30
0.0
 10
79.594490
 20
36.014383
 30
0.0
 10
79.868375
 20
35.763750
 30
0.0
 10
80.141744
 20
35.513121
 30
0.0
 10
80.170173
 20
35.889841
 30
0.0
  0
SPLINE
  5
133
100
AcDbEntity
  8
Layer_1
 62
7
100
AcDbSpline
 70
8
 71
3
 72
8
 73
4
 74
0
 40
0
 40
0
 40
0
 40
0
 40
1
 40
1
 40
1
 40
1
 10
87.901989
 20
42.096692
 30
0.0
 10
87.417926
 20
42.245016
 30
0.0
 10
86.718906
 20
42.376688
 30
0.0
 10
86.115023
 20
42.432587
 30
0.0
  0
LWPOLYLINE
  5
134
100
AcDbEntity
  8
Layer_1
 62
7
100
AcDbPolyline
 90
3
 70
0
 10
87.674099
 20
41.904454
 30
0.0
 10
88.212049
 20
42.002122
 30
0.0
 10
87.901989
 20
42.096692
 30
0.0
  0
SPLINE
  5
135
100
AcDbEntity
  8
Layer_1
 62
7
100
AcDbSpline
 70
8
 71
3
 72
8
 73
4
 74
0
 40
0
 40
0
 40
0
 40
0
 40
1
 40
1
 40
1
 40
1
 10
85.038085
 20
42.456877
 30
0.0
 10
82.390633
 20
42.322882
 30
0.0
 10
80.024775
 20
40.953606
 30
0.0
 10
78.604379
 20
38.732564
 30
0.0
  0
LWPOLYLINE
  5
136
100
AcDbEntity
  8
Layer_1
 62
7
100
AcDbPolyline
 90
3
 70
0
 10
86.115023
 20
42.432587
 30
0.0
 10
85.562603
 20
42.483748
 30
0.0
 10
85.038085
 20
42.456877
 30
0.0
  0
SPLINE
  5
137
100
AcDbEntity
  8
Layer_1
 62
7
100
AcDbSpline
 70
8
 71
3
 72
8
 73
4
 74
0
 40
0
 40
0
 40
0
 40
0
 40
1
 40
1
 40
1
 40
1
 10
78.359948
 20
38.474178
 30
0.0
 10
78.309168
 20
38.462993
 30
0.0
 10
78.043822
 20
38.414606
 30
0.0
 10
77.770321
 20
38.366689
 30
0.0
  0
SPLINE
  5
138
100
AcDbEntity
  8
Layer_1
 62
7
100
AcDbSpline
 70
8
 71
3
 72
8
 73
4
 74
0
 40
0
 40
0
 40
0
 40
0
 40
1
 40
1
 40
1
 40
1
 10
77.770321
 20
38.366689
 30
0.0
 10
73.227950
 20
37.571327
 30
0.0
 10
68.499924
 20
35.877998
 30
0.0
 10
64.476576
 20
33.605747
 30
0.0
  0
SPLINE
  5
139
100
AcDbEntity
  8
Layer_1
 62
7
100
AcDbSpline
 70
8
 71
3
 72
8
 73
4
 74
0
 40
0
 40
0
 40
0
 40
0
 40
1
 40
1
 40
1
 40
1
 10
64.476576
 20
33.605747
 30
0.0
 10
63.605436
 20
33.113764
 30
0.0
 10
63.736021
 20
33.142581
 30
0.0
 10
63.585159
 20
33.409893
 30
0.0
  0
SPLINE
  5
13a
100
AcDbEntity
  8
Layer_1
 62
7
100
AcDbSpline
 70
8
 71
3
 72
8
 73
4
 74
0
 40
0
 40
0
 40
0
 40
0
 40
1
 40
1
 40
1
 40
1
 10
63.585159
 20
33.409893
 30
0.0
 10
63.516632
 20
33.531313
 30
0.0
 10
63.366036
 20
33.715569
 30
0.0
 10
63.250812
 20
33.819169
 30
0.0
  0
LWPOLYLINE
  5
13b
100
AcDbEntity
  8
Layer_1
 62
7
100
AcDbPolyline
 90
3
 70
0
 10
78.604379
 20
38.732564
 30
0.0
 10
78.452450
 20
38.494850
 30
0.0
 10
78.359948
 20
38.474178
 30
0.0
  0
SPLINE
  5
13c
100
AcDbEntity
  8
Layer_1
 62
7
100
AcDbSpline
 70
8
 71
3
 72
8
 73
4
 74
0
 40
0
 40
0
 40
0
 40
0
 40
1
 40
1
 40
1
 40
1
 10
62.856003
 20
34.054297
 30
0.0
 10
62.085298
 20
34.248363
 30
0.0
 10
60.764770
 20
33.858713
 30
0.0
 10
59.600392
 20
33.093632
 30
0.0
  0
SPLINE
  5
13d
100
AcDbEntity
  8
Layer_1
 62
7
100
AcDbSpline
 70
8
 71
3
 72
8
 73
4
 74
0
 40
0
 40
0
 40
0
 40
0
 40
1
 40
1
 40
1
 40
1
 10
59.600392
 20
33.093632
 30
0.0
 10
59.168833
 20
32.810072
 30
0.0
 10
59.178425
 20
32.795855
 30
0.0
 10
59.425211
 20
33.348915
 30
0.0
  0
SPLINE
  5
13e
100
AcDbEntity
  8
Layer_1
 62
7
100
AcDbSpline
 70
8
 71
3
 72
8
 73
4
 74
0
 40
0
 40
0
 40
0
 40
0
 40
1
 40
1
 40
1
 40
1
 10
59.425211
 20
33.348915
 30
0.0
 10
60.029554
 20
34.703281
 30
0.0
 10
60.866372
 20
35.753127
 30
0.0
 10
62.168707
 20
36.791595
 30
0.0
  0
SPLINE
  5
13f
100
AcDbEntity
  8
Layer_1
 62
7
100
AcDbSpline
 70
8
 71
3
 72
8
 73
4
 74
0
 40
0
 40
0
 40
0
 40
0
 40
1
 40
1
 40
1
 40
1
 10
62.168707
 20
36.791595
 30
0.0
 10
62.408021
 20
36.982420
 30
0.0
 10
62.609504
 20
37.153099
 30
0.0
 10
62.616741
 20
37.171417
 30
0.0
  0
SPLINE
  5
140
100
AcDbEntity
  8
Layer_1
 62
7
100
AcDbSpline
 70
8
 71
3
 72
8
 73
4
 74
0
 40
0
 40
0
 40
0
 40
0
 40
1
 40
1
 40
1
 40
1
 10
62.616741
 20
37.171417
 30
0.0
 10
62.642538
 20
37.236637
 30
0.0
 10
62.133242
 20
37.453664
 30
0.0
 10
61.791987
 20
37.522814
 30
0.0
  0
LWPOLYLINE
  5
141
100
AcDbEntity
  8
Layer_1
 62
7
100
AcDbPolyline
 90
3
 70
0
 10
63.250812
 20
33.819169
 30
0.0
 10
63.041523
 20
34.007273
 30
0.0
 10
62.856003
 20
34.054297
 30
0.0
  0
SPLINE
  5
142
100
AcDbEntity
  8
Layer_1
 62
7
100
AcDbSpline
 70
8
 71
3
 72
8
 73
4
 74
0
 40
0
 40
0
 40
0
 40
0
 40
1
 40
1
 40
1
 40
1
 10
61.050432
 20
37.567265
 30
0.0
 10
59.188986
 20
37.445326
 30
0.0
 10
56.726574
 20
36.038144
 30
0.0
 10
55.462664
 20
34.374180
 30
0.0
  0
SPLINE
  5
143
100
AcDbEntity
  8
Layer_1
 62
7
100
AcDbSpline
 70
8
 71
3
 72
8
 73
4
 74
0
 40
0
 40
0
 40
0
 40
0
 40
1
 40
1
 40
1
 40
1
 10
55.462664
 20
34.374180
 30
0.0
 10
55.342745
 20
34.216319
 30
0.0
 10
55.333426
 20
34.236278
 30
0.0
 10
55.377915
 20
34.556598
 30
0.0
  0
SPLINE
  5
144
100
AcDbEntity
  8
Layer_1
 62
7
100
AcDbSpline
 70
8
 71
3
 72
8
 73
4
 74
0
 40
0
 40
0
 40
0
 40
0
 40
1
 40
1
 40
1
 40
1
 10
55.377915
 20
34.556598
 30
0.0
 10
55.577169
 20
35.990789
 30
0.0
 10
56.515634
 20
37.343502
 30
0.0
 10
58.160173
 20
38.567203
 30
0.0
  0
LWPOLYLINE
  5
145
100
AcDbEntity
  8
Layer_1
 62
7
100
AcDbPolyline
 90
3
 70
0
 10
61.791987
 20
37.522814
 30
0.0
 10
61.444721
 20
37.593096
 30
0.0
 10
61.050432
 20
37.567265
 30
0.0
  0
SPLINE
  5
146
100
AcDbEntity
  8
Layer_1
 62
7
100
AcDbSpline
 70
8
 71
3
 72
8
 73
4
 74
0
 40
0
 40
0
 40
0
 40
0
 40
1
 40
1
 40
1
 40
1
 10
58.160173
 20
38.821967
 30
0.0
 10
55.095353
 20
39.323874
 30
0.0
 10
51.086257
 20
38.345200
 30
0.0
 10
47.457479
 20
36.209724
 30
0.0
  0
SPLINE
  5
147
100
AcDbEntity
  8
Layer_1
 62
7
100
AcDbSpline
 70
8
 71
3
 72
8
 73
4
 74
0
 40
0
 40
0
 40
0
 40
0
 40
1
 40
1
 40
1
 40
1
 10
47.457479
 20
36.209724
 30
0.0
 10
45.454593
 20
35.031062
 30
0.0
 10
44.363046
 20
34.467340
 30
0.0
 10
43.189011
 20
34.004178
 30
0.0
  0
SPLINE
  5
148
100
AcDbEntity
  8
Layer_1
 62
7
100
AcDbSpline
 70
8
 71
3
 72
8
 73
4
 74
0
 40
0
 40
0
 40
0
 40
0
 40
1
 40
1
 40
1
 40
1
 10
43.189011
 20
34.004178
 30
0.0
 10
42.407405
 20
33.695828
 30
0.0
 10
41.840830
 20
33.518542
 30
0.0
 10
41.158645
 20
33.369591
 30
0.0
  0
LWPOLYLINE
  5
149
100
AcDbEntity
  8
Layer_1
 62
7
100
AcDbPolyline
 90
3
 70
0
 10
58.160173
 20
38.567203
 30
0.0
 10
58.440259
 20
38.775976
 30
0.0
 10
58.160173
 20
38.821967
 30
0.0
  0
SPLINE
  5
14a
100
AcDbEntity
  8
Layer_1
 62
7
100
AcDbSpline
 70
8
 71
3
 72
8
 73
4
 74
0
 40
0
 40
0
 40
0
 40
0
 40
1
 40
1
 40
1
 40
1
 10
39.132933
 20
33.287934
 30
0.0
 10
38.964764
 20
33.323707
 30
0.0
 10
38.745081
 20
33.392760
 30
0.0
 10
38.644590
 20
33.441411
 30
0.0
  0
LWPOLYLINE
  5
14b
100
AcDbEntity
  8
Layer_1
 62
7
100
AcDbPolyline
 90
5
 70
0
 10
41.158645
 20
33.369591
 30
0.0
 10
40.682189
 20
33.265724
 30
0.0
 10
40.060522
 20
33.244013
 30
0.0
 10
39.438855
 20
33.222822
 30
0.0
 10
39.132933
 20
33.287934
 30
0.0
  0
SPLINE
  5
14c
100
AcDbEntity
  8
Layer_1
 62
7
100
AcDbSpline
 70
8
 71
3
 72
8
 73
4
 74
0
 40
0
 40
0
 40
0
 40
0
 40
1
 40
1
 40
1
 40
1
 10
38.226522
 20
34.289420
 30
0.0
 10
38.142542
 20
35.635496
 30
0.0
 10
39.119484
 20
37.425166
 30
0.0
 10
40.971054
 20
39.317533
 30
0.0
  0
LWPOLYLINE
  5
14d
100
AcDbEntity
  8
Layer_1
 62
7
100
AcDbPolyline
 90
5
 70
0
 10
38.644590
 20
33.441411
 30
0.0
 10
38.461656
 20
33.529779
 30
0.0
 10
38.354687
 20
33.741134
 30
0.0
 10
38.247714
 20
33.952490
 30
0.0
 10
38.226522
 20
34.289420
 30
0.0
  0
SPLINE
  5
14e
100
AcDbEntity
  8
Layer_1
 62
7
100
AcDbSpline
 70
8
 71
3
 72
8
 73
4
 74
0
 40
0
 40
0
 40
0
 40
0
 40
1
 40
1
 40
1
 40
1
 10
39.888434
 20
39.843107
 30
0.0
 10
38.898544
 20
39.636264
 30
0.0
 10
38.120100
 20
39.364221
 30
0.0
 10
36.973368
 20
38.825083
 30
0.0
  0
SPLINE
  5
14f
100
AcDbEntity
  8
Layer_1
 62
7
100
AcDbSpline
 70
8
 71
3
 72
8
 73
4
 74
0
 40
0
 40
0
 40
0
 40
0
 40
1
 40
1
 40
1
 40
1
 10
36.973368
 20
38.825083
 30
0.0
 10
35.500083
 20
38.132417
 30
0.0
 10
34.255929
 20
38.365626
 30
0.0
 10
33.374625
 20
39.499979
 30
0.0
  0
SPLINE
  5
150
100
AcDbEntity
  8
Layer_1
 62
7
100
AcDbSpline
 70
8
 71
3
 72
8
 73
4
 74
0
 40
0
 40
0
 40
0
 40
0
 40
1
 40
1
 40
1
 40
1
 10
33.374625
 20
39.499979
 30
0.0
 10
33.268404
 20
39.636693
 30
0.0
 10
33.108358
 20
39.830735
 30
0.0
 10
33.019094
 20
39.930959
 30
0.0
  0
LWPOLYLINE
  5
151
100
AcDbEntity
  8
Layer_1
 62
7
100
AcDbPolyline
 90
5
 70
0
 10
40.971054
 20
39.317533
 30
0.0
 10
41.635094
 20
39.996560
 30
0.0
 10
41.013427
 20
39.972286
 30
0.0
 10
40.391760
 20
39.948013
 30
0.0
 10
39.888434
 20
39.843107
 30
0.0
  0
SPLINE
  5
152
100
AcDbEntity
  8
Layer_1
 62
7
100
AcDbSpline
 70
8
 71
3
 72
8
 73
4
 74
0
 40
0
 40
0
 40
0
 40
0
 40
1
 40
1
 40
1
 40
1
 10
32.563307
 20
40.253419
 30
0.0
 10
32.240591
 20
40.407796
 30
0.0
 10
31.825352
 20
40.523824
 30
0.0
 10
31.192334
 20
40.635309
 30
0.0
  0
LWPOLYLINE
  5
153
100
AcDbEntity
  8
Layer_1
 62
7
100
AcDbPolyline
 90
3
 70
0
 10
33.019094
 20
39.930959
 30
0.0
 10
32.856829
 20
40.113377
 30
0.0
 10
32.563307
 20
40.253419
 30
0.0
  0
SPLINE
  5
154
100
AcDbEntity
  8
Layer_1
 62
7
100
AcDbSpline
 70
8
 71
3
 72
8
 73
4
 74
0
 40
0
 40
0
 40
0
 40
0
 40
1
 40
1
 40
1
 40
1
 10
27.690743
 20
40.613594
 30
0.0
 10
26.927954
 20
40.496053
 30
0.0
 10
26.370366
 20
40.362816
 30
0.0
 10
25.639191
 20
40.124219
 30
0.0
  0
SPLINE
  5
155
100
AcDbEntity
  8
Layer_1
 62
7
100
AcDbSpline
 70
8
 71
3
 72
8
 73
4
 74
0
 40
0
 40
0
 40
0
 40
0
 40
1
 40
1
 40
1
 40
1
 10
25.639191
 20
40.124219
 30
0.0
 10
24.192506
 20
39.652143
 30
0.0
 10
22.822931
 20
39.463462
 30
0.0
 10
21.074617
 20
39.494799
 30
0.0
  0
SPLINE
  5
156
100
AcDbEntity
  8
Layer_1
 62
7
100
AcDbSpline
 70
8
 71
3
 72
8
 73
4
 74
0
 40
0
 40
0
 40
0
 40
0
 40
1
 40
1
 40
1
 40
1
 10
21.074617
 20
39.494799
 30
0.0
 10
19.974243
 20
39.514502
 30
0.0
 10
20.050842
 20
39.459182
 30
0.0
 10
20.335645
 20
40.027066
 30
0.0
  0
SPLINE
  5
157
100
AcDbEntity
  8
Layer_1
 62
7
100
AcDbSpline
 70
8
 71
3
 72
8
 73
4
 74
0
 40
0
 40
0
 40
0
 40
0
 40
1
 40
1
 40
1
 40
1
 10
20.335645
 20
40.027066
 30
0.0
 10
20.874557
 20
41.101632
 30
0.0
 10
21.710290
 20
42.209707
 30
0.0
 10
22.523106
 20
42.927145
 30
0.0
  0
SPLINE
  5
158
100
AcDbEntity
  8
Layer_1
 62
7
100
AcDbSpline
 70
8
 71
3
 72
8
 73
4
 74
0
 40
0
 40
0
 40
0
 40
0
 40
1
 40
1
 40
1
 40
1
 10
22.523106
 20
42.927145
 30
0.0
 10
22.678039
 20
43.063897
 30
0.0
 10
22.796641
 20
43.175708
 30
0.0
 10
22.786655
 20
43.175708
 30
0.0
  0
LWPOLYLINE
  5
159
100
AcDbEntity
  8
Layer_1
 62
7
100
AcDbPolyline
 90
5
 70
0
 10
31.192334
 20
40.635309
 30
0.0
 10
30.777888
 20
40.708170
 30
0.0
 10
29.534554
 20
40.707132
 30
0.0
 10
28.291739
 20
40.706093
 30
0.0
 10
27.690743
 20
40.613594
 30
0.0
  0
LWPOLYLINE
  5
15a
100
AcDbEntity
  8
Layer_1
 62
7
100
AcDbPolyline
 90
2
 70
0
 10
22.786655
 20
43.175708
 30
0.0
 10
22.786617
 20
43.175344
 30
0.0
  0
SPLINE
  5
15b
100
AcDbEntity
  8
Layer_1
 62
7
100
AcDbSpline
 70
8
 71
3
 72
8
 73
4
 74
0
 40
0
 40
0
 40
0
 40
0
 40
1
 40
1
 40
1
 40
1
 10
23.722476
 20
38.520852
 30
0.0
 10
30.074568
 20
37.694674
 30
0.0
 10
34.937659
 20
32.924594
 30
0.0
 10
35.897431
 20
26.578962
 30
0.0
  0
LWPOLYLINE
  5
15c
100
AcDbEntity
  8
Layer_1
 62
7
100
AcDbPolyline
 90
2
 70
0
 10
23.153519
 20
38.594749
 30
0.0
 10
23.722476
 20
38.520852
 30
0.0
  0
SPLINE
  5
15d
100
AcDbEntity
  8
Layer_1
 62
7
100
AcDbSpline
 70
8
 71
3
 72
8
 73
4
 74
0
 40
0
 40
0
 40
0
 40
0
 40
1
 40
1
 40
1
 40
1
 10
35.983208
 20
23.465460
 30
0.0
 10
35.341745
 20
16.451213
 30
0.0
 10
29.771852
 20
11.077731
 30
0.0
 10
22.739071
 20
10.688476
 30
0.0
  0
LWPOLYLINE
  5
15e
100
AcDbEntity
  8
Layer_1
 62
7
100
AcDbPolyline
 90
5
 70
0
 10
35.897431
 20
26.578962
 30
0.0
 10
35.985279
 20
25.999152
 30
0.0
 10
36.008548
 20
24.998697
 30
0.0
 10
36.031783
 20
23.998243
 30
0.0
 10
35.983208
 20
23.465460
 30
0.0
  0
SPLINE
  5
15f
100
AcDbEntity
  8
Layer_1
 62
7
100
AcDbSpline
 70
8
 71
3
 72
8
 73
4
 74
0
 40
0
 40
0
 40
0
 40
0
 40
1
 40
1
 40
1
 40
1
 10
22.739071
 20
10.688823
 30
0.0
 10
22.328819
 20
10.666107
 30
0.0
 10
21.965016
 20
10.649881
 30
0.0
 10
21.930853
 20
10.652651
 30
0.0
  0
SPLINE
  5
160
100
AcDbEntity
  8
Layer_1
 62
7
100
AcDbSpline
 70
8
 71
3
 72
8
 73
4
 74
0
 40
0
 40
0
 40
0
 40
0
 40
1
 40
1
 40
1
 40
1
 10
21.930853
 20
10.652651
 30
0.0
 10
21.896666
 20
10.655768
 30
0.0
 10
21.607067
 20
10.672389
 30
0.0
 10
21.286965
 20
10.689858
 30
0.0
  0
SPLINE
  5
161
100
AcDbEntity
  8
Layer_1
 62
7
100
AcDbSpline
 70
8
 71
3
 72
8
 73
4
 74
0
 40
0
 40
0
 40
0
 40
0
 40
1
 40
1
 40
1
 40
1
 10
21.286965
 20
10.689858
 30
0.0
 10
14.032634
 20
11.085560
 30
0.0
 10
8.285671
 20
17.010517
 30
0.0
 10
8.103289
 20
24.282294
 30
0.0
  0
LWPOLYLINE
  5
162
100
AcDbEntity
  8
Layer_1
 62
7
100
AcDbPolyline
 90
2
 70
0
 10
22.739071
 20
10.688476
 30
0.0
 10
22.739071
 20
10.688823
 30
0.0
  0
SPLINE
  5
163
100
AcDbEntity
  8
Layer_1
 62
7
100
AcDbSpline
 70
8
 71
3
 72
8
 73
4
 74
0
 40
0
 40
0
 40
0
 40
0
 40
1
 40
1
 40
1
 40
1
 10
8.129128
 20
25.815532
 30
0.0
 10
8.730440
 20
32.444284
 30
0.0
 10
13.738877
 20
37.639448
 30
0.0
 10
20.376945
 20
38.520166
 30
0.0
  0
LWPOLYLINE
  5
164
100
AcDbEntity
  8
Layer_1
 62
7
100
AcDbPolyline
 90
3
 70
0
 10
8.103289
 20
24.282294
 30
0.0
 10
8.079002
 20
25.259493
 30
0.0
 10
8.129128
 20
25.815532
 30
0.0
  0
LWPOLYLINE
  5
165
100
AcDbEntity
  8
Layer_1
 62
7
100
AcDbPolyline
 90
4
 70
0
 10
20.376945
 20
38.520166
 30
0.0
 10
20.915929
 20
38.591996
 30
0.0
 10
22.034723
 20
38.593381
 30
0.0
 10
23.153519
 20
38.594749
 30
0.0
  0
SPLINE
  5
166
100
AcDbEntity
  8
Layer_1
 62
7
100
AcDbSpline
 70
8
 71
3
 72
8
 73
4
 74
0
 40
0
 40
0
 40
0
 40
0
 40
1
 40
1
 40
1
 40
1
 10
21.665240
 20
37.360729
 30
0.0
 10
15.495933
 20
37.173107
 30
0.0
 10
10.397519
 20
32.645556
 30
0.0
 10
9.453597
 20
26.516948
 30
0.0
  0
LWPOLYLINE
  5
167
100
AcDbEntity
  8
Layer_1
 62
7
100
AcDbPolyline
 90
2
 70
0
 10
22.498263
 20
37.386041
 30
0.0
 10
21.665240
 20
37.360729
 30
0.0
  0
SPLINE
  5
168
100
AcDbEntity
  8
Layer_1
 62
7
100
AcDbSpline
 70
8
 71
3
 72
8
 73
4
 74
0
 40
0
 40
0
 40
0
 40
0
 40
1
 40
1
 40
1
 40
1
 10
9.391583
 20
23.287692
 30
0.0
 10
10.079257
 20
17.121524
 30
0.0
 10
14.991818
 20
12.386254
 30
0.0
 10
21.174830
 20
11.930259
 30
0.0
  0
SPLINE
  5
169
100
AcDbEntity
  8
Layer_1
 62
7
100
AcDbSpline
 70
8
 71
3
 72
8
 73
4
 74
0
 40
0
 40
0
 40
0
 40
0
 40
1
 40
1
 40
1
 40
1
 10
21.174830
 20
11.930259
 30
0.0
 10
27.736211
 20
11.446355
 30
0.0
 10
33.641460
 20
16.183371
 30
0.0
 10
34.657715
 20
22.745608
 30
0.0
  0
LWPOLYLINE
  5
16a
100
AcDbEntity
  8
Layer_1
 62
7
100
AcDbPolyline
 90
5
 70
0
 10
9.453597
 20
26.516948
 30
0.0
 10
9.367297
 20
25.957295
 30
0.0
 10
9.346109
 20
24.921182
 30
0.0
 10
9.324921
 20
23.885588
 30
0.0
 10
9.391583
 20
23.287692
 30
0.0
  0
SPLINE
  5
16b
100
AcDbEntity
  8
Layer_1
 62
7
100
AcDbSpline
 70
8
 71
3
 72
8
 73
4
 74
0
 40
0
 40
0
 40
0
 40
0
 40
1
 40
1
 40
1
 40
1
 10
34.740407
 20
25.836886
 30
0.0
 10
34.157086
 20
31.977565
 30
0.0
 10
29.257795
 20
36.814975
 30
0.0
 10
23.095134
 20
37.335396
 30
0.0
  0
LWPOLYLINE
  5
16c
100
AcDbEntity
  8
Layer_1
 62
7
100
AcDbPolyline
 90
5
 70
0
 10
34.657715
 20
22.745608
 30
0.0
 10
34.744528
 20
23.305262
 30
0.0
 10
34.765720
 20
24.324321
 30
0.0
 10
34.787431
 20
25.343377
 30
0.0
 10
34.740407
 20
25.836886
 30
0.0
  0
LWPOLYLINE
  5
16d
100
AcDbEntity
  8
Layer_1
 62
7
100
AcDbPolyline
 90
2
 70
0
 10
23.095134
 20
37.335396
 30
0.0
 10
22.498263
 20
37.386041
 30
0.0
  0
ENDSEC
  0
SECTION
  2
OBJECTS
  0
DICTIONARY
  5
C
330
0
100
AcDbDictionary
  3
ACAD_GROUP
350
D
  3
ACAD_MLINESTYLE
350
17
  0
DICTIONARY
  5
D
330
C
100
AcDbDictionary
  0
DICTIONARY
  5
1A
330
C
100
AcDbDictionary
  0
DICTIONARY
  5
17
330
C
100
AcDbDictionary
  3
STANDARD
350
18
  0
DICTIONARY
  5
19
330
C
100
AcDbDictionary
  0
ENDSEC
  0
EOF
