%TF.GenerationSoftware,KiCad,Pcbnew,8.0.6*%
%TF.CreationDate,2024-11-25T21:33:12-05:00*%
%TF.ProjectId,mason-comet-ornament,6d61736f-6e2d-4636-9f6d-65742d6f726e,rev?*%
%TF.SameCoordinates,Original*%
%TF.FileFunction,Legend,Bot*%
%TF.FilePolarity,Positive*%
%FSLAX46Y46*%
G04 Gerber Fmt 4.6, Leading zero omitted, Abs format (unit mm)*
G04 Created by KiCad (PCBNEW 8.0.6) date 2024-11-25 21:33:12*
%MOMM*%
%LPD*%
G01*
G04 APERTURE LIST*
G04 Aperture macros list*
%AMRoundRect*
0 Rectangle with rounded corners*
0 $1 Rounding radius*
0 $2 $3 $4 $5 $6 $7 $8 $9 X,Y pos of 4 corners*
0 Add a 4 corners polygon primitive as box body*
4,1,4,$2,$3,$4,$5,$6,$7,$8,$9,$2,$3,0*
0 Add four circle primitives for the rounded corners*
1,1,$1+$1,$2,$3*
1,1,$1+$1,$4,$5*
1,1,$1+$1,$6,$7*
1,1,$1+$1,$8,$9*
0 Add four rect primitives between the rounded corners*
20,1,$1+$1,$2,$3,$4,$5,0*
20,1,$1+$1,$4,$5,$6,$7,0*
20,1,$1+$1,$6,$7,$8,$9,0*
20,1,$1+$1,$8,$9,$2,$3,0*%
G04 Aperture macros list end*
%ADD10C,0.300000*%
%ADD11C,0.400000*%
%ADD12C,0.120000*%
%ADD13C,0.100000*%
%ADD14RoundRect,0.250000X0.400000X0.625000X-0.400000X0.625000X-0.400000X-0.625000X0.400000X-0.625000X0*%
%ADD15RoundRect,0.250000X-0.400000X-0.625000X0.400000X-0.625000X0.400000X0.625000X-0.400000X0.625000X0*%
%ADD16R,5.000000X5.000000*%
%ADD17C,16.000000*%
%ADD18R,0.850000X0.850000*%
%ADD19C,0.900000*%
%ADD20R,0.800000X1.000000*%
%ADD21R,1.500000X0.700000*%
G04 APERTURE END LIST*
D10*
X61945489Y-38050828D02*
X61945489Y-36550828D01*
X61945489Y-36550828D02*
X61445489Y-37622257D01*
X61445489Y-37622257D02*
X60945489Y-36550828D01*
X60945489Y-36550828D02*
X60945489Y-38050828D01*
X59588346Y-38050828D02*
X59588346Y-37265114D01*
X59588346Y-37265114D02*
X59659774Y-37122257D01*
X59659774Y-37122257D02*
X59802631Y-37050828D01*
X59802631Y-37050828D02*
X60088346Y-37050828D01*
X60088346Y-37050828D02*
X60231203Y-37122257D01*
X59588346Y-37979400D02*
X59731203Y-38050828D01*
X59731203Y-38050828D02*
X60088346Y-38050828D01*
X60088346Y-38050828D02*
X60231203Y-37979400D01*
X60231203Y-37979400D02*
X60302631Y-37836542D01*
X60302631Y-37836542D02*
X60302631Y-37693685D01*
X60302631Y-37693685D02*
X60231203Y-37550828D01*
X60231203Y-37550828D02*
X60088346Y-37479400D01*
X60088346Y-37479400D02*
X59731203Y-37479400D01*
X59731203Y-37479400D02*
X59588346Y-37407971D01*
X58945488Y-37979400D02*
X58802631Y-38050828D01*
X58802631Y-38050828D02*
X58516917Y-38050828D01*
X58516917Y-38050828D02*
X58374060Y-37979400D01*
X58374060Y-37979400D02*
X58302631Y-37836542D01*
X58302631Y-37836542D02*
X58302631Y-37765114D01*
X58302631Y-37765114D02*
X58374060Y-37622257D01*
X58374060Y-37622257D02*
X58516917Y-37550828D01*
X58516917Y-37550828D02*
X58731203Y-37550828D01*
X58731203Y-37550828D02*
X58874060Y-37479400D01*
X58874060Y-37479400D02*
X58945488Y-37336542D01*
X58945488Y-37336542D02*
X58945488Y-37265114D01*
X58945488Y-37265114D02*
X58874060Y-37122257D01*
X58874060Y-37122257D02*
X58731203Y-37050828D01*
X58731203Y-37050828D02*
X58516917Y-37050828D01*
X58516917Y-37050828D02*
X58374060Y-37122257D01*
X57445488Y-38050828D02*
X57588345Y-37979400D01*
X57588345Y-37979400D02*
X57659774Y-37907971D01*
X57659774Y-37907971D02*
X57731202Y-37765114D01*
X57731202Y-37765114D02*
X57731202Y-37336542D01*
X57731202Y-37336542D02*
X57659774Y-37193685D01*
X57659774Y-37193685D02*
X57588345Y-37122257D01*
X57588345Y-37122257D02*
X57445488Y-37050828D01*
X57445488Y-37050828D02*
X57231202Y-37050828D01*
X57231202Y-37050828D02*
X57088345Y-37122257D01*
X57088345Y-37122257D02*
X57016917Y-37193685D01*
X57016917Y-37193685D02*
X56945488Y-37336542D01*
X56945488Y-37336542D02*
X56945488Y-37765114D01*
X56945488Y-37765114D02*
X57016917Y-37907971D01*
X57016917Y-37907971D02*
X57088345Y-37979400D01*
X57088345Y-37979400D02*
X57231202Y-38050828D01*
X57231202Y-38050828D02*
X57445488Y-38050828D01*
X56302631Y-37050828D02*
X56302631Y-38050828D01*
X56302631Y-37193685D02*
X56231202Y-37122257D01*
X56231202Y-37122257D02*
X56088345Y-37050828D01*
X56088345Y-37050828D02*
X55874059Y-37050828D01*
X55874059Y-37050828D02*
X55731202Y-37122257D01*
X55731202Y-37122257D02*
X55659774Y-37265114D01*
X55659774Y-37265114D02*
X55659774Y-38050828D01*
X54874059Y-37979400D02*
X54874059Y-38050828D01*
X54874059Y-38050828D02*
X54945488Y-38193685D01*
X54945488Y-38193685D02*
X55016916Y-38265114D01*
X52802630Y-36550828D02*
X52516916Y-36550828D01*
X52516916Y-36550828D02*
X52374059Y-36622257D01*
X52374059Y-36622257D02*
X52231202Y-36765114D01*
X52231202Y-36765114D02*
X52159773Y-37050828D01*
X52159773Y-37050828D02*
X52159773Y-37550828D01*
X52159773Y-37550828D02*
X52231202Y-37836542D01*
X52231202Y-37836542D02*
X52374059Y-37979400D01*
X52374059Y-37979400D02*
X52516916Y-38050828D01*
X52516916Y-38050828D02*
X52802630Y-38050828D01*
X52802630Y-38050828D02*
X52945488Y-37979400D01*
X52945488Y-37979400D02*
X53088345Y-37836542D01*
X53088345Y-37836542D02*
X53159773Y-37550828D01*
X53159773Y-37550828D02*
X53159773Y-37050828D01*
X53159773Y-37050828D02*
X53088345Y-36765114D01*
X53088345Y-36765114D02*
X52945488Y-36622257D01*
X52945488Y-36622257D02*
X52802630Y-36550828D01*
X51516916Y-38050828D02*
X51516916Y-36550828D01*
X50874059Y-38050828D02*
X50874059Y-37265114D01*
X50874059Y-37265114D02*
X50945487Y-37122257D01*
X50945487Y-37122257D02*
X51088344Y-37050828D01*
X51088344Y-37050828D02*
X51302630Y-37050828D01*
X51302630Y-37050828D02*
X51445487Y-37122257D01*
X51445487Y-37122257D02*
X51516916Y-37193685D01*
X50159773Y-38050828D02*
X50159773Y-37050828D01*
X50159773Y-36550828D02*
X50231201Y-36622257D01*
X50231201Y-36622257D02*
X50159773Y-36693685D01*
X50159773Y-36693685D02*
X50088344Y-36622257D01*
X50088344Y-36622257D02*
X50159773Y-36550828D01*
X50159773Y-36550828D02*
X50159773Y-36693685D01*
X49231201Y-38050828D02*
X49374058Y-37979400D01*
X49374058Y-37979400D02*
X49445487Y-37907971D01*
X49445487Y-37907971D02*
X49516915Y-37765114D01*
X49516915Y-37765114D02*
X49516915Y-37336542D01*
X49516915Y-37336542D02*
X49445487Y-37193685D01*
X49445487Y-37193685D02*
X49374058Y-37122257D01*
X49374058Y-37122257D02*
X49231201Y-37050828D01*
X49231201Y-37050828D02*
X49016915Y-37050828D01*
X49016915Y-37050828D02*
X48874058Y-37122257D01*
X48874058Y-37122257D02*
X48802630Y-37193685D01*
X48802630Y-37193685D02*
X48731201Y-37336542D01*
X48731201Y-37336542D02*
X48731201Y-37765114D01*
X48731201Y-37765114D02*
X48802630Y-37907971D01*
X48802630Y-37907971D02*
X48874058Y-37979400D01*
X48874058Y-37979400D02*
X49016915Y-38050828D01*
X49016915Y-38050828D02*
X49231201Y-38050828D01*
X48016915Y-37979400D02*
X48016915Y-38050828D01*
X48016915Y-38050828D02*
X48088344Y-38193685D01*
X48088344Y-38193685D02*
X48159772Y-38265114D01*
X46231201Y-36550828D02*
X46231201Y-37765114D01*
X46231201Y-37765114D02*
X46159772Y-37907971D01*
X46159772Y-37907971D02*
X46088344Y-37979400D01*
X46088344Y-37979400D02*
X45945486Y-38050828D01*
X45945486Y-38050828D02*
X45659772Y-38050828D01*
X45659772Y-38050828D02*
X45516915Y-37979400D01*
X45516915Y-37979400D02*
X45445486Y-37907971D01*
X45445486Y-37907971D02*
X45374058Y-37765114D01*
X45374058Y-37765114D02*
X45374058Y-36550828D01*
X44731200Y-37979400D02*
X44516915Y-38050828D01*
X44516915Y-38050828D02*
X44159772Y-38050828D01*
X44159772Y-38050828D02*
X44016915Y-37979400D01*
X44016915Y-37979400D02*
X43945486Y-37907971D01*
X43945486Y-37907971D02*
X43874057Y-37765114D01*
X43874057Y-37765114D02*
X43874057Y-37622257D01*
X43874057Y-37622257D02*
X43945486Y-37479400D01*
X43945486Y-37479400D02*
X44016915Y-37407971D01*
X44016915Y-37407971D02*
X44159772Y-37336542D01*
X44159772Y-37336542D02*
X44445486Y-37265114D01*
X44445486Y-37265114D02*
X44588343Y-37193685D01*
X44588343Y-37193685D02*
X44659772Y-37122257D01*
X44659772Y-37122257D02*
X44731200Y-36979400D01*
X44731200Y-36979400D02*
X44731200Y-36836542D01*
X44731200Y-36836542D02*
X44659772Y-36693685D01*
X44659772Y-36693685D02*
X44588343Y-36622257D01*
X44588343Y-36622257D02*
X44445486Y-36550828D01*
X44445486Y-36550828D02*
X44088343Y-36550828D01*
X44088343Y-36550828D02*
X43874057Y-36622257D01*
X43302629Y-37622257D02*
X42588344Y-37622257D01*
X43445486Y-38050828D02*
X42945486Y-36550828D01*
X42945486Y-36550828D02*
X42445486Y-38050828D01*
X53516984Y-62646779D02*
X53588412Y-62718208D01*
X53588412Y-62718208D02*
X53802698Y-62789636D01*
X53802698Y-62789636D02*
X53945555Y-62789636D01*
X53945555Y-62789636D02*
X54159841Y-62718208D01*
X54159841Y-62718208D02*
X54302698Y-62575350D01*
X54302698Y-62575350D02*
X54374127Y-62432493D01*
X54374127Y-62432493D02*
X54445555Y-62146779D01*
X54445555Y-62146779D02*
X54445555Y-61932493D01*
X54445555Y-61932493D02*
X54374127Y-61646779D01*
X54374127Y-61646779D02*
X54302698Y-61503922D01*
X54302698Y-61503922D02*
X54159841Y-61361065D01*
X54159841Y-61361065D02*
X53945555Y-61289636D01*
X53945555Y-61289636D02*
X53802698Y-61289636D01*
X53802698Y-61289636D02*
X53588412Y-61361065D01*
X53588412Y-61361065D02*
X53516984Y-61432493D01*
X52016984Y-62789636D02*
X52516984Y-62075350D01*
X52874127Y-62789636D02*
X52874127Y-61289636D01*
X52874127Y-61289636D02*
X52302698Y-61289636D01*
X52302698Y-61289636D02*
X52159841Y-61361065D01*
X52159841Y-61361065D02*
X52088412Y-61432493D01*
X52088412Y-61432493D02*
X52016984Y-61575350D01*
X52016984Y-61575350D02*
X52016984Y-61789636D01*
X52016984Y-61789636D02*
X52088412Y-61932493D01*
X52088412Y-61932493D02*
X52159841Y-62003922D01*
X52159841Y-62003922D02*
X52302698Y-62075350D01*
X52302698Y-62075350D02*
X52874127Y-62075350D01*
X51445555Y-61432493D02*
X51374127Y-61361065D01*
X51374127Y-61361065D02*
X51231270Y-61289636D01*
X51231270Y-61289636D02*
X50874127Y-61289636D01*
X50874127Y-61289636D02*
X50731270Y-61361065D01*
X50731270Y-61361065D02*
X50659841Y-61432493D01*
X50659841Y-61432493D02*
X50588412Y-61575350D01*
X50588412Y-61575350D02*
X50588412Y-61718208D01*
X50588412Y-61718208D02*
X50659841Y-61932493D01*
X50659841Y-61932493D02*
X51516984Y-62789636D01*
X51516984Y-62789636D02*
X50588412Y-62789636D01*
X49659841Y-61289636D02*
X49516984Y-61289636D01*
X49516984Y-61289636D02*
X49374127Y-61361065D01*
X49374127Y-61361065D02*
X49302699Y-61432493D01*
X49302699Y-61432493D02*
X49231270Y-61575350D01*
X49231270Y-61575350D02*
X49159841Y-61861065D01*
X49159841Y-61861065D02*
X49159841Y-62218208D01*
X49159841Y-62218208D02*
X49231270Y-62503922D01*
X49231270Y-62503922D02*
X49302699Y-62646779D01*
X49302699Y-62646779D02*
X49374127Y-62718208D01*
X49374127Y-62718208D02*
X49516984Y-62789636D01*
X49516984Y-62789636D02*
X49659841Y-62789636D01*
X49659841Y-62789636D02*
X49802699Y-62718208D01*
X49802699Y-62718208D02*
X49874127Y-62646779D01*
X49874127Y-62646779D02*
X49945556Y-62503922D01*
X49945556Y-62503922D02*
X50016984Y-62218208D01*
X50016984Y-62218208D02*
X50016984Y-61861065D01*
X50016984Y-61861065D02*
X49945556Y-61575350D01*
X49945556Y-61575350D02*
X49874127Y-61432493D01*
X49874127Y-61432493D02*
X49802699Y-61361065D01*
X49802699Y-61361065D02*
X49659841Y-61289636D01*
X48659842Y-61289636D02*
X47731270Y-61289636D01*
X47731270Y-61289636D02*
X48231270Y-61861065D01*
X48231270Y-61861065D02*
X48016985Y-61861065D01*
X48016985Y-61861065D02*
X47874128Y-61932493D01*
X47874128Y-61932493D02*
X47802699Y-62003922D01*
X47802699Y-62003922D02*
X47731270Y-62146779D01*
X47731270Y-62146779D02*
X47731270Y-62503922D01*
X47731270Y-62503922D02*
X47802699Y-62646779D01*
X47802699Y-62646779D02*
X47874128Y-62718208D01*
X47874128Y-62718208D02*
X48016985Y-62789636D01*
X48016985Y-62789636D02*
X48445556Y-62789636D01*
X48445556Y-62789636D02*
X48588413Y-62718208D01*
X48588413Y-62718208D02*
X48659842Y-62646779D01*
X47159842Y-61432493D02*
X47088414Y-61361065D01*
X47088414Y-61361065D02*
X46945557Y-61289636D01*
X46945557Y-61289636D02*
X46588414Y-61289636D01*
X46588414Y-61289636D02*
X46445557Y-61361065D01*
X46445557Y-61361065D02*
X46374128Y-61432493D01*
X46374128Y-61432493D02*
X46302699Y-61575350D01*
X46302699Y-61575350D02*
X46302699Y-61718208D01*
X46302699Y-61718208D02*
X46374128Y-61932493D01*
X46374128Y-61932493D02*
X47231271Y-62789636D01*
X47231271Y-62789636D02*
X46302699Y-62789636D01*
X44016986Y-62003922D02*
X43802700Y-62075350D01*
X43802700Y-62075350D02*
X43731271Y-62146779D01*
X43731271Y-62146779D02*
X43659843Y-62289636D01*
X43659843Y-62289636D02*
X43659843Y-62503922D01*
X43659843Y-62503922D02*
X43731271Y-62646779D01*
X43731271Y-62646779D02*
X43802700Y-62718208D01*
X43802700Y-62718208D02*
X43945557Y-62789636D01*
X43945557Y-62789636D02*
X44516986Y-62789636D01*
X44516986Y-62789636D02*
X44516986Y-61289636D01*
X44516986Y-61289636D02*
X44016986Y-61289636D01*
X44016986Y-61289636D02*
X43874129Y-61361065D01*
X43874129Y-61361065D02*
X43802700Y-61432493D01*
X43802700Y-61432493D02*
X43731271Y-61575350D01*
X43731271Y-61575350D02*
X43731271Y-61718208D01*
X43731271Y-61718208D02*
X43802700Y-61861065D01*
X43802700Y-61861065D02*
X43874129Y-61932493D01*
X43874129Y-61932493D02*
X44016986Y-62003922D01*
X44016986Y-62003922D02*
X44516986Y-62003922D01*
X42374129Y-62789636D02*
X42374129Y-62003922D01*
X42374129Y-62003922D02*
X42445557Y-61861065D01*
X42445557Y-61861065D02*
X42588414Y-61789636D01*
X42588414Y-61789636D02*
X42874129Y-61789636D01*
X42874129Y-61789636D02*
X43016986Y-61861065D01*
X42374129Y-62718208D02*
X42516986Y-62789636D01*
X42516986Y-62789636D02*
X42874129Y-62789636D01*
X42874129Y-62789636D02*
X43016986Y-62718208D01*
X43016986Y-62718208D02*
X43088414Y-62575350D01*
X43088414Y-62575350D02*
X43088414Y-62432493D01*
X43088414Y-62432493D02*
X43016986Y-62289636D01*
X43016986Y-62289636D02*
X42874129Y-62218208D01*
X42874129Y-62218208D02*
X42516986Y-62218208D01*
X42516986Y-62218208D02*
X42374129Y-62146779D01*
X41874128Y-61789636D02*
X41302700Y-61789636D01*
X41659843Y-61289636D02*
X41659843Y-62575350D01*
X41659843Y-62575350D02*
X41588414Y-62718208D01*
X41588414Y-62718208D02*
X41445557Y-62789636D01*
X41445557Y-62789636D02*
X41302700Y-62789636D01*
X41016985Y-61789636D02*
X40445557Y-61789636D01*
X40802700Y-61289636D02*
X40802700Y-62575350D01*
X40802700Y-62575350D02*
X40731271Y-62718208D01*
X40731271Y-62718208D02*
X40588414Y-62789636D01*
X40588414Y-62789636D02*
X40445557Y-62789636D01*
X39374128Y-62718208D02*
X39516985Y-62789636D01*
X39516985Y-62789636D02*
X39802700Y-62789636D01*
X39802700Y-62789636D02*
X39945557Y-62718208D01*
X39945557Y-62718208D02*
X40016985Y-62575350D01*
X40016985Y-62575350D02*
X40016985Y-62003922D01*
X40016985Y-62003922D02*
X39945557Y-61861065D01*
X39945557Y-61861065D02*
X39802700Y-61789636D01*
X39802700Y-61789636D02*
X39516985Y-61789636D01*
X39516985Y-61789636D02*
X39374128Y-61861065D01*
X39374128Y-61861065D02*
X39302700Y-62003922D01*
X39302700Y-62003922D02*
X39302700Y-62146779D01*
X39302700Y-62146779D02*
X40016985Y-62289636D01*
X38659843Y-62789636D02*
X38659843Y-61789636D01*
X38659843Y-62075350D02*
X38588414Y-61932493D01*
X38588414Y-61932493D02*
X38516986Y-61861065D01*
X38516986Y-61861065D02*
X38374128Y-61789636D01*
X38374128Y-61789636D02*
X38231271Y-61789636D01*
X37874129Y-61789636D02*
X37516986Y-62789636D01*
X37159843Y-61789636D02*
X37516986Y-62789636D01*
X37516986Y-62789636D02*
X37659843Y-63146779D01*
X37659843Y-63146779D02*
X37731272Y-63218208D01*
X37731272Y-63218208D02*
X37874129Y-63289636D01*
X65088346Y-34050828D02*
X64731203Y-35550828D01*
X64731203Y-35550828D02*
X64445489Y-34479400D01*
X64445489Y-34479400D02*
X64159774Y-35550828D01*
X64159774Y-35550828D02*
X63802632Y-34050828D01*
X63231203Y-35550828D02*
X63231203Y-34550828D01*
X63231203Y-34693685D02*
X63159774Y-34622257D01*
X63159774Y-34622257D02*
X63016917Y-34550828D01*
X63016917Y-34550828D02*
X62802631Y-34550828D01*
X62802631Y-34550828D02*
X62659774Y-34622257D01*
X62659774Y-34622257D02*
X62588346Y-34765114D01*
X62588346Y-34765114D02*
X62588346Y-35550828D01*
X62588346Y-34765114D02*
X62516917Y-34622257D01*
X62516917Y-34622257D02*
X62374060Y-34550828D01*
X62374060Y-34550828D02*
X62159774Y-34550828D01*
X62159774Y-34550828D02*
X62016917Y-34622257D01*
X62016917Y-34622257D02*
X61945488Y-34765114D01*
X61945488Y-34765114D02*
X61945488Y-35550828D01*
X61231203Y-35407971D02*
X61159774Y-35479400D01*
X61159774Y-35479400D02*
X61231203Y-35550828D01*
X61231203Y-35550828D02*
X61302631Y-35479400D01*
X61302631Y-35479400D02*
X61231203Y-35407971D01*
X61231203Y-35407971D02*
X61231203Y-35550828D01*
X59374060Y-35550828D02*
X59374060Y-34050828D01*
X59374060Y-34050828D02*
X58874060Y-35122257D01*
X58874060Y-35122257D02*
X58374060Y-34050828D01*
X58374060Y-34050828D02*
X58374060Y-35550828D01*
X57016917Y-35550828D02*
X57016917Y-34765114D01*
X57016917Y-34765114D02*
X57088345Y-34622257D01*
X57088345Y-34622257D02*
X57231202Y-34550828D01*
X57231202Y-34550828D02*
X57516917Y-34550828D01*
X57516917Y-34550828D02*
X57659774Y-34622257D01*
X57016917Y-35479400D02*
X57159774Y-35550828D01*
X57159774Y-35550828D02*
X57516917Y-35550828D01*
X57516917Y-35550828D02*
X57659774Y-35479400D01*
X57659774Y-35479400D02*
X57731202Y-35336542D01*
X57731202Y-35336542D02*
X57731202Y-35193685D01*
X57731202Y-35193685D02*
X57659774Y-35050828D01*
X57659774Y-35050828D02*
X57516917Y-34979400D01*
X57516917Y-34979400D02*
X57159774Y-34979400D01*
X57159774Y-34979400D02*
X57016917Y-34907971D01*
X56374059Y-35479400D02*
X56231202Y-35550828D01*
X56231202Y-35550828D02*
X55945488Y-35550828D01*
X55945488Y-35550828D02*
X55802631Y-35479400D01*
X55802631Y-35479400D02*
X55731202Y-35336542D01*
X55731202Y-35336542D02*
X55731202Y-35265114D01*
X55731202Y-35265114D02*
X55802631Y-35122257D01*
X55802631Y-35122257D02*
X55945488Y-35050828D01*
X55945488Y-35050828D02*
X56159774Y-35050828D01*
X56159774Y-35050828D02*
X56302631Y-34979400D01*
X56302631Y-34979400D02*
X56374059Y-34836542D01*
X56374059Y-34836542D02*
X56374059Y-34765114D01*
X56374059Y-34765114D02*
X56302631Y-34622257D01*
X56302631Y-34622257D02*
X56159774Y-34550828D01*
X56159774Y-34550828D02*
X55945488Y-34550828D01*
X55945488Y-34550828D02*
X55802631Y-34622257D01*
X54874059Y-35550828D02*
X55016916Y-35479400D01*
X55016916Y-35479400D02*
X55088345Y-35407971D01*
X55088345Y-35407971D02*
X55159773Y-35265114D01*
X55159773Y-35265114D02*
X55159773Y-34836542D01*
X55159773Y-34836542D02*
X55088345Y-34693685D01*
X55088345Y-34693685D02*
X55016916Y-34622257D01*
X55016916Y-34622257D02*
X54874059Y-34550828D01*
X54874059Y-34550828D02*
X54659773Y-34550828D01*
X54659773Y-34550828D02*
X54516916Y-34622257D01*
X54516916Y-34622257D02*
X54445488Y-34693685D01*
X54445488Y-34693685D02*
X54374059Y-34836542D01*
X54374059Y-34836542D02*
X54374059Y-35265114D01*
X54374059Y-35265114D02*
X54445488Y-35407971D01*
X54445488Y-35407971D02*
X54516916Y-35479400D01*
X54516916Y-35479400D02*
X54659773Y-35550828D01*
X54659773Y-35550828D02*
X54874059Y-35550828D01*
X53731202Y-34550828D02*
X53731202Y-35550828D01*
X53731202Y-34693685D02*
X53659773Y-34622257D01*
X53659773Y-34622257D02*
X53516916Y-34550828D01*
X53516916Y-34550828D02*
X53302630Y-34550828D01*
X53302630Y-34550828D02*
X53159773Y-34622257D01*
X53159773Y-34622257D02*
X53088345Y-34765114D01*
X53088345Y-34765114D02*
X53088345Y-35550828D01*
X51231202Y-35550828D02*
X51231202Y-34050828D01*
X51231202Y-34765114D02*
X50374059Y-34765114D01*
X50374059Y-35550828D02*
X50374059Y-34050828D01*
X49659773Y-35550828D02*
X49659773Y-34550828D01*
X49659773Y-34050828D02*
X49731201Y-34122257D01*
X49731201Y-34122257D02*
X49659773Y-34193685D01*
X49659773Y-34193685D02*
X49588344Y-34122257D01*
X49588344Y-34122257D02*
X49659773Y-34050828D01*
X49659773Y-34050828D02*
X49659773Y-34193685D01*
X48302630Y-34550828D02*
X48302630Y-35765114D01*
X48302630Y-35765114D02*
X48374058Y-35907971D01*
X48374058Y-35907971D02*
X48445487Y-35979400D01*
X48445487Y-35979400D02*
X48588344Y-36050828D01*
X48588344Y-36050828D02*
X48802630Y-36050828D01*
X48802630Y-36050828D02*
X48945487Y-35979400D01*
X48302630Y-35479400D02*
X48445487Y-35550828D01*
X48445487Y-35550828D02*
X48731201Y-35550828D01*
X48731201Y-35550828D02*
X48874058Y-35479400D01*
X48874058Y-35479400D02*
X48945487Y-35407971D01*
X48945487Y-35407971D02*
X49016915Y-35265114D01*
X49016915Y-35265114D02*
X49016915Y-34836542D01*
X49016915Y-34836542D02*
X48945487Y-34693685D01*
X48945487Y-34693685D02*
X48874058Y-34622257D01*
X48874058Y-34622257D02*
X48731201Y-34550828D01*
X48731201Y-34550828D02*
X48445487Y-34550828D01*
X48445487Y-34550828D02*
X48302630Y-34622257D01*
X47588344Y-35550828D02*
X47588344Y-34050828D01*
X46945487Y-35550828D02*
X46945487Y-34765114D01*
X46945487Y-34765114D02*
X47016915Y-34622257D01*
X47016915Y-34622257D02*
X47159772Y-34550828D01*
X47159772Y-34550828D02*
X47374058Y-34550828D01*
X47374058Y-34550828D02*
X47516915Y-34622257D01*
X47516915Y-34622257D02*
X47588344Y-34693685D01*
X45159772Y-35479400D02*
X44945487Y-35550828D01*
X44945487Y-35550828D02*
X44588344Y-35550828D01*
X44588344Y-35550828D02*
X44445487Y-35479400D01*
X44445487Y-35479400D02*
X44374058Y-35407971D01*
X44374058Y-35407971D02*
X44302629Y-35265114D01*
X44302629Y-35265114D02*
X44302629Y-35122257D01*
X44302629Y-35122257D02*
X44374058Y-34979400D01*
X44374058Y-34979400D02*
X44445487Y-34907971D01*
X44445487Y-34907971D02*
X44588344Y-34836542D01*
X44588344Y-34836542D02*
X44874058Y-34765114D01*
X44874058Y-34765114D02*
X45016915Y-34693685D01*
X45016915Y-34693685D02*
X45088344Y-34622257D01*
X45088344Y-34622257D02*
X45159772Y-34479400D01*
X45159772Y-34479400D02*
X45159772Y-34336542D01*
X45159772Y-34336542D02*
X45088344Y-34193685D01*
X45088344Y-34193685D02*
X45016915Y-34122257D01*
X45016915Y-34122257D02*
X44874058Y-34050828D01*
X44874058Y-34050828D02*
X44516915Y-34050828D01*
X44516915Y-34050828D02*
X44302629Y-34122257D01*
X43016916Y-35479400D02*
X43159773Y-35550828D01*
X43159773Y-35550828D02*
X43445487Y-35550828D01*
X43445487Y-35550828D02*
X43588344Y-35479400D01*
X43588344Y-35479400D02*
X43659773Y-35407971D01*
X43659773Y-35407971D02*
X43731201Y-35265114D01*
X43731201Y-35265114D02*
X43731201Y-34836542D01*
X43731201Y-34836542D02*
X43659773Y-34693685D01*
X43659773Y-34693685D02*
X43588344Y-34622257D01*
X43588344Y-34622257D02*
X43445487Y-34550828D01*
X43445487Y-34550828D02*
X43159773Y-34550828D01*
X43159773Y-34550828D02*
X43016916Y-34622257D01*
X42374059Y-35550828D02*
X42374059Y-34050828D01*
X41731202Y-35550828D02*
X41731202Y-34765114D01*
X41731202Y-34765114D02*
X41802630Y-34622257D01*
X41802630Y-34622257D02*
X41945487Y-34550828D01*
X41945487Y-34550828D02*
X42159773Y-34550828D01*
X42159773Y-34550828D02*
X42302630Y-34622257D01*
X42302630Y-34622257D02*
X42374059Y-34693685D01*
X40802630Y-35550828D02*
X40945487Y-35479400D01*
X40945487Y-35479400D02*
X41016916Y-35407971D01*
X41016916Y-35407971D02*
X41088344Y-35265114D01*
X41088344Y-35265114D02*
X41088344Y-34836542D01*
X41088344Y-34836542D02*
X41016916Y-34693685D01*
X41016916Y-34693685D02*
X40945487Y-34622257D01*
X40945487Y-34622257D02*
X40802630Y-34550828D01*
X40802630Y-34550828D02*
X40588344Y-34550828D01*
X40588344Y-34550828D02*
X40445487Y-34622257D01*
X40445487Y-34622257D02*
X40374059Y-34693685D01*
X40374059Y-34693685D02*
X40302630Y-34836542D01*
X40302630Y-34836542D02*
X40302630Y-35265114D01*
X40302630Y-35265114D02*
X40374059Y-35407971D01*
X40374059Y-35407971D02*
X40445487Y-35479400D01*
X40445487Y-35479400D02*
X40588344Y-35550828D01*
X40588344Y-35550828D02*
X40802630Y-35550828D01*
X39445487Y-35550828D02*
X39588344Y-35479400D01*
X39588344Y-35479400D02*
X39659773Y-35407971D01*
X39659773Y-35407971D02*
X39731201Y-35265114D01*
X39731201Y-35265114D02*
X39731201Y-34836542D01*
X39731201Y-34836542D02*
X39659773Y-34693685D01*
X39659773Y-34693685D02*
X39588344Y-34622257D01*
X39588344Y-34622257D02*
X39445487Y-34550828D01*
X39445487Y-34550828D02*
X39231201Y-34550828D01*
X39231201Y-34550828D02*
X39088344Y-34622257D01*
X39088344Y-34622257D02*
X39016916Y-34693685D01*
X39016916Y-34693685D02*
X38945487Y-34836542D01*
X38945487Y-34836542D02*
X38945487Y-35265114D01*
X38945487Y-35265114D02*
X39016916Y-35407971D01*
X39016916Y-35407971D02*
X39088344Y-35479400D01*
X39088344Y-35479400D02*
X39231201Y-35550828D01*
X39231201Y-35550828D02*
X39445487Y-35550828D01*
X38088344Y-35550828D02*
X38231201Y-35479400D01*
X38231201Y-35479400D02*
X38302630Y-35336542D01*
X38302630Y-35336542D02*
X38302630Y-34050828D01*
X65945489Y-33050828D02*
X65945489Y-32050828D01*
X65945489Y-32193685D02*
X65874060Y-32122257D01*
X65874060Y-32122257D02*
X65731203Y-32050828D01*
X65731203Y-32050828D02*
X65516917Y-32050828D01*
X65516917Y-32050828D02*
X65374060Y-32122257D01*
X65374060Y-32122257D02*
X65302632Y-32265114D01*
X65302632Y-32265114D02*
X65302632Y-33050828D01*
X65302632Y-32265114D02*
X65231203Y-32122257D01*
X65231203Y-32122257D02*
X65088346Y-32050828D01*
X65088346Y-32050828D02*
X64874060Y-32050828D01*
X64874060Y-32050828D02*
X64731203Y-32122257D01*
X64731203Y-32122257D02*
X64659774Y-32265114D01*
X64659774Y-32265114D02*
X64659774Y-33050828D01*
X63302632Y-33050828D02*
X63302632Y-32265114D01*
X63302632Y-32265114D02*
X63374060Y-32122257D01*
X63374060Y-32122257D02*
X63516917Y-32050828D01*
X63516917Y-32050828D02*
X63802632Y-32050828D01*
X63802632Y-32050828D02*
X63945489Y-32122257D01*
X63302632Y-32979400D02*
X63445489Y-33050828D01*
X63445489Y-33050828D02*
X63802632Y-33050828D01*
X63802632Y-33050828D02*
X63945489Y-32979400D01*
X63945489Y-32979400D02*
X64016917Y-32836542D01*
X64016917Y-32836542D02*
X64016917Y-32693685D01*
X64016917Y-32693685D02*
X63945489Y-32550828D01*
X63945489Y-32550828D02*
X63802632Y-32479400D01*
X63802632Y-32479400D02*
X63445489Y-32479400D01*
X63445489Y-32479400D02*
X63302632Y-32407971D01*
X62659774Y-32979400D02*
X62516917Y-33050828D01*
X62516917Y-33050828D02*
X62231203Y-33050828D01*
X62231203Y-33050828D02*
X62088346Y-32979400D01*
X62088346Y-32979400D02*
X62016917Y-32836542D01*
X62016917Y-32836542D02*
X62016917Y-32765114D01*
X62016917Y-32765114D02*
X62088346Y-32622257D01*
X62088346Y-32622257D02*
X62231203Y-32550828D01*
X62231203Y-32550828D02*
X62445489Y-32550828D01*
X62445489Y-32550828D02*
X62588346Y-32479400D01*
X62588346Y-32479400D02*
X62659774Y-32336542D01*
X62659774Y-32336542D02*
X62659774Y-32265114D01*
X62659774Y-32265114D02*
X62588346Y-32122257D01*
X62588346Y-32122257D02*
X62445489Y-32050828D01*
X62445489Y-32050828D02*
X62231203Y-32050828D01*
X62231203Y-32050828D02*
X62088346Y-32122257D01*
X61159774Y-33050828D02*
X61302631Y-32979400D01*
X61302631Y-32979400D02*
X61374060Y-32907971D01*
X61374060Y-32907971D02*
X61445488Y-32765114D01*
X61445488Y-32765114D02*
X61445488Y-32336542D01*
X61445488Y-32336542D02*
X61374060Y-32193685D01*
X61374060Y-32193685D02*
X61302631Y-32122257D01*
X61302631Y-32122257D02*
X61159774Y-32050828D01*
X61159774Y-32050828D02*
X60945488Y-32050828D01*
X60945488Y-32050828D02*
X60802631Y-32122257D01*
X60802631Y-32122257D02*
X60731203Y-32193685D01*
X60731203Y-32193685D02*
X60659774Y-32336542D01*
X60659774Y-32336542D02*
X60659774Y-32765114D01*
X60659774Y-32765114D02*
X60731203Y-32907971D01*
X60731203Y-32907971D02*
X60802631Y-32979400D01*
X60802631Y-32979400D02*
X60945488Y-33050828D01*
X60945488Y-33050828D02*
X61159774Y-33050828D01*
X60016917Y-32050828D02*
X60016917Y-33050828D01*
X60016917Y-32193685D02*
X59945488Y-32122257D01*
X59945488Y-32122257D02*
X59802631Y-32050828D01*
X59802631Y-32050828D02*
X59588345Y-32050828D01*
X59588345Y-32050828D02*
X59445488Y-32122257D01*
X59445488Y-32122257D02*
X59374060Y-32265114D01*
X59374060Y-32265114D02*
X59374060Y-33050828D01*
X58659774Y-32479400D02*
X57516917Y-32479400D01*
X56159774Y-32979400D02*
X56302631Y-33050828D01*
X56302631Y-33050828D02*
X56588345Y-33050828D01*
X56588345Y-33050828D02*
X56731202Y-32979400D01*
X56731202Y-32979400D02*
X56802631Y-32907971D01*
X56802631Y-32907971D02*
X56874059Y-32765114D01*
X56874059Y-32765114D02*
X56874059Y-32336542D01*
X56874059Y-32336542D02*
X56802631Y-32193685D01*
X56802631Y-32193685D02*
X56731202Y-32122257D01*
X56731202Y-32122257D02*
X56588345Y-32050828D01*
X56588345Y-32050828D02*
X56302631Y-32050828D01*
X56302631Y-32050828D02*
X56159774Y-32122257D01*
X55302631Y-33050828D02*
X55445488Y-32979400D01*
X55445488Y-32979400D02*
X55516917Y-32907971D01*
X55516917Y-32907971D02*
X55588345Y-32765114D01*
X55588345Y-32765114D02*
X55588345Y-32336542D01*
X55588345Y-32336542D02*
X55516917Y-32193685D01*
X55516917Y-32193685D02*
X55445488Y-32122257D01*
X55445488Y-32122257D02*
X55302631Y-32050828D01*
X55302631Y-32050828D02*
X55088345Y-32050828D01*
X55088345Y-32050828D02*
X54945488Y-32122257D01*
X54945488Y-32122257D02*
X54874060Y-32193685D01*
X54874060Y-32193685D02*
X54802631Y-32336542D01*
X54802631Y-32336542D02*
X54802631Y-32765114D01*
X54802631Y-32765114D02*
X54874060Y-32907971D01*
X54874060Y-32907971D02*
X54945488Y-32979400D01*
X54945488Y-32979400D02*
X55088345Y-33050828D01*
X55088345Y-33050828D02*
X55302631Y-33050828D01*
X54159774Y-33050828D02*
X54159774Y-32050828D01*
X54159774Y-32193685D02*
X54088345Y-32122257D01*
X54088345Y-32122257D02*
X53945488Y-32050828D01*
X53945488Y-32050828D02*
X53731202Y-32050828D01*
X53731202Y-32050828D02*
X53588345Y-32122257D01*
X53588345Y-32122257D02*
X53516917Y-32265114D01*
X53516917Y-32265114D02*
X53516917Y-33050828D01*
X53516917Y-32265114D02*
X53445488Y-32122257D01*
X53445488Y-32122257D02*
X53302631Y-32050828D01*
X53302631Y-32050828D02*
X53088345Y-32050828D01*
X53088345Y-32050828D02*
X52945488Y-32122257D01*
X52945488Y-32122257D02*
X52874059Y-32265114D01*
X52874059Y-32265114D02*
X52874059Y-33050828D01*
X51588345Y-32979400D02*
X51731202Y-33050828D01*
X51731202Y-33050828D02*
X52016917Y-33050828D01*
X52016917Y-33050828D02*
X52159774Y-32979400D01*
X52159774Y-32979400D02*
X52231202Y-32836542D01*
X52231202Y-32836542D02*
X52231202Y-32265114D01*
X52231202Y-32265114D02*
X52159774Y-32122257D01*
X52159774Y-32122257D02*
X52016917Y-32050828D01*
X52016917Y-32050828D02*
X51731202Y-32050828D01*
X51731202Y-32050828D02*
X51588345Y-32122257D01*
X51588345Y-32122257D02*
X51516917Y-32265114D01*
X51516917Y-32265114D02*
X51516917Y-32407971D01*
X51516917Y-32407971D02*
X52231202Y-32550828D01*
X51088345Y-32050828D02*
X50516917Y-32050828D01*
X50874060Y-31550828D02*
X50874060Y-32836542D01*
X50874060Y-32836542D02*
X50802631Y-32979400D01*
X50802631Y-32979400D02*
X50659774Y-33050828D01*
X50659774Y-33050828D02*
X50516917Y-33050828D01*
X50016917Y-32479400D02*
X48874060Y-32479400D01*
X47945488Y-33050828D02*
X48088345Y-32979400D01*
X48088345Y-32979400D02*
X48159774Y-32907971D01*
X48159774Y-32907971D02*
X48231202Y-32765114D01*
X48231202Y-32765114D02*
X48231202Y-32336542D01*
X48231202Y-32336542D02*
X48159774Y-32193685D01*
X48159774Y-32193685D02*
X48088345Y-32122257D01*
X48088345Y-32122257D02*
X47945488Y-32050828D01*
X47945488Y-32050828D02*
X47731202Y-32050828D01*
X47731202Y-32050828D02*
X47588345Y-32122257D01*
X47588345Y-32122257D02*
X47516917Y-32193685D01*
X47516917Y-32193685D02*
X47445488Y-32336542D01*
X47445488Y-32336542D02*
X47445488Y-32765114D01*
X47445488Y-32765114D02*
X47516917Y-32907971D01*
X47516917Y-32907971D02*
X47588345Y-32979400D01*
X47588345Y-32979400D02*
X47731202Y-33050828D01*
X47731202Y-33050828D02*
X47945488Y-33050828D01*
X46802631Y-33050828D02*
X46802631Y-32050828D01*
X46802631Y-32336542D02*
X46731202Y-32193685D01*
X46731202Y-32193685D02*
X46659774Y-32122257D01*
X46659774Y-32122257D02*
X46516916Y-32050828D01*
X46516916Y-32050828D02*
X46374059Y-32050828D01*
X45874060Y-32050828D02*
X45874060Y-33050828D01*
X45874060Y-32193685D02*
X45802631Y-32122257D01*
X45802631Y-32122257D02*
X45659774Y-32050828D01*
X45659774Y-32050828D02*
X45445488Y-32050828D01*
X45445488Y-32050828D02*
X45302631Y-32122257D01*
X45302631Y-32122257D02*
X45231203Y-32265114D01*
X45231203Y-32265114D02*
X45231203Y-33050828D01*
X43874060Y-33050828D02*
X43874060Y-32265114D01*
X43874060Y-32265114D02*
X43945488Y-32122257D01*
X43945488Y-32122257D02*
X44088345Y-32050828D01*
X44088345Y-32050828D02*
X44374060Y-32050828D01*
X44374060Y-32050828D02*
X44516917Y-32122257D01*
X43874060Y-32979400D02*
X44016917Y-33050828D01*
X44016917Y-33050828D02*
X44374060Y-33050828D01*
X44374060Y-33050828D02*
X44516917Y-32979400D01*
X44516917Y-32979400D02*
X44588345Y-32836542D01*
X44588345Y-32836542D02*
X44588345Y-32693685D01*
X44588345Y-32693685D02*
X44516917Y-32550828D01*
X44516917Y-32550828D02*
X44374060Y-32479400D01*
X44374060Y-32479400D02*
X44016917Y-32479400D01*
X44016917Y-32479400D02*
X43874060Y-32407971D01*
X43159774Y-33050828D02*
X43159774Y-32050828D01*
X43159774Y-32193685D02*
X43088345Y-32122257D01*
X43088345Y-32122257D02*
X42945488Y-32050828D01*
X42945488Y-32050828D02*
X42731202Y-32050828D01*
X42731202Y-32050828D02*
X42588345Y-32122257D01*
X42588345Y-32122257D02*
X42516917Y-32265114D01*
X42516917Y-32265114D02*
X42516917Y-33050828D01*
X42516917Y-32265114D02*
X42445488Y-32122257D01*
X42445488Y-32122257D02*
X42302631Y-32050828D01*
X42302631Y-32050828D02*
X42088345Y-32050828D01*
X42088345Y-32050828D02*
X41945488Y-32122257D01*
X41945488Y-32122257D02*
X41874059Y-32265114D01*
X41874059Y-32265114D02*
X41874059Y-33050828D01*
X40588345Y-32979400D02*
X40731202Y-33050828D01*
X40731202Y-33050828D02*
X41016917Y-33050828D01*
X41016917Y-33050828D02*
X41159774Y-32979400D01*
X41159774Y-32979400D02*
X41231202Y-32836542D01*
X41231202Y-32836542D02*
X41231202Y-32265114D01*
X41231202Y-32265114D02*
X41159774Y-32122257D01*
X41159774Y-32122257D02*
X41016917Y-32050828D01*
X41016917Y-32050828D02*
X40731202Y-32050828D01*
X40731202Y-32050828D02*
X40588345Y-32122257D01*
X40588345Y-32122257D02*
X40516917Y-32265114D01*
X40516917Y-32265114D02*
X40516917Y-32407971D01*
X40516917Y-32407971D02*
X41231202Y-32550828D01*
X39874060Y-32050828D02*
X39874060Y-33050828D01*
X39874060Y-32193685D02*
X39802631Y-32122257D01*
X39802631Y-32122257D02*
X39659774Y-32050828D01*
X39659774Y-32050828D02*
X39445488Y-32050828D01*
X39445488Y-32050828D02*
X39302631Y-32122257D01*
X39302631Y-32122257D02*
X39231203Y-32265114D01*
X39231203Y-32265114D02*
X39231203Y-33050828D01*
X38731202Y-32050828D02*
X38159774Y-32050828D01*
X38516917Y-31550828D02*
X38516917Y-32836542D01*
X38516917Y-32836542D02*
X38445488Y-32979400D01*
X38445488Y-32979400D02*
X38302631Y-33050828D01*
X38302631Y-33050828D02*
X38159774Y-33050828D01*
X78088346Y-36550828D02*
X77731203Y-37550828D01*
X77731203Y-37550828D02*
X77374060Y-36550828D01*
X76016917Y-37550828D02*
X76874060Y-37550828D01*
X76445489Y-37550828D02*
X76445489Y-36050828D01*
X76445489Y-36050828D02*
X76588346Y-36265114D01*
X76588346Y-36265114D02*
X76731203Y-36407971D01*
X76731203Y-36407971D02*
X76874060Y-36479400D01*
X75374061Y-37407971D02*
X75302632Y-37479400D01*
X75302632Y-37479400D02*
X75374061Y-37550828D01*
X75374061Y-37550828D02*
X75445489Y-37479400D01*
X75445489Y-37479400D02*
X75374061Y-37407971D01*
X75374061Y-37407971D02*
X75374061Y-37550828D01*
X74374060Y-36050828D02*
X74231203Y-36050828D01*
X74231203Y-36050828D02*
X74088346Y-36122257D01*
X74088346Y-36122257D02*
X74016918Y-36193685D01*
X74016918Y-36193685D02*
X73945489Y-36336542D01*
X73945489Y-36336542D02*
X73874060Y-36622257D01*
X73874060Y-36622257D02*
X73874060Y-36979400D01*
X73874060Y-36979400D02*
X73945489Y-37265114D01*
X73945489Y-37265114D02*
X74016918Y-37407971D01*
X74016918Y-37407971D02*
X74088346Y-37479400D01*
X74088346Y-37479400D02*
X74231203Y-37550828D01*
X74231203Y-37550828D02*
X74374060Y-37550828D01*
X74374060Y-37550828D02*
X74516918Y-37479400D01*
X74516918Y-37479400D02*
X74588346Y-37407971D01*
X74588346Y-37407971D02*
X74659775Y-37265114D01*
X74659775Y-37265114D02*
X74731203Y-36979400D01*
X74731203Y-36979400D02*
X74731203Y-36622257D01*
X74731203Y-36622257D02*
X74659775Y-36336542D01*
X74659775Y-36336542D02*
X74588346Y-36193685D01*
X74588346Y-36193685D02*
X74516918Y-36122257D01*
X74516918Y-36122257D02*
X74374060Y-36050828D01*
X73231204Y-37407971D02*
X73159775Y-37479400D01*
X73159775Y-37479400D02*
X73231204Y-37550828D01*
X73231204Y-37550828D02*
X73302632Y-37479400D01*
X73302632Y-37479400D02*
X73231204Y-37407971D01*
X73231204Y-37407971D02*
X73231204Y-37550828D01*
X72231203Y-36050828D02*
X72088346Y-36050828D01*
X72088346Y-36050828D02*
X71945489Y-36122257D01*
X71945489Y-36122257D02*
X71874061Y-36193685D01*
X71874061Y-36193685D02*
X71802632Y-36336542D01*
X71802632Y-36336542D02*
X71731203Y-36622257D01*
X71731203Y-36622257D02*
X71731203Y-36979400D01*
X71731203Y-36979400D02*
X71802632Y-37265114D01*
X71802632Y-37265114D02*
X71874061Y-37407971D01*
X71874061Y-37407971D02*
X71945489Y-37479400D01*
X71945489Y-37479400D02*
X72088346Y-37550828D01*
X72088346Y-37550828D02*
X72231203Y-37550828D01*
X72231203Y-37550828D02*
X72374061Y-37479400D01*
X72374061Y-37479400D02*
X72445489Y-37407971D01*
X72445489Y-37407971D02*
X72516918Y-37265114D01*
X72516918Y-37265114D02*
X72588346Y-36979400D01*
X72588346Y-36979400D02*
X72588346Y-36622257D01*
X72588346Y-36622257D02*
X72516918Y-36336542D01*
X72516918Y-36336542D02*
X72445489Y-36193685D01*
X72445489Y-36193685D02*
X72374061Y-36122257D01*
X72374061Y-36122257D02*
X72231203Y-36050828D01*
X101413269Y-39303835D02*
X100779341Y-37944374D01*
X100779341Y-37944374D02*
X100455660Y-38095309D01*
X100455660Y-38095309D02*
X100291638Y-38250606D01*
X100291638Y-38250606D02*
X100222539Y-38440453D01*
X100222539Y-38440453D02*
X100218177Y-38600112D01*
X100218177Y-38600112D02*
X100274189Y-38889244D01*
X100274189Y-38889244D02*
X100364750Y-39083453D01*
X100364750Y-39083453D02*
X100550234Y-39312211D01*
X100550234Y-39312211D02*
X100675345Y-39411497D01*
X100675345Y-39411497D02*
X100865191Y-39480595D01*
X100865191Y-39480595D02*
X101089587Y-39454770D01*
X101089587Y-39454770D02*
X101413269Y-39303835D01*
X99505730Y-40114523D02*
X99665389Y-40118885D01*
X99665389Y-40118885D02*
X99924334Y-39998137D01*
X99924334Y-39998137D02*
X100023620Y-39873026D01*
X100023620Y-39873026D02*
X100027982Y-39713367D01*
X100027982Y-39713367D02*
X99786486Y-39195477D01*
X99786486Y-39195477D02*
X99661376Y-39096191D01*
X99661376Y-39096191D02*
X99501716Y-39091829D01*
X99501716Y-39091829D02*
X99242771Y-39212577D01*
X99242771Y-39212577D02*
X99143485Y-39337687D01*
X99143485Y-39337687D02*
X99139123Y-39497347D01*
X99139123Y-39497347D02*
X99199497Y-39626819D01*
X99199497Y-39626819D02*
X99907234Y-39454422D01*
X98275741Y-40688076D02*
X98435400Y-40692438D01*
X98435400Y-40692438D02*
X98694345Y-40571690D01*
X98694345Y-40571690D02*
X98793631Y-40446580D01*
X98793631Y-40446580D02*
X98828180Y-40351656D01*
X98828180Y-40351656D02*
X98832542Y-40191997D01*
X98832542Y-40191997D02*
X98651420Y-39803579D01*
X98651420Y-39803579D02*
X98526310Y-39704294D01*
X98526310Y-39704294D02*
X98431387Y-39669744D01*
X98431387Y-39669744D02*
X98271727Y-39665382D01*
X98271727Y-39665382D02*
X98012782Y-39786130D01*
X98012782Y-39786130D02*
X97913497Y-39911241D01*
X97175224Y-41201255D02*
X97334884Y-41205617D01*
X97334884Y-41205617D02*
X97593829Y-41084869D01*
X97593829Y-41084869D02*
X97693115Y-40959759D01*
X97693115Y-40959759D02*
X97697477Y-40800099D01*
X97697477Y-40800099D02*
X97455981Y-40282209D01*
X97455981Y-40282209D02*
X97330870Y-40182924D01*
X97330870Y-40182924D02*
X97171211Y-40178561D01*
X97171211Y-40178561D02*
X96912266Y-40299309D01*
X96912266Y-40299309D02*
X96812980Y-40424420D01*
X96812980Y-40424420D02*
X96808618Y-40584079D01*
X96808618Y-40584079D02*
X96868992Y-40713552D01*
X96868992Y-40713552D02*
X97576729Y-40541154D01*
X96558049Y-41567861D02*
X96135431Y-40661554D01*
X96195805Y-40791026D02*
X96100881Y-40756477D01*
X96100881Y-40756477D02*
X95941222Y-40752115D01*
X95941222Y-40752115D02*
X95747013Y-40842676D01*
X95747013Y-40842676D02*
X95647728Y-40967786D01*
X95647728Y-40967786D02*
X95643365Y-41127446D01*
X95643365Y-41127446D02*
X95975423Y-41839545D01*
X95643365Y-41127446D02*
X95518255Y-41028160D01*
X95518255Y-41028160D02*
X95358595Y-41023798D01*
X95358595Y-41023798D02*
X95164387Y-41114359D01*
X95164387Y-41114359D02*
X95065101Y-41239469D01*
X95065101Y-41239469D02*
X95060739Y-41399129D01*
X95060739Y-41399129D02*
X95392796Y-42111228D01*
X94745433Y-42413098D02*
X94111506Y-41053636D01*
X94353002Y-41571526D02*
X94193343Y-41567164D01*
X94193343Y-41567164D02*
X93934398Y-41687912D01*
X93934398Y-41687912D02*
X93835112Y-41813022D01*
X93835112Y-41813022D02*
X93800563Y-41907946D01*
X93800563Y-41907946D02*
X93796201Y-42067605D01*
X93796201Y-42067605D02*
X93977323Y-42456023D01*
X93977323Y-42456023D02*
X94102433Y-42555308D01*
X94102433Y-42555308D02*
X94197356Y-42589858D01*
X94197356Y-42589858D02*
X94357016Y-42594220D01*
X94357016Y-42594220D02*
X94615961Y-42473472D01*
X94615961Y-42473472D02*
X94715246Y-42348362D01*
X92967367Y-43163411D02*
X93127027Y-43167773D01*
X93127027Y-43167773D02*
X93385972Y-43047025D01*
X93385972Y-43047025D02*
X93485257Y-42921915D01*
X93485257Y-42921915D02*
X93489619Y-42762255D01*
X93489619Y-42762255D02*
X93248123Y-42244365D01*
X93248123Y-42244365D02*
X93123013Y-42145080D01*
X93123013Y-42145080D02*
X92963353Y-42140718D01*
X92963353Y-42140718D02*
X92704408Y-42261466D01*
X92704408Y-42261466D02*
X92605123Y-42386576D01*
X92605123Y-42386576D02*
X92600761Y-42546235D01*
X92600761Y-42546235D02*
X92661135Y-42675708D01*
X92661135Y-42675708D02*
X93368871Y-42503310D01*
X92350192Y-43530017D02*
X91927573Y-42623710D01*
X92048321Y-42882655D02*
X91923211Y-42783369D01*
X91923211Y-42783369D02*
X91828288Y-42748820D01*
X91828288Y-42748820D02*
X91668628Y-42744458D01*
X91668628Y-42744458D02*
X91539156Y-42804832D01*
X89964023Y-43145265D02*
X89869100Y-43110715D01*
X89869100Y-43110715D02*
X89709440Y-43106353D01*
X89709440Y-43106353D02*
X89385759Y-43257288D01*
X89385759Y-43257288D02*
X89286473Y-43382399D01*
X89286473Y-43382399D02*
X89251924Y-43477322D01*
X89251924Y-43477322D02*
X89247562Y-43636981D01*
X89247562Y-43636981D02*
X89307936Y-43766454D01*
X89307936Y-43766454D02*
X89463233Y-43930476D01*
X89463233Y-43930476D02*
X90602313Y-44345067D01*
X90602313Y-44345067D02*
X89760741Y-44737498D01*
X88285243Y-43770467D02*
X88155770Y-43830841D01*
X88155770Y-43830841D02*
X88056485Y-43955952D01*
X88056485Y-43955952D02*
X88021935Y-44050875D01*
X88021935Y-44050875D02*
X88017573Y-44210535D01*
X88017573Y-44210535D02*
X88073585Y-44499667D01*
X88073585Y-44499667D02*
X88224520Y-44823348D01*
X88224520Y-44823348D02*
X88410004Y-45052106D01*
X88410004Y-45052106D02*
X88535115Y-45151392D01*
X88535115Y-45151392D02*
X88630038Y-45185941D01*
X88630038Y-45185941D02*
X88789698Y-45190303D01*
X88789698Y-45190303D02*
X88919170Y-45129929D01*
X88919170Y-45129929D02*
X89018456Y-45004819D01*
X89018456Y-45004819D02*
X89053005Y-44909895D01*
X89053005Y-44909895D02*
X89057367Y-44750236D01*
X89057367Y-44750236D02*
X89001355Y-44461104D01*
X89001355Y-44461104D02*
X88850420Y-44137422D01*
X88850420Y-44137422D02*
X88664936Y-43908664D01*
X88664936Y-43908664D02*
X88539826Y-43809379D01*
X88539826Y-43809379D02*
X88444902Y-43774830D01*
X88444902Y-43774830D02*
X88285243Y-43770467D01*
X87374573Y-44352745D02*
X87279650Y-44318196D01*
X87279650Y-44318196D02*
X87119990Y-44313834D01*
X87119990Y-44313834D02*
X86796309Y-44464769D01*
X86796309Y-44464769D02*
X86697023Y-44589879D01*
X86697023Y-44589879D02*
X86662474Y-44684802D01*
X86662474Y-44684802D02*
X86658112Y-44844462D01*
X86658112Y-44844462D02*
X86718486Y-44973934D01*
X86718486Y-44973934D02*
X86873783Y-45137956D01*
X86873783Y-45137956D02*
X88012863Y-45552547D01*
X88012863Y-45552547D02*
X87171291Y-45944978D01*
X85583420Y-45582037D02*
X86006039Y-46488345D01*
X85665606Y-44913211D02*
X86442092Y-45733320D01*
X86442092Y-45733320D02*
X85600521Y-46125752D01*
X93576059Y-34536607D02*
X93670983Y-34571156D01*
X93670983Y-34571156D02*
X93895378Y-34545331D01*
X93895378Y-34545331D02*
X94024851Y-34484957D01*
X94024851Y-34484957D02*
X94188873Y-34329660D01*
X94188873Y-34329660D02*
X94257971Y-34139814D01*
X94257971Y-34139814D02*
X94262333Y-33980154D01*
X94262333Y-33980154D02*
X94206322Y-33691022D01*
X94206322Y-33691022D02*
X94115761Y-33496813D01*
X94115761Y-33496813D02*
X93930276Y-33268055D01*
X93930276Y-33268055D02*
X93805166Y-33168769D01*
X93805166Y-33168769D02*
X93615319Y-33099671D01*
X93615319Y-33099671D02*
X93390923Y-33125496D01*
X93390923Y-33125496D02*
X93261451Y-33185870D01*
X93261451Y-33185870D02*
X93097429Y-33341167D01*
X93097429Y-33341167D02*
X93062880Y-33436090D01*
X92859598Y-35028324D02*
X92958884Y-34903213D01*
X92958884Y-34903213D02*
X92993433Y-34808290D01*
X92993433Y-34808290D02*
X92997795Y-34648631D01*
X92997795Y-34648631D02*
X92816673Y-34260213D01*
X92816673Y-34260213D02*
X92691563Y-34160927D01*
X92691563Y-34160927D02*
X92596639Y-34126378D01*
X92596639Y-34126378D02*
X92436980Y-34122016D01*
X92436980Y-34122016D02*
X92242771Y-34212577D01*
X92242771Y-34212577D02*
X92143485Y-34337687D01*
X92143485Y-34337687D02*
X92108936Y-34432611D01*
X92108936Y-34432611D02*
X92104574Y-34592270D01*
X92104574Y-34592270D02*
X92285696Y-34980688D01*
X92285696Y-34980688D02*
X92410806Y-35079973D01*
X92410806Y-35079973D02*
X92505730Y-35114523D01*
X92505730Y-35114523D02*
X92665389Y-35118885D01*
X92665389Y-35118885D02*
X92859598Y-35028324D01*
X91823818Y-35511316D02*
X91401199Y-34605008D01*
X91521947Y-34863953D02*
X91396837Y-34764668D01*
X91396837Y-34764668D02*
X91301914Y-34730119D01*
X91301914Y-34730119D02*
X91142254Y-34725756D01*
X91142254Y-34725756D02*
X91012782Y-34786130D01*
X90434169Y-36080507D02*
X90593829Y-36084869D01*
X90593829Y-36084869D02*
X90852774Y-35964121D01*
X90852774Y-35964121D02*
X90952059Y-35839011D01*
X90952059Y-35839011D02*
X90956422Y-35679351D01*
X90956422Y-35679351D02*
X90714925Y-35161461D01*
X90714925Y-35161461D02*
X90589815Y-35062176D01*
X90589815Y-35062176D02*
X90430156Y-35057813D01*
X90430156Y-35057813D02*
X90171211Y-35178561D01*
X90171211Y-35178561D02*
X90071925Y-35303672D01*
X90071925Y-35303672D02*
X90067563Y-35463331D01*
X90067563Y-35463331D02*
X90127937Y-35592804D01*
X90127937Y-35592804D02*
X90835674Y-35420406D01*
X89523848Y-35480432D02*
X89622785Y-36537674D01*
X88876485Y-35782302D02*
X89622785Y-36537674D01*
X89622785Y-36537674D02*
X89903193Y-36800982D01*
X89903193Y-36800982D02*
X89998116Y-36835531D01*
X89998116Y-36835531D02*
X90157775Y-36839893D01*
X86968598Y-37775342D02*
X87119882Y-36916670D01*
X87745433Y-37413098D02*
X87111506Y-36053636D01*
X87111506Y-36053636D02*
X86593616Y-36295132D01*
X86593616Y-36295132D02*
X86494330Y-36420243D01*
X86494330Y-36420243D02*
X86459781Y-36515166D01*
X86459781Y-36515166D02*
X86455419Y-36674825D01*
X86455419Y-36674825D02*
X86545980Y-36869034D01*
X86545980Y-36869034D02*
X86671090Y-36968320D01*
X86671090Y-36968320D02*
X86766014Y-37002869D01*
X86766014Y-37002869D02*
X86925673Y-37007231D01*
X86925673Y-37007231D02*
X87443563Y-36765735D01*
X86385972Y-38047025D02*
X85963353Y-37140717D01*
X85752044Y-36687564D02*
X85846968Y-36722113D01*
X85846968Y-36722113D02*
X85812418Y-36817036D01*
X85812418Y-36817036D02*
X85717495Y-36782487D01*
X85717495Y-36782487D02*
X85752044Y-36687564D01*
X85752044Y-36687564D02*
X85812418Y-36817036D01*
X85125795Y-38555842D02*
X85285455Y-38560205D01*
X85285455Y-38560205D02*
X85544400Y-38439457D01*
X85544400Y-38439457D02*
X85643685Y-38314346D01*
X85643685Y-38314346D02*
X85678235Y-38219423D01*
X85678235Y-38219423D02*
X85682597Y-38059763D01*
X85682597Y-38059763D02*
X85501475Y-37671346D01*
X85501475Y-37671346D02*
X85376365Y-37572060D01*
X85376365Y-37572060D02*
X85281441Y-37537511D01*
X85281441Y-37537511D02*
X85121782Y-37533149D01*
X85121782Y-37533149D02*
X84862837Y-37653897D01*
X84862837Y-37653897D02*
X84763551Y-37779007D01*
X84025279Y-39069022D02*
X84184939Y-39073384D01*
X84184939Y-39073384D02*
X84443884Y-38952636D01*
X84443884Y-38952636D02*
X84543169Y-38827526D01*
X84543169Y-38827526D02*
X84547531Y-38667866D01*
X84547531Y-38667866D02*
X84306035Y-38149976D01*
X84306035Y-38149976D02*
X84180925Y-38050690D01*
X84180925Y-38050690D02*
X84021265Y-38046328D01*
X84021265Y-38046328D02*
X83762320Y-38167076D01*
X83762320Y-38167076D02*
X83663035Y-38292186D01*
X83663035Y-38292186D02*
X83658673Y-38451846D01*
X83658673Y-38451846D02*
X83719047Y-38581319D01*
X83719047Y-38581319D02*
X84426783Y-38408921D01*
D11*
X111389961Y-30618960D02*
X110311024Y-31122077D01*
X111907619Y-31165700D02*
X110095817Y-29252112D01*
X110095817Y-29252112D02*
X110397106Y-31870063D01*
X108937486Y-30711732D02*
X109994032Y-32977502D01*
X108987798Y-30819626D02*
X108721698Y-30812356D01*
X108721698Y-30812356D02*
X108290123Y-31013602D01*
X108290123Y-31013602D02*
X108124647Y-31222120D01*
X108124647Y-31222120D02*
X108067065Y-31380325D01*
X108067065Y-31380325D02*
X108059795Y-31646424D01*
X108059795Y-31646424D02*
X108361665Y-32293787D01*
X108361665Y-32293787D02*
X108570182Y-32459263D01*
X108570182Y-32459263D02*
X108728388Y-32516845D01*
X108728388Y-32516845D02*
X108994487Y-32524115D01*
X108994487Y-32524115D02*
X109426062Y-32322869D01*
X109426062Y-32322869D02*
X109591538Y-32114351D01*
X106887504Y-31667655D02*
X107944050Y-33933424D01*
X106937816Y-31775548D02*
X106671716Y-31768278D01*
X106671716Y-31768278D02*
X106240141Y-31969525D01*
X106240141Y-31969525D02*
X106074665Y-32178042D01*
X106074665Y-32178042D02*
X106017083Y-32336247D01*
X106017083Y-32336247D02*
X106009813Y-32602347D01*
X106009813Y-32602347D02*
X106311683Y-33249709D01*
X106311683Y-33249709D02*
X106520200Y-33415185D01*
X106520200Y-33415185D02*
X106678406Y-33472767D01*
X106678406Y-33472767D02*
X106944505Y-33480038D01*
X106944505Y-33480038D02*
X107376080Y-33278791D01*
X107376080Y-33278791D02*
X107541556Y-33070274D01*
X105218204Y-34285025D02*
X105383680Y-34076508D01*
X105383680Y-34076508D02*
X105390951Y-33810409D01*
X105390951Y-33810409D02*
X104485340Y-31868320D01*
X104355054Y-34687519D02*
X103650690Y-33177006D01*
X103298508Y-32421749D02*
X103456714Y-32479331D01*
X103456714Y-32479331D02*
X103399132Y-32637537D01*
X103399132Y-32637537D02*
X103240926Y-32579955D01*
X103240926Y-32579955D02*
X103298508Y-32421749D01*
X103298508Y-32421749D02*
X103399132Y-32637537D01*
X102362654Y-35485235D02*
X102628753Y-35492506D01*
X102628753Y-35492506D02*
X103060329Y-35291259D01*
X103060329Y-35291259D02*
X103225804Y-35082742D01*
X103225804Y-35082742D02*
X103233075Y-34816643D01*
X103233075Y-34816643D02*
X102830581Y-33953492D01*
X102830581Y-33953492D02*
X102622064Y-33788016D01*
X102622064Y-33788016D02*
X102355965Y-33780746D01*
X102355965Y-33780746D02*
X101924390Y-33981993D01*
X101924390Y-33981993D02*
X101758914Y-34190510D01*
X101758914Y-34190510D02*
X101751643Y-34456609D01*
X101751643Y-34456609D02*
X101852267Y-34672397D01*
X101852267Y-34672397D02*
X103031828Y-34385067D01*
X100362984Y-36549051D02*
X99306438Y-34283282D01*
X100312672Y-36441158D02*
X100578772Y-36448428D01*
X100578772Y-36448428D02*
X101010347Y-36247181D01*
X101010347Y-36247181D02*
X101175823Y-36038664D01*
X101175823Y-36038664D02*
X101233405Y-35880459D01*
X101233405Y-35880459D02*
X101240675Y-35614359D01*
X101240675Y-35614359D02*
X100938805Y-34966997D01*
X100938805Y-34966997D02*
X100730288Y-34801521D01*
X100730288Y-34801521D02*
X100572082Y-34743939D01*
X100572082Y-34743939D02*
X100305983Y-34736668D01*
X100305983Y-34736668D02*
X99874408Y-34937915D01*
X99874408Y-34937915D02*
X99708932Y-35146432D01*
X96824881Y-35440451D02*
X95530156Y-36044191D01*
X97234064Y-38008091D02*
X96177518Y-35742321D01*
X94917983Y-38956743D02*
X95184082Y-38964013D01*
X95184082Y-38964013D02*
X95615657Y-38762766D01*
X95615657Y-38762766D02*
X95781133Y-38554249D01*
X95781133Y-38554249D02*
X95788403Y-38288150D01*
X95788403Y-38288150D02*
X95385910Y-37425000D01*
X95385910Y-37425000D02*
X95177393Y-37259524D01*
X95177393Y-37259524D02*
X94911293Y-37252253D01*
X94911293Y-37252253D02*
X94479718Y-37453500D01*
X94479718Y-37453500D02*
X94314242Y-37662017D01*
X94314242Y-37662017D02*
X94306972Y-37928117D01*
X94306972Y-37928117D02*
X94407595Y-38143904D01*
X94407595Y-38143904D02*
X95587157Y-37856575D01*
X92868001Y-39912665D02*
X93134100Y-39919935D01*
X93134100Y-39919935D02*
X93565675Y-39718688D01*
X93565675Y-39718688D02*
X93731151Y-39510171D01*
X93731151Y-39510171D02*
X93788733Y-39351966D01*
X93788733Y-39351966D02*
X93796004Y-39085867D01*
X93796004Y-39085867D02*
X93494134Y-38438504D01*
X93494134Y-38438504D02*
X93285616Y-38273028D01*
X93285616Y-38273028D02*
X93127411Y-38215446D01*
X93127411Y-38215446D02*
X92861312Y-38208175D01*
X92861312Y-38208175D02*
X92429737Y-38409422D01*
X92429737Y-38409422D02*
X92264261Y-38617939D01*
X91947269Y-40473364D02*
X90890723Y-38207594D01*
X90976225Y-40926169D02*
X90422796Y-39739338D01*
X90422796Y-39739338D02*
X90430066Y-39473238D01*
X90430066Y-39473238D02*
X90595542Y-39264721D01*
X90595542Y-39264721D02*
X90919224Y-39113786D01*
X90919224Y-39113786D02*
X91185323Y-39121056D01*
X91185323Y-39121056D02*
X91343528Y-39178638D01*
X89192923Y-39918773D02*
X89897287Y-41429286D01*
X89293546Y-40134561D02*
X89135341Y-40076979D01*
X89135341Y-40076979D02*
X88869242Y-40069708D01*
X88869242Y-40069708D02*
X88545560Y-40220643D01*
X88545560Y-40220643D02*
X88380084Y-40429161D01*
X88380084Y-40429161D02*
X88372814Y-40695260D01*
X88372814Y-40695260D02*
X88926243Y-41882092D01*
X87523623Y-42536144D02*
X87689099Y-42327626D01*
X87689099Y-42327626D02*
X87746681Y-42169421D01*
X87746681Y-42169421D02*
X87753952Y-41903322D01*
X87753952Y-41903322D02*
X87452081Y-41255959D01*
X87452081Y-41255959D02*
X87243564Y-41090483D01*
X87243564Y-41090483D02*
X87085359Y-41032901D01*
X87085359Y-41032901D02*
X86819259Y-41025631D01*
X86819259Y-41025631D02*
X86495578Y-41176566D01*
X86495578Y-41176566D02*
X86330102Y-41385083D01*
X86330102Y-41385083D02*
X86272520Y-41543288D01*
X86272520Y-41543288D02*
X86265250Y-41809388D01*
X86265250Y-41809388D02*
X86567120Y-42456750D01*
X86567120Y-42456750D02*
X86775637Y-42622226D01*
X86775637Y-42622226D02*
X86933843Y-42679808D01*
X86933843Y-42679808D02*
X87199942Y-42687079D01*
X87199942Y-42687079D02*
X87523623Y-42536144D01*
X85473641Y-43492066D02*
X85639117Y-43283549D01*
X85639117Y-43283549D02*
X85646387Y-43017450D01*
X85646387Y-43017450D02*
X84740777Y-41075361D01*
X84286809Y-44045495D02*
X84452285Y-43836978D01*
X84452285Y-43836978D02*
X84509867Y-43678772D01*
X84509867Y-43678772D02*
X84517138Y-43412673D01*
X84517138Y-43412673D02*
X84215267Y-42765310D01*
X84215267Y-42765310D02*
X84006750Y-42599834D01*
X84006750Y-42599834D02*
X83848545Y-42542252D01*
X83848545Y-42542252D02*
X83582446Y-42534982D01*
X83582446Y-42534982D02*
X83258764Y-42685917D01*
X83258764Y-42685917D02*
X83093288Y-42894434D01*
X83093288Y-42894434D02*
X83035706Y-43052640D01*
X83035706Y-43052640D02*
X83028436Y-43318739D01*
X83028436Y-43318739D02*
X83330306Y-43966102D01*
X83330306Y-43966102D02*
X83538823Y-44131577D01*
X83538823Y-44131577D02*
X83697029Y-44189159D01*
X83697029Y-44189159D02*
X83963128Y-44196430D01*
X83963128Y-44196430D02*
X84286809Y-44045495D01*
X80885101Y-43792774D02*
X81740400Y-45626969D01*
X81740400Y-45626969D02*
X81948917Y-45792445D01*
X81948917Y-45792445D02*
X82107122Y-45850027D01*
X82107122Y-45850027D02*
X82373222Y-45857297D01*
X82373222Y-45857297D02*
X82696903Y-45706362D01*
X82696903Y-45706362D02*
X82862379Y-45497845D01*
X81539153Y-45195394D02*
X81805252Y-45202664D01*
X81805252Y-45202664D02*
X82236827Y-45001417D01*
X82236827Y-45001417D02*
X82402303Y-44792900D01*
X82402303Y-44792900D02*
X82459885Y-44634694D01*
X82459885Y-44634694D02*
X82467156Y-44368595D01*
X82467156Y-44368595D02*
X82165285Y-43721233D01*
X82165285Y-43721233D02*
X81956768Y-43555757D01*
X81956768Y-43555757D02*
X81798563Y-43498175D01*
X81798563Y-43498175D02*
X81532463Y-43490904D01*
X81532463Y-43490904D02*
X81100888Y-43692151D01*
X81100888Y-43692151D02*
X80935412Y-43900668D01*
X80021950Y-44195268D02*
X80186845Y-45957340D01*
X78943012Y-44698385D02*
X80186845Y-45957340D01*
X80186845Y-45957340D02*
X80654191Y-46396185D01*
X80654191Y-46396185D02*
X80812397Y-46453767D01*
X80812397Y-46453767D02*
X81078496Y-46461038D01*
D10*
X68131203Y-46087542D02*
X67388346Y-46087542D01*
X67388346Y-46087542D02*
X67788346Y-46544685D01*
X67788346Y-46544685D02*
X67616917Y-46544685D01*
X67616917Y-46544685D02*
X67502632Y-46601828D01*
X67502632Y-46601828D02*
X67445489Y-46658971D01*
X67445489Y-46658971D02*
X67388346Y-46773257D01*
X67388346Y-46773257D02*
X67388346Y-47058971D01*
X67388346Y-47058971D02*
X67445489Y-47173257D01*
X67445489Y-47173257D02*
X67502632Y-47230400D01*
X67502632Y-47230400D02*
X67616917Y-47287542D01*
X67616917Y-47287542D02*
X67959774Y-47287542D01*
X67959774Y-47287542D02*
X68074060Y-47230400D01*
X68074060Y-47230400D02*
X68131203Y-47173257D01*
X66874060Y-46830400D02*
X65959775Y-46830400D01*
X64816918Y-46087542D02*
X65388346Y-46087542D01*
X65388346Y-46087542D02*
X65445489Y-46658971D01*
X65445489Y-46658971D02*
X65388346Y-46601828D01*
X65388346Y-46601828D02*
X65274061Y-46544685D01*
X65274061Y-46544685D02*
X64988346Y-46544685D01*
X64988346Y-46544685D02*
X64874061Y-46601828D01*
X64874061Y-46601828D02*
X64816918Y-46658971D01*
X64816918Y-46658971D02*
X64759775Y-46773257D01*
X64759775Y-46773257D02*
X64759775Y-47058971D01*
X64759775Y-47058971D02*
X64816918Y-47173257D01*
X64816918Y-47173257D02*
X64874061Y-47230400D01*
X64874061Y-47230400D02*
X64988346Y-47287542D01*
X64988346Y-47287542D02*
X65274061Y-47287542D01*
X65274061Y-47287542D02*
X65388346Y-47230400D01*
X65388346Y-47230400D02*
X65445489Y-47173257D01*
X64416918Y-46087542D02*
X64016918Y-47287542D01*
X64016918Y-47287542D02*
X63616918Y-46087542D01*
X67388346Y-41044685D02*
X67502632Y-40987542D01*
X67502632Y-40987542D02*
X67674060Y-40987542D01*
X67674060Y-40987542D02*
X67845489Y-41044685D01*
X67845489Y-41044685D02*
X67959774Y-41158971D01*
X67959774Y-41158971D02*
X68016917Y-41273257D01*
X68016917Y-41273257D02*
X68074060Y-41501828D01*
X68074060Y-41501828D02*
X68074060Y-41673257D01*
X68074060Y-41673257D02*
X68016917Y-41901828D01*
X68016917Y-41901828D02*
X67959774Y-42016114D01*
X67959774Y-42016114D02*
X67845489Y-42130400D01*
X67845489Y-42130400D02*
X67674060Y-42187542D01*
X67674060Y-42187542D02*
X67559774Y-42187542D01*
X67559774Y-42187542D02*
X67388346Y-42130400D01*
X67388346Y-42130400D02*
X67331203Y-42073257D01*
X67331203Y-42073257D02*
X67331203Y-41673257D01*
X67331203Y-41673257D02*
X67559774Y-41673257D01*
X66816917Y-42187542D02*
X66816917Y-40987542D01*
X66816917Y-40987542D02*
X66131203Y-42187542D01*
X66131203Y-42187542D02*
X66131203Y-40987542D01*
X65559774Y-42187542D02*
X65559774Y-40987542D01*
X65559774Y-40987542D02*
X65274060Y-40987542D01*
X65274060Y-40987542D02*
X65102631Y-41044685D01*
X65102631Y-41044685D02*
X64988346Y-41158971D01*
X64988346Y-41158971D02*
X64931203Y-41273257D01*
X64931203Y-41273257D02*
X64874060Y-41501828D01*
X64874060Y-41501828D02*
X64874060Y-41673257D01*
X64874060Y-41673257D02*
X64931203Y-41901828D01*
X64931203Y-41901828D02*
X64988346Y-42016114D01*
X64988346Y-42016114D02*
X65102631Y-42130400D01*
X65102631Y-42130400D02*
X65274060Y-42187542D01*
X65274060Y-42187542D02*
X65559774Y-42187542D01*
D12*
%TO.C,R3*%
X58272936Y-54840000D02*
X59727064Y-54840000D01*
X58272936Y-56660000D02*
X59727064Y-56660000D01*
%TO.C,R4*%
X31214564Y-57160000D02*
X29760436Y-57160000D01*
X31214564Y-55340000D02*
X29760436Y-55340000D01*
%TO.C,R2*%
X31227064Y-42160000D02*
X29772936Y-42160000D01*
X31227064Y-40340000D02*
X29772936Y-40340000D01*
%TO.C,R1*%
X58285436Y-40340000D02*
X59739564Y-40340000D01*
X58285436Y-42160000D02*
X59739564Y-42160000D01*
%TO.C,BT1*%
X34415000Y-52300000D02*
X29345000Y-52300000D01*
X29345000Y-52300000D02*
X29345000Y-46700000D01*
X34415000Y-46700000D02*
X29345000Y-46700000D01*
X34415000Y-55780000D02*
X34415000Y-52300000D01*
X34415000Y-45250000D02*
X34415000Y-46700000D01*
X41295000Y-38870000D02*
X34415000Y-45250000D01*
X41295000Y-38870000D02*
X48895000Y-38870000D01*
X55775000Y-55850000D02*
X55775000Y-52300000D01*
X55775000Y-45250000D02*
X55775000Y-46700000D01*
X60845000Y-46700000D02*
X55775000Y-46700000D01*
X48895000Y-38870000D02*
X55775000Y-45250000D01*
X55775000Y-52300000D02*
X60845000Y-52300000D01*
X60845000Y-52300000D02*
X60845000Y-46700000D01*
X39914999Y-57839999D02*
G75*
G02*
X34417941Y-55800000I-2369999J2040000D01*
G01*
X39925001Y-57830001D02*
G75*
G02*
X50401422Y-57967392I5169999J-5270000D01*
G01*
X55775000Y-55800000D02*
G75*
G02*
X50411452Y-57992753I-3130000J0D01*
G01*
D13*
%TO.C,J2*%
X66000000Y-42500000D02*
X66000000Y-43000000D01*
X66500000Y-42500000D02*
X66000000Y-42500000D01*
D12*
%TO.C,SW1*%
X72850000Y-44600000D02*
X72850000Y-42900000D01*
X72850000Y-46100000D02*
X72850000Y-45900000D01*
X73900000Y-47950000D02*
X74690000Y-47950000D01*
X74690000Y-41050000D02*
X73900000Y-41050000D01*
X75700000Y-44400000D02*
X76990000Y-44400000D01*
X75700000Y-47350000D02*
X75700000Y-41650000D01*
X76990000Y-43100000D02*
X75700000Y-43100000D01*
X77200000Y-43300000D02*
X76990000Y-43100000D01*
X77200000Y-44200000D02*
X76990000Y-44400000D01*
X77200000Y-44200000D02*
X77200000Y-43300000D01*
%TD*%
%LPC*%
D14*
%TO.C,R3*%
X60550000Y-55750000D03*
X57450000Y-55750000D03*
%TD*%
D15*
%TO.C,R4*%
X28937500Y-56250000D03*
X32037500Y-56250000D03*
%TD*%
%TO.C,R2*%
X28950000Y-41250000D03*
X32050000Y-41250000D03*
%TD*%
D14*
%TO.C,R1*%
X60562500Y-41250000D03*
X57462500Y-41250000D03*
%TD*%
D16*
%TO.C,BT1*%
X32145000Y-49500000D03*
X58045000Y-49500000D03*
D17*
X45095000Y-49500000D03*
%TD*%
D18*
%TO.C,J2*%
X66500000Y-43000000D03*
%TD*%
D19*
%TO.C,J1*%
X66500000Y-46000000D03*
%TD*%
D20*
%TO.C,SW1*%
X75400000Y-40850000D03*
X73190000Y-40850000D03*
D19*
X74300000Y-43000000D03*
X74300000Y-46000000D03*
D20*
X75400000Y-48150000D03*
X73190000Y-48150000D03*
D21*
X72540000Y-42250000D03*
X72540000Y-45250000D03*
X72540000Y-46750000D03*
%TD*%
%LPD*%
M02*
