%TF.GenerationSoftware,KiCad,Pcbnew,8.0.6*%
%TF.CreationDate,2024-11-25T21:33:12-05:00*%
%TF.ProjectId,mason-comet-ornament,6d61736f-6e2d-4636-9f6d-65742d6f726e,rev?*%
%TF.SameCoordinates,Original*%
%TF.FileFunction,Copper,L2,Bot*%
%TF.FilePolarity,Positive*%
%FSLAX46Y46*%
G04 Gerber Fmt 4.6, Leading zero omitted, Abs format (unit mm)*
G04 Created by KiCad (PCBNEW 8.0.6) date 2024-11-25 21:33:12*
%MOMM*%
%LPD*%
G01*
G04 APERTURE LIST*
G04 Aperture macros list*
%AMRoundRect*
0 Rectangle with rounded corners*
0 $1 Rounding radius*
0 $2 $3 $4 $5 $6 $7 $8 $9 X,Y pos of 4 corners*
0 Add a 4 corners polygon primitive as box body*
4,1,4,$2,$3,$4,$5,$6,$7,$8,$9,$2,$3,0*
0 Add four circle primitives for the rounded corners*
1,1,$1+$1,$2,$3*
1,1,$1+$1,$4,$5*
1,1,$1+$1,$6,$7*
1,1,$1+$1,$8,$9*
0 Add four rect primitives between the rounded corners*
20,1,$1+$1,$2,$3,$4,$5,0*
20,1,$1+$1,$4,$5,$6,$7,0*
20,1,$1+$1,$6,$7,$8,$9,0*
20,1,$1+$1,$8,$9,$2,$3,0*%
G04 Aperture macros list end*
%TA.AperFunction,SMDPad,CuDef*%
%ADD10RoundRect,0.250000X0.400000X0.625000X-0.400000X0.625000X-0.400000X-0.625000X0.400000X-0.625000X0*%
%TD*%
%TA.AperFunction,SMDPad,CuDef*%
%ADD11RoundRect,0.250000X-0.400000X-0.625000X0.400000X-0.625000X0.400000X0.625000X-0.400000X0.625000X0*%
%TD*%
%TA.AperFunction,SMDPad,CuDef*%
%ADD12R,5.000000X5.000000*%
%TD*%
%TA.AperFunction,SMDPad,CuDef*%
%ADD13C,16.000000*%
%TD*%
%TA.AperFunction,ComponentPad*%
%ADD14R,0.850000X0.850000*%
%TD*%
%TA.AperFunction,ComponentPad*%
%ADD15C,0.900000*%
%TD*%
%TA.AperFunction,SMDPad,CuDef*%
%ADD16R,0.800000X1.000000*%
%TD*%
%TA.AperFunction,SMDPad,CuDef*%
%ADD17R,1.500000X0.700000*%
%TD*%
%TA.AperFunction,ViaPad*%
%ADD18C,0.600000*%
%TD*%
%TA.AperFunction,Conductor*%
%ADD19C,0.350000*%
%TD*%
G04 APERTURE END LIST*
D10*
%TO.P,R3,1*%
%TO.N,Net-(SW1-A)*%
X60550000Y-55750000D03*
%TO.P,R3,2*%
%TO.N,Net-(D3-A)*%
X57450000Y-55750000D03*
%TD*%
D11*
%TO.P,R4,1*%
%TO.N,Net-(SW1-A)*%
X28937500Y-56250000D03*
%TO.P,R4,2*%
%TO.N,Net-(D4-A)*%
X32037500Y-56250000D03*
%TD*%
%TO.P,R2,1*%
%TO.N,Net-(SW1-A)*%
X28950000Y-41250000D03*
%TO.P,R2,2*%
%TO.N,Net-(D2-A)*%
X32050000Y-41250000D03*
%TD*%
D10*
%TO.P,R1,1*%
%TO.N,Net-(SW1-A)*%
X60562500Y-41250000D03*
%TO.P,R1,2*%
%TO.N,Net-(D1-A)*%
X57462500Y-41250000D03*
%TD*%
D12*
%TO.P,BT1,1,+*%
%TO.N,Net-(BT1-+)*%
X32145000Y-49500000D03*
X58045000Y-49500000D03*
D13*
%TO.P,BT1,2,-*%
%TO.N,GND*%
X45095000Y-49500000D03*
%TD*%
D14*
%TO.P,J2,1,Pin_1*%
%TO.N,GND*%
X66500000Y-43000000D03*
%TD*%
D15*
%TO.P,J1,1,Pin_1*%
%TO.N,Net-(BT1-+)*%
X66500000Y-46000000D03*
%TD*%
D16*
%TO.P,SW1,*%
%TO.N,*%
X75400000Y-40850000D03*
X73190000Y-40850000D03*
X75400000Y-48150000D03*
X73190000Y-48150000D03*
D17*
%TO.P,SW1,1,A*%
%TO.N,Net-(SW1-A)*%
X72540000Y-42250000D03*
%TO.P,SW1,2,B*%
%TO.N,Net-(BT1-+)*%
X72540000Y-45250000D03*
%TO.P,SW1,3,C*%
%TO.N,unconnected-(SW1-C-Pad3)*%
X72540000Y-46750000D03*
%TD*%
D18*
%TO.N,Net-(D4-A)*%
X36500000Y-56750000D03*
%TO.N,Net-(D3-A)*%
X55000000Y-55250000D03*
%TO.N,Net-(D2-A)*%
X34500000Y-43750000D03*
%TO.N,Net-(D1-A)*%
X53000000Y-41250000D03*
%TO.N,GND*%
X45095000Y-49500000D03*
X45095000Y-49500000D03*
X45095000Y-49500000D03*
%TD*%
D19*
%TO.N,Net-(SW1-A)*%
X69800000Y-42250000D02*
X72540000Y-42250000D01*
X69200000Y-41650000D02*
X69800000Y-42250000D01*
X63600000Y-41650000D02*
X69200000Y-41650000D01*
%TO.N,Net-(BT1-+)*%
X67250000Y-45250000D02*
X66500000Y-46000000D01*
X72540000Y-45250000D02*
X67250000Y-45250000D01*
X63000000Y-49500000D02*
X58045000Y-49500000D01*
X66500000Y-46000000D02*
X63000000Y-49500000D01*
%TO.N,Net-(SW1-A)*%
X56500000Y-43250000D02*
X54500000Y-45250000D01*
X63600000Y-41650000D02*
X62000000Y-43250000D01*
X62000000Y-43250000D02*
X56500000Y-43250000D01*
X63200000Y-41250000D02*
X63600000Y-41650000D01*
X60500000Y-41250000D02*
X63200000Y-41250000D01*
X40000000Y-40750000D02*
X50000000Y-40750000D01*
X35500000Y-45250000D02*
X40000000Y-40750000D01*
X50000000Y-40750000D02*
X54500000Y-45250000D01*
X28000000Y-45250000D02*
X35500000Y-45250000D01*
X27000000Y-46250000D02*
X28000000Y-45250000D01*
X27000000Y-47250000D02*
X27000000Y-46250000D01*
X27000000Y-41750000D02*
X27500000Y-41250000D01*
X27000000Y-47250000D02*
X27000000Y-41750000D01*
X27500000Y-41250000D02*
X28950000Y-41250000D01*
X27000000Y-55750000D02*
X27000000Y-47250000D01*
X27500000Y-56250000D02*
X27000000Y-55750000D01*
X28937500Y-56250000D02*
X27500000Y-56250000D01*
%TO.N,Net-(D2-A)*%
X33500000Y-41250000D02*
X32050000Y-41250000D01*
%TO.N,Net-(D3-A)*%
X57450000Y-55750000D02*
X55500000Y-55750000D01*
%TO.N,Net-(SW1-A)*%
X62000000Y-55750000D02*
X60550000Y-55750000D01*
%TO.N,Net-(D4-A)*%
X36000000Y-56250000D02*
X32037500Y-56250000D01*
%TO.N,Net-(SW1-A)*%
X61500000Y-53250000D02*
X55500000Y-53250000D01*
X55500000Y-53250000D02*
X54500000Y-52250000D01*
X62500000Y-54250000D02*
X61500000Y-53250000D01*
X62500000Y-55250000D02*
X62500000Y-54250000D01*
X62000000Y-55750000D02*
X62500000Y-55250000D01*
X54500000Y-52250000D02*
X54500000Y-45250000D01*
%TO.N,Net-(D1-A)*%
X53000000Y-41250000D02*
X57525000Y-41250000D01*
%TO.N,Net-(D2-A)*%
X34500000Y-42250000D02*
X33500000Y-41250000D01*
X34500000Y-43750000D02*
X34500000Y-42250000D01*
%TO.N,Net-(D4-A)*%
X36000000Y-56250000D02*
X36500000Y-56750000D01*
%TO.N,Net-(D3-A)*%
X55500000Y-55750000D02*
X55000000Y-55250000D01*
%TO.N,Net-(BT1-+)*%
X57000000Y-49500000D02*
X59250000Y-49500000D01*
%TD*%
M02*
