%TF.GenerationSoftware,KiCad,Pcbnew,8.0.6*%
%TF.CreationDate,2024-11-25T21:34:24-05:00*%
%TF.ProjectId,mason-comet-ornament,6d61736f-6e2d-4636-9f6d-65742d6f726e,rev?*%
%TF.SameCoordinates,Original*%
%TF.FileFunction,Drillmap*%
%TF.FilePolarity,Positive*%
%FSLAX45Y45*%
G04 Gerber Fmt 4.5, Leading zero omitted, Abs format (unit mm)*
G04 Created by KiCad (PCBNEW 8.0.6) date 2024-11-25 21:34:24*
%MOMM*%
%LPD*%
G01*
G04 APERTURE LIST*
%ADD10C,0.200000*%
%ADD11C,0.100000*%
G04 APERTURE END LIST*
D10*
X10186515Y-4182843D02*
X10250736Y-4189804D01*
X6852713Y-5418366D02*
X6860980Y-5411960D01*
X5052149Y-2910973D02*
X5052149Y-2898859D01*
X8776526Y-3083129D02*
X8755608Y-3060994D01*
X7174893Y-5348348D02*
X7195636Y-5351631D01*
X7216111Y-5355809D01*
X7236308Y-5360870D01*
X7256219Y-5366805D01*
X7275833Y-5373606D01*
X7295141Y-5381260D01*
X7314134Y-5389761D01*
X7332803Y-5399096D01*
X7351138Y-5409258D01*
X7369130Y-5420236D01*
X7386769Y-5432020D01*
X7404047Y-5444601D01*
X7420953Y-5457969D01*
X7437478Y-5472115D01*
X7453614Y-5487028D01*
X7469350Y-5502699D01*
X7484677Y-5519119D01*
X7499586Y-5536278D01*
X7514067Y-5554165D01*
X7528112Y-5572772D01*
X7541710Y-5592089D01*
X7554853Y-5612106D01*
X7567531Y-5632813D01*
X7579734Y-5654200D01*
X7591454Y-5676259D01*
X7602680Y-5698979D01*
X7613404Y-5722351D01*
X7623616Y-5746364D01*
X7633306Y-5771010D01*
X7642466Y-5796278D01*
X7651087Y-5822160D01*
X7659157Y-5848644D01*
X4859431Y-7092343D02*
X4945179Y-7090089D01*
X10387499Y-4189908D02*
X10524263Y-4190012D01*
X4945179Y-7090089D02*
X5030927Y-7087835D01*
X2885944Y-3626052D02*
X2865430Y-3632042D01*
X2842799Y-3641423D01*
X2821625Y-3654460D01*
X2804378Y-3668636D01*
X2785734Y-3687065D01*
X2770212Y-3704189D01*
X2752886Y-3724542D01*
X2740117Y-3740081D01*
X2726223Y-3757322D01*
X11748979Y-3015650D02*
X11736343Y-2990135D01*
X11719130Y-2964963D01*
X11697653Y-2940284D01*
X11672221Y-2916250D01*
X11643147Y-2893015D01*
X11610742Y-2870729D01*
X11593388Y-2859990D01*
X11575317Y-2849546D01*
X11556569Y-2839415D01*
X11537183Y-2829617D01*
X11517197Y-2820170D01*
X11496651Y-2811094D01*
X11475583Y-2802407D01*
X11454032Y-2794129D01*
X11432038Y-2786279D01*
X11409639Y-2778875D01*
X11386873Y-2771937D01*
X11363781Y-2765484D01*
X11340400Y-2759534D01*
X11316771Y-2754107D01*
X11292930Y-2749222D01*
X11268919Y-2744897D01*
X11244774Y-2741153D01*
X11220536Y-2738007D01*
X11196244Y-2735479D01*
X11171935Y-2733587D01*
X11062513Y-3915590D02*
X11073884Y-3895035D01*
X11084615Y-3872794D01*
X11092611Y-3854126D01*
X11099976Y-3834955D01*
X11106611Y-3815539D01*
X11112419Y-3796134D01*
X11118364Y-3772283D01*
X11119362Y-3767607D01*
X7181603Y-5769553D02*
X7183625Y-5763093D01*
X7370688Y-6269026D02*
X7395334Y-6275997D01*
X7417996Y-6280870D01*
X7439056Y-6283637D01*
X7463708Y-6284121D01*
X7487194Y-6281286D01*
X7510260Y-6275115D01*
X7528909Y-6267765D01*
X7533648Y-6265591D01*
X6985307Y-5358439D02*
X7026749Y-5347739D01*
X7136582Y-5343140D02*
X7174893Y-5348348D01*
X6860980Y-5411960D02*
X6879679Y-5400520D01*
X6898710Y-5391068D01*
X6920514Y-5381391D01*
X6943365Y-5372231D01*
X6965538Y-5364333D01*
X6985307Y-5358439D01*
X8722450Y-5288385D02*
X8717702Y-5266700D01*
X8711408Y-5244892D01*
X8703686Y-5223258D01*
X8694656Y-5202089D01*
X8684436Y-5181682D01*
X8673146Y-5162329D01*
X8668356Y-5154950D01*
X7208408Y-5702772D02*
X7210250Y-5669239D01*
X7212131Y-5635706D02*
X7205062Y-5611209D01*
X11127057Y-3618425D02*
X11121224Y-3590886D01*
X5745790Y-7288176D02*
X5766569Y-7283681D01*
X5786379Y-7277200D01*
X5805099Y-7268838D01*
X5822611Y-7258697D01*
X5838796Y-7246884D01*
X5858104Y-7228709D01*
X5874558Y-7207992D01*
X5887875Y-7184980D01*
X5895633Y-7166363D01*
X5899678Y-7153363D01*
X10178231Y-2997970D02*
X10118161Y-3029714D01*
X6722856Y-6201959D02*
X6825066Y-6197432D01*
X6925218Y-2937954D02*
X6898288Y-2930743D01*
X8873243Y-3323158D02*
X8868141Y-3302326D01*
X8862806Y-3282003D01*
X8857259Y-3262244D01*
X8848594Y-3233793D01*
X8839586Y-3206940D01*
X8830311Y-3181878D01*
X8820850Y-3158804D01*
X8811279Y-3137912D01*
X8801679Y-3119397D01*
X8788967Y-3098745D01*
X8776526Y-3083129D01*
X7533648Y-6265591D02*
X7557161Y-6254514D01*
X5616095Y-7259402D02*
X5651686Y-7279801D01*
X10576048Y-4182675D02*
X10601757Y-4178777D01*
X10626802Y-4174461D01*
X10651193Y-4169722D01*
X10674941Y-4164557D01*
X10698058Y-4158963D01*
X10720553Y-4152935D01*
X10742439Y-4146469D01*
X10763726Y-4139563D01*
X10784425Y-4132212D01*
X10804548Y-4124413D01*
X10824106Y-4116161D01*
X10843109Y-4107454D01*
X10861568Y-4098287D01*
X10879495Y-4088657D01*
X10896901Y-4078560D01*
X10913796Y-4067993D01*
X3100403Y-3603452D02*
X3049799Y-3665472D01*
X7205062Y-5611209D02*
X7197488Y-5588760D01*
X7188287Y-5568547D01*
X7177296Y-5550449D01*
X7164355Y-5534345D01*
X7149301Y-5520111D01*
X7131974Y-5507627D01*
X7112211Y-5496770D01*
X7089851Y-5487419D01*
X7064732Y-5479451D01*
X7036694Y-5472746D01*
X7016299Y-5468916D01*
X10994605Y-3998063D02*
X11042257Y-3949660D01*
X9305148Y-4637904D02*
X9963896Y-4153658D01*
X7847115Y-6015505D02*
X7873724Y-6011247D01*
X6661139Y-3560860D02*
X6669290Y-3541897D01*
X6687741Y-3521631D01*
X6704665Y-3505257D01*
X6724713Y-3487060D01*
X6747392Y-3467444D01*
X6772209Y-3446811D01*
X6798671Y-3425563D01*
X6826287Y-3404104D01*
X6854561Y-3382835D01*
X6883003Y-3362159D01*
X6911118Y-3342478D01*
X6938415Y-3324196D01*
X6964400Y-3307714D01*
X6988581Y-3293435D01*
X10118161Y-3029714D02*
X10031125Y-3028516D01*
X5906997Y-7126415D02*
X5904815Y-7092130D01*
X6695245Y-2942573D02*
X6669403Y-2946540D01*
X6642803Y-2950890D01*
X6615347Y-2955643D01*
X6586935Y-2960819D01*
X6557467Y-2966437D01*
X6526844Y-2972516D01*
X6494967Y-2979078D01*
X6461737Y-2986140D01*
X6427053Y-2993724D01*
X6390817Y-3001848D01*
X6352930Y-3010533D01*
X6333335Y-3015091D01*
X6313291Y-3019797D01*
X6292784Y-3024654D01*
X6271801Y-3029662D01*
X6250332Y-3034826D01*
X6228362Y-3040146D01*
X6205880Y-3045627D01*
X6182874Y-3051270D01*
X6159330Y-3057078D01*
X6135236Y-3063053D01*
X7639545Y-6099159D02*
X7635143Y-6070690D01*
X5902651Y-7057845D02*
X5891915Y-7031505D01*
X2403970Y-5357327D02*
X2412057Y-5375804D01*
X2418587Y-5395155D01*
X2414940Y-5417661D01*
X2406055Y-5439167D01*
X2399640Y-5454151D01*
X5522494Y-6462191D02*
X5553543Y-6447933D01*
X5584956Y-6434080D01*
X5616740Y-6420634D01*
X5648900Y-6407591D01*
X5681440Y-6394952D01*
X5714366Y-6382715D01*
X5747683Y-6370878D01*
X5781396Y-6359442D01*
X5815510Y-6348404D01*
X5850031Y-6337763D01*
X5884964Y-6327519D01*
X5920314Y-6317670D01*
X5956086Y-6308215D01*
X5992285Y-6299154D01*
X6028917Y-6290484D01*
X6065987Y-6282205D01*
X6103499Y-6274315D01*
X6141460Y-6266814D01*
X6179873Y-6259700D01*
X6218745Y-6252973D01*
X6258081Y-6246631D01*
X6297886Y-6240672D01*
X6338164Y-6235097D01*
X6378922Y-6229903D01*
X6420164Y-6225090D01*
X6461896Y-6220656D01*
X6504122Y-6216601D01*
X6546848Y-6212923D01*
X6590079Y-6209620D01*
X6633821Y-6206693D01*
X6678078Y-6204140D01*
X6722856Y-6201959D01*
X11119362Y-3767607D02*
X11127092Y-3730316D01*
X8349666Y-3222290D02*
X8328676Y-3205338D01*
X8307067Y-3189290D01*
X8284845Y-3174148D01*
X8262015Y-3159915D01*
X8238582Y-3146593D01*
X8214552Y-3134183D01*
X8189931Y-3122689D01*
X8164722Y-3112112D01*
X8138933Y-3102454D01*
X8112567Y-3093718D01*
X8085631Y-3085906D01*
X8058130Y-3079020D01*
X8030068Y-3073062D01*
X8001453Y-3068034D01*
X7972288Y-3063939D01*
X7942579Y-3060779D01*
X8646400Y-5122168D02*
X9305148Y-4637904D01*
X5767943Y-2869084D02*
X5767395Y-2891311D01*
X5765796Y-2913432D01*
X5763156Y-2935411D01*
X5759483Y-2957213D01*
X5754787Y-2978801D01*
X5749077Y-3000139D01*
X5742363Y-3021191D01*
X5734654Y-3041922D01*
X5725960Y-3062294D01*
X5716289Y-3082271D01*
X5709304Y-3095353D01*
X7016299Y-5468916D02*
X6992530Y-5464431D01*
X6968853Y-5459107D01*
X6945655Y-5453054D01*
X6923318Y-5446381D01*
X6902228Y-5439198D01*
X6882769Y-5431615D01*
X6875528Y-5428494D01*
X6825066Y-6197432D02*
X6921765Y-6201959D01*
X7618555Y-6180702D02*
X7626142Y-6160897D01*
X7631766Y-6141326D01*
X7634570Y-6128201D01*
X5586856Y-3048883D02*
X5556460Y-3033972D01*
X5526329Y-3020010D01*
X5496397Y-3006979D01*
X5466596Y-2994859D01*
X5436858Y-2983633D01*
X5407117Y-2973282D01*
X5377304Y-2963788D01*
X5347352Y-2955131D01*
X5317193Y-2947294D01*
X5286761Y-2940257D01*
X5255986Y-2934003D01*
X5224803Y-2928513D01*
X5193143Y-2923768D01*
X5160939Y-2919749D01*
X5128124Y-2916439D01*
X5094630Y-2913819D01*
X5891915Y-7031505D02*
X5878044Y-7000499D01*
X5861813Y-6969711D01*
X5843235Y-6939153D01*
X5822324Y-6908840D01*
X5799096Y-6878784D01*
X5773563Y-6848999D01*
X5759937Y-6834212D01*
X5745741Y-6819498D01*
X5730975Y-6804858D01*
X5715643Y-6790294D01*
X5699745Y-6775808D01*
X5683284Y-6761400D01*
X5666261Y-6747074D01*
X5648678Y-6732830D01*
X5630537Y-6718671D01*
X5611840Y-6704597D01*
X5592588Y-6690611D01*
X5572784Y-6676714D01*
X5552428Y-6662908D01*
X5531523Y-6649194D01*
X5510071Y-6635574D01*
X5488073Y-6622051D01*
X5465531Y-6608624D01*
X5442447Y-6595297D01*
X5418823Y-6582070D01*
X5394660Y-6568946D01*
X11758033Y-3038250D02*
X11748979Y-3015650D01*
X11583031Y-3274342D02*
X11609928Y-3267559D01*
X11634254Y-3259737D01*
X11656127Y-3250778D01*
X11675667Y-3240584D01*
X11692995Y-3229056D01*
X11708230Y-3216098D01*
X11725494Y-3196424D01*
X11739534Y-3173799D01*
X11748120Y-3154754D01*
X11755171Y-3133821D01*
X7585415Y-5969947D02*
X7562654Y-5945361D01*
X4374595Y-7236157D02*
X4394149Y-7228583D01*
X4413108Y-7221291D01*
X4449323Y-7207522D01*
X4483406Y-7194800D01*
X4515522Y-7183072D01*
X4545836Y-7172288D01*
X4574514Y-7162394D01*
X4601721Y-7153341D01*
X4627622Y-7145076D01*
X4652382Y-7137547D01*
X4676167Y-7130704D01*
X4699142Y-7124494D01*
X4721471Y-7118867D01*
X4743321Y-7113770D01*
X4764857Y-7109152D01*
X4786244Y-7104962D01*
X4807646Y-7101147D01*
X8469430Y-3134753D02*
X8455577Y-3154843D01*
X8442332Y-3173075D01*
X8428266Y-3191810D01*
X8414397Y-3209742D01*
X8401745Y-3225566D01*
X8387275Y-3242488D01*
X8381535Y-3247538D01*
X5361502Y-6546042D02*
X5382131Y-6533799D01*
X5401751Y-6523206D01*
X5425227Y-6510853D01*
X5444306Y-6500986D01*
X5463822Y-6491032D01*
X5483032Y-6481378D01*
X5501193Y-6472410D01*
X5522494Y-6462191D01*
X6898288Y-2930743D02*
X6834049Y-2931137D01*
X7942579Y-3060779D02*
X7888700Y-3055948D01*
X2726223Y-3757322D02*
X2701061Y-3789269D01*
X2676679Y-3821230D01*
X2653073Y-3853207D01*
X2630245Y-3885204D01*
X2608191Y-3917222D01*
X2586912Y-3949265D01*
X2566405Y-3981335D01*
X2546671Y-4013434D01*
X2527708Y-4045565D01*
X2509515Y-4077731D01*
X2492091Y-4109934D01*
X2475435Y-4142177D01*
X2459545Y-4174463D01*
X2444422Y-4206793D01*
X2430063Y-4239171D01*
X2416468Y-4271600D01*
X2403635Y-4304081D01*
X2391564Y-4336617D01*
X2380253Y-4369212D01*
X2369702Y-4401867D01*
X2359909Y-4434585D01*
X2350874Y-4467369D01*
X2342595Y-4500221D01*
X2335071Y-4533144D01*
X2328301Y-4566141D01*
X2322284Y-4599214D01*
X2317019Y-4632365D01*
X2312505Y-4665598D01*
X2308742Y-4698915D01*
X2305727Y-4732318D01*
X2303459Y-4765810D01*
X2301939Y-4799394D01*
X7634570Y-6128201D02*
X7639545Y-6099159D01*
X5631039Y-2538563D02*
X5647022Y-2555358D01*
X5662090Y-2572848D01*
X5676225Y-2590993D01*
X5689412Y-2609755D01*
X5701635Y-2629096D01*
X5712879Y-2648977D01*
X5723127Y-2669360D01*
X5732364Y-2690207D01*
X5740574Y-2711480D01*
X5747740Y-2733140D01*
X5753847Y-2755148D01*
X5758880Y-2777468D01*
X5762821Y-2800059D01*
X5765656Y-2822885D01*
X5767369Y-2845906D01*
X5767943Y-2869084D01*
X7210250Y-5669239D02*
X7212131Y-5635706D01*
X7501904Y-5914655D02*
X7482180Y-5904812D01*
X7460597Y-5894278D01*
X7437447Y-5883185D01*
X7413018Y-5871668D01*
X7387600Y-5859859D01*
X7361483Y-5847891D01*
X7334956Y-5835897D01*
X7308309Y-5824011D01*
X7281831Y-5812365D01*
X7255812Y-5801094D01*
X7238864Y-5793853D01*
X11108537Y-2729490D02*
X11038106Y-2733802D01*
X10250736Y-4189804D02*
X10387499Y-4189908D01*
X2911801Y-3619413D02*
X2885944Y-3626052D01*
X5651221Y-3081324D02*
X5586856Y-3048883D01*
X7081666Y-5345450D02*
X7136582Y-5343140D01*
X8931416Y-3340479D02*
X8911102Y-3351933D01*
X8891584Y-3360640D01*
X8878372Y-3344907D01*
X8873243Y-3323158D01*
X8727515Y-3046965D02*
X8699403Y-3032900D01*
X6769827Y-2931532D02*
X6695245Y-2942573D01*
X7607497Y-6204179D02*
X7618555Y-6180702D01*
X2675010Y-7063712D02*
X2702495Y-7067613D01*
X11121224Y-3590886D02*
X11115869Y-3570171D01*
X11107721Y-3548941D01*
X11096870Y-3529203D01*
X11084715Y-3512246D01*
X11080730Y-3507339D01*
X7820238Y-6011247D02*
X7847115Y-6015505D01*
X2304444Y-4938233D02*
X2306904Y-4965962D01*
X2309918Y-4993703D01*
X2313473Y-5021412D01*
X2317560Y-5049040D01*
X2322166Y-5076542D01*
X2327281Y-5103870D01*
X2332893Y-5130978D01*
X2338992Y-5157819D01*
X2345567Y-5184347D01*
X2352606Y-5210513D01*
X2360098Y-5236273D01*
X2368032Y-5261579D01*
X2376398Y-5286384D01*
X2385183Y-5310641D01*
X2394378Y-5334304D01*
X2403970Y-5357327D01*
X5690462Y-3091488D02*
X5651221Y-3081324D01*
X8724169Y-5404409D02*
X8726316Y-5362967D01*
X11755171Y-3133821D02*
X11762293Y-3109181D01*
X11127092Y-3674362D02*
X11127057Y-3618425D01*
X5907959Y-2261666D02*
X5892689Y-2246771D01*
X5877091Y-2232292D01*
X5861174Y-2218235D01*
X5844948Y-2204602D01*
X5828421Y-2191397D01*
X5811601Y-2178624D01*
X5794498Y-2166287D01*
X5777120Y-2154389D01*
X5759476Y-2142934D01*
X5741575Y-2131925D01*
X5723426Y-2121366D01*
X5705037Y-2111261D01*
X5686417Y-2101614D01*
X5667576Y-2092427D01*
X5648521Y-2083705D01*
X5629263Y-2075452D01*
X5609808Y-2067670D01*
X5590167Y-2060365D01*
X5570348Y-2053538D01*
X5550361Y-2047194D01*
X5530212Y-2041337D01*
X5509913Y-2035970D01*
X5489470Y-2031097D01*
X5468894Y-2026722D01*
X5448192Y-2022847D01*
X5427375Y-2019478D01*
X5406450Y-2016617D01*
X5385426Y-2014268D01*
X5364312Y-2012434D01*
X5343117Y-2011120D01*
X5321850Y-2010330D01*
X5300520Y-2010065D01*
X2264630Y-6146199D02*
X2266098Y-6185407D01*
X2268713Y-6224859D01*
X2272433Y-6264464D01*
X2277216Y-6304129D01*
X2283021Y-6343762D01*
X2289808Y-6383270D01*
X2297534Y-6422561D01*
X2306158Y-6461542D01*
X2315638Y-6500120D01*
X2325934Y-6538204D01*
X2337005Y-6575701D01*
X2348807Y-6612518D01*
X2361301Y-6648563D01*
X2374445Y-6683744D01*
X2388198Y-6717967D01*
X2402518Y-6751140D01*
X2417363Y-6783172D01*
X2432693Y-6813969D01*
X2448466Y-6843439D01*
X2464641Y-6871490D01*
X2481176Y-6898028D01*
X2498030Y-6922962D01*
X2515161Y-6946199D01*
X2532529Y-6967647D01*
X2550091Y-6987213D01*
X2567807Y-7004804D01*
X2585636Y-7020329D01*
X2603534Y-7033694D01*
X2621463Y-7044807D01*
X2657242Y-7059909D01*
X2675010Y-7063712D01*
X7873724Y-6011247D02*
X7899838Y-6004751D01*
X7927626Y-5995786D01*
X7949395Y-5988128D01*
X7973347Y-5979291D01*
X7999130Y-5969421D01*
X8026390Y-5958658D01*
X8054775Y-5947147D01*
X8083931Y-5935030D01*
X8113506Y-5922451D01*
X8143146Y-5909553D01*
X8172498Y-5896479D01*
X8201211Y-5883372D01*
X8228930Y-5870375D01*
X8255302Y-5857632D01*
X8267874Y-5851400D01*
X4807646Y-7101147D02*
X4859431Y-7092343D01*
X10524263Y-4190012D02*
X10576048Y-4182675D01*
X8381535Y-3247538D02*
X8365467Y-3235358D01*
X8349666Y-3222290D01*
X7562654Y-5945361D02*
X7501904Y-5914655D01*
X2889004Y-6874501D02*
X2889649Y-6850196D01*
X2891530Y-6824313D01*
X2894565Y-6797250D01*
X2898671Y-6769401D01*
X2903768Y-6741163D01*
X2909771Y-6712932D01*
X2916600Y-6685105D01*
X2924172Y-6658077D01*
X2932405Y-6632244D01*
X2941218Y-6608003D01*
X2947374Y-6592922D01*
X2726348Y-7064088D02*
X2752549Y-7058480D01*
X2777016Y-7049735D01*
X2799565Y-7038068D01*
X2820012Y-7023694D01*
X2838172Y-7006826D01*
X2853861Y-6987680D01*
X2866896Y-6966469D01*
X2877092Y-6943409D01*
X2884265Y-6918713D01*
X2888232Y-6892596D01*
X2889004Y-6874501D01*
X6135236Y-3063053D02*
X6140693Y-3039164D01*
X6145464Y-3015145D01*
X6149546Y-2991009D01*
X6152939Y-2966771D01*
X6155640Y-2942446D01*
X6157647Y-2918050D01*
X6158958Y-2893596D01*
X6159572Y-2869100D01*
X11127092Y-3730316D02*
X11127092Y-3674362D01*
X5300517Y-2010049D02*
X5260560Y-2010978D01*
X5221031Y-2013718D01*
X5181972Y-2018230D01*
X5143428Y-2024478D01*
X5105443Y-2032423D01*
X5068059Y-2042027D01*
X5031320Y-2053253D01*
X4995271Y-2066062D01*
X4959954Y-2080416D01*
X4925412Y-2096279D01*
X4891691Y-2113611D01*
X4858832Y-2132375D01*
X4826881Y-2152533D01*
X4795879Y-2174048D01*
X4765871Y-2196880D01*
X4736901Y-2220993D01*
X4709011Y-2246348D01*
X4682247Y-2272908D01*
X4656650Y-2300635D01*
X4632264Y-2329490D01*
X4609134Y-2359436D01*
X4587303Y-2390435D01*
X4566813Y-2422449D01*
X4547710Y-2455440D01*
X4530036Y-2489370D01*
X4513835Y-2524202D01*
X4499150Y-2559898D01*
X4486026Y-2596419D01*
X4474505Y-2633727D01*
X4464632Y-2671786D01*
X4456449Y-2710556D01*
X4450000Y-2750000D01*
X11762293Y-3109181D02*
X11760163Y-3073715D01*
X11760163Y-3073715D02*
X11758033Y-3038250D01*
X2947374Y-6592922D02*
X2967863Y-6602105D01*
X2976183Y-6624827D01*
X7557161Y-6254514D02*
X7582338Y-6229356D01*
X2268889Y-5974221D02*
X2262304Y-6042594D01*
X8713558Y-5440823D02*
X8724169Y-5404409D01*
X10043094Y-4164788D02*
X10064857Y-4167779D01*
X10088544Y-4170918D01*
X10113007Y-4174061D01*
X10137096Y-4177064D01*
X10159664Y-4179785D01*
X10179561Y-4182078D01*
X10186515Y-4182843D01*
X2301939Y-4799394D02*
X2299380Y-4873994D01*
X8699403Y-3032900D02*
X8669968Y-3027944D01*
X11038106Y-2733802D02*
X11013640Y-2735520D01*
X10988882Y-2737703D01*
X10963845Y-2740344D01*
X10938543Y-2743442D01*
X10912990Y-2746990D01*
X10887200Y-2750986D01*
X10861186Y-2755424D01*
X10834962Y-2760301D01*
X10808542Y-2765612D01*
X10781939Y-2771353D01*
X10755167Y-2777520D01*
X10728241Y-2784109D01*
X10701172Y-2791116D01*
X10673976Y-2798535D01*
X10646666Y-2806364D01*
X10619256Y-2814598D01*
X10591759Y-2823233D01*
X10564189Y-2832264D01*
X10536560Y-2841687D01*
X10508886Y-2851498D01*
X10481179Y-2861693D01*
X10453455Y-2872268D01*
X10425726Y-2883218D01*
X10398007Y-2894540D01*
X10370310Y-2906228D01*
X10342650Y-2918279D01*
X10315041Y-2930689D01*
X10287496Y-2943454D01*
X10260028Y-2956568D01*
X10232653Y-2970028D01*
X10205382Y-2983831D01*
X10178231Y-2997970D01*
X7026749Y-5347739D02*
X7081666Y-5345450D01*
X5030927Y-7087835D02*
X5084018Y-7092792D01*
X7582338Y-6229356D02*
X7607497Y-6204179D01*
X3033175Y-3653465D02*
X3016131Y-3642982D01*
X2996620Y-3634231D01*
X2975454Y-3627494D01*
X2953447Y-3623051D01*
X2940807Y-3621650D01*
X11042257Y-3949660D02*
X11062513Y-3915590D01*
X3796746Y-7361808D02*
X3825775Y-7364344D01*
X3854408Y-7365787D01*
X3882932Y-7366074D01*
X3911635Y-7365142D01*
X3940803Y-7362929D01*
X3970726Y-7359373D01*
X4001688Y-7354410D01*
X4033979Y-7347979D01*
X4067885Y-7340017D01*
X4103694Y-7330461D01*
X4141693Y-7319248D01*
X4161603Y-7313002D01*
X4182169Y-7306318D01*
X4203426Y-7299188D01*
X4225410Y-7291606D01*
X4248157Y-7283562D01*
X4271703Y-7275050D01*
X4296084Y-7266061D01*
X4321336Y-7256588D01*
X4347494Y-7246622D01*
X4374595Y-7236157D01*
X5716355Y-7292989D02*
X5745790Y-7288176D01*
X6834049Y-2931137D02*
X6769827Y-2931532D01*
X6159572Y-2869100D02*
X6159307Y-2847770D01*
X6158516Y-2826503D01*
X6157202Y-2805308D01*
X6155368Y-2784194D01*
X6153018Y-2763171D01*
X6150157Y-2742245D01*
X6146787Y-2721428D01*
X6142912Y-2700727D01*
X6138536Y-2680150D01*
X6133663Y-2659708D01*
X6128295Y-2639408D01*
X6122438Y-2619260D01*
X6116094Y-2599272D01*
X6109267Y-2579454D01*
X6101961Y-2559813D01*
X6094179Y-2540359D01*
X6085925Y-2521100D01*
X6077203Y-2502046D01*
X6068016Y-2483205D01*
X6058368Y-2464585D01*
X6048263Y-2446197D01*
X6037704Y-2428048D01*
X6026694Y-2410147D01*
X6015239Y-2392503D01*
X6003340Y-2375125D01*
X5991003Y-2358022D01*
X5978230Y-2341203D01*
X5965025Y-2324676D01*
X5951391Y-2308450D01*
X5937334Y-2292534D01*
X5922855Y-2276936D01*
X5907959Y-2261666D01*
X2399640Y-5454151D02*
X2387301Y-5484130D01*
X2375453Y-5514703D01*
X2364111Y-5545813D01*
X2353287Y-5577408D01*
X2342996Y-5609431D01*
X2333251Y-5641827D01*
X2324066Y-5674541D01*
X2315455Y-5707519D01*
X2307432Y-5740706D01*
X2300011Y-5774045D01*
X2293205Y-5807483D01*
X2287028Y-5840964D01*
X2281494Y-5874434D01*
X2276617Y-5907836D01*
X2272411Y-5941117D01*
X2268889Y-5974221D01*
X7838973Y-3058756D02*
X7810832Y-3060666D01*
X7782754Y-3063227D01*
X7754786Y-3066429D01*
X7726975Y-3070264D01*
X7699369Y-3074725D01*
X7672017Y-3079802D01*
X7644966Y-3085487D01*
X7618263Y-3091772D01*
X7591958Y-3098648D01*
X7566097Y-3106108D01*
X7549126Y-3111400D01*
X6921765Y-6201959D02*
X6955122Y-6203704D01*
X6987894Y-6205793D01*
X7020053Y-6208222D01*
X7051574Y-6210987D01*
X7082432Y-6214085D01*
X7112601Y-6217512D01*
X7142054Y-6221263D01*
X7170766Y-6225336D01*
X7198711Y-6229727D01*
X7225863Y-6234431D01*
X7252198Y-6239444D01*
X7277687Y-6244764D01*
X7302307Y-6250386D01*
X7326031Y-6256306D01*
X7348833Y-6262520D01*
X7370688Y-6269026D01*
X8267874Y-5851400D02*
X8291951Y-5839178D01*
X8315334Y-5826953D01*
X8338027Y-5814721D01*
X8360034Y-5802478D01*
X8381359Y-5790222D01*
X8402006Y-5777948D01*
X8421978Y-5765653D01*
X8441280Y-5753333D01*
X8459915Y-5740984D01*
X8477888Y-5728603D01*
X8495201Y-5716187D01*
X8511860Y-5703731D01*
X8527868Y-5691233D01*
X8557947Y-5666093D01*
X8585470Y-5640739D01*
X8610467Y-5615140D01*
X8632970Y-5589270D01*
X8653011Y-5563098D01*
X8670620Y-5536596D01*
X8685829Y-5509735D01*
X8698670Y-5482486D01*
X8709173Y-5454821D01*
X8713558Y-5440823D01*
X7183625Y-5763093D02*
X7191372Y-5743310D01*
X7197027Y-5729721D01*
X5709304Y-3095353D02*
X5690462Y-3091488D01*
X8728498Y-5321542D02*
X8722450Y-5288385D01*
X8668356Y-5154950D02*
X8646400Y-5122168D01*
X5651686Y-7279801D02*
X5684038Y-7286404D01*
X7659157Y-5848644D02*
X7667851Y-5875326D01*
X7677695Y-5899464D01*
X7688750Y-5921121D01*
X7701076Y-5940356D01*
X7714735Y-5957232D01*
X7729787Y-5971810D01*
X7746293Y-5984150D01*
X7764314Y-5994315D01*
X7783911Y-6002364D01*
X7805144Y-6008360D01*
X7820238Y-6011247D01*
X7406136Y-3173295D02*
X7385149Y-3184009D01*
X7366416Y-3193819D01*
X7345576Y-3204899D01*
X7323043Y-3217023D01*
X7299229Y-3229966D01*
X7274547Y-3243503D01*
X7249409Y-3257409D01*
X7224229Y-3271458D01*
X7199419Y-3285424D01*
X7175391Y-3299082D01*
X7167628Y-3303527D01*
X3049799Y-3665472D02*
X3033175Y-3653465D01*
X5094630Y-2913819D02*
X5052149Y-2910973D01*
X5300517Y-2401659D02*
X5323696Y-2402233D01*
X5346717Y-2403945D01*
X5369542Y-2406780D01*
X5392134Y-2410722D01*
X5414453Y-2415754D01*
X5436462Y-2421862D01*
X5458122Y-2429028D01*
X5479394Y-2437237D01*
X5500242Y-2446474D01*
X5520625Y-2456722D01*
X5540506Y-2467966D01*
X5559847Y-2480190D01*
X5578609Y-2493377D01*
X5596754Y-2507512D01*
X5614243Y-2522579D01*
X5631039Y-2538563D01*
X7238864Y-5793853D02*
X7181603Y-5769553D01*
X6988581Y-3293435D02*
X7015767Y-3275361D01*
X7038437Y-3254691D01*
X7056667Y-3231863D01*
X7070536Y-3207314D01*
X7080122Y-3181484D01*
X7085503Y-3154809D01*
X7086758Y-3127727D01*
X7083963Y-3100677D01*
X7077198Y-3074097D01*
X7066540Y-3048423D01*
X7052068Y-3024095D01*
X7033859Y-3001549D01*
X7011991Y-2981224D01*
X6986543Y-2963558D01*
X6957593Y-2948989D01*
X6925218Y-2937954D01*
X2976183Y-6624827D02*
X2990845Y-6663078D01*
X3006479Y-6700585D01*
X3023058Y-6737322D01*
X3040557Y-6773267D01*
X3058949Y-6808396D01*
X3078207Y-6842685D01*
X3098306Y-6876110D01*
X3119218Y-6908649D01*
X3140918Y-6940276D01*
X3163380Y-6970969D01*
X3186575Y-7000703D01*
X3210480Y-7029456D01*
X3235066Y-7057203D01*
X3260308Y-7083921D01*
X3286180Y-7109586D01*
X3312654Y-7134174D01*
X3339706Y-7157662D01*
X3367307Y-7180025D01*
X3395432Y-7201242D01*
X3424055Y-7221287D01*
X3453149Y-7240136D01*
X3482688Y-7257768D01*
X3512646Y-7274157D01*
X3542995Y-7289279D01*
X3573711Y-7303112D01*
X3604766Y-7315632D01*
X3636133Y-7326815D01*
X3667788Y-7336636D01*
X3699703Y-7345074D01*
X3731852Y-7352103D01*
X3764208Y-7357701D01*
X3796746Y-7361843D01*
X7549126Y-3111400D02*
X7495445Y-3128650D01*
X7635143Y-6070690D02*
X7630733Y-6049821D01*
X7624101Y-6029959D01*
X7615206Y-6011019D01*
X7604006Y-5992919D01*
X7590459Y-5975575D01*
X7585415Y-5969947D01*
X7197027Y-5729721D02*
X7208408Y-5702772D01*
X10031125Y-3028516D02*
X9998783Y-3028409D01*
X9966193Y-3028971D01*
X9933368Y-3030199D01*
X9900318Y-3032089D01*
X9867056Y-3034638D01*
X9833593Y-3037843D01*
X9799941Y-3041700D01*
X9766111Y-3046207D01*
X9732115Y-3051359D01*
X9697966Y-3057154D01*
X9663674Y-3063589D01*
X9629251Y-3070659D01*
X9594710Y-3078361D01*
X9560061Y-3086693D01*
X9525317Y-3095651D01*
X9490490Y-3105231D01*
X9455590Y-3115430D01*
X9420630Y-3126246D01*
X9385621Y-3137674D01*
X9350576Y-3149712D01*
X9315505Y-3162355D01*
X9280421Y-3175601D01*
X9245335Y-3189447D01*
X9210259Y-3203888D01*
X9175205Y-3218922D01*
X9140184Y-3234546D01*
X9105208Y-3250756D01*
X9070289Y-3267548D01*
X9035439Y-3284920D01*
X9000669Y-3302868D01*
X8965991Y-3321389D01*
X8931416Y-3340479D01*
X5394660Y-6568946D02*
X5376197Y-6558321D01*
X5361502Y-6546042D01*
X7888700Y-3055948D02*
X7838973Y-3058756D01*
X2940807Y-3621650D02*
X2911801Y-3619413D01*
X11080730Y-3507339D02*
X11068486Y-3491437D01*
X11065627Y-3485938D01*
X10913796Y-4067993D02*
X10946953Y-4046484D01*
X11065627Y-3485938D02*
X11086957Y-3469256D01*
X11107330Y-3456532D01*
X11131998Y-3442784D01*
X11160422Y-3428232D01*
X11192063Y-3413097D01*
X11226383Y-3397597D01*
X11262843Y-3381955D01*
X11281708Y-3374149D01*
X11300905Y-3366389D01*
X11320367Y-3358704D01*
X11340028Y-3351121D01*
X11359820Y-3343667D01*
X11379676Y-3336371D01*
X11399528Y-3329259D01*
X11419309Y-3322358D01*
X11438952Y-3315698D01*
X11458388Y-3309304D01*
X11477552Y-3303206D01*
X11514792Y-3292002D01*
X11550131Y-3282307D01*
X11583031Y-3274342D01*
X11171935Y-2733587D02*
X11108537Y-2729490D01*
X9963896Y-4153658D02*
X10043094Y-4164788D01*
X7167628Y-3303527D02*
X7141528Y-3318460D01*
X7115844Y-3333073D01*
X7090601Y-3347354D01*
X7065823Y-3361292D01*
X7041535Y-3374872D01*
X7017762Y-3388083D01*
X6994528Y-3400913D01*
X6971858Y-3413348D01*
X6949777Y-3425376D01*
X6928310Y-3436984D01*
X6907480Y-3448161D01*
X6887313Y-3458893D01*
X6867833Y-3469168D01*
X6849065Y-3478973D01*
X6831035Y-3488296D01*
X6797282Y-3505445D01*
X6766772Y-3520515D01*
X6739702Y-3533406D01*
X6716271Y-3544017D01*
X6696674Y-3552247D01*
X6674903Y-3559910D01*
X6661139Y-3560860D01*
X8612707Y-3027783D02*
X8590876Y-3032601D01*
X8570939Y-3039286D01*
X8552510Y-3048125D01*
X8535201Y-3059408D01*
X8518625Y-3073424D01*
X8502396Y-3090460D01*
X8486127Y-3110807D01*
X8473665Y-3128413D01*
X8469430Y-3134753D01*
X8640532Y-3022951D02*
X8612707Y-3027783D01*
X2262304Y-6042594D02*
X2264630Y-6146199D01*
X5684038Y-7286404D02*
X5716355Y-7292989D01*
X8755608Y-3060994D02*
X8727515Y-3046965D01*
X8669968Y-3027944D02*
X8640532Y-3022951D01*
X5899678Y-7153363D02*
X5906997Y-7126415D01*
X4450000Y-2750000D02*
X4403277Y-2758206D01*
X4356833Y-2767610D01*
X4310669Y-2778210D01*
X4264787Y-2790007D01*
X4219188Y-2802998D01*
X4173873Y-2817185D01*
X4128845Y-2832566D01*
X4084104Y-2849141D01*
X4039652Y-2866908D01*
X3995490Y-2885869D01*
X3951620Y-2906021D01*
X3908044Y-2927364D01*
X3864762Y-2949898D01*
X3821777Y-2973622D01*
X3779090Y-2998535D01*
X3736702Y-3024637D01*
X3694615Y-3051927D01*
X3652830Y-3080405D01*
X3611349Y-3110070D01*
X3570173Y-3140921D01*
X3529303Y-3172958D01*
X3488742Y-3206180D01*
X3448490Y-3240587D01*
X3408550Y-3276178D01*
X3368922Y-3312952D01*
X3329608Y-3350908D01*
X3290610Y-3390047D01*
X3251929Y-3430367D01*
X3213566Y-3471869D01*
X3175523Y-3514550D01*
X3137801Y-3558412D01*
X3100403Y-3603452D01*
X4855477Y-2733805D02*
X4868005Y-2697722D01*
X4883231Y-2663191D01*
X4901014Y-2630315D01*
X4921211Y-2599202D01*
X4943682Y-2569956D01*
X4968286Y-2542683D01*
X4994880Y-2517488D01*
X5023325Y-2494477D01*
X5053478Y-2473755D01*
X5085198Y-2455428D01*
X5118344Y-2439600D01*
X5152775Y-2426379D01*
X5188349Y-2415868D01*
X5224925Y-2408174D01*
X5262361Y-2403402D01*
X5300517Y-2401658D01*
X6875528Y-5428494D02*
X6852713Y-5418366D01*
X5052149Y-2898859D02*
X5050376Y-2874080D01*
X5045074Y-2851187D01*
X5036271Y-2830192D01*
X5023996Y-2811111D01*
X5008276Y-2793957D01*
X4989139Y-2778743D01*
X4966613Y-2765483D01*
X4940727Y-2754191D01*
X4921615Y-2747764D01*
X4901031Y-2742220D01*
X4878982Y-2737566D01*
X4855477Y-2733805D01*
X5084018Y-7092792D02*
X5119036Y-7096557D01*
X5154036Y-7101278D01*
X5188972Y-7106938D01*
X5223796Y-7113523D01*
X5258463Y-7121019D01*
X5292926Y-7129411D01*
X5327139Y-7138685D01*
X5361054Y-7148825D01*
X5394626Y-7159818D01*
X5427807Y-7171649D01*
X5460552Y-7184302D01*
X5492813Y-7197764D01*
X5524545Y-7212019D01*
X5555700Y-7227054D01*
X5586232Y-7242853D01*
X5616095Y-7259402D01*
X2299380Y-4873994D02*
X2304444Y-4938233D01*
X7495445Y-3128650D02*
X7406136Y-3173295D01*
X2702495Y-7067613D02*
X2726348Y-7064088D01*
X10946953Y-4046484D02*
X10994605Y-3998063D01*
X5904815Y-7092130D02*
X5902651Y-7057845D01*
X8726316Y-5362967D02*
X8728498Y-5321542D01*
D11*
X3435000Y-4360000D02*
X3465000Y-4390000D01*
X3465000Y-4360000D02*
X3435000Y-4390000D01*
X3635000Y-5660000D02*
X3665000Y-5690000D01*
X3665000Y-5660000D02*
X3635000Y-5690000D01*
X4494500Y-4935000D02*
X4524500Y-4965000D01*
X4524500Y-4935000D02*
X4494500Y-4965000D01*
X4494500Y-4935000D02*
X4524500Y-4965000D01*
X4524500Y-4935000D02*
X4494500Y-4965000D01*
X4494500Y-4935000D02*
X4524500Y-4965000D01*
X4524500Y-4935000D02*
X4494500Y-4965000D01*
X5285000Y-4110000D02*
X5315000Y-4140000D01*
X5315000Y-4110000D02*
X5285000Y-4140000D01*
X5485000Y-5510000D02*
X5515000Y-5540000D01*
X5515000Y-5510000D02*
X5485000Y-5540000D01*
X6675000Y-4300000D02*
G75*
G02*
X6625000Y-4300000I-25000J0D01*
G01*
X6625000Y-4300000D02*
G75*
G02*
X6675000Y-4300000I25000J0D01*
G01*
X6675000Y-4600000D02*
G75*
G02*
X6625000Y-4600000I-25000J0D01*
G01*
X6625000Y-4600000D02*
G75*
G02*
X6675000Y-4600000I25000J0D01*
G01*
D10*
X2513081Y-7699624D02*
X2513081Y-7499624D01*
X2513081Y-7499624D02*
X2560700Y-7499624D01*
X2560700Y-7499624D02*
X2589271Y-7509148D01*
X2589271Y-7509148D02*
X2608319Y-7528195D01*
X2608319Y-7528195D02*
X2617843Y-7547243D01*
X2617843Y-7547243D02*
X2627366Y-7585338D01*
X2627366Y-7585338D02*
X2627366Y-7613909D01*
X2627366Y-7613909D02*
X2617843Y-7652005D01*
X2617843Y-7652005D02*
X2608319Y-7671052D01*
X2608319Y-7671052D02*
X2589271Y-7690100D01*
X2589271Y-7690100D02*
X2560700Y-7699624D01*
X2560700Y-7699624D02*
X2513081Y-7699624D01*
X2713081Y-7699624D02*
X2713081Y-7566290D01*
X2713081Y-7604386D02*
X2722605Y-7585338D01*
X2722605Y-7585338D02*
X2732128Y-7575814D01*
X2732128Y-7575814D02*
X2751176Y-7566290D01*
X2751176Y-7566290D02*
X2770224Y-7566290D01*
X2836890Y-7699624D02*
X2836890Y-7566290D01*
X2836890Y-7499624D02*
X2827366Y-7509148D01*
X2827366Y-7509148D02*
X2836890Y-7518671D01*
X2836890Y-7518671D02*
X2846414Y-7509148D01*
X2846414Y-7509148D02*
X2836890Y-7499624D01*
X2836890Y-7499624D02*
X2836890Y-7518671D01*
X2960700Y-7699624D02*
X2941652Y-7690100D01*
X2941652Y-7690100D02*
X2932128Y-7671052D01*
X2932128Y-7671052D02*
X2932128Y-7499624D01*
X3065462Y-7699624D02*
X3046414Y-7690100D01*
X3046414Y-7690100D02*
X3036890Y-7671052D01*
X3036890Y-7671052D02*
X3036890Y-7499624D01*
X3294033Y-7699624D02*
X3294033Y-7499624D01*
X3294033Y-7499624D02*
X3360700Y-7642481D01*
X3360700Y-7642481D02*
X3427366Y-7499624D01*
X3427366Y-7499624D02*
X3427366Y-7699624D01*
X3608319Y-7699624D02*
X3608319Y-7594862D01*
X3608319Y-7594862D02*
X3598795Y-7575814D01*
X3598795Y-7575814D02*
X3579747Y-7566290D01*
X3579747Y-7566290D02*
X3541652Y-7566290D01*
X3541652Y-7566290D02*
X3522604Y-7575814D01*
X3608319Y-7690100D02*
X3589271Y-7699624D01*
X3589271Y-7699624D02*
X3541652Y-7699624D01*
X3541652Y-7699624D02*
X3522604Y-7690100D01*
X3522604Y-7690100D02*
X3513081Y-7671052D01*
X3513081Y-7671052D02*
X3513081Y-7652005D01*
X3513081Y-7652005D02*
X3522604Y-7632957D01*
X3522604Y-7632957D02*
X3541652Y-7623433D01*
X3541652Y-7623433D02*
X3589271Y-7623433D01*
X3589271Y-7623433D02*
X3608319Y-7613909D01*
X3703557Y-7566290D02*
X3703557Y-7766290D01*
X3703557Y-7575814D02*
X3722604Y-7566290D01*
X3722604Y-7566290D02*
X3760700Y-7566290D01*
X3760700Y-7566290D02*
X3779747Y-7575814D01*
X3779747Y-7575814D02*
X3789271Y-7585338D01*
X3789271Y-7585338D02*
X3798795Y-7604386D01*
X3798795Y-7604386D02*
X3798795Y-7661528D01*
X3798795Y-7661528D02*
X3789271Y-7680576D01*
X3789271Y-7680576D02*
X3779747Y-7690100D01*
X3779747Y-7690100D02*
X3760700Y-7699624D01*
X3760700Y-7699624D02*
X3722604Y-7699624D01*
X3722604Y-7699624D02*
X3703557Y-7690100D01*
X3884509Y-7680576D02*
X3894033Y-7690100D01*
X3894033Y-7690100D02*
X3884509Y-7699624D01*
X3884509Y-7699624D02*
X3874985Y-7690100D01*
X3874985Y-7690100D02*
X3884509Y-7680576D01*
X3884509Y-7680576D02*
X3884509Y-7699624D01*
X3884509Y-7575814D02*
X3894033Y-7585338D01*
X3894033Y-7585338D02*
X3884509Y-7594862D01*
X3884509Y-7594862D02*
X3874985Y-7585338D01*
X3874985Y-7585338D02*
X3884509Y-7575814D01*
X3884509Y-7575814D02*
X3884509Y-7594862D01*
D11*
X2222304Y-8013140D02*
X2252304Y-8043140D01*
X2252304Y-8013140D02*
X2222304Y-8043140D01*
D10*
X2551176Y-7919624D02*
X2570224Y-7919624D01*
X2570224Y-7919624D02*
X2589271Y-7929148D01*
X2589271Y-7929148D02*
X2598795Y-7938671D01*
X2598795Y-7938671D02*
X2608319Y-7957719D01*
X2608319Y-7957719D02*
X2617843Y-7995814D01*
X2617843Y-7995814D02*
X2617843Y-8043433D01*
X2617843Y-8043433D02*
X2608319Y-8081528D01*
X2608319Y-8081528D02*
X2598795Y-8100576D01*
X2598795Y-8100576D02*
X2589271Y-8110100D01*
X2589271Y-8110100D02*
X2570224Y-8119624D01*
X2570224Y-8119624D02*
X2551176Y-8119624D01*
X2551176Y-8119624D02*
X2532128Y-8110100D01*
X2532128Y-8110100D02*
X2522605Y-8100576D01*
X2522605Y-8100576D02*
X2513081Y-8081528D01*
X2513081Y-8081528D02*
X2503557Y-8043433D01*
X2503557Y-8043433D02*
X2503557Y-7995814D01*
X2503557Y-7995814D02*
X2513081Y-7957719D01*
X2513081Y-7957719D02*
X2522605Y-7938671D01*
X2522605Y-7938671D02*
X2532128Y-7929148D01*
X2532128Y-7929148D02*
X2551176Y-7919624D01*
X2703557Y-8100576D02*
X2713081Y-8110100D01*
X2713081Y-8110100D02*
X2703557Y-8119624D01*
X2703557Y-8119624D02*
X2694033Y-8110100D01*
X2694033Y-8110100D02*
X2703557Y-8100576D01*
X2703557Y-8100576D02*
X2703557Y-8119624D01*
X2779747Y-7919624D02*
X2903557Y-7919624D01*
X2903557Y-7919624D02*
X2836890Y-7995814D01*
X2836890Y-7995814D02*
X2865462Y-7995814D01*
X2865462Y-7995814D02*
X2884509Y-8005338D01*
X2884509Y-8005338D02*
X2894033Y-8014862D01*
X2894033Y-8014862D02*
X2903557Y-8033909D01*
X2903557Y-8033909D02*
X2903557Y-8081528D01*
X2903557Y-8081528D02*
X2894033Y-8100576D01*
X2894033Y-8100576D02*
X2884509Y-8110100D01*
X2884509Y-8110100D02*
X2865462Y-8119624D01*
X2865462Y-8119624D02*
X2808319Y-8119624D01*
X2808319Y-8119624D02*
X2789271Y-8110100D01*
X2789271Y-8110100D02*
X2779747Y-8100576D01*
X3027366Y-7919624D02*
X3046414Y-7919624D01*
X3046414Y-7919624D02*
X3065462Y-7929148D01*
X3065462Y-7929148D02*
X3074985Y-7938671D01*
X3074985Y-7938671D02*
X3084509Y-7957719D01*
X3084509Y-7957719D02*
X3094033Y-7995814D01*
X3094033Y-7995814D02*
X3094033Y-8043433D01*
X3094033Y-8043433D02*
X3084509Y-8081528D01*
X3084509Y-8081528D02*
X3074985Y-8100576D01*
X3074985Y-8100576D02*
X3065462Y-8110100D01*
X3065462Y-8110100D02*
X3046414Y-8119624D01*
X3046414Y-8119624D02*
X3027366Y-8119624D01*
X3027366Y-8119624D02*
X3008319Y-8110100D01*
X3008319Y-8110100D02*
X2998795Y-8100576D01*
X2998795Y-8100576D02*
X2989271Y-8081528D01*
X2989271Y-8081528D02*
X2979747Y-8043433D01*
X2979747Y-8043433D02*
X2979747Y-7995814D01*
X2979747Y-7995814D02*
X2989271Y-7957719D01*
X2989271Y-7957719D02*
X2998795Y-7938671D01*
X2998795Y-7938671D02*
X3008319Y-7929148D01*
X3008319Y-7929148D02*
X3027366Y-7919624D01*
X3217843Y-7919624D02*
X3236890Y-7919624D01*
X3236890Y-7919624D02*
X3255938Y-7929148D01*
X3255938Y-7929148D02*
X3265462Y-7938671D01*
X3265462Y-7938671D02*
X3274985Y-7957719D01*
X3274985Y-7957719D02*
X3284509Y-7995814D01*
X3284509Y-7995814D02*
X3284509Y-8043433D01*
X3284509Y-8043433D02*
X3274985Y-8081528D01*
X3274985Y-8081528D02*
X3265462Y-8100576D01*
X3265462Y-8100576D02*
X3255938Y-8110100D01*
X3255938Y-8110100D02*
X3236890Y-8119624D01*
X3236890Y-8119624D02*
X3217843Y-8119624D01*
X3217843Y-8119624D02*
X3198795Y-8110100D01*
X3198795Y-8110100D02*
X3189271Y-8100576D01*
X3189271Y-8100576D02*
X3179747Y-8081528D01*
X3179747Y-8081528D02*
X3170224Y-8043433D01*
X3170224Y-8043433D02*
X3170224Y-7995814D01*
X3170224Y-7995814D02*
X3179747Y-7957719D01*
X3179747Y-7957719D02*
X3189271Y-7938671D01*
X3189271Y-7938671D02*
X3198795Y-7929148D01*
X3198795Y-7929148D02*
X3217843Y-7919624D01*
X3370224Y-8119624D02*
X3370224Y-7986290D01*
X3370224Y-8005338D02*
X3379747Y-7995814D01*
X3379747Y-7995814D02*
X3398795Y-7986290D01*
X3398795Y-7986290D02*
X3427366Y-7986290D01*
X3427366Y-7986290D02*
X3446414Y-7995814D01*
X3446414Y-7995814D02*
X3455938Y-8014862D01*
X3455938Y-8014862D02*
X3455938Y-8119624D01*
X3455938Y-8014862D02*
X3465462Y-7995814D01*
X3465462Y-7995814D02*
X3484509Y-7986290D01*
X3484509Y-7986290D02*
X3513081Y-7986290D01*
X3513081Y-7986290D02*
X3532128Y-7995814D01*
X3532128Y-7995814D02*
X3541652Y-8014862D01*
X3541652Y-8014862D02*
X3541652Y-8119624D01*
X3636890Y-8119624D02*
X3636890Y-7986290D01*
X3636890Y-8005338D02*
X3646414Y-7995814D01*
X3646414Y-7995814D02*
X3665462Y-7986290D01*
X3665462Y-7986290D02*
X3694033Y-7986290D01*
X3694033Y-7986290D02*
X3713081Y-7995814D01*
X3713081Y-7995814D02*
X3722605Y-8014862D01*
X3722605Y-8014862D02*
X3722605Y-8119624D01*
X3722605Y-8014862D02*
X3732128Y-7995814D01*
X3732128Y-7995814D02*
X3751176Y-7986290D01*
X3751176Y-7986290D02*
X3779747Y-7986290D01*
X3779747Y-7986290D02*
X3798795Y-7995814D01*
X3798795Y-7995814D02*
X3808319Y-8014862D01*
X3808319Y-8014862D02*
X3808319Y-8119624D01*
X4198795Y-7910100D02*
X4027367Y-8167243D01*
X4455938Y-7919624D02*
X4474986Y-7919624D01*
X4474986Y-7919624D02*
X4494033Y-7929148D01*
X4494033Y-7929148D02*
X4503557Y-7938671D01*
X4503557Y-7938671D02*
X4513081Y-7957719D01*
X4513081Y-7957719D02*
X4522605Y-7995814D01*
X4522605Y-7995814D02*
X4522605Y-8043433D01*
X4522605Y-8043433D02*
X4513081Y-8081528D01*
X4513081Y-8081528D02*
X4503557Y-8100576D01*
X4503557Y-8100576D02*
X4494033Y-8110100D01*
X4494033Y-8110100D02*
X4474986Y-8119624D01*
X4474986Y-8119624D02*
X4455938Y-8119624D01*
X4455938Y-8119624D02*
X4436890Y-8110100D01*
X4436890Y-8110100D02*
X4427367Y-8100576D01*
X4427367Y-8100576D02*
X4417843Y-8081528D01*
X4417843Y-8081528D02*
X4408319Y-8043433D01*
X4408319Y-8043433D02*
X4408319Y-7995814D01*
X4408319Y-7995814D02*
X4417843Y-7957719D01*
X4417843Y-7957719D02*
X4427367Y-7938671D01*
X4427367Y-7938671D02*
X4436890Y-7929148D01*
X4436890Y-7929148D02*
X4455938Y-7919624D01*
X4608319Y-8100576D02*
X4617843Y-8110100D01*
X4617843Y-8110100D02*
X4608319Y-8119624D01*
X4608319Y-8119624D02*
X4598795Y-8110100D01*
X4598795Y-8110100D02*
X4608319Y-8100576D01*
X4608319Y-8100576D02*
X4608319Y-8119624D01*
X4741652Y-7919624D02*
X4760700Y-7919624D01*
X4760700Y-7919624D02*
X4779748Y-7929148D01*
X4779748Y-7929148D02*
X4789271Y-7938671D01*
X4789271Y-7938671D02*
X4798795Y-7957719D01*
X4798795Y-7957719D02*
X4808319Y-7995814D01*
X4808319Y-7995814D02*
X4808319Y-8043433D01*
X4808319Y-8043433D02*
X4798795Y-8081528D01*
X4798795Y-8081528D02*
X4789271Y-8100576D01*
X4789271Y-8100576D02*
X4779748Y-8110100D01*
X4779748Y-8110100D02*
X4760700Y-8119624D01*
X4760700Y-8119624D02*
X4741652Y-8119624D01*
X4741652Y-8119624D02*
X4722605Y-8110100D01*
X4722605Y-8110100D02*
X4713081Y-8100576D01*
X4713081Y-8100576D02*
X4703557Y-8081528D01*
X4703557Y-8081528D02*
X4694033Y-8043433D01*
X4694033Y-8043433D02*
X4694033Y-7995814D01*
X4694033Y-7995814D02*
X4703557Y-7957719D01*
X4703557Y-7957719D02*
X4713081Y-7938671D01*
X4713081Y-7938671D02*
X4722605Y-7929148D01*
X4722605Y-7929148D02*
X4741652Y-7919624D01*
X4998795Y-8119624D02*
X4884510Y-8119624D01*
X4941652Y-8119624D02*
X4941652Y-7919624D01*
X4941652Y-7919624D02*
X4922605Y-7948195D01*
X4922605Y-7948195D02*
X4903557Y-7967243D01*
X4903557Y-7967243D02*
X4884510Y-7976767D01*
X5189271Y-8119624D02*
X5074986Y-8119624D01*
X5132129Y-8119624D02*
X5132129Y-7919624D01*
X5132129Y-7919624D02*
X5113081Y-7948195D01*
X5113081Y-7948195D02*
X5094033Y-7967243D01*
X5094033Y-7967243D02*
X5074986Y-7976767D01*
X5303557Y-8005338D02*
X5284510Y-7995814D01*
X5284510Y-7995814D02*
X5274986Y-7986290D01*
X5274986Y-7986290D02*
X5265462Y-7967243D01*
X5265462Y-7967243D02*
X5265462Y-7957719D01*
X5265462Y-7957719D02*
X5274986Y-7938671D01*
X5274986Y-7938671D02*
X5284510Y-7929148D01*
X5284510Y-7929148D02*
X5303557Y-7919624D01*
X5303557Y-7919624D02*
X5341652Y-7919624D01*
X5341652Y-7919624D02*
X5360700Y-7929148D01*
X5360700Y-7929148D02*
X5370224Y-7938671D01*
X5370224Y-7938671D02*
X5379748Y-7957719D01*
X5379748Y-7957719D02*
X5379748Y-7967243D01*
X5379748Y-7967243D02*
X5370224Y-7986290D01*
X5370224Y-7986290D02*
X5360700Y-7995814D01*
X5360700Y-7995814D02*
X5341652Y-8005338D01*
X5341652Y-8005338D02*
X5303557Y-8005338D01*
X5303557Y-8005338D02*
X5284510Y-8014862D01*
X5284510Y-8014862D02*
X5274986Y-8024386D01*
X5274986Y-8024386D02*
X5265462Y-8043433D01*
X5265462Y-8043433D02*
X5265462Y-8081528D01*
X5265462Y-8081528D02*
X5274986Y-8100576D01*
X5274986Y-8100576D02*
X5284510Y-8110100D01*
X5284510Y-8110100D02*
X5303557Y-8119624D01*
X5303557Y-8119624D02*
X5341652Y-8119624D01*
X5341652Y-8119624D02*
X5360700Y-8110100D01*
X5360700Y-8110100D02*
X5370224Y-8100576D01*
X5370224Y-8100576D02*
X5379748Y-8081528D01*
X5379748Y-8081528D02*
X5379748Y-8043433D01*
X5379748Y-8043433D02*
X5370224Y-8024386D01*
X5370224Y-8024386D02*
X5360700Y-8014862D01*
X5360700Y-8014862D02*
X5341652Y-8005338D01*
X5455938Y-7919624D02*
X5455938Y-7957719D01*
X5532129Y-7919624D02*
X5532129Y-7957719D01*
X5827367Y-8195814D02*
X5817843Y-8186290D01*
X5817843Y-8186290D02*
X5798795Y-8157719D01*
X5798795Y-8157719D02*
X5789271Y-8138671D01*
X5789271Y-8138671D02*
X5779748Y-8110100D01*
X5779748Y-8110100D02*
X5770224Y-8062481D01*
X5770224Y-8062481D02*
X5770224Y-8024386D01*
X5770224Y-8024386D02*
X5779748Y-7976767D01*
X5779748Y-7976767D02*
X5789271Y-7948195D01*
X5789271Y-7948195D02*
X5798795Y-7929148D01*
X5798795Y-7929148D02*
X5817843Y-7900576D01*
X5817843Y-7900576D02*
X5827367Y-7891052D01*
X5884510Y-7919624D02*
X6017843Y-7919624D01*
X6017843Y-7919624D02*
X5932129Y-8119624D01*
X6246414Y-8119624D02*
X6246414Y-7919624D01*
X6332129Y-8119624D02*
X6332129Y-8014862D01*
X6332129Y-8014862D02*
X6322605Y-7995814D01*
X6322605Y-7995814D02*
X6303557Y-7986290D01*
X6303557Y-7986290D02*
X6274986Y-7986290D01*
X6274986Y-7986290D02*
X6255938Y-7995814D01*
X6255938Y-7995814D02*
X6246414Y-8005338D01*
X6455938Y-8119624D02*
X6436891Y-8110100D01*
X6436891Y-8110100D02*
X6427367Y-8100576D01*
X6427367Y-8100576D02*
X6417843Y-8081528D01*
X6417843Y-8081528D02*
X6417843Y-8024386D01*
X6417843Y-8024386D02*
X6427367Y-8005338D01*
X6427367Y-8005338D02*
X6436891Y-7995814D01*
X6436891Y-7995814D02*
X6455938Y-7986290D01*
X6455938Y-7986290D02*
X6484510Y-7986290D01*
X6484510Y-7986290D02*
X6503557Y-7995814D01*
X6503557Y-7995814D02*
X6513081Y-8005338D01*
X6513081Y-8005338D02*
X6522605Y-8024386D01*
X6522605Y-8024386D02*
X6522605Y-8081528D01*
X6522605Y-8081528D02*
X6513081Y-8100576D01*
X6513081Y-8100576D02*
X6503557Y-8110100D01*
X6503557Y-8110100D02*
X6484510Y-8119624D01*
X6484510Y-8119624D02*
X6455938Y-8119624D01*
X6636891Y-8119624D02*
X6617843Y-8110100D01*
X6617843Y-8110100D02*
X6608319Y-8091052D01*
X6608319Y-8091052D02*
X6608319Y-7919624D01*
X6789272Y-8110100D02*
X6770224Y-8119624D01*
X6770224Y-8119624D02*
X6732129Y-8119624D01*
X6732129Y-8119624D02*
X6713081Y-8110100D01*
X6713081Y-8110100D02*
X6703557Y-8091052D01*
X6703557Y-8091052D02*
X6703557Y-8014862D01*
X6703557Y-8014862D02*
X6713081Y-7995814D01*
X6713081Y-7995814D02*
X6732129Y-7986290D01*
X6732129Y-7986290D02*
X6770224Y-7986290D01*
X6770224Y-7986290D02*
X6789272Y-7995814D01*
X6789272Y-7995814D02*
X6798795Y-8014862D01*
X6798795Y-8014862D02*
X6798795Y-8033909D01*
X6798795Y-8033909D02*
X6703557Y-8052957D01*
X6874986Y-8110100D02*
X6894033Y-8119624D01*
X6894033Y-8119624D02*
X6932129Y-8119624D01*
X6932129Y-8119624D02*
X6951176Y-8110100D01*
X6951176Y-8110100D02*
X6960700Y-8091052D01*
X6960700Y-8091052D02*
X6960700Y-8081528D01*
X6960700Y-8081528D02*
X6951176Y-8062481D01*
X6951176Y-8062481D02*
X6932129Y-8052957D01*
X6932129Y-8052957D02*
X6903557Y-8052957D01*
X6903557Y-8052957D02*
X6884510Y-8043433D01*
X6884510Y-8043433D02*
X6874986Y-8024386D01*
X6874986Y-8024386D02*
X6874986Y-8014862D01*
X6874986Y-8014862D02*
X6884510Y-7995814D01*
X6884510Y-7995814D02*
X6903557Y-7986290D01*
X6903557Y-7986290D02*
X6932129Y-7986290D01*
X6932129Y-7986290D02*
X6951176Y-7995814D01*
X7027367Y-8195814D02*
X7036891Y-8186290D01*
X7036891Y-8186290D02*
X7055938Y-8157719D01*
X7055938Y-8157719D02*
X7065462Y-8138671D01*
X7065462Y-8138671D02*
X7074986Y-8110100D01*
X7074986Y-8110100D02*
X7084510Y-8062481D01*
X7084510Y-8062481D02*
X7084510Y-8024386D01*
X7084510Y-8024386D02*
X7074986Y-7976767D01*
X7074986Y-7976767D02*
X7065462Y-7948195D01*
X7065462Y-7948195D02*
X7055938Y-7929148D01*
X7055938Y-7929148D02*
X7036891Y-7900576D01*
X7036891Y-7900576D02*
X7027367Y-7891052D01*
D11*
X2252304Y-8292140D02*
G75*
G02*
X2202304Y-8292140I-25000J0D01*
G01*
X2202304Y-8292140D02*
G75*
G02*
X2252304Y-8292140I25000J0D01*
G01*
D10*
X2551176Y-8183624D02*
X2570224Y-8183624D01*
X2570224Y-8183624D02*
X2589271Y-8193148D01*
X2589271Y-8193148D02*
X2598795Y-8202671D01*
X2598795Y-8202671D02*
X2608319Y-8221719D01*
X2608319Y-8221719D02*
X2617843Y-8259814D01*
X2617843Y-8259814D02*
X2617843Y-8307433D01*
X2617843Y-8307433D02*
X2608319Y-8345528D01*
X2608319Y-8345528D02*
X2598795Y-8364576D01*
X2598795Y-8364576D02*
X2589271Y-8374100D01*
X2589271Y-8374100D02*
X2570224Y-8383624D01*
X2570224Y-8383624D02*
X2551176Y-8383624D01*
X2551176Y-8383624D02*
X2532128Y-8374100D01*
X2532128Y-8374100D02*
X2522605Y-8364576D01*
X2522605Y-8364576D02*
X2513081Y-8345528D01*
X2513081Y-8345528D02*
X2503557Y-8307433D01*
X2503557Y-8307433D02*
X2503557Y-8259814D01*
X2503557Y-8259814D02*
X2513081Y-8221719D01*
X2513081Y-8221719D02*
X2522605Y-8202671D01*
X2522605Y-8202671D02*
X2532128Y-8193148D01*
X2532128Y-8193148D02*
X2551176Y-8183624D01*
X2703557Y-8364576D02*
X2713081Y-8374100D01*
X2713081Y-8374100D02*
X2703557Y-8383624D01*
X2703557Y-8383624D02*
X2694033Y-8374100D01*
X2694033Y-8374100D02*
X2703557Y-8364576D01*
X2703557Y-8364576D02*
X2703557Y-8383624D01*
X2894033Y-8183624D02*
X2798795Y-8183624D01*
X2798795Y-8183624D02*
X2789271Y-8278862D01*
X2789271Y-8278862D02*
X2798795Y-8269338D01*
X2798795Y-8269338D02*
X2817843Y-8259814D01*
X2817843Y-8259814D02*
X2865462Y-8259814D01*
X2865462Y-8259814D02*
X2884509Y-8269338D01*
X2884509Y-8269338D02*
X2894033Y-8278862D01*
X2894033Y-8278862D02*
X2903557Y-8297909D01*
X2903557Y-8297909D02*
X2903557Y-8345528D01*
X2903557Y-8345528D02*
X2894033Y-8364576D01*
X2894033Y-8364576D02*
X2884509Y-8374100D01*
X2884509Y-8374100D02*
X2865462Y-8383624D01*
X2865462Y-8383624D02*
X2817843Y-8383624D01*
X2817843Y-8383624D02*
X2798795Y-8374100D01*
X2798795Y-8374100D02*
X2789271Y-8364576D01*
X3027366Y-8183624D02*
X3046414Y-8183624D01*
X3046414Y-8183624D02*
X3065462Y-8193148D01*
X3065462Y-8193148D02*
X3074985Y-8202671D01*
X3074985Y-8202671D02*
X3084509Y-8221719D01*
X3084509Y-8221719D02*
X3094033Y-8259814D01*
X3094033Y-8259814D02*
X3094033Y-8307433D01*
X3094033Y-8307433D02*
X3084509Y-8345528D01*
X3084509Y-8345528D02*
X3074985Y-8364576D01*
X3074985Y-8364576D02*
X3065462Y-8374100D01*
X3065462Y-8374100D02*
X3046414Y-8383624D01*
X3046414Y-8383624D02*
X3027366Y-8383624D01*
X3027366Y-8383624D02*
X3008319Y-8374100D01*
X3008319Y-8374100D02*
X2998795Y-8364576D01*
X2998795Y-8364576D02*
X2989271Y-8345528D01*
X2989271Y-8345528D02*
X2979747Y-8307433D01*
X2979747Y-8307433D02*
X2979747Y-8259814D01*
X2979747Y-8259814D02*
X2989271Y-8221719D01*
X2989271Y-8221719D02*
X2998795Y-8202671D01*
X2998795Y-8202671D02*
X3008319Y-8193148D01*
X3008319Y-8193148D02*
X3027366Y-8183624D01*
X3217843Y-8183624D02*
X3236890Y-8183624D01*
X3236890Y-8183624D02*
X3255938Y-8193148D01*
X3255938Y-8193148D02*
X3265462Y-8202671D01*
X3265462Y-8202671D02*
X3274985Y-8221719D01*
X3274985Y-8221719D02*
X3284509Y-8259814D01*
X3284509Y-8259814D02*
X3284509Y-8307433D01*
X3284509Y-8307433D02*
X3274985Y-8345528D01*
X3274985Y-8345528D02*
X3265462Y-8364576D01*
X3265462Y-8364576D02*
X3255938Y-8374100D01*
X3255938Y-8374100D02*
X3236890Y-8383624D01*
X3236890Y-8383624D02*
X3217843Y-8383624D01*
X3217843Y-8383624D02*
X3198795Y-8374100D01*
X3198795Y-8374100D02*
X3189271Y-8364576D01*
X3189271Y-8364576D02*
X3179747Y-8345528D01*
X3179747Y-8345528D02*
X3170224Y-8307433D01*
X3170224Y-8307433D02*
X3170224Y-8259814D01*
X3170224Y-8259814D02*
X3179747Y-8221719D01*
X3179747Y-8221719D02*
X3189271Y-8202671D01*
X3189271Y-8202671D02*
X3198795Y-8193148D01*
X3198795Y-8193148D02*
X3217843Y-8183624D01*
X3370224Y-8383624D02*
X3370224Y-8250290D01*
X3370224Y-8269338D02*
X3379747Y-8259814D01*
X3379747Y-8259814D02*
X3398795Y-8250290D01*
X3398795Y-8250290D02*
X3427366Y-8250290D01*
X3427366Y-8250290D02*
X3446414Y-8259814D01*
X3446414Y-8259814D02*
X3455938Y-8278862D01*
X3455938Y-8278862D02*
X3455938Y-8383624D01*
X3455938Y-8278862D02*
X3465462Y-8259814D01*
X3465462Y-8259814D02*
X3484509Y-8250290D01*
X3484509Y-8250290D02*
X3513081Y-8250290D01*
X3513081Y-8250290D02*
X3532128Y-8259814D01*
X3532128Y-8259814D02*
X3541652Y-8278862D01*
X3541652Y-8278862D02*
X3541652Y-8383624D01*
X3636890Y-8383624D02*
X3636890Y-8250290D01*
X3636890Y-8269338D02*
X3646414Y-8259814D01*
X3646414Y-8259814D02*
X3665462Y-8250290D01*
X3665462Y-8250290D02*
X3694033Y-8250290D01*
X3694033Y-8250290D02*
X3713081Y-8259814D01*
X3713081Y-8259814D02*
X3722605Y-8278862D01*
X3722605Y-8278862D02*
X3722605Y-8383624D01*
X3722605Y-8278862D02*
X3732128Y-8259814D01*
X3732128Y-8259814D02*
X3751176Y-8250290D01*
X3751176Y-8250290D02*
X3779747Y-8250290D01*
X3779747Y-8250290D02*
X3798795Y-8259814D01*
X3798795Y-8259814D02*
X3808319Y-8278862D01*
X3808319Y-8278862D02*
X3808319Y-8383624D01*
X4198795Y-8174100D02*
X4027367Y-8431243D01*
X4455938Y-8183624D02*
X4474986Y-8183624D01*
X4474986Y-8183624D02*
X4494033Y-8193148D01*
X4494033Y-8193148D02*
X4503557Y-8202671D01*
X4503557Y-8202671D02*
X4513081Y-8221719D01*
X4513081Y-8221719D02*
X4522605Y-8259814D01*
X4522605Y-8259814D02*
X4522605Y-8307433D01*
X4522605Y-8307433D02*
X4513081Y-8345528D01*
X4513081Y-8345528D02*
X4503557Y-8364576D01*
X4503557Y-8364576D02*
X4494033Y-8374100D01*
X4494033Y-8374100D02*
X4474986Y-8383624D01*
X4474986Y-8383624D02*
X4455938Y-8383624D01*
X4455938Y-8383624D02*
X4436890Y-8374100D01*
X4436890Y-8374100D02*
X4427367Y-8364576D01*
X4427367Y-8364576D02*
X4417843Y-8345528D01*
X4417843Y-8345528D02*
X4408319Y-8307433D01*
X4408319Y-8307433D02*
X4408319Y-8259814D01*
X4408319Y-8259814D02*
X4417843Y-8221719D01*
X4417843Y-8221719D02*
X4427367Y-8202671D01*
X4427367Y-8202671D02*
X4436890Y-8193148D01*
X4436890Y-8193148D02*
X4455938Y-8183624D01*
X4608319Y-8364576D02*
X4617843Y-8374100D01*
X4617843Y-8374100D02*
X4608319Y-8383624D01*
X4608319Y-8383624D02*
X4598795Y-8374100D01*
X4598795Y-8374100D02*
X4608319Y-8364576D01*
X4608319Y-8364576D02*
X4608319Y-8383624D01*
X4741652Y-8183624D02*
X4760700Y-8183624D01*
X4760700Y-8183624D02*
X4779748Y-8193148D01*
X4779748Y-8193148D02*
X4789271Y-8202671D01*
X4789271Y-8202671D02*
X4798795Y-8221719D01*
X4798795Y-8221719D02*
X4808319Y-8259814D01*
X4808319Y-8259814D02*
X4808319Y-8307433D01*
X4808319Y-8307433D02*
X4798795Y-8345528D01*
X4798795Y-8345528D02*
X4789271Y-8364576D01*
X4789271Y-8364576D02*
X4779748Y-8374100D01*
X4779748Y-8374100D02*
X4760700Y-8383624D01*
X4760700Y-8383624D02*
X4741652Y-8383624D01*
X4741652Y-8383624D02*
X4722605Y-8374100D01*
X4722605Y-8374100D02*
X4713081Y-8364576D01*
X4713081Y-8364576D02*
X4703557Y-8345528D01*
X4703557Y-8345528D02*
X4694033Y-8307433D01*
X4694033Y-8307433D02*
X4694033Y-8259814D01*
X4694033Y-8259814D02*
X4703557Y-8221719D01*
X4703557Y-8221719D02*
X4713081Y-8202671D01*
X4713081Y-8202671D02*
X4722605Y-8193148D01*
X4722605Y-8193148D02*
X4741652Y-8183624D01*
X4998795Y-8383624D02*
X4884510Y-8383624D01*
X4941652Y-8383624D02*
X4941652Y-8183624D01*
X4941652Y-8183624D02*
X4922605Y-8212195D01*
X4922605Y-8212195D02*
X4903557Y-8231243D01*
X4903557Y-8231243D02*
X4884510Y-8240767D01*
X5094033Y-8383624D02*
X5132129Y-8383624D01*
X5132129Y-8383624D02*
X5151176Y-8374100D01*
X5151176Y-8374100D02*
X5160700Y-8364576D01*
X5160700Y-8364576D02*
X5179748Y-8336005D01*
X5179748Y-8336005D02*
X5189271Y-8297909D01*
X5189271Y-8297909D02*
X5189271Y-8221719D01*
X5189271Y-8221719D02*
X5179748Y-8202671D01*
X5179748Y-8202671D02*
X5170224Y-8193148D01*
X5170224Y-8193148D02*
X5151176Y-8183624D01*
X5151176Y-8183624D02*
X5113081Y-8183624D01*
X5113081Y-8183624D02*
X5094033Y-8193148D01*
X5094033Y-8193148D02*
X5084510Y-8202671D01*
X5084510Y-8202671D02*
X5074986Y-8221719D01*
X5074986Y-8221719D02*
X5074986Y-8269338D01*
X5074986Y-8269338D02*
X5084510Y-8288386D01*
X5084510Y-8288386D02*
X5094033Y-8297909D01*
X5094033Y-8297909D02*
X5113081Y-8307433D01*
X5113081Y-8307433D02*
X5151176Y-8307433D01*
X5151176Y-8307433D02*
X5170224Y-8297909D01*
X5170224Y-8297909D02*
X5179748Y-8288386D01*
X5179748Y-8288386D02*
X5189271Y-8269338D01*
X5255938Y-8183624D02*
X5389271Y-8183624D01*
X5389271Y-8183624D02*
X5303557Y-8383624D01*
X5455938Y-8183624D02*
X5455938Y-8221719D01*
X5532129Y-8183624D02*
X5532129Y-8221719D01*
X5827367Y-8459814D02*
X5817843Y-8450290D01*
X5817843Y-8450290D02*
X5798795Y-8421719D01*
X5798795Y-8421719D02*
X5789271Y-8402671D01*
X5789271Y-8402671D02*
X5779748Y-8374100D01*
X5779748Y-8374100D02*
X5770224Y-8326481D01*
X5770224Y-8326481D02*
X5770224Y-8288386D01*
X5770224Y-8288386D02*
X5779748Y-8240767D01*
X5779748Y-8240767D02*
X5789271Y-8212195D01*
X5789271Y-8212195D02*
X5798795Y-8193148D01*
X5798795Y-8193148D02*
X5817843Y-8164576D01*
X5817843Y-8164576D02*
X5827367Y-8155052D01*
X5894033Y-8202671D02*
X5903557Y-8193148D01*
X5903557Y-8193148D02*
X5922605Y-8183624D01*
X5922605Y-8183624D02*
X5970224Y-8183624D01*
X5970224Y-8183624D02*
X5989271Y-8193148D01*
X5989271Y-8193148D02*
X5998795Y-8202671D01*
X5998795Y-8202671D02*
X6008319Y-8221719D01*
X6008319Y-8221719D02*
X6008319Y-8240767D01*
X6008319Y-8240767D02*
X5998795Y-8269338D01*
X5998795Y-8269338D02*
X5884510Y-8383624D01*
X5884510Y-8383624D02*
X6008319Y-8383624D01*
X6246414Y-8383624D02*
X6246414Y-8183624D01*
X6332129Y-8383624D02*
X6332129Y-8278862D01*
X6332129Y-8278862D02*
X6322605Y-8259814D01*
X6322605Y-8259814D02*
X6303557Y-8250290D01*
X6303557Y-8250290D02*
X6274986Y-8250290D01*
X6274986Y-8250290D02*
X6255938Y-8259814D01*
X6255938Y-8259814D02*
X6246414Y-8269338D01*
X6455938Y-8383624D02*
X6436891Y-8374100D01*
X6436891Y-8374100D02*
X6427367Y-8364576D01*
X6427367Y-8364576D02*
X6417843Y-8345528D01*
X6417843Y-8345528D02*
X6417843Y-8288386D01*
X6417843Y-8288386D02*
X6427367Y-8269338D01*
X6427367Y-8269338D02*
X6436891Y-8259814D01*
X6436891Y-8259814D02*
X6455938Y-8250290D01*
X6455938Y-8250290D02*
X6484510Y-8250290D01*
X6484510Y-8250290D02*
X6503557Y-8259814D01*
X6503557Y-8259814D02*
X6513081Y-8269338D01*
X6513081Y-8269338D02*
X6522605Y-8288386D01*
X6522605Y-8288386D02*
X6522605Y-8345528D01*
X6522605Y-8345528D02*
X6513081Y-8364576D01*
X6513081Y-8364576D02*
X6503557Y-8374100D01*
X6503557Y-8374100D02*
X6484510Y-8383624D01*
X6484510Y-8383624D02*
X6455938Y-8383624D01*
X6636891Y-8383624D02*
X6617843Y-8374100D01*
X6617843Y-8374100D02*
X6608319Y-8355052D01*
X6608319Y-8355052D02*
X6608319Y-8183624D01*
X6789272Y-8374100D02*
X6770224Y-8383624D01*
X6770224Y-8383624D02*
X6732129Y-8383624D01*
X6732129Y-8383624D02*
X6713081Y-8374100D01*
X6713081Y-8374100D02*
X6703557Y-8355052D01*
X6703557Y-8355052D02*
X6703557Y-8278862D01*
X6703557Y-8278862D02*
X6713081Y-8259814D01*
X6713081Y-8259814D02*
X6732129Y-8250290D01*
X6732129Y-8250290D02*
X6770224Y-8250290D01*
X6770224Y-8250290D02*
X6789272Y-8259814D01*
X6789272Y-8259814D02*
X6798795Y-8278862D01*
X6798795Y-8278862D02*
X6798795Y-8297909D01*
X6798795Y-8297909D02*
X6703557Y-8316957D01*
X6874986Y-8374100D02*
X6894033Y-8383624D01*
X6894033Y-8383624D02*
X6932129Y-8383624D01*
X6932129Y-8383624D02*
X6951176Y-8374100D01*
X6951176Y-8374100D02*
X6960700Y-8355052D01*
X6960700Y-8355052D02*
X6960700Y-8345528D01*
X6960700Y-8345528D02*
X6951176Y-8326481D01*
X6951176Y-8326481D02*
X6932129Y-8316957D01*
X6932129Y-8316957D02*
X6903557Y-8316957D01*
X6903557Y-8316957D02*
X6884510Y-8307433D01*
X6884510Y-8307433D02*
X6874986Y-8288386D01*
X6874986Y-8288386D02*
X6874986Y-8278862D01*
X6874986Y-8278862D02*
X6884510Y-8259814D01*
X6884510Y-8259814D02*
X6903557Y-8250290D01*
X6903557Y-8250290D02*
X6932129Y-8250290D01*
X6932129Y-8250290D02*
X6951176Y-8259814D01*
X7027367Y-8459814D02*
X7036891Y-8450290D01*
X7036891Y-8450290D02*
X7055938Y-8421719D01*
X7055938Y-8421719D02*
X7065462Y-8402671D01*
X7065462Y-8402671D02*
X7074986Y-8374100D01*
X7074986Y-8374100D02*
X7084510Y-8326481D01*
X7084510Y-8326481D02*
X7084510Y-8288386D01*
X7084510Y-8288386D02*
X7074986Y-8240767D01*
X7074986Y-8240767D02*
X7065462Y-8212195D01*
X7065462Y-8212195D02*
X7055938Y-8193148D01*
X7055938Y-8193148D02*
X7036891Y-8164576D01*
X7036891Y-8164576D02*
X7027367Y-8155052D01*
M02*
