%TF.GenerationSoftware,KiCad,Pcbnew,8.0.6*%
%TF.CreationDate,2024-11-25T21:33:12-05:00*%
%TF.ProjectId,mason-comet-ornament,6d61736f-6e2d-4636-9f6d-65742d6f726e,rev?*%
%TF.SameCoordinates,Original*%
%TF.FileFunction,Copper,L1,Top*%
%TF.FilePolarity,Positive*%
%FSLAX46Y46*%
G04 Gerber Fmt 4.6, Leading zero omitted, Abs format (unit mm)*
G04 Created by KiCad (PCBNEW 8.0.6) date 2024-11-25 21:33:12*
%MOMM*%
%LPD*%
G01*
G04 APERTURE LIST*
G04 Aperture macros list*
%AMRoundRect*
0 Rectangle with rounded corners*
0 $1 Rounding radius*
0 $2 $3 $4 $5 $6 $7 $8 $9 X,Y pos of 4 corners*
0 Add a 4 corners polygon primitive as box body*
4,1,4,$2,$3,$4,$5,$6,$7,$8,$9,$2,$3,0*
0 Add four circle primitives for the rounded corners*
1,1,$1+$1,$2,$3*
1,1,$1+$1,$4,$5*
1,1,$1+$1,$6,$7*
1,1,$1+$1,$8,$9*
0 Add four rect primitives between the rounded corners*
20,1,$1+$1,$2,$3,$4,$5,0*
20,1,$1+$1,$4,$5,$6,$7,0*
20,1,$1+$1,$6,$7,$8,$9,0*
20,1,$1+$1,$8,$9,$2,$3,0*%
G04 Aperture macros list end*
%TA.AperFunction,SMDPad,CuDef*%
%ADD10RoundRect,0.237500X-0.287500X-0.237500X0.287500X-0.237500X0.287500X0.237500X-0.287500X0.237500X0*%
%TD*%
%TA.AperFunction,SMDPad,CuDef*%
%ADD11RoundRect,0.237500X0.237500X-0.287500X0.237500X0.287500X-0.237500X0.287500X-0.237500X-0.287500X0*%
%TD*%
%TA.AperFunction,SMDPad,CuDef*%
%ADD12RoundRect,0.237500X-0.237500X0.287500X-0.237500X-0.287500X0.237500X-0.287500X0.237500X0.287500X0*%
%TD*%
%TA.AperFunction,SMDPad,CuDef*%
%ADD13RoundRect,0.237500X0.287500X0.237500X-0.287500X0.237500X-0.287500X-0.237500X0.287500X-0.237500X0*%
%TD*%
%TA.AperFunction,ComponentPad*%
%ADD14R,0.850000X0.850000*%
%TD*%
%TA.AperFunction,ComponentPad*%
%ADD15C,0.900000*%
%TD*%
%TA.AperFunction,ViaPad*%
%ADD16C,0.600000*%
%TD*%
%TA.AperFunction,Conductor*%
%ADD17C,0.350000*%
%TD*%
G04 APERTURE END LIST*
D10*
%TO.P,D2,1,K*%
%TO.N,GND*%
X33500000Y-49100000D03*
%TO.P,D2,2,A*%
%TO.N,Net-(D2-A)*%
X35250000Y-49100000D03*
%TD*%
D11*
%TO.P,D4,1,K*%
%TO.N,GND*%
X44500000Y-59975000D03*
%TO.P,D4,2,A*%
%TO.N,Net-(D4-A)*%
X44500000Y-58225000D03*
%TD*%
D12*
%TO.P,D1,1,K*%
%TO.N,GND*%
X44500000Y-38225000D03*
%TO.P,D1,2,A*%
%TO.N,Net-(D1-A)*%
X44500000Y-39975000D03*
%TD*%
D13*
%TO.P,D3,1,K*%
%TO.N,GND*%
X55525000Y-49050000D03*
%TO.P,D3,2,A*%
%TO.N,Net-(D3-A)*%
X53775000Y-49050000D03*
%TD*%
D14*
%TO.P,J2,1,Pin_1*%
%TO.N,GND*%
X66500000Y-43000000D03*
%TD*%
D15*
%TO.P,J1,1,Pin_1*%
%TO.N,Net-(BT1-+)*%
X66500000Y-46000000D03*
%TD*%
D16*
%TO.N,Net-(D4-A)*%
X36500000Y-56750000D03*
%TO.N,Net-(D3-A)*%
X55000000Y-55250000D03*
%TO.N,Net-(D2-A)*%
X34500000Y-43750000D03*
%TO.N,Net-(D1-A)*%
X53000000Y-41250000D03*
%TO.N,GND*%
X45095000Y-49500000D03*
X45095000Y-49500000D03*
X45095000Y-49500000D03*
%TD*%
D17*
%TO.N,Net-(D4-A)*%
X44000000Y-56750000D02*
X36500000Y-56750000D01*
X44500000Y-57250000D02*
X44000000Y-56750000D01*
X44500000Y-58225000D02*
X44500000Y-57250000D01*
%TO.N,Net-(D1-A)*%
X45000000Y-42250000D02*
X44500000Y-41750000D01*
X44500000Y-41750000D02*
X44500000Y-39975000D01*
X53000000Y-41250000D02*
X52000000Y-42250000D01*
X52000000Y-42250000D02*
X45000000Y-42250000D01*
%TO.N,Net-(D3-A)*%
X52500000Y-52750000D02*
X55000000Y-55250000D01*
X53775000Y-49050000D02*
X53000000Y-49050000D01*
X53000000Y-49050000D02*
X52500000Y-49550000D01*
X52500000Y-49550000D02*
X52500000Y-52750000D01*
%TO.N,Net-(D2-A)*%
X36250000Y-49100000D02*
X35250000Y-49100000D01*
X37500000Y-47850000D02*
X36250000Y-49100000D01*
X37500000Y-46750000D02*
X37500000Y-47850000D01*
X34500000Y-43750000D02*
X37500000Y-46750000D01*
%TD*%
%TA.AperFunction,Conductor*%
%TO.N,GND*%
G36*
X47077751Y-28997871D02*
G01*
X47498905Y-28999994D01*
X47501091Y-29000026D01*
X48142536Y-29015616D01*
X48149470Y-29015981D01*
X48192258Y-29019446D01*
X48257487Y-29044476D01*
X48298831Y-29100800D01*
X48303160Y-29170535D01*
X48269571Y-29231077D01*
X47934709Y-29563228D01*
X47765103Y-29735036D01*
X47606534Y-29903334D01*
X47458795Y-30068492D01*
X47194719Y-30391127D01*
X47194717Y-30391130D01*
X46971008Y-30706087D01*
X46785751Y-31016576D01*
X46706954Y-31171132D01*
X46575832Y-31480865D01*
X46575822Y-31480892D01*
X46478423Y-31794082D01*
X46478419Y-31794096D01*
X46425463Y-32052366D01*
X46412827Y-32113990D01*
X46388928Y-32284970D01*
X46388925Y-32284998D01*
X46388925Y-32285001D01*
X46385039Y-32326723D01*
X46383613Y-32375763D01*
X46390810Y-32417069D01*
X46409636Y-32432529D01*
X46441433Y-32423971D01*
X46474594Y-32402893D01*
X46474594Y-32402892D01*
X46474597Y-32402891D01*
X46532317Y-32356700D01*
X46698371Y-32216922D01*
X46703003Y-32213211D01*
X46843605Y-32106004D01*
X46847485Y-32103165D01*
X46997473Y-31997868D01*
X47004471Y-31993301D01*
X47332871Y-31794466D01*
X47514402Y-31684555D01*
X47522310Y-31680152D01*
X47892351Y-31491523D01*
X47896875Y-31489332D01*
X48087226Y-31401897D01*
X48090199Y-31400579D01*
X48283036Y-31318228D01*
X48287672Y-31316361D01*
X48678004Y-31168418D01*
X48684845Y-31166053D01*
X49070753Y-31045285D01*
X49076595Y-31043615D01*
X49263298Y-30995188D01*
X49267705Y-30994132D01*
X49451778Y-30953587D01*
X49454150Y-30953090D01*
X49863122Y-30871496D01*
X49887407Y-30869100D01*
X51025780Y-30869441D01*
X51044675Y-30870894D01*
X51732642Y-30977201D01*
X51738547Y-30978262D01*
X52458664Y-31125761D01*
X52464889Y-31127206D01*
X52934004Y-31249051D01*
X52937741Y-31250085D01*
X53167482Y-31317545D01*
X53169940Y-31318295D01*
X53396387Y-31390052D01*
X53400118Y-31391302D01*
X53843216Y-31547778D01*
X53848393Y-31549739D01*
X54272752Y-31721574D01*
X54278226Y-31723947D01*
X54681957Y-31910564D01*
X54686253Y-31912651D01*
X54878303Y-32010621D01*
X54880879Y-32011974D01*
X55202054Y-32185680D01*
X55494201Y-32319776D01*
X55494211Y-32319780D01*
X55494216Y-32319782D01*
X55629811Y-32370933D01*
X55817714Y-32441816D01*
X56355581Y-32600711D01*
X56629558Y-32659794D01*
X56947998Y-32728466D01*
X56948009Y-32728468D01*
X56948037Y-32728474D01*
X57585490Y-32822703D01*
X58030722Y-32865706D01*
X58535604Y-32904978D01*
X58868093Y-32876478D01*
X59023952Y-32863119D01*
X59190385Y-32848838D01*
X59511770Y-32821264D01*
X60557184Y-32555132D01*
X61812480Y-32240723D01*
X61813294Y-32240522D01*
X62969734Y-31961612D01*
X62970572Y-31961415D01*
X64026992Y-31718240D01*
X64028427Y-31717919D01*
X64983848Y-31510664D01*
X64985688Y-31510280D01*
X65838956Y-31339164D01*
X65841353Y-31338708D01*
X66591463Y-31203904D01*
X66594654Y-31203374D01*
X67240122Y-31105110D01*
X67244710Y-31104499D01*
X67785831Y-31042719D01*
X67788671Y-31042430D01*
X68277856Y-30998593D01*
X68311328Y-31000140D01*
X68544667Y-31043031D01*
X68607042Y-31074511D01*
X68642496Y-31134717D01*
X68639773Y-31204534D01*
X68599736Y-31261795D01*
X68591077Y-31268132D01*
X68435621Y-31371869D01*
X68433575Y-31373205D01*
X67912975Y-31705972D01*
X67546771Y-31953284D01*
X67196713Y-32202464D01*
X67196700Y-32202473D01*
X67196700Y-32202474D01*
X67036699Y-32326083D01*
X66547133Y-32704297D01*
X66248786Y-32955793D01*
X65968829Y-33206920D01*
X65707845Y-33457102D01*
X65466393Y-33705779D01*
X65245017Y-33952413D01*
X65044325Y-34196404D01*
X64864879Y-34437186D01*
X64707248Y-34674201D01*
X64707243Y-34674209D01*
X64699532Y-34687475D01*
X64571985Y-34906903D01*
X64459684Y-35134695D01*
X64370909Y-35357016D01*
X64263425Y-35663462D01*
X64259848Y-36305786D01*
X64259272Y-36409154D01*
X64323445Y-36586182D01*
X64334203Y-36615857D01*
X64334207Y-36615869D01*
X64386069Y-36736885D01*
X64399350Y-36767874D01*
X64419032Y-36807005D01*
X64456631Y-36881758D01*
X64456653Y-36881798D01*
X64546064Y-37037000D01*
X64546077Y-37037023D01*
X64683536Y-37251994D01*
X64683537Y-37251994D01*
X64683538Y-37251996D01*
X64903850Y-37378359D01*
X65131805Y-37465002D01*
X65315542Y-37510896D01*
X65589426Y-37561021D01*
X65958399Y-37513997D01*
X66192579Y-37478597D01*
X66432215Y-37430999D01*
X66680756Y-37369614D01*
X66941656Y-37292851D01*
X67218366Y-37199122D01*
X67514339Y-37086837D01*
X68177877Y-36800242D01*
X68959887Y-36420352D01*
X69887982Y-35934451D01*
X70989780Y-35329826D01*
X72292894Y-34593760D01*
X72292894Y-34593761D01*
X72292907Y-34593752D01*
X73404249Y-33966470D01*
X73405963Y-33965520D01*
X74313007Y-33473446D01*
X74317852Y-33470955D01*
X75396022Y-32946252D01*
X75407343Y-32941423D01*
X75571820Y-32880722D01*
X76280921Y-32619024D01*
X76297032Y-32614290D01*
X77124670Y-32430951D01*
X77136238Y-32428959D01*
X77739703Y-32354297D01*
X77743907Y-32353851D01*
X78079275Y-32324159D01*
X78080070Y-32324092D01*
X78593758Y-32282594D01*
X78614495Y-32282658D01*
X79112911Y-32326086D01*
X79115464Y-32326336D01*
X79342489Y-32350975D01*
X79388966Y-32356020D01*
X79394331Y-32356721D01*
X79475996Y-32369209D01*
X79661097Y-32397514D01*
X79666506Y-32398465D01*
X79884663Y-32441822D01*
X79927558Y-32450347D01*
X79933033Y-32451564D01*
X80188137Y-32514385D01*
X80193627Y-32515872D01*
X80442434Y-32589458D01*
X80447911Y-32591218D01*
X80690175Y-32675423D01*
X80695724Y-32677502D01*
X80752193Y-32700207D01*
X80931113Y-32772150D01*
X80936584Y-32774506D01*
X81164818Y-32879443D01*
X81170313Y-32882136D01*
X81391097Y-32997197D01*
X81396522Y-33000200D01*
X81609588Y-33125238D01*
X81614929Y-33128558D01*
X81818647Y-33262536D01*
X81826502Y-33268153D01*
X82091201Y-33473453D01*
X82214022Y-33568712D01*
X82221544Y-33575039D01*
X82399697Y-33737372D01*
X82404476Y-33741966D01*
X82570720Y-33910591D01*
X82574736Y-33914664D01*
X82579295Y-33919546D01*
X82700173Y-34056166D01*
X82741243Y-34102584D01*
X82743439Y-34105135D01*
X82984220Y-34392737D01*
X83124639Y-34442296D01*
X83125091Y-34442457D01*
X83264830Y-34492472D01*
X83486517Y-34466124D01*
X83486528Y-34466122D01*
X83486536Y-34466121D01*
X83635444Y-34439967D01*
X83635456Y-34439964D01*
X83946650Y-34335499D01*
X83946649Y-34335499D01*
X83946665Y-34335494D01*
X84107738Y-34258218D01*
X84271652Y-34164938D01*
X84437806Y-34056171D01*
X84605596Y-33932435D01*
X84774421Y-33794248D01*
X84943677Y-33642127D01*
X85112764Y-33476590D01*
X85281078Y-33298153D01*
X85448017Y-33107335D01*
X85612979Y-32904654D01*
X85775362Y-32690626D01*
X85934563Y-32465769D01*
X86089672Y-32231065D01*
X86090252Y-32230198D01*
X86122015Y-32183384D01*
X86175940Y-32138966D01*
X86245325Y-32130751D01*
X86308136Y-32161352D01*
X86341504Y-32211606D01*
X86381932Y-32325734D01*
X86382364Y-32326973D01*
X86447625Y-32517589D01*
X86448546Y-32520389D01*
X86597578Y-32991982D01*
X86598901Y-32996457D01*
X86729572Y-33471460D01*
X86730716Y-33475946D01*
X86730870Y-33476600D01*
X86842716Y-33952032D01*
X86843702Y-33956610D01*
X86936496Y-34430706D01*
X86937327Y-34435439D01*
X87010377Y-34904396D01*
X87011049Y-34909366D01*
X87063918Y-35370796D01*
X87064306Y-35374733D01*
X87082897Y-35600459D01*
X87083092Y-35603209D01*
X87096432Y-35825505D01*
X87096617Y-35829861D01*
X87107463Y-36267562D01*
X87107497Y-36269665D01*
X87108984Y-36459969D01*
X87113027Y-36616752D01*
X87115795Y-36677087D01*
X87118947Y-36722685D01*
X87120642Y-36739333D01*
X87122400Y-36751528D01*
X87124215Y-36759034D01*
X87124216Y-36759036D01*
X87125140Y-36760949D01*
X87126074Y-36761594D01*
X87138610Y-36755202D01*
X87167493Y-36736887D01*
X87266851Y-36669655D01*
X87579413Y-36449218D01*
X87580200Y-36448668D01*
X88281202Y-35963954D01*
X88284515Y-35961744D01*
X88999409Y-35501954D01*
X89002795Y-35499855D01*
X89730689Y-35064936D01*
X89734148Y-35062945D01*
X90473023Y-34653634D01*
X90476540Y-34651761D01*
X91224192Y-34268899D01*
X91227785Y-34267132D01*
X91982183Y-33911462D01*
X91985909Y-33909781D01*
X92744920Y-33582098D01*
X92748706Y-33580539D01*
X93510216Y-33281626D01*
X93514114Y-33280172D01*
X94276024Y-33010803D01*
X94280137Y-33009430D01*
X95040245Y-32770408D01*
X95044502Y-32769153D01*
X95800784Y-32561220D01*
X95805226Y-32560088D01*
X96555540Y-32384018D01*
X96560283Y-32383005D01*
X97301034Y-32239850D01*
X97308780Y-32238607D01*
X98762686Y-32052364D01*
X98771199Y-32051571D01*
X99476304Y-32010547D01*
X99479235Y-32010413D01*
X100216482Y-31985902D01*
X100230457Y-31986228D01*
X101208715Y-32064452D01*
X101399616Y-32079718D01*
X101399616Y-32079717D01*
X101399618Y-32079718D01*
X101909220Y-31794719D01*
X101910140Y-31794211D01*
X102358444Y-31549622D01*
X102360589Y-31548481D01*
X102813179Y-31313622D01*
X102815409Y-31312493D01*
X103272296Y-31087220D01*
X103274428Y-31086196D01*
X103734832Y-30870795D01*
X103737054Y-30869783D01*
X104199435Y-30664873D01*
X104202879Y-30663409D01*
X105134347Y-30284465D01*
X105139097Y-30282647D01*
X106072064Y-29947727D01*
X106075737Y-29946475D01*
X106539879Y-29796526D01*
X106542416Y-29795737D01*
X107005260Y-29657399D01*
X107007847Y-29656658D01*
X107467930Y-29530427D01*
X107470633Y-29529720D01*
X107927149Y-29415872D01*
X107929963Y-29415206D01*
X108382215Y-29313996D01*
X108385149Y-29313378D01*
X108832222Y-29225100D01*
X108835364Y-29224522D01*
X109277387Y-29149284D01*
X109279024Y-29149016D01*
X109745166Y-29076216D01*
X109764300Y-29074732D01*
X110873445Y-29074732D01*
X110873465Y-29074732D01*
X111979626Y-29074388D01*
X112004621Y-29076928D01*
X112673067Y-29214374D01*
X112679431Y-29215859D01*
X113252800Y-29365631D01*
X113262639Y-29368642D01*
X113779437Y-29550597D01*
X113788530Y-29554208D01*
X114108129Y-29696021D01*
X114117209Y-29700503D01*
X114581192Y-29953702D01*
X114589478Y-29958654D01*
X114891526Y-30155497D01*
X114897168Y-30159400D01*
X115101403Y-30309271D01*
X115203192Y-30383965D01*
X115205689Y-30385846D01*
X115389120Y-30527700D01*
X115430110Y-30584282D01*
X115434001Y-30654044D01*
X115399559Y-30714835D01*
X115343017Y-30746167D01*
X114952329Y-30842735D01*
X114513086Y-30957137D01*
X114077299Y-31081339D01*
X113218338Y-31358027D01*
X112796639Y-31509857D01*
X112380979Y-31670281D01*
X111972102Y-31838968D01*
X111570648Y-32015622D01*
X110792868Y-32391539D01*
X110053136Y-32795525D01*
X109699250Y-33007265D01*
X109356942Y-33225083D01*
X109026881Y-33448673D01*
X108709765Y-33677718D01*
X108221410Y-34042035D01*
X107575484Y-34687450D01*
X107283724Y-34991798D01*
X106993351Y-35318053D01*
X106717595Y-35648647D01*
X106469646Y-35966064D01*
X106360264Y-36114304D01*
X106262836Y-36252612D01*
X106110387Y-36490741D01*
X106110377Y-36490757D01*
X106058671Y-36586182D01*
X106016435Y-36693556D01*
X106015090Y-36720848D01*
X106014240Y-36738097D01*
X106044694Y-36769391D01*
X106157704Y-36807845D01*
X106157707Y-36807845D01*
X106157710Y-36807846D01*
X106185530Y-36811273D01*
X106265935Y-36821180D01*
X106298770Y-36822182D01*
X106397262Y-36825191D01*
X106397267Y-36825190D01*
X106397277Y-36825191D01*
X106718321Y-36807006D01*
X106925209Y-36779729D01*
X107098875Y-36756834D01*
X107098881Y-36756832D01*
X107098888Y-36756832D01*
X107304635Y-36720855D01*
X107517032Y-36678207D01*
X107733336Y-36629331D01*
X107950804Y-36574670D01*
X108378256Y-36449760D01*
X108582754Y-36380396D01*
X108941789Y-36242194D01*
X108941799Y-36242220D01*
X108941979Y-36242120D01*
X109063608Y-36195541D01*
X109133253Y-36189949D01*
X109194866Y-36222898D01*
X109228885Y-36283926D01*
X109231829Y-36305786D01*
X109232728Y-36325833D01*
X109232842Y-36329820D01*
X109235785Y-36562550D01*
X109235757Y-36567193D01*
X109231730Y-36729538D01*
X109231435Y-36735548D01*
X109219871Y-36892955D01*
X109219253Y-36899200D01*
X109200187Y-37052241D01*
X109199211Y-37058688D01*
X109172681Y-37207401D01*
X109171317Y-37214002D01*
X109137770Y-37356698D01*
X109134949Y-37366770D01*
X109044347Y-37644559D01*
X109039095Y-37657967D01*
X108919528Y-37917668D01*
X108912655Y-37930541D01*
X108763513Y-38174221D01*
X108755293Y-38186049D01*
X108576312Y-38414086D01*
X108567159Y-38424494D01*
X108357950Y-38637126D01*
X108348329Y-38645926D01*
X108107432Y-38844066D01*
X108100171Y-38849603D01*
X107971094Y-38940715D01*
X107963960Y-38945392D01*
X107676489Y-39120006D01*
X107667363Y-39125037D01*
X107350012Y-39282975D01*
X107341478Y-39286827D01*
X106992951Y-39428568D01*
X106985089Y-39431460D01*
X106607042Y-39556191D01*
X106596539Y-39559151D01*
X105740863Y-39760101D01*
X105731821Y-39761873D01*
X105265772Y-39835333D01*
X105250682Y-39836773D01*
X103707496Y-39889287D01*
X103701262Y-39889343D01*
X102735603Y-39873635D01*
X102731437Y-39873497D01*
X102294044Y-39851661D01*
X102288993Y-39851305D01*
X101404837Y-39770875D01*
X101400265Y-39770374D01*
X100919925Y-39708644D01*
X100917620Y-39708325D01*
X100385260Y-39629727D01*
X100383629Y-39629475D01*
X99781376Y-39532354D01*
X99780772Y-39532255D01*
X99007499Y-39403634D01*
X99007497Y-39403634D01*
X83131468Y-51076313D01*
X83131468Y-51076314D01*
X84063038Y-51592223D01*
X84079984Y-51603520D01*
X84591694Y-52009089D01*
X84608360Y-52025038D01*
X84726819Y-52161683D01*
X84906103Y-52368492D01*
X84918828Y-52386069D01*
X85081762Y-52658502D01*
X85086516Y-52667231D01*
X85209264Y-52915937D01*
X85222065Y-52971785D01*
X85216956Y-53623252D01*
X85206510Y-53672105D01*
X85089550Y-53938655D01*
X85022481Y-54091503D01*
X85014115Y-54107346D01*
X84872507Y-54334169D01*
X84862138Y-54348414D01*
X84459352Y-54826312D01*
X84449835Y-54836401D01*
X84196360Y-55076628D01*
X84190686Y-55081684D01*
X83898749Y-55326223D01*
X83893619Y-55330294D01*
X83565387Y-55576956D01*
X83560764Y-55580267D01*
X83196600Y-55828650D01*
X83192434Y-55831371D01*
X82792697Y-56081130D01*
X82788936Y-56083388D01*
X82354056Y-56334165D01*
X82350650Y-56336059D01*
X81880919Y-56587605D01*
X81877822Y-56589207D01*
X81373698Y-56841195D01*
X81370872Y-56842564D01*
X80832639Y-57094777D01*
X80830048Y-57095955D01*
X80258115Y-57348114D01*
X80255730Y-57349136D01*
X79650407Y-57601021D01*
X79648201Y-57601914D01*
X79009862Y-57853279D01*
X79007872Y-57854043D01*
X78459388Y-58059205D01*
X78452395Y-58061585D01*
X78429943Y-58068491D01*
X78360080Y-58069384D01*
X78300824Y-58032364D01*
X78275543Y-57988232D01*
X78184732Y-57708269D01*
X78184507Y-57707564D01*
X78019179Y-57182745D01*
X77987232Y-57081333D01*
X77987223Y-57081307D01*
X77895508Y-56841904D01*
X77756859Y-56479986D01*
X77494929Y-55905327D01*
X77202842Y-55358723D01*
X77185205Y-55330294D01*
X76882015Y-54841569D01*
X76882004Y-54841551D01*
X76615267Y-54468962D01*
X76533831Y-54355208D01*
X76533817Y-54355191D01*
X76533811Y-54355183D01*
X76159729Y-53901069D01*
X76159725Y-53901064D01*
X75761094Y-53480505D01*
X75761078Y-53480489D01*
X75339334Y-53094899D01*
X75339315Y-53094883D01*
X74895865Y-52745643D01*
X74791089Y-52675263D01*
X74432083Y-52434111D01*
X73949411Y-52161692D01*
X73949410Y-52161691D01*
X73949395Y-52161683D01*
X73449251Y-51929767D01*
X73449240Y-51929763D01*
X72669296Y-51660822D01*
X72669279Y-51660817D01*
X71857883Y-51490751D01*
X70656400Y-51441654D01*
X69931386Y-51460767D01*
X68891904Y-51723489D01*
X68118767Y-52027068D01*
X68118745Y-52027078D01*
X67419405Y-52409936D01*
X67419402Y-52409938D01*
X66823375Y-52853233D01*
X66426944Y-53255192D01*
X66187726Y-53590212D01*
X65999327Y-53938655D01*
X65999327Y-53938656D01*
X66001408Y-54311762D01*
X66001410Y-54311767D01*
X66200828Y-54676030D01*
X66200833Y-54676037D01*
X66453594Y-54979860D01*
X66453596Y-54979863D01*
X66697257Y-55187852D01*
X66790606Y-55267536D01*
X67206048Y-55536116D01*
X67694099Y-55782655D01*
X67963535Y-55896739D01*
X68549590Y-56104696D01*
X69193707Y-56283252D01*
X69242622Y-56293522D01*
X69259808Y-56297131D01*
X69321372Y-56330171D01*
X69355300Y-56391250D01*
X69350821Y-56460976D01*
X69309355Y-56517211D01*
X69244070Y-56542102D01*
X69241728Y-56542264D01*
X68845357Y-56565960D01*
X68843711Y-56566047D01*
X67900966Y-56609837D01*
X67899902Y-56609882D01*
X66782366Y-56652182D01*
X66782003Y-56652195D01*
X64858386Y-56719368D01*
X64858387Y-56719369D01*
X64643003Y-56727081D01*
X64136930Y-56745204D01*
X65176145Y-57109523D01*
X66121608Y-57445185D01*
X66448710Y-57561314D01*
X66450994Y-57562150D01*
X69883190Y-58857010D01*
X69885910Y-58858074D01*
X70892093Y-59265822D01*
X70894670Y-59266900D01*
X72692285Y-60043488D01*
X72695860Y-60045101D01*
X73142592Y-60255426D01*
X73194860Y-60301790D01*
X73213764Y-60369054D01*
X73193301Y-60435860D01*
X73139969Y-60480998D01*
X73070700Y-60490137D01*
X73065187Y-60489151D01*
X72453940Y-60365507D01*
X71657997Y-60238375D01*
X70816004Y-60133741D01*
X69949791Y-60053962D01*
X69949737Y-60053959D01*
X68231928Y-59978416D01*
X67424082Y-59987383D01*
X66067284Y-60051040D01*
X64746075Y-60151317D01*
X63460261Y-60288238D01*
X62209895Y-60461813D01*
X60994885Y-60672056D01*
X59815165Y-60918987D01*
X58670716Y-61202616D01*
X58670708Y-61202618D01*
X58300957Y-61309400D01*
X57561441Y-61522968D01*
X56487361Y-61880038D01*
X55448358Y-62273861D01*
X53475472Y-63171795D01*
X52541479Y-63675939D01*
X52541455Y-63675952D01*
X51642386Y-64216884D01*
X51642372Y-64216893D01*
X50778111Y-64794667D01*
X49948651Y-65409272D01*
X49628561Y-65660248D01*
X49628537Y-65660268D01*
X49564750Y-65720703D01*
X49564747Y-65720706D01*
X49532393Y-65768727D01*
X49539041Y-65820000D01*
X49603671Y-65864984D01*
X49811921Y-65940436D01*
X50025498Y-66008855D01*
X50027895Y-66009650D01*
X50624542Y-66214465D01*
X50628205Y-66215788D01*
X50892407Y-66316022D01*
X51209467Y-66436310D01*
X51213161Y-66437780D01*
X51777844Y-66673027D01*
X51781502Y-66674621D01*
X52327965Y-66923469D01*
X52331645Y-66925221D01*
X52857991Y-67186427D01*
X52861715Y-67188355D01*
X53366292Y-67460786D01*
X53370143Y-67462956D01*
X53758688Y-67691107D01*
X53851045Y-67745339D01*
X53855038Y-67747786D01*
X54178872Y-67954772D01*
X54310593Y-68038964D01*
X54314737Y-68041732D01*
X54743123Y-68340449D01*
X54747452Y-68343608D01*
X55146969Y-68648671D01*
X55151515Y-68652315D01*
X55520333Y-68962417D01*
X55525094Y-68966634D01*
X55860806Y-69279876D01*
X55867158Y-69286252D01*
X56119101Y-69558251D01*
X56307581Y-69761735D01*
X56315765Y-69771539D01*
X56463033Y-69967656D01*
X56673739Y-70248252D01*
X56680848Y-70258806D01*
X56826934Y-70501728D01*
X56844614Y-70569323D01*
X56822943Y-70635747D01*
X56768800Y-70679910D01*
X56699376Y-70687790D01*
X56664973Y-70676420D01*
X56266606Y-70476151D01*
X55708712Y-70208862D01*
X55150080Y-69967656D01*
X55081251Y-69941220D01*
X54586525Y-69751205D01*
X54014035Y-69558255D01*
X53671346Y-69458325D01*
X53428499Y-69387509D01*
X52825821Y-69237679D01*
X52201902Y-69107474D01*
X51552684Y-68995614D01*
X50952217Y-68902080D01*
X50952218Y-68902080D01*
X48341512Y-68897928D01*
X47797410Y-68985520D01*
X47750853Y-68993015D01*
X47169972Y-69107477D01*
X46750837Y-69190067D01*
X46230253Y-69321267D01*
X46230202Y-69321281D01*
X45094596Y-69665124D01*
X44458330Y-69884190D01*
X43762160Y-70139000D01*
X42995640Y-70432697D01*
X42995641Y-70432698D01*
X42286876Y-70705039D01*
X42285287Y-70705638D01*
X41665543Y-70934080D01*
X41662587Y-70935127D01*
X40870574Y-71204522D01*
X40865215Y-71206210D01*
X40202887Y-71398495D01*
X40193916Y-71400740D01*
X39436051Y-71560653D01*
X39423743Y-71562610D01*
X38771471Y-71632938D01*
X38756563Y-71633642D01*
X38157843Y-71625845D01*
X38143364Y-71624807D01*
X37544858Y-71546464D01*
X37534550Y-71544670D01*
X37241024Y-71480706D01*
X37231330Y-71478179D01*
X36639451Y-71298087D01*
X36630390Y-71294942D01*
X36340744Y-71181666D01*
X36335081Y-71179288D01*
X36046576Y-71049620D01*
X36041202Y-71047047D01*
X35755788Y-70901906D01*
X35750705Y-70899171D01*
X35469895Y-70739505D01*
X35462799Y-70735149D01*
X34909546Y-70369375D01*
X34901008Y-70363193D01*
X34367504Y-69941220D01*
X34359938Y-69934724D01*
X33848183Y-69458325D01*
X33841490Y-69451599D01*
X33782425Y-69387509D01*
X33354650Y-68923339D01*
X33348740Y-68916434D01*
X33334040Y-68897929D01*
X33054083Y-68545497D01*
X32890020Y-68338961D01*
X32884811Y-68331905D01*
X32457361Y-67707836D01*
X32452790Y-67700644D01*
X32059768Y-67032640D01*
X32055793Y-67025333D01*
X31700306Y-66315992D01*
X31696896Y-66308584D01*
X31382116Y-65560656D01*
X31379211Y-65553068D01*
X31243117Y-65159377D01*
X31108221Y-64769154D01*
X31105846Y-64761488D01*
X30885577Y-63959424D01*
X30884558Y-63955457D01*
X30776932Y-63505912D01*
X30776198Y-63502653D01*
X30763137Y-63440781D01*
X30590155Y-62621351D01*
X30589406Y-62617498D01*
X30521935Y-62237759D01*
X30521271Y-62233611D01*
X30477550Y-61927296D01*
X30476640Y-61918871D01*
X30469316Y-61819291D01*
X30461042Y-61706809D01*
X30460887Y-61704349D01*
X30458746Y-61664302D01*
X30458027Y-61650856D01*
X30447253Y-61614142D01*
X30432220Y-61598941D01*
X30432218Y-61598940D01*
X30432217Y-61598940D01*
X30409826Y-61594703D01*
X30378811Y-61601783D01*
X30378806Y-61601785D01*
X30337898Y-61620536D01*
X30265796Y-61664294D01*
X30265783Y-61664302D01*
X30170875Y-61730262D01*
X30050119Y-61819291D01*
X29707679Y-62095904D01*
X29707659Y-62095920D01*
X29378935Y-62401640D01*
X29378911Y-62401663D01*
X29065013Y-62734169D01*
X28767103Y-63091084D01*
X28486335Y-63470035D01*
X28202596Y-63927221D01*
X28022818Y-64216895D01*
X27980714Y-64284736D01*
X27557314Y-65159371D01*
X27557311Y-65159380D01*
X27379295Y-65613282D01*
X27379286Y-65613305D01*
X27096291Y-66542590D01*
X26993603Y-67013232D01*
X26918308Y-67484746D01*
X26871546Y-67954770D01*
X26858894Y-68299888D01*
X26836766Y-68366161D01*
X26782322Y-68409951D01*
X26712845Y-68417354D01*
X26650396Y-68386020D01*
X26636350Y-68370503D01*
X26520568Y-68218567D01*
X26516760Y-68213288D01*
X26500702Y-68189749D01*
X26279866Y-67866026D01*
X26276621Y-67861013D01*
X26050460Y-67492216D01*
X26047662Y-67487412D01*
X25832903Y-67098789D01*
X25830460Y-67094136D01*
X25798020Y-67029045D01*
X25627746Y-66687383D01*
X25625617Y-66682888D01*
X25621909Y-66674631D01*
X25435512Y-66259581D01*
X25433653Y-66255217D01*
X25334527Y-66009662D01*
X25256783Y-65817073D01*
X25255149Y-65812798D01*
X25200041Y-65660258D01*
X25092094Y-65361458D01*
X25090665Y-65357267D01*
X25027109Y-65159371D01*
X24942338Y-64895420D01*
X24940521Y-64889203D01*
X24688166Y-63933466D01*
X24686689Y-63927221D01*
X24584883Y-63440748D01*
X24584083Y-63436558D01*
X24498745Y-62944221D01*
X24498078Y-62939928D01*
X24429967Y-62444353D01*
X24429443Y-62439958D01*
X24425566Y-62401663D01*
X24379118Y-61942851D01*
X24378743Y-61938328D01*
X24377490Y-61918871D01*
X24346663Y-61440021D01*
X24346547Y-61437906D01*
X24318499Y-60824413D01*
X24318669Y-60810154D01*
X24353431Y-60311654D01*
X43525001Y-60311654D01*
X43535319Y-60412652D01*
X43589546Y-60576300D01*
X43589551Y-60576311D01*
X43680052Y-60723034D01*
X43680055Y-60723038D01*
X43801961Y-60844944D01*
X43801965Y-60844947D01*
X43948688Y-60935448D01*
X43948699Y-60935453D01*
X44112347Y-60989680D01*
X44213352Y-60999999D01*
X44250000Y-60999999D01*
X44750000Y-60999999D01*
X44786640Y-60999999D01*
X44786654Y-60999998D01*
X44887652Y-60989680D01*
X45051300Y-60935453D01*
X45051311Y-60935448D01*
X45198034Y-60844947D01*
X45198038Y-60844944D01*
X45319944Y-60723038D01*
X45319947Y-60723034D01*
X45410448Y-60576311D01*
X45410453Y-60576300D01*
X45464680Y-60412652D01*
X45474999Y-60311654D01*
X45475000Y-60311641D01*
X45475000Y-60225000D01*
X44750000Y-60225000D01*
X44750000Y-60999999D01*
X44250000Y-60999999D01*
X44250000Y-60225000D01*
X43525001Y-60225000D01*
X43525001Y-60311654D01*
X24353431Y-60311654D01*
X24366711Y-60121217D01*
X24366808Y-60119948D01*
X24396152Y-59756281D01*
X24396559Y-59752123D01*
X24479731Y-59032352D01*
X24480463Y-59027039D01*
X24568530Y-58477198D01*
X24569214Y-58473327D01*
X24641065Y-58101216D01*
X24668343Y-57959940D01*
X24669473Y-57954701D01*
X24685298Y-57888330D01*
X24837270Y-57250928D01*
X24839572Y-57242580D01*
X24858342Y-57182747D01*
X24994093Y-56749996D01*
X35694435Y-56749996D01*
X35694435Y-56750003D01*
X35714630Y-56929249D01*
X35714631Y-56929254D01*
X35774211Y-57099523D01*
X35864100Y-57242580D01*
X35870184Y-57252262D01*
X35997738Y-57379816D01*
X36085612Y-57435031D01*
X36145028Y-57472365D01*
X36150478Y-57475789D01*
X36291967Y-57525298D01*
X36320745Y-57535368D01*
X36320750Y-57535369D01*
X36499996Y-57555565D01*
X36500000Y-57555565D01*
X36500004Y-57555565D01*
X36679249Y-57535369D01*
X36679252Y-57535368D01*
X36679255Y-57535368D01*
X36849522Y-57475789D01*
X36854972Y-57472365D01*
X36899307Y-57444507D01*
X36965280Y-57425500D01*
X43489035Y-57425500D01*
X43556074Y-57445185D01*
X43601829Y-57497989D01*
X43611773Y-57567147D01*
X43594574Y-57614597D01*
X43589093Y-57623481D01*
X43589091Y-57623486D01*
X43565055Y-57696022D01*
X43534826Y-57787247D01*
X43534826Y-57787248D01*
X43534825Y-57787248D01*
X43524500Y-57888315D01*
X43524500Y-58561669D01*
X43524501Y-58561687D01*
X43534825Y-58662752D01*
X43547005Y-58699507D01*
X43589092Y-58826516D01*
X43678190Y-58970967D01*
X43679661Y-58973351D01*
X43718982Y-59012672D01*
X43752467Y-59073995D01*
X43747483Y-59143687D01*
X43718983Y-59188033D01*
X43680055Y-59226961D01*
X43680052Y-59226965D01*
X43589551Y-59373688D01*
X43589546Y-59373699D01*
X43535319Y-59537347D01*
X43525000Y-59638345D01*
X43525000Y-59725000D01*
X45474999Y-59725000D01*
X45474999Y-59638360D01*
X45474998Y-59638345D01*
X45464680Y-59537347D01*
X45410453Y-59373699D01*
X45410448Y-59373688D01*
X45319947Y-59226965D01*
X45319944Y-59226961D01*
X45281017Y-59188034D01*
X45247532Y-59126711D01*
X45252516Y-59057019D01*
X45281016Y-59012673D01*
X45320340Y-58973350D01*
X45410908Y-58826516D01*
X45465174Y-58662753D01*
X45475500Y-58561677D01*
X45475499Y-57888324D01*
X45475361Y-57886976D01*
X45465174Y-57787247D01*
X45450218Y-57742113D01*
X45410908Y-57623484D01*
X45320340Y-57476650D01*
X45211819Y-57368129D01*
X45178334Y-57306806D01*
X45175500Y-57280448D01*
X45175500Y-57183468D01*
X45175356Y-57182747D01*
X45175362Y-57182745D01*
X45175344Y-57182689D01*
X45149541Y-57052964D01*
X45105997Y-56947841D01*
X45098620Y-56930031D01*
X45098101Y-56929255D01*
X45024698Y-56819398D01*
X45024697Y-56819397D01*
X45024695Y-56819394D01*
X44930606Y-56725305D01*
X44681484Y-56476183D01*
X44430609Y-56225307D01*
X44430605Y-56225304D01*
X44319975Y-56151383D01*
X44319965Y-56151378D01*
X44197036Y-56100459D01*
X44197028Y-56100457D01*
X44066535Y-56074500D01*
X44066531Y-56074500D01*
X36965280Y-56074500D01*
X36899307Y-56055493D01*
X36849524Y-56024211D01*
X36679254Y-55964631D01*
X36679249Y-55964630D01*
X36500004Y-55944435D01*
X36499996Y-55944435D01*
X36320750Y-55964630D01*
X36320745Y-55964631D01*
X36150476Y-56024211D01*
X35997737Y-56120184D01*
X35870184Y-56247737D01*
X35774211Y-56400476D01*
X35714631Y-56570745D01*
X35714630Y-56570750D01*
X35694435Y-56749996D01*
X24994093Y-56749996D01*
X25284902Y-55822944D01*
X25287114Y-55816516D01*
X25420785Y-55460186D01*
X25421652Y-55457949D01*
X25565598Y-55097191D01*
X25566526Y-55094931D01*
X25720200Y-54731095D01*
X25721054Y-54729125D01*
X25884770Y-54361347D01*
X25885242Y-54360302D01*
X25887568Y-54355208D01*
X26145968Y-53789287D01*
X26000992Y-53541855D01*
X25998532Y-53537450D01*
X25783905Y-53134068D01*
X25780120Y-53126313D01*
X25579211Y-52675263D01*
X25575890Y-52667026D01*
X25474158Y-52386070D01*
X25303144Y-51913775D01*
X25300352Y-51905072D01*
X25249395Y-51723489D01*
X25072024Y-51091429D01*
X25069996Y-51083108D01*
X25068587Y-51076314D01*
X24894969Y-50238952D01*
X24893694Y-50231728D01*
X24863459Y-50024998D01*
X24811381Y-49668922D01*
X24810674Y-49663131D01*
X24806891Y-49624692D01*
X24783466Y-49386654D01*
X32475001Y-49386654D01*
X32485319Y-49487652D01*
X32539546Y-49651300D01*
X32539551Y-49651311D01*
X32630052Y-49798034D01*
X32630055Y-49798038D01*
X32751961Y-49919944D01*
X32751965Y-49919947D01*
X32898688Y-50010448D01*
X32898699Y-50010453D01*
X33062347Y-50064680D01*
X33163351Y-50074999D01*
X33250000Y-50074998D01*
X33250000Y-49350000D01*
X32475001Y-49350000D01*
X32475001Y-49386654D01*
X24783466Y-49386654D01*
X24731812Y-48861768D01*
X24731255Y-48846579D01*
X24732078Y-48813345D01*
X32475000Y-48813345D01*
X32475000Y-48850000D01*
X33250000Y-48850000D01*
X33250000Y-48125000D01*
X33249999Y-48124999D01*
X33163360Y-48125000D01*
X33163343Y-48125001D01*
X33062347Y-48135319D01*
X32898699Y-48189546D01*
X32898688Y-48189551D01*
X32751965Y-48280052D01*
X32751961Y-48280055D01*
X32630055Y-48401961D01*
X32630052Y-48401965D01*
X32539551Y-48548688D01*
X32539546Y-48548699D01*
X32485319Y-48712347D01*
X32475000Y-48813345D01*
X24732078Y-48813345D01*
X24753804Y-47935903D01*
X24753811Y-47935903D01*
X24753805Y-47935837D01*
X24776858Y-47026049D01*
X24778266Y-47010300D01*
X24859918Y-46481340D01*
X24860686Y-46476915D01*
X25054890Y-45466680D01*
X25056365Y-45460011D01*
X25181113Y-44962172D01*
X25182933Y-44955669D01*
X25491732Y-43959080D01*
X25493669Y-43953333D01*
X25502445Y-43929254D01*
X25567776Y-43749996D01*
X33694435Y-43749996D01*
X33694435Y-43750003D01*
X33714630Y-43929249D01*
X33714631Y-43929254D01*
X33774211Y-44099523D01*
X33802499Y-44144542D01*
X33870184Y-44252262D01*
X33997738Y-44379816D01*
X34150478Y-44475789D01*
X34308372Y-44531038D01*
X34355097Y-44560398D01*
X36788181Y-46993482D01*
X36821666Y-47054805D01*
X36824500Y-47081163D01*
X36824500Y-47518836D01*
X36804815Y-47585875D01*
X36788181Y-47606517D01*
X36139851Y-48254846D01*
X36078528Y-48288331D01*
X36008836Y-48283347D01*
X35987074Y-48272704D01*
X35851522Y-48189095D01*
X35851517Y-48189093D01*
X35851516Y-48189092D01*
X35687753Y-48134826D01*
X35687751Y-48134825D01*
X35586678Y-48124500D01*
X34913330Y-48124500D01*
X34913312Y-48124501D01*
X34812247Y-48134825D01*
X34648484Y-48189092D01*
X34648481Y-48189093D01*
X34501648Y-48279661D01*
X34462326Y-48318983D01*
X34401003Y-48352468D01*
X34331311Y-48347482D01*
X34286965Y-48318982D01*
X34248038Y-48280055D01*
X34248034Y-48280052D01*
X34101311Y-48189551D01*
X34101300Y-48189546D01*
X33937652Y-48135319D01*
X33836654Y-48125000D01*
X33750000Y-48125000D01*
X33750000Y-50074999D01*
X33836640Y-50074999D01*
X33836654Y-50074998D01*
X33937652Y-50064680D01*
X34101300Y-50010453D01*
X34101311Y-50010448D01*
X34248034Y-49919947D01*
X34248037Y-49919945D01*
X34286964Y-49881018D01*
X34348287Y-49847532D01*
X34417978Y-49852516D01*
X34462327Y-49881017D01*
X34501650Y-49920340D01*
X34648484Y-50010908D01*
X34812247Y-50065174D01*
X34913323Y-50075500D01*
X35586676Y-50075499D01*
X35586684Y-50075498D01*
X35586687Y-50075498D01*
X35642030Y-50069844D01*
X35687753Y-50065174D01*
X35851516Y-50010908D01*
X35998350Y-49920340D01*
X36106871Y-49811819D01*
X36168194Y-49778334D01*
X36194552Y-49775500D01*
X36316532Y-49775500D01*
X36316533Y-49775499D01*
X36447036Y-49749541D01*
X36569969Y-49698620D01*
X36680606Y-49624695D01*
X36821837Y-49483464D01*
X51824500Y-49483464D01*
X51824500Y-52816535D01*
X51850457Y-52947028D01*
X51850459Y-52947036D01*
X51901378Y-53069965D01*
X51901383Y-53069975D01*
X51975304Y-53180605D01*
X51975307Y-53180609D01*
X54189601Y-55394902D01*
X54218961Y-55441628D01*
X54225455Y-55460186D01*
X54274210Y-55599521D01*
X54327054Y-55683621D01*
X54370184Y-55752262D01*
X54497738Y-55879816D01*
X54561493Y-55919876D01*
X54632721Y-55964632D01*
X54650478Y-55975789D01*
X54820745Y-56035368D01*
X54820750Y-56035369D01*
X54999996Y-56055565D01*
X55000000Y-56055565D01*
X55000004Y-56055565D01*
X55179249Y-56035369D01*
X55179252Y-56035368D01*
X55179255Y-56035368D01*
X55349522Y-55975789D01*
X55502262Y-55879816D01*
X55629816Y-55752262D01*
X55725789Y-55599522D01*
X55785368Y-55429255D01*
X55786622Y-55418129D01*
X55805565Y-55250003D01*
X55805565Y-55249996D01*
X55785369Y-55070750D01*
X55785368Y-55070744D01*
X55728945Y-54909498D01*
X55725789Y-54900478D01*
X55715088Y-54883448D01*
X55667753Y-54808114D01*
X55629816Y-54747738D01*
X55502262Y-54620184D01*
X55468559Y-54599007D01*
X55349521Y-54524210D01*
X55191629Y-54468962D01*
X55144902Y-54439601D01*
X53211819Y-52506518D01*
X53178334Y-52445195D01*
X53175500Y-52418837D01*
X53175500Y-50133296D01*
X53195185Y-50066257D01*
X53247989Y-50020502D01*
X53317147Y-50010558D01*
X53331654Y-50013976D01*
X53337245Y-50015173D01*
X53337247Y-50015174D01*
X53438323Y-50025500D01*
X54111676Y-50025499D01*
X54111684Y-50025498D01*
X54111687Y-50025498D01*
X54167030Y-50019844D01*
X54212753Y-50015174D01*
X54376516Y-49960908D01*
X54523350Y-49870340D01*
X54562673Y-49831016D01*
X54623994Y-49797532D01*
X54693685Y-49802516D01*
X54738034Y-49831017D01*
X54776961Y-49869944D01*
X54776965Y-49869947D01*
X54923688Y-49960448D01*
X54923699Y-49960453D01*
X55087347Y-50014680D01*
X55188351Y-50024999D01*
X55775000Y-50024999D01*
X55861640Y-50024999D01*
X55861654Y-50024998D01*
X55962652Y-50014680D01*
X56126300Y-49960453D01*
X56126311Y-49960448D01*
X56273034Y-49869947D01*
X56273038Y-49869944D01*
X56394944Y-49748038D01*
X56394947Y-49748034D01*
X56485448Y-49601311D01*
X56485453Y-49601300D01*
X56539680Y-49437652D01*
X56549999Y-49336654D01*
X56550000Y-49336641D01*
X56550000Y-49300000D01*
X55775000Y-49300000D01*
X55775000Y-50024999D01*
X55188351Y-50024999D01*
X55275000Y-50024998D01*
X55275000Y-48800000D01*
X55775000Y-48800000D01*
X56549999Y-48800000D01*
X56549999Y-48763360D01*
X56549998Y-48763345D01*
X56539680Y-48662347D01*
X56485453Y-48498699D01*
X56485448Y-48498688D01*
X56394947Y-48351965D01*
X56394944Y-48351961D01*
X56273038Y-48230055D01*
X56273034Y-48230052D01*
X56126311Y-48139551D01*
X56126300Y-48139546D01*
X55962652Y-48085319D01*
X55861654Y-48075000D01*
X55775000Y-48075000D01*
X55775000Y-48800000D01*
X55275000Y-48800000D01*
X55275000Y-48075000D01*
X55274999Y-48074999D01*
X55188360Y-48075000D01*
X55188343Y-48075001D01*
X55087347Y-48085319D01*
X54923699Y-48139546D01*
X54923688Y-48139551D01*
X54776965Y-48230052D01*
X54776961Y-48230055D01*
X54738033Y-48268983D01*
X54676710Y-48302468D01*
X54607018Y-48297482D01*
X54562672Y-48268982D01*
X54523351Y-48229661D01*
X54523350Y-48229660D01*
X54419873Y-48165835D01*
X54376518Y-48139093D01*
X54376513Y-48139091D01*
X54333986Y-48124999D01*
X54212753Y-48084826D01*
X54212751Y-48084825D01*
X54111678Y-48074500D01*
X53438330Y-48074500D01*
X53438312Y-48074501D01*
X53337247Y-48084825D01*
X53173484Y-48139092D01*
X53173481Y-48139093D01*
X53026648Y-48229661D01*
X52899553Y-48356757D01*
X52898196Y-48355400D01*
X52849111Y-48390145D01*
X52833079Y-48394468D01*
X52802968Y-48400457D01*
X52802959Y-48400460D01*
X52716039Y-48436462D01*
X52716040Y-48436463D01*
X52680034Y-48451378D01*
X52569391Y-48525306D01*
X51975307Y-49119390D01*
X51975304Y-49119394D01*
X51901383Y-49230024D01*
X51901378Y-49230034D01*
X51850459Y-49352963D01*
X51850457Y-49352971D01*
X51824500Y-49483464D01*
X36821837Y-49483464D01*
X38024695Y-48280606D01*
X38098620Y-48169969D01*
X38149541Y-48047036D01*
X38175500Y-47916531D01*
X38175500Y-47783469D01*
X38175500Y-46683469D01*
X38168261Y-46647076D01*
X38149541Y-46552964D01*
X38103287Y-46441299D01*
X38098620Y-46430031D01*
X38098619Y-46430029D01*
X38098616Y-46430024D01*
X38024698Y-46319398D01*
X38024697Y-46319397D01*
X38024695Y-46319394D01*
X37930606Y-46225305D01*
X37705301Y-46000000D01*
X65544901Y-46000000D01*
X65563252Y-46186331D01*
X65563253Y-46186333D01*
X65617604Y-46365502D01*
X65705862Y-46530623D01*
X65705864Y-46530626D01*
X65824642Y-46675357D01*
X65969373Y-46794135D01*
X65969376Y-46794137D01*
X66117229Y-46873165D01*
X66134499Y-46882396D01*
X66313666Y-46936746D01*
X66313668Y-46936747D01*
X66330374Y-46938392D01*
X66500000Y-46955099D01*
X66686331Y-46936747D01*
X66865501Y-46882396D01*
X67030625Y-46794136D01*
X67175357Y-46675357D01*
X67294136Y-46530625D01*
X67382396Y-46365501D01*
X67436747Y-46186331D01*
X67448304Y-46068995D01*
X73599499Y-46068995D01*
X73626418Y-46204322D01*
X73626421Y-46204332D01*
X73679221Y-46331804D01*
X73679228Y-46331817D01*
X73755885Y-46446541D01*
X73755888Y-46446545D01*
X73853454Y-46544111D01*
X73853458Y-46544114D01*
X73968182Y-46620771D01*
X73968195Y-46620778D01*
X74061897Y-46659590D01*
X74095672Y-46673580D01*
X74095676Y-46673580D01*
X74095677Y-46673581D01*
X74231004Y-46700500D01*
X74231007Y-46700500D01*
X74368995Y-46700500D01*
X74495394Y-46675357D01*
X74504328Y-46673580D01*
X74631811Y-46620775D01*
X74746542Y-46544114D01*
X74844114Y-46446542D01*
X74920775Y-46331811D01*
X74973580Y-46204328D01*
X74982389Y-46160041D01*
X75000500Y-46068995D01*
X75000500Y-45931004D01*
X74973581Y-45795677D01*
X74973580Y-45795676D01*
X74973580Y-45795672D01*
X74957360Y-45756514D01*
X74920778Y-45668195D01*
X74920771Y-45668182D01*
X74844114Y-45553458D01*
X74844111Y-45553454D01*
X74746545Y-45455888D01*
X74746541Y-45455885D01*
X74631817Y-45379228D01*
X74631804Y-45379221D01*
X74504332Y-45326421D01*
X74504322Y-45326418D01*
X74368995Y-45299500D01*
X74368993Y-45299500D01*
X74231007Y-45299500D01*
X74231005Y-45299500D01*
X74095677Y-45326418D01*
X74095667Y-45326421D01*
X73968195Y-45379221D01*
X73968182Y-45379228D01*
X73853458Y-45455885D01*
X73853454Y-45455888D01*
X73755888Y-45553454D01*
X73755885Y-45553458D01*
X73679228Y-45668182D01*
X73679221Y-45668195D01*
X73626421Y-45795667D01*
X73626418Y-45795677D01*
X73599500Y-45931004D01*
X73599500Y-45931007D01*
X73599500Y-46068993D01*
X73599500Y-46068995D01*
X73599499Y-46068995D01*
X67448304Y-46068995D01*
X67455099Y-46000000D01*
X67436747Y-45813669D01*
X67382396Y-45634499D01*
X67339077Y-45553454D01*
X67294137Y-45469376D01*
X67294135Y-45469373D01*
X67175357Y-45324642D01*
X67030626Y-45205864D01*
X67030623Y-45205862D01*
X66865502Y-45117604D01*
X66686333Y-45063253D01*
X66686331Y-45063252D01*
X66500000Y-45044901D01*
X66313668Y-45063252D01*
X66313666Y-45063253D01*
X66134497Y-45117604D01*
X65969376Y-45205862D01*
X65969373Y-45205864D01*
X65824642Y-45324642D01*
X65705864Y-45469373D01*
X65705862Y-45469376D01*
X65617604Y-45634497D01*
X65563253Y-45813666D01*
X65563252Y-45813668D01*
X65544901Y-46000000D01*
X37705301Y-46000000D01*
X35310398Y-43605097D01*
X35281038Y-43558372D01*
X35251111Y-43472844D01*
X65575000Y-43472844D01*
X65581401Y-43532372D01*
X65581403Y-43532379D01*
X65631645Y-43667086D01*
X65631649Y-43667093D01*
X65717809Y-43782187D01*
X65717812Y-43782190D01*
X65832906Y-43868350D01*
X65832913Y-43868354D01*
X65967620Y-43918596D01*
X65967627Y-43918598D01*
X66027155Y-43924999D01*
X66027172Y-43925000D01*
X66250000Y-43925000D01*
X66750000Y-43925000D01*
X66972828Y-43925000D01*
X66972844Y-43924999D01*
X67032372Y-43918598D01*
X67032379Y-43918596D01*
X67167086Y-43868354D01*
X67167093Y-43868350D01*
X67282187Y-43782190D01*
X67282190Y-43782187D01*
X67368350Y-43667093D01*
X67368354Y-43667086D01*
X67418596Y-43532379D01*
X67418598Y-43532372D01*
X67424999Y-43472844D01*
X67425000Y-43472827D01*
X67425000Y-43250000D01*
X66750000Y-43250000D01*
X66750000Y-43925000D01*
X66250000Y-43925000D01*
X66250000Y-43250000D01*
X65575000Y-43250000D01*
X65575000Y-43472844D01*
X35251111Y-43472844D01*
X35225789Y-43400478D01*
X35129816Y-43247738D01*
X35002262Y-43120184D01*
X34849523Y-43024211D01*
X34679254Y-42964631D01*
X34679249Y-42964630D01*
X34551812Y-42950272D01*
X66250000Y-42950272D01*
X66250000Y-43049728D01*
X66288060Y-43141614D01*
X66358386Y-43211940D01*
X66450272Y-43250000D01*
X66549728Y-43250000D01*
X66641614Y-43211940D01*
X66711940Y-43141614D01*
X66742019Y-43068995D01*
X73599499Y-43068995D01*
X73626418Y-43204322D01*
X73626421Y-43204332D01*
X73679221Y-43331804D01*
X73679228Y-43331817D01*
X73755885Y-43446541D01*
X73755888Y-43446545D01*
X73853454Y-43544111D01*
X73853458Y-43544114D01*
X73968182Y-43620771D01*
X73968195Y-43620778D01*
X74079994Y-43667086D01*
X74095672Y-43673580D01*
X74095676Y-43673580D01*
X74095677Y-43673581D01*
X74231004Y-43700500D01*
X74231007Y-43700500D01*
X74368995Y-43700500D01*
X74460041Y-43682389D01*
X74504328Y-43673580D01*
X74631811Y-43620775D01*
X74746542Y-43544114D01*
X74844114Y-43446542D01*
X74920775Y-43331811D01*
X74973580Y-43204328D01*
X74986408Y-43139839D01*
X75000500Y-43068995D01*
X75000500Y-42931004D01*
X74973581Y-42795677D01*
X74973580Y-42795676D01*
X74973580Y-42795672D01*
X74954662Y-42750000D01*
X74920778Y-42668195D01*
X74920771Y-42668182D01*
X74844114Y-42553458D01*
X74844111Y-42553454D01*
X74746545Y-42455888D01*
X74746541Y-42455885D01*
X74631817Y-42379228D01*
X74631804Y-42379221D01*
X74504332Y-42326421D01*
X74504322Y-42326418D01*
X74368995Y-42299500D01*
X74368993Y-42299500D01*
X74231007Y-42299500D01*
X74231005Y-42299500D01*
X74095677Y-42326418D01*
X74095667Y-42326421D01*
X73968195Y-42379221D01*
X73968182Y-42379228D01*
X73853458Y-42455885D01*
X73853454Y-42455888D01*
X73755888Y-42553454D01*
X73755885Y-42553458D01*
X73679228Y-42668182D01*
X73679221Y-42668195D01*
X73626421Y-42795667D01*
X73626418Y-42795677D01*
X73599500Y-42931004D01*
X73599500Y-42931007D01*
X73599500Y-43068993D01*
X73599500Y-43068995D01*
X73599499Y-43068995D01*
X66742019Y-43068995D01*
X66750000Y-43049728D01*
X66750000Y-42950272D01*
X66711940Y-42858386D01*
X66641614Y-42788060D01*
X66549728Y-42750000D01*
X66750000Y-42750000D01*
X67425000Y-42750000D01*
X67425000Y-42527172D01*
X67424999Y-42527155D01*
X67418598Y-42467627D01*
X67418596Y-42467620D01*
X67368354Y-42332913D01*
X67368350Y-42332906D01*
X67282190Y-42217812D01*
X67282187Y-42217809D01*
X67167093Y-42131649D01*
X67167086Y-42131645D01*
X67032379Y-42081403D01*
X67032372Y-42081401D01*
X66972844Y-42075000D01*
X66750000Y-42075000D01*
X66750000Y-42750000D01*
X66549728Y-42750000D01*
X66450272Y-42750000D01*
X66358386Y-42788060D01*
X66288060Y-42858386D01*
X66250000Y-42950272D01*
X34551812Y-42950272D01*
X34500004Y-42944435D01*
X34499996Y-42944435D01*
X34320750Y-42964630D01*
X34320745Y-42964631D01*
X34150476Y-43024211D01*
X33997737Y-43120184D01*
X33870184Y-43247737D01*
X33774211Y-43400476D01*
X33714631Y-43570745D01*
X33714630Y-43570750D01*
X33694435Y-43749996D01*
X25567776Y-43749996D01*
X25748414Y-43254350D01*
X25751909Y-43245773D01*
X26103770Y-42466828D01*
X26105470Y-42463223D01*
X26346927Y-41972505D01*
X26348764Y-41968923D01*
X26360438Y-41947028D01*
X26609862Y-41479232D01*
X26611697Y-41475919D01*
X26892602Y-40986948D01*
X26894469Y-40983811D01*
X27195235Y-40495465D01*
X27197189Y-40492397D01*
X27517875Y-40004563D01*
X27519783Y-40001749D01*
X27860562Y-39514136D01*
X27862467Y-39511487D01*
X28223350Y-39024050D01*
X28225264Y-39021534D01*
X28606815Y-38533497D01*
X28607834Y-38532212D01*
X28813272Y-38277077D01*
X28870647Y-38237209D01*
X28940471Y-38234688D01*
X29000574Y-38270317D01*
X29031873Y-38332784D01*
X29032404Y-38373742D01*
X29004741Y-38553171D01*
X28971193Y-38801123D01*
X28937602Y-39074159D01*
X28908081Y-39339966D01*
X28844511Y-39949824D01*
X28844510Y-39949834D01*
X28846749Y-40495484D01*
X28848129Y-40831945D01*
X28848867Y-40900476D01*
X28852006Y-41192213D01*
X28859250Y-41521297D01*
X28874136Y-41876846D01*
X28874137Y-41876855D01*
X28906519Y-42167263D01*
X28906520Y-42167263D01*
X28906520Y-42167264D01*
X29000000Y-42000000D01*
X29274831Y-41506468D01*
X29276170Y-41504127D01*
X30043045Y-40199602D01*
X30046046Y-40194758D01*
X30170004Y-40004616D01*
X30408803Y-39638315D01*
X43524500Y-39638315D01*
X43524500Y-40311669D01*
X43524501Y-40311687D01*
X43534825Y-40412752D01*
X43562234Y-40495465D01*
X43589092Y-40576516D01*
X43667381Y-40703443D01*
X43679661Y-40723351D01*
X43788181Y-40831871D01*
X43821666Y-40893194D01*
X43824500Y-40919552D01*
X43824500Y-41816535D01*
X43850457Y-41947028D01*
X43850459Y-41947036D01*
X43901378Y-42069965D01*
X43901383Y-42069975D01*
X43975304Y-42180605D01*
X43975307Y-42180609D01*
X44475305Y-42680606D01*
X44569394Y-42774695D01*
X44569397Y-42774697D01*
X44569398Y-42774698D01*
X44680020Y-42848613D01*
X44680022Y-42848614D01*
X44680031Y-42848620D01*
X44712865Y-42862220D01*
X44712866Y-42862221D01*
X44712867Y-42862221D01*
X44802964Y-42899541D01*
X44896689Y-42918184D01*
X44933464Y-42925499D01*
X44933468Y-42925500D01*
X44933469Y-42925500D01*
X52066532Y-42925500D01*
X52066533Y-42925499D01*
X52197036Y-42899541D01*
X52319969Y-42848620D01*
X52430606Y-42774695D01*
X52678145Y-42527155D01*
X65575000Y-42527155D01*
X65575000Y-42750000D01*
X66250000Y-42750000D01*
X66250000Y-42075000D01*
X66027155Y-42075000D01*
X65967627Y-42081401D01*
X65967620Y-42081403D01*
X65832913Y-42131645D01*
X65832906Y-42131649D01*
X65717812Y-42217809D01*
X65717809Y-42217812D01*
X65631649Y-42332906D01*
X65631645Y-42332913D01*
X65581403Y-42467620D01*
X65581401Y-42467627D01*
X65575000Y-42527155D01*
X52678145Y-42527155D01*
X53144902Y-42060397D01*
X53191623Y-42031039D01*
X53349522Y-41975789D01*
X53502262Y-41879816D01*
X53629816Y-41752262D01*
X53725789Y-41599522D01*
X53785368Y-41429255D01*
X53788819Y-41398627D01*
X53805565Y-41250003D01*
X53805565Y-41249996D01*
X53785369Y-41070750D01*
X53785368Y-41070745D01*
X53771734Y-41031782D01*
X53725789Y-40900478D01*
X53719649Y-40890707D01*
X53667360Y-40807489D01*
X53629816Y-40747738D01*
X53502262Y-40620184D01*
X53349523Y-40524211D01*
X53179254Y-40464631D01*
X53179249Y-40464630D01*
X53000004Y-40444435D01*
X52999996Y-40444435D01*
X52820750Y-40464630D01*
X52820745Y-40464631D01*
X52650476Y-40524211D01*
X52497737Y-40620184D01*
X52370184Y-40747737D01*
X52274209Y-40900480D01*
X52218961Y-41058370D01*
X52189601Y-41105096D01*
X51756518Y-41538181D01*
X51695195Y-41571666D01*
X51668837Y-41574500D01*
X45331163Y-41574500D01*
X45264124Y-41554815D01*
X45243482Y-41538181D01*
X45211819Y-41506518D01*
X45178334Y-41445195D01*
X45175500Y-41418837D01*
X45175500Y-40919552D01*
X45195185Y-40852513D01*
X45211819Y-40831871D01*
X45263569Y-40780121D01*
X45320340Y-40723350D01*
X45410908Y-40576516D01*
X45465174Y-40412753D01*
X45475500Y-40311677D01*
X45475499Y-39638324D01*
X45467411Y-39559151D01*
X45465174Y-39537247D01*
X45450179Y-39491995D01*
X45410908Y-39373484D01*
X45320340Y-39226650D01*
X45281016Y-39187326D01*
X45247532Y-39126004D01*
X45252516Y-39056312D01*
X45281018Y-39011964D01*
X45319945Y-38973037D01*
X45319947Y-38973034D01*
X45410448Y-38826311D01*
X45410453Y-38826300D01*
X45464680Y-38662652D01*
X45474999Y-38561654D01*
X45475000Y-38561641D01*
X45475000Y-38475000D01*
X43525001Y-38475000D01*
X43525001Y-38561654D01*
X43535319Y-38662652D01*
X43589546Y-38826300D01*
X43589551Y-38826311D01*
X43680052Y-38973034D01*
X43680055Y-38973038D01*
X43718982Y-39011965D01*
X43752467Y-39073288D01*
X43747483Y-39142980D01*
X43718983Y-39187326D01*
X43679661Y-39226648D01*
X43589093Y-39373481D01*
X43589091Y-39373486D01*
X43562862Y-39452641D01*
X43534826Y-39537247D01*
X43534826Y-39537248D01*
X43534825Y-39537248D01*
X43524500Y-39638315D01*
X30408803Y-39638315D01*
X30855388Y-38953285D01*
X30858695Y-38948467D01*
X31623834Y-37888345D01*
X43525000Y-37888345D01*
X43525000Y-37975000D01*
X44250000Y-37975000D01*
X44750000Y-37975000D01*
X45474999Y-37975000D01*
X45474999Y-37888360D01*
X45474998Y-37888345D01*
X45464680Y-37787347D01*
X45410453Y-37623699D01*
X45410448Y-37623688D01*
X45319947Y-37476965D01*
X45319944Y-37476961D01*
X45198038Y-37355055D01*
X45198034Y-37355052D01*
X45051311Y-37264551D01*
X45051300Y-37264546D01*
X44887652Y-37210319D01*
X44786654Y-37200000D01*
X44750000Y-37200000D01*
X44750000Y-37975000D01*
X44250000Y-37975000D01*
X44250000Y-37200000D01*
X44213361Y-37200000D01*
X44213343Y-37200001D01*
X44112347Y-37210319D01*
X43948699Y-37264546D01*
X43948688Y-37264551D01*
X43801965Y-37355052D01*
X43801961Y-37355055D01*
X43680055Y-37476961D01*
X43680052Y-37476965D01*
X43589551Y-37623688D01*
X43589546Y-37623699D01*
X43535319Y-37787347D01*
X43525000Y-37888345D01*
X31623834Y-37888345D01*
X31708720Y-37770733D01*
X31712336Y-37765972D01*
X32600552Y-36653860D01*
X32604535Y-36649122D01*
X33528393Y-35604587D01*
X33532754Y-35599906D01*
X34489799Y-34624780D01*
X34494543Y-34620199D01*
X35482244Y-33716400D01*
X35487436Y-33711908D01*
X36503250Y-32881349D01*
X36508924Y-32876978D01*
X36524463Y-32865706D01*
X37550350Y-32121525D01*
X37556498Y-32117342D01*
X38621055Y-31438845D01*
X38627681Y-31434908D01*
X39712879Y-30835226D01*
X39720016Y-30831580D01*
X40823335Y-30312580D01*
X40831026Y-30309276D01*
X41949951Y-29872815D01*
X41958167Y-29869939D01*
X43090260Y-29517838D01*
X43098962Y-29515476D01*
X44241800Y-29249563D01*
X44250922Y-29247799D01*
X45404494Y-29069541D01*
X45409134Y-29068916D01*
X46013681Y-28999200D01*
X46027807Y-28998385D01*
X47077163Y-28997870D01*
X47077751Y-28997871D01*
G37*
%TD.AperFunction*%
%TD*%
M02*
